<?xml version="1.0" standalone="no"?>
<!DOCTYPE svg PUBLIC "-//W3C//DTD SVG 20010904//EN"
 "http://www.w3.org/TR/2001/REC-SVG-20010904/DTD/svg10.dtd">
<svg version="1.0" xmlns="http://www.w3.org/2000/svg"
 width="106.000000pt" height="98.000000pt" viewBox="0 0 106.000000 98.000000"
 preserveAspectRatio="xMidYMid meet">

<g transform="translate(0.000000,98.000000) scale(0.100000,-0.100000)"
fill="#000000" stroke="none">
<path d="M460 870 c-8 -5 -39 -17 -68 -25 -94 -28 -189 -136 -223 -252 -24
-84 -24 -102 0 -196 47 -190 226 -319 401 -289 l55 10 -74 1 c-126 2 -192 30
-279 120 -35 36 -65 77 -68 91 -3 14 -10 35 -15 48 -15 39 -10 182 9 240 18
55 114 172 140 172 8 0 25 9 39 20 44 34 125 52 199 45 36 -4 71 -13 78 -21 8
-7 25 -16 38 -19 14 -4 50 -26 82 -51 44 -35 63 -59 86 -108 16 -35 34 -67 39
-71 6 -3 11 -46 12 -98 1 -61 4 -84 9 -67 11 35 12 147 1 168 -5 9 -16 35 -26
57 -45 107 -125 184 -222 216 -60 20 -187 26 -213 9z"/>
<path d="M480 780 c-8 -5 -26 -10 -41 -10 -15 0 -41 -14 -63 -35 -21 -19 -46
-37 -57 -40 -10 -4 -19 -13 -19 -22 0 -8 -6 -27 -14 -41 -70 -132 -71 -151
-11 -276 37 -78 50 -96 79 -110 19 -9 38 -21 41 -26 3 -6 16 -10 29 -10 12 0
31 -7 42 -15 36 -27 162 -10 213 29 8 6 24 16 37 21 27 12 96 98 111 140 35
94 18 193 -49 280 -24 30 -48 55 -55 55 -7 0 -21 9 -31 21 -34 36 -176 62
-212 39z"/>
<path d="M880 354 c-5 -16 -18 -42 -27 -59 -22 -41 -133 -145 -154 -145 -25 0
-49 -11 -49 -21 0 -32 122 33 174 93 40 46 85 142 72 155 -3 3 -10 -7 -16 -23z"/>
</g>
</svg>
