<svg version="1.1" id="Layer_1" xmlns="http://www.w3.org/2000/svg" xmlns:xlink="http://www.w3.org/1999/xlink" x="0px" y="0px"
	 width="100%" viewBox="0 0 298 298" enable-background="new 0 0 298 298" xml:space="preserve">
<path fill="#000000" opacity="1.000000" stroke="none" 
	d="
M204.000000,299.000000 
	C136.000015,299.000000 68.500023,299.000000 1.000027,299.000000 
	C1.000018,199.666702 1.000018,100.333389 1.000009,1.000067 
	C100.333282,1.000045 199.666565,1.000045 298.999878,1.000022 
	C298.999939,100.333275 298.999939,199.666550 298.999969,298.999908 
	C267.500000,299.000000 236.000000,299.000000 204.000000,299.000000 
M178.091400,154.007919 
	C175.300156,154.006439 172.502823,153.907562 169.722519,154.081116 
	C169.126740,154.118317 168.592590,155.142334 168.030045,155.711761 
	C168.572525,156.138184 169.107132,156.919922 169.658798,156.932175 
	C172.771347,157.001190 175.888000,156.885452 179.905899,156.986099 
	C183.254807,157.035065 186.603729,157.084030 189.953888,157.544601 
	C189.953888,157.544601 189.874146,157.948410 189.282974,158.186539 
	C188.911606,159.122772 188.540222,160.059006 188.026382,161.499527 
	C188.073166,161.667816 188.119949,161.836121 188.001495,162.820831 
	C186.574142,163.543472 185.174530,164.815674 183.714447,164.889328 
	C178.620911,165.146301 173.506454,164.988770 167.997498,164.988770 
	C167.997498,173.644485 168.163528,181.909531 167.900574,190.160904 
	C167.817154,192.778854 166.590225,195.360367 165.226227,198.222412 
	C163.501175,201.587341 161.776108,204.952286 159.836349,208.736023 
	C159.836349,204.917435 159.836349,201.460312 159.991562,197.076721 
	C159.994797,187.927475 160.059021,178.777451 159.944275,169.629684 
	C159.923965,168.010971 159.157501,166.401611 158.735596,164.787933 
	C157.877655,164.889175 157.019699,164.990402 156.161758,165.091644 
	C156.161758,175.728699 156.161758,186.365753 156.010284,197.928894 
	C155.627716,213.490906 155.245148,229.052917 154.874603,244.125824 
	C151.259277,242.111526 147.868759,240.222473 144.829010,237.745529 
	C145.843246,235.752014 145.961258,234.173340 144.031998,232.325394 
	C142.558319,230.913803 141.996780,228.562622 140.980728,226.655380 
	C140.445999,225.651611 139.806732,224.703552 139.214661,223.730331 
	C138.544113,223.910889 137.873581,224.091461 137.203033,224.272018 
	C137.630005,227.844009 137.470520,231.642639 138.727066,234.894028 
	C139.372177,236.563324 142.545013,237.255783 143.690628,238.048309 
	C135.955093,236.771988 127.200005,242.522659 125.052696,249.564377 
	C127.241211,248.489929 129.111786,247.975220 130.461670,246.840897 
	C137.336243,241.064087 145.759491,244.657410 150.819199,251.029755 
	C152.756271,253.469345 154.358475,257.689484 153.633896,260.446655 
	C151.371292,269.056274 140.680832,270.872406 134.630096,264.164185 
	C132.294739,261.575043 132.280533,256.678558 134.868561,255.085297 
	C138.075073,253.111237 141.033615,253.350830 143.422989,257.609161 
	C141.986221,258.770691 140.553680,259.854919 139.217407,261.047058 
	C138.713531,261.496643 138.057434,262.270386 138.154648,262.760773 
	C138.253418,263.258850 139.150040,263.839142 139.775711,263.953217 
	C143.700134,264.668762 148.639633,258.857117 147.474091,254.976364 
	C146.049149,250.231964 139.969604,247.761948 134.871063,249.596924 
	C129.552246,251.511169 126.919334,255.562958 125.638672,260.864349 
	C121.740524,257.425140 118.285507,254.045593 114.490746,251.104370 
	C108.370392,246.360657 101.614021,247.185669 95.837990,253.662582 
	C93.875107,256.177307 91.912231,258.692017 89.288162,260.546509 
	C91.085762,257.583435 92.168106,254.327072 89.645752,251.487946 
	C86.742241,248.219772 82.315300,248.059097 78.739891,249.302887 
	C74.359192,250.826828 71.757690,254.511703 72.829384,258.907745 
	C69.229973,260.766541 66.236076,262.758820 62.943939,263.857178 
	C60.718452,264.599701 58.033497,264.368805 55.628429,264.035919 
	C53.847195,263.789429 52.185658,262.678070 49.386059,261.492676 
	C50.151798,264.196198 50.818974,265.933990 51.068756,267.729828 
	C51.172382,268.474915 50.383827,269.344055 49.074654,270.003845 
	C37.218651,270.334564 25.361319,270.629303 13.509233,271.066345 
	C12.590075,271.100281 11.707743,272.132812 10.808294,272.701172 
	C11.024761,273.082611 11.241227,273.464050 11.457694,273.845490 
	C24.027908,273.845490 36.598122,273.845490 50.074543,273.995331 
	C78.994865,273.994690 107.922203,273.639893 136.831177,274.212189 
	C145.345963,274.380737 151.701553,272.505768 156.966187,265.760986 
	C158.909348,263.271515 160.203583,261.161346 160.062195,257.963562 
	C159.842773,253.000214 160.004257,248.020020 160.004257,243.046967 
	C160.417801,243.019409 160.831345,242.991867 161.244888,242.964325 
	C162.148239,245.013290 163.051590,247.062241 164.004364,249.851425 
	C167.548996,254.615356 168.756363,259.962280 167.994385,265.804840 
	C167.706024,268.015747 167.210983,270.235840 167.274734,272.438293 
	C167.299194,273.283478 168.625381,274.806213 169.347183,274.799530 
	C173.914017,274.757507 178.477707,274.372955 183.831924,274.015594 
	C187.443832,275.647919 190.960571,277.549591 194.684357,278.865234 
	C209.659149,284.155914 224.772873,286.145172 239.392868,278.081757 
	C246.750992,274.023499 254.451218,273.942322 262.354614,273.991211 
	C267.324463,274.021973 272.294647,273.996948 277.010406,273.996948 
	C277.010406,268.956207 276.803040,263.727081 277.137329,258.532806 
	C277.237000,256.984192 278.574066,254.559326 279.823395,254.199417 
	C286.702515,252.217667 290.597260,247.432465 293.257874,241.252640 
	C296.874573,232.852020 293.461884,222.338379 285.709290,218.211563 
	C282.818512,217.442078 279.927734,216.672607 276.988098,215.264801 
	C276.934387,214.843689 276.880707,214.422562 276.978973,213.501205 
	C276.930969,213.333694 276.882996,213.166168 276.985229,212.072174 
	C276.985229,196.440475 276.985229,180.808777 276.985229,164.990250 
	C261.477844,164.990250 245.700119,165.039398 229.923981,164.904037 
	C228.549438,164.892242 227.185303,163.666275 225.970261,162.390106 
	C225.678772,161.913177 225.387283,161.436249 225.250229,160.182327 
	C224.860291,159.130737 224.470352,158.079163 225.007278,156.999557 
	C237.502487,156.998642 249.997849,157.035507 262.492828,156.980286 
	C268.401489,156.954147 277.095673,147.787628 276.990936,141.083588 
	C276.938751,125.723434 276.886597,110.363281 276.990173,94.340225 
	C276.938141,93.892456 276.886078,93.444687 276.983032,92.333748 
	C276.930023,91.886665 276.876984,91.439590 276.978882,90.068680 
	C276.931427,84.386177 276.883972,78.703674 276.989746,72.093704 
	C276.936707,66.397644 276.883667,60.701584 276.993988,54.080128 
	C276.941437,47.052376 276.888855,40.024624 276.987610,32.075783 
	C276.936829,27.385128 276.886047,22.694475 276.992035,17.213564 
	C276.992035,14.490364 276.992035,11.767165 276.992035,7.976357 
	C272.628571,11.272500 274.372742,14.882076 274.020813,18.924986 
	C274.077942,23.615463 274.135071,28.305941 273.877441,33.680267 
	C273.454590,38.950745 273.031738,44.221222 272.638397,49.123577 
	C270.318939,48.311867 267.890259,47.461926 265.461548,46.611988 
	C265.136932,47.020554 264.812286,47.429115 264.487671,47.837681 
	C265.618195,49.571896 266.748718,51.306114 267.990204,53.778492 
	C268.286652,55.171612 268.583099,56.564732 268.221069,58.246918 
	C266.494507,61.944279 264.767914,65.641640 262.737610,69.989410 
	C263.009521,69.989410 262.373352,69.919548 261.756805,70.000015 
	C253.996002,71.012901 251.543335,73.759544 252.026932,81.855690 
	C252.331741,86.958817 255.147339,88.364113 262.858063,87.632301 
	C262.960876,87.622536 263.086670,87.855103 262.892029,88.616203 
	C260.230286,90.730141 257.568542,92.844070 254.243729,95.268524 
	C250.528381,100.223274 249.764038,105.679672 253.416931,110.668449 
	C256.735687,115.200859 261.065674,118.992805 264.651459,123.821869 
	C258.578278,123.693802 255.236557,127.201431 252.870270,132.334579 
	C250.954590,136.490280 252.009644,139.725952 254.971207,142.878357 
	C257.504639,145.575012 261.160583,145.825470 264.281982,143.164474 
	C267.290710,140.599548 267.988617,137.181030 265.821167,134.979919 
	C265.061523,135.966812 264.499329,137.326096 263.500397,137.845459 
	C262.052216,138.598434 260.288391,138.744400 258.659210,139.149292 
	C258.189789,137.214325 256.735809,134.714844 257.454651,133.461227 
	C258.978546,130.803513 261.730255,128.722885 265.187286,130.742661 
	C267.255737,131.951141 269.041534,133.643448 270.995575,135.750809 
	C271.055542,136.166107 271.115509,136.581406 271.075623,137.530899 
	C271.371155,137.720322 271.666687,137.909744 272.016083,138.565353 
	C272.016083,138.565353 272.174530,139.007080 272.031403,139.495728 
	C272.079041,139.658630 272.126709,139.821533 272.018677,140.609390 
	C271.999207,141.038223 271.979767,141.467041 271.426025,142.071152 
	C271.604309,142.415207 271.782593,142.759262 271.981110,143.536224 
	C271.981110,143.536224 271.896423,143.961258 271.255432,144.207718 
	C263.024078,152.263931 262.515564,152.403671 255.120377,148.641663 
	C247.894043,144.965576 245.077896,135.211761 249.252151,128.342712 
	C250.235611,126.724358 251.189453,125.088020 252.745880,122.468819 
	C243.821381,126.368790 240.237747,133.011093 240.647278,141.028778 
	C239.129456,135.053101 235.109131,132.878708 229.415604,135.039352 
	C228.842133,135.256989 228.097061,136.010284 228.106354,136.502228 
	C228.115952,137.009811 228.865128,137.655151 229.438782,137.972977 
	C231.481400,139.104706 233.961563,139.731842 235.576859,141.279709 
	C237.741516,143.353973 239.378082,143.449646 241.953278,141.770432 
	C243.542557,145.230392 245.131836,148.690338 246.729584,152.168716 
	C238.450989,152.168716 229.457001,152.168716 220.463028,152.168716 
	C233.759521,150.115601 236.391159,148.817276 235.226898,144.063721 
	C228.507034,146.706039 222.418457,146.969986 216.178619,141.931000 
	C209.328461,136.399124 200.476013,139.118240 196.206085,147.317642 
	C196.205124,151.227661 194.572266,153.355453 190.338348,153.055115 
	C189.215866,152.975510 188.040878,153.636337 186.015869,153.997345 
	C183.678116,154.052902 181.340378,154.108459 178.091400,154.007919 
M148.620483,225.897034 
	C148.888657,228.239502 144.825668,231.040329 149.227081,233.104706 
	C154.400589,226.573837 154.957214,217.600235 150.651505,212.188187 
	C146.643707,207.150558 146.862076,202.214355 151.145203,197.298035 
	C152.060562,196.247345 152.549576,194.825241 153.808258,192.527908 
	C147.275528,193.869522 144.342148,197.312256 142.670975,201.895432 
	C141.275467,205.722641 141.332504,209.546509 144.315399,212.843658 
	C147.461578,216.321320 149.869003,220.099747 148.620483,225.897034 
M258.825073,58.280853 
	C257.250763,58.181416 255.676453,58.081974 253.095825,57.918976 
	C255.407166,61.454224 257.180359,64.166374 259.506195,67.723793 
	C260.732269,66.165718 262.780579,64.684898 262.627716,63.484333 
	C262.417786,61.835461 260.540253,60.398911 258.825073,58.280853 
M67.379860,258.958374 
	C68.278061,258.379791 69.176262,257.801239 70.413910,257.003998 
	C67.291763,254.837204 64.481819,252.887085 61.671867,250.936966 
	C61.229435,251.097519 60.787003,251.258057 60.344570,251.418594 
	C60.909058,253.728622 61.107594,256.240326 62.215515,258.250885 
	C62.667927,259.071930 65.090149,258.807465 67.379860,258.958374 
z"/>
<path fill="#F4FBF4" opacity="1.000000" stroke="none" 
	d="
M144.478241,238.333420 
	C147.868759,240.222473 151.259277,242.111526 154.874603,244.125824 
	C155.245148,229.052917 155.627716,213.490906 156.404358,197.500641 
	C157.811081,197.382629 158.823715,197.692902 159.836349,198.003174 
	C159.836349,201.460312 159.836349,204.917435 159.836349,208.736023 
	C161.776108,204.952286 163.501175,201.587341 166.051788,198.105759 
	C168.176956,198.183823 169.476562,198.378540 170.540436,198.853470 
	C169.002502,202.336349 167.700287,205.539001 166.339767,208.885040 
	C169.214249,208.511414 171.585068,208.203247 174.111328,208.133942 
	C176.928574,208.778397 179.190506,209.429779 176.607849,212.900757 
	C171.648285,214.315384 167.057465,215.577332 162.530151,217.036362 
	C161.573257,217.344742 160.848755,218.374268 160.017166,219.071503 
	C166.038193,218.721329 171.457260,217.704239 176.598938,215.897720 
	C181.521393,214.168198 182.050949,215.918884 180.500488,220.004547 
	C179.448441,220.612259 178.723083,221.215012 177.635010,221.999481 
	C172.174377,223.445831 167.055328,224.634888 161.999329,226.049301 
	C161.153305,226.285980 160.580872,227.500565 159.882019,228.263260 
	C160.227448,228.521851 160.572891,228.780426 160.918320,229.039001 
	C165.598297,227.983795 170.278275,226.928574 175.149902,226.166931 
	C175.893997,227.912567 176.446457,229.364639 176.782196,230.900955 
	C176.565475,230.985199 176.103500,231.038406 175.652222,231.027054 
	C170.147476,231.103027 164.926758,230.569046 160.644211,235.022507 
	C159.507751,237.877502 160.258347,238.378586 162.950394,237.581604 
	C168.576309,235.916046 174.309830,234.613922 179.962433,233.477402 
	C179.283707,235.809021 178.641693,237.825775 177.784897,239.919128 
	C177.570129,239.995758 177.116440,240.042053 176.892914,240.110077 
	C176.379791,240.321747 176.160385,240.536942 175.619263,240.904083 
	C174.162094,241.017258 173.096786,241.050034 171.877136,240.851013 
	C171.147934,241.018875 170.573059,241.418518 169.630646,241.897400 
	C165.025116,242.204636 169.423767,244.892670 167.784912,245.997955 
	C166.279022,247.061722 165.116989,248.086472 163.954956,249.111206 
	C163.051590,247.062241 162.148239,245.013290 161.244888,242.964325 
	C160.831345,242.991867 160.417801,243.019409 160.004257,243.046967 
	C160.004257,248.020020 159.842773,253.000214 160.062195,257.963562 
	C160.203583,261.161346 158.909348,263.271515 156.966187,265.760986 
	C151.701553,272.505768 145.345963,274.380737 136.831177,274.212189 
	C107.922203,273.639893 78.994865,273.994690 49.855099,273.500214 
	C49.757435,272.055664 49.879215,271.106232 50.000999,270.156799 
	C50.383827,269.344055 51.172382,268.474915 51.068756,267.729828 
	C50.818974,265.933990 50.151798,264.196198 49.386059,261.492676 
	C52.185658,262.678070 53.847195,263.789429 55.628429,264.035919 
	C58.033497,264.368805 60.718452,264.599701 62.943939,263.857178 
	C66.236076,262.758820 69.229973,260.766541 72.829384,258.907745 
	C71.757690,254.511703 74.359192,250.826828 78.739891,249.302887 
	C82.315300,248.059097 86.742241,248.219772 89.645752,251.487946 
	C92.168106,254.327072 91.085762,257.583435 89.660522,260.820770 
	C90.032875,261.095032 90.072632,260.960999 89.730240,260.633545 
	C88.374115,260.535797 87.360367,260.765503 85.998199,261.074188 
	C85.998199,259.588135 86.235420,258.540253 85.944733,257.668427 
	C85.462624,256.222473 84.900337,254.592590 83.831268,253.659592 
	C83.419289,253.300049 81.436829,254.491684 80.331177,255.221024 
	C76.726830,257.598755 78.797348,260.967316 79.081314,263.916138 
	C79.424232,267.477112 82.408394,268.569122 85.269737,268.892487 
	C88.781265,269.289307 92.371780,268.987091 95.032257,268.987091 
	C96.160957,265.446167 97.023399,262.740509 98.173355,259.908142 
	C98.986900,259.152069 99.512939,258.522644 100.416420,257.809937 
	C102.492516,257.501373 104.191162,257.276154 105.965408,257.040924 
	C103.652847,261.320770 101.712440,264.911896 99.709969,268.617859 
	C106.946678,268.617859 113.427856,268.617859 119.909042,268.617859 
	C120.178009,268.187134 120.446968,267.756409 120.715927,267.325653 
	C117.086403,264.004364 113.505707,260.627502 109.811691,257.379547 
	C106.921234,254.838089 103.580879,254.731155 99.827087,255.833313 
	C98.419937,254.751495 97.286552,253.874924 96.153168,252.998352 
	C101.614021,247.185669 108.370392,246.360657 114.490746,251.104370 
	C118.285507,254.045593 121.740524,257.425140 125.638672,260.864349 
	C126.919334,255.562958 129.552246,251.511169 134.871063,249.596924 
	C139.969604,247.761948 146.049149,250.231964 147.474091,254.976364 
	C148.639633,258.857117 143.700134,264.668762 139.775711,263.953217 
	C139.150040,263.839142 138.253418,263.258850 138.154648,262.760773 
	C138.057434,262.270386 138.713531,261.496643 139.217407,261.047058 
	C140.553680,259.854919 141.986221,258.770691 143.422989,257.609161 
	C141.033615,253.350830 138.075073,253.111237 134.868561,255.085297 
	C132.280533,256.678558 132.294739,261.575043 134.630096,264.164185 
	C140.680832,270.872406 151.371292,269.056274 153.633896,260.446655 
	C154.358475,257.689484 152.756271,253.469345 150.819199,251.029755 
	C145.759491,244.657410 137.336243,241.064087 130.461670,246.840897 
	C129.111786,247.975220 127.241211,248.489929 125.052696,249.564377 
	C127.200005,242.522659 135.955093,236.771988 144.114044,238.195801 
	C144.537445,238.343277 144.478241,238.333420 144.478241,238.333420 
M167.483871,239.580246 
	C167.483871,239.580246 167.424591,239.477875 167.483871,239.580246 
M171.516022,229.420090 
	C171.516022,229.420090 171.575119,229.522324 171.516022,229.420090 
z"/>
<path fill="#F4FBF5" opacity="1.000000" stroke="none" 
	d="
M286.035248,218.896973 
	C293.461884,222.338379 296.874573,232.852020 293.257874,241.252640 
	C290.597260,247.432465 286.702515,252.217667 279.823395,254.199417 
	C278.574066,254.559326 277.237000,256.984192 277.137329,258.532806 
	C276.803040,263.727081 277.010406,268.956207 277.010406,273.996948 
	C272.294647,273.996948 267.324463,274.021973 262.354614,273.991211 
	C254.451218,273.942322 246.750992,274.023499 239.392868,278.081757 
	C224.772873,286.145172 209.659149,284.155914 194.684357,278.865234 
	C190.960571,277.549591 187.443832,275.647919 183.203522,273.731628 
	C179.962479,269.191071 180.314117,268.559357 186.086548,267.712097 
	C187.361038,268.268982 188.496902,268.517426 189.433884,269.090820 
	C200.341629,275.766022 211.743362,279.262695 224.862381,277.139130 
	C238.878799,274.870270 249.700684,268.158783 258.019379,257.227448 
	C259.086823,258.067566 260.089417,258.548370 261.046265,259.385925 
	C258.583588,262.797974 256.166565,265.853302 253.871582,268.754395 
	C259.617737,268.754395 265.666443,268.754395 271.952911,268.754395 
	C271.952911,257.705078 271.952911,246.915649 271.966187,235.729980 
	C271.986877,234.276566 271.994324,233.219406 272.408722,232.086411 
	C278.491852,230.799255 280.507202,235.396271 281.719788,238.967422 
	C282.787628,242.112122 281.503265,246.055496 281.282318,249.285751 
	C285.958374,247.151108 289.564850,242.802017 289.865509,236.708496 
	C290.172058,230.495300 288.250427,224.863663 282.181458,221.548920 
	C283.584412,220.483063 284.809845,219.690018 286.035248,218.896973 
z"/>
<path fill="#F3FBF3" opacity="1.000000" stroke="none" 
	d="
M241.428223,141.521286 
	C240.237747,133.011093 243.821381,126.368790 252.745880,122.468819 
	C251.189453,125.088020 250.235611,126.724358 249.252151,128.342712 
	C245.077896,135.211761 247.894043,144.965576 255.120377,148.641663 
	C262.515564,152.403671 263.024078,152.263931 271.941284,144.094025 
	C274.028961,143.323685 275.430817,142.667023 276.832672,142.010376 
	C277.095673,147.787628 268.401489,156.954147 262.492828,156.980286 
	C249.997849,157.035507 237.502487,156.998642 224.146942,157.000244 
	C221.481873,156.681122 219.677124,156.361313 217.551636,155.913239 
	C215.483978,154.793793 213.737076,153.802567 211.853271,152.624847 
	C211.486832,152.214828 211.213303,152.081650 210.557617,152.021912 
	C209.322876,151.940506 208.426300,151.875992 207.665680,151.410767 
	C208.201920,149.673965 208.602173,148.337891 209.136398,146.948181 
	C209.179657,146.928879 209.088959,146.963211 208.727661,146.902832 
	C206.317932,147.901642 203.024323,147.969101 203.630676,151.908997 
	C201.879318,152.341141 200.493393,152.691742 198.795929,152.991684 
	C199.197235,151.623032 199.910095,150.305038 200.948166,148.385727 
	C199.995071,148.052094 198.442169,147.508484 196.889252,146.964859 
	C200.476013,139.118240 209.328461,136.399124 216.178619,141.931000 
	C222.418457,146.969986 228.507034,146.706039 235.226929,144.063446 
	C236.391159,148.817276 233.759521,150.115601 220.463028,152.168716 
	C229.457001,152.168716 238.450989,152.168716 246.729584,152.168716 
	C245.131836,148.690338 243.542557,145.230392 241.671646,141.628632 
	C241.390015,141.486847 241.428223,141.521286 241.428223,141.521286 
z"/>
<path fill="#F6FCF6" opacity="1.000000" stroke="none" 
	d="
M217.872375,156.041489 
	C219.677124,156.361313 221.481873,156.681122 223.683517,157.014252 
	C224.470352,158.079163 224.860291,159.130737 224.939392,160.724945 
	C225.024475,161.846466 225.420410,162.425369 225.816330,163.004288 
	C227.185303,163.666275 228.549438,164.892242 229.923981,164.904037 
	C245.700119,165.039398 261.477844,164.990250 276.985229,164.990250 
	C276.985229,180.808777 276.985229,196.440475 276.679626,212.554962 
	C276.135071,213.191422 275.896118,213.345123 275.657166,213.498810 
	C276.047119,213.666367 276.437042,213.833908 276.826996,214.001465 
	C276.880707,214.422562 276.934387,214.843689 276.997375,215.857056 
	C277.000488,216.631531 276.994324,216.813751 276.741455,216.997238 
	C276.494690,216.998505 276.001221,217.000000 275.590179,216.999954 
	C274.083160,216.986923 272.987152,216.973938 271.943024,216.558472 
	C271.384338,209.899002 268.142334,205.050491 264.091187,200.454865 
	C261.793640,197.848526 259.344360,194.814804 258.618652,191.599915 
	C258.200714,189.748505 261.083679,187.151978 262.480865,184.890854 
	C264.016937,186.092117 266.487366,187.072250 266.838104,188.554077 
	C267.223663,190.183105 265.658417,192.273895 264.604950,195.056763 
	C265.019806,195.266464 267.043640,196.914230 267.684509,196.487076 
	C269.149628,195.510574 270.777924,193.550598 270.838196,191.934067 
	C270.993988,187.754410 270.130310,183.546997 270.078857,179.345688 
	C270.046204,176.680862 270.739044,174.007156 271.018585,171.976364 
	C265.330383,171.976364 260.134583,171.963974 254.938843,171.981155 
	C251.970703,171.990967 249.002731,172.048935 245.884644,171.783051 
	C244.171005,171.758347 242.607407,172.035812 240.622787,172.388000 
	C240.271622,171.653427 239.703476,170.464966 238.741135,168.451950 
	C237.543945,170.458511 236.753403,171.783524 235.643936,173.058609 
	C234.845261,172.687607 234.365494,172.366516 234.138123,171.825516 
	C232.573044,171.078186 230.755585,170.550797 228.547943,170.004181 
	C227.118164,170.025299 226.078583,170.065643 225.022888,169.738434 
	C224.061203,168.579056 223.115662,167.787262 222.087997,166.609344 
	C220.628052,162.829315 219.250214,159.435410 217.872375,156.041489 
M231.419434,167.484528 
	C231.419434,167.484528 231.521622,167.425491 231.419434,167.484528 
z"/>
<path fill="#F5FCF6" opacity="1.000000" stroke="none" 
	d="
M170.776169,198.573257 
	C169.476562,198.378540 168.176956,198.183823 166.381973,197.973831 
	C166.590225,195.360367 167.817154,192.778854 167.900574,190.160904 
	C168.163528,181.909531 167.997498,173.644485 167.997498,164.988770 
	C173.506454,164.988770 178.620911,165.146301 183.714447,164.889328 
	C185.174530,164.815674 186.574142,163.543472 188.406830,162.450165 
	C190.248901,161.703812 191.685623,161.328125 193.494614,160.967834 
	C194.873215,160.525330 195.870544,160.046280 196.887421,159.613113 
	C201.706009,157.560516 207.187714,159.745071 208.986969,164.423828 
	C211.246201,170.298767 209.164658,173.945328 203.259750,176.393570 
	C195.374939,179.662704 187.741898,183.539154 179.964691,186.821350 
	C179.270142,185.621414 178.611633,184.754898 178.097321,183.564758 
	C187.040939,179.002274 195.840363,174.763412 205.164505,170.271805 
	C194.015106,170.271805 183.628357,170.271805 173.047180,170.271805 
	C173.047180,176.317932 173.047180,182.096298 173.033279,188.277863 
	C172.482712,190.155304 171.781021,191.593903 171.452972,193.113190 
	C171.078735,194.846359 171.037369,196.651398 170.841400,198.466721 
	C170.831451,198.508224 170.776169,198.573257 170.776169,198.573257 
z"/>
<path fill="#F7FCF6" opacity="1.000000" stroke="none" 
	d="
M276.911804,141.546982 
	C275.430817,142.667023 274.028961,143.323685 272.261780,143.970795 
	C271.896423,143.961258 271.981110,143.536224 271.985016,143.017853 
	C271.979370,142.298279 271.969849,142.097076 271.960327,141.895874 
	C271.979767,141.467041 271.999207,141.038223 272.236572,140.203308 
	C272.361115,139.533844 272.267822,139.270462 272.174530,139.007080 
	C272.174530,139.007080 272.016083,138.565353 272.006348,138.059387 
	C272.000885,137.371323 272.005096,137.189224 272.141754,136.951233 
	C272.180389,136.927170 272.086639,136.959000 271.788513,136.994019 
	C271.584198,136.997238 271.175476,136.996704 271.175476,136.996704 
	C271.115509,136.581406 271.055542,136.166107 270.987244,135.023468 
	C270.559967,132.787170 270.199738,131.258789 269.709045,129.773529 
	C268.848541,127.168793 267.908142,124.590469 267.133484,121.947189 
	C267.176727,121.928375 267.087769,121.963463 266.689453,122.028107 
	C265.903381,122.408836 265.426605,122.760010 264.949860,123.111176 
	C261.065674,118.992805 256.735687,115.200859 253.416931,110.668449 
	C249.764038,105.679672 250.528381,100.223274 254.882111,95.247299 
	C256.715179,95.830093 257.909851,96.434105 259.048309,97.412758 
	C258.596680,99.192520 258.201294,100.597649 257.666199,102.100037 
	C257.624207,102.463928 257.721863,102.730553 257.899414,103.214783 
	C257.979248,103.432373 258.043243,103.891502 258.106445,104.118027 
	C258.324493,104.629379 258.546021,104.845985 258.971558,105.316452 
	C263.226959,110.033424 267.345093,114.428291 271.911346,119.301414 
	C272.396729,116.151756 272.636139,114.598091 273.189026,112.759705 
	C273.671173,106.648880 273.839844,100.822762 274.362793,94.997925 
	C275.422821,95.000511 276.128632,95.001816 276.834412,95.003128 
	C276.886597,110.363281 276.938751,125.723434 276.911804,141.546982 
z"/>
<path fill="#EFFAF0" opacity="1.000000" stroke="none" 
	d="
M271.891174,216.960968 
	C272.987152,216.973938 274.083160,216.986923 275.445740,217.230026 
	C275.549011,217.924637 275.385712,218.389114 275.222412,218.853577 
	C275.811005,218.234375 276.399597,217.615173 276.988190,216.995972 
	C276.994324,216.813751 277.000488,216.631531 277.021790,216.176208 
	C279.927734,216.672607 282.818512,217.442078 285.872253,218.554260 
	C284.809845,219.690018 283.584412,220.483063 281.795685,221.501770 
	C274.039764,217.892471 269.868958,220.478760 268.764496,227.917099 
	C250.128922,209.374695 231.855484,191.192596 213.853470,173.280563 
	C216.620575,171.655579 218.895050,170.319885 221.358093,168.847794 
	C221.763092,168.476349 221.900650,168.201767 221.987000,167.658707 
	C222.014679,167.429733 222.170105,166.995453 222.170105,166.995453 
	C223.115662,167.787262 224.061203,168.579056 225.005859,170.121201 
	C224.092010,172.547165 223.179062,174.222809 221.621323,177.081909 
	C236.143890,190.871750 251.590607,205.539139 266.288879,219.495850 
	C268.107361,218.673035 269.999268,217.817001 271.891174,216.960968 
z"/>
<path fill="#F1FAF3" opacity="1.000000" stroke="none" 
	d="
M185.855530,267.554565 
	C180.314117,268.559357 179.962479,269.191071 182.808777,273.774597 
	C178.477707,274.372955 173.914017,274.757507 169.347183,274.799530 
	C168.625381,274.806213 167.299194,273.283478 167.274734,272.438293 
	C167.210983,270.235840 167.706024,268.015747 167.994385,265.804840 
	C168.756363,259.962280 167.548996,254.615356 163.979645,249.481323 
	C165.116989,248.086472 166.279022,247.061722 168.107330,246.140747 
	C172.760635,254.716125 179.079727,261.318390 185.855530,267.554565 
z"/>
<path fill="#F1FAF1" opacity="1.000000" stroke="none" 
	d="
M263.201752,87.974564 
	C263.086670,87.855103 262.960876,87.622536 262.858063,87.632301 
	C255.147339,88.364113 252.331741,86.958817 252.026932,81.855690 
	C251.543335,73.759544 253.996002,71.012901 261.756805,70.000015 
	C262.373352,69.919548 263.009521,69.989410 262.737610,69.989410 
	C264.767914,65.641640 266.494507,61.944279 268.921967,58.112877 
	C271.006439,57.978840 272.390045,57.978840 274.242371,57.978840 
	C274.242371,62.884735 274.242371,67.532265 274.242371,72.866585 
	C272.437561,71.564079 271.628296,70.980034 270.175232,69.931374 
	C270.768951,72.303886 271.152649,73.837082 271.431000,74.949326 
	C268.986298,73.722977 266.689575,72.570862 264.392853,71.418747 
	C264.263092,72.890541 264.133301,74.362335 263.648376,75.904984 
	C259.035767,76.163383 255.932098,77.587318 256.099457,82.799721 
	C258.732880,82.937668 261.292969,83.071777 264.072357,83.217377 
	C263.658264,85.017860 263.307312,86.543640 263.024536,88.063278 
	C263.092651,88.057137 263.201752,87.974556 263.201752,87.974564 
z"/>
<path fill="#F0F9F2" opacity="1.000000" stroke="none" 
	d="
M267.001221,122.001083 
	C267.908142,124.590469 268.848541,127.168793 269.709045,129.773529 
	C270.199738,131.258789 270.559967,132.787170 270.966675,134.707199 
	C269.041534,133.643448 267.255737,131.951141 265.187286,130.742661 
	C261.730255,128.722885 258.978546,130.803513 257.454651,133.461227 
	C256.735809,134.714844 258.189789,137.214325 258.659210,139.149292 
	C260.288391,138.744400 262.052216,138.598434 263.500397,137.845459 
	C264.499329,137.326096 265.061523,135.966812 265.821167,134.979919 
	C267.988617,137.181030 267.290710,140.599548 264.281982,143.164474 
	C261.160583,145.825470 257.504639,145.575012 254.971207,142.878357 
	C252.009644,139.725952 250.954590,136.490280 252.870270,132.334579 
	C255.236557,127.201431 258.578278,123.693802 264.800659,123.466522 
	C265.426605,122.760010 265.903381,122.408836 266.690063,122.028831 
	C267.000000,122.000000 267.001221,122.001076 267.001221,122.001083 
z"/>
<path fill="#F1FBF2" opacity="1.000000" stroke="none" 
	d="
M148.792358,225.509064 
	C149.869003,220.099747 147.461578,216.321320 144.315399,212.843658 
	C141.332504,209.546509 141.275467,205.722641 142.670975,201.895432 
	C144.342148,197.312256 147.275528,193.869522 153.808258,192.527908 
	C152.549576,194.825241 152.060562,196.247345 151.145203,197.298035 
	C146.862076,202.214355 146.643707,207.150558 150.651505,212.188187 
	C154.957214,217.600235 154.400589,226.573837 149.227081,233.104706 
	C144.825668,231.040329 148.888657,228.239502 148.792358,225.509064 
z"/>
<path fill="#F7FCF6" opacity="1.000000" stroke="none" 
	d="
M264.003510,75.834129 
	C264.133301,74.362335 264.263092,72.890541 264.392853,71.418747 
	C266.689575,72.570862 268.986298,73.722977 271.431000,74.949326 
	C271.152649,73.837082 270.768951,72.303886 270.175232,69.931374 
	C271.628296,70.980034 272.437561,71.564079 274.242371,72.866585 
	C274.242371,67.532265 274.242371,62.884735 274.242371,57.978840 
	C272.390045,57.978840 271.006439,57.978840 269.251221,57.968346 
	C268.583099,56.564732 268.286652,55.171612 268.300842,53.363739 
	C272.203003,50.230114 274.019958,54.603546 276.830627,55.005524 
	C276.883667,60.701584 276.936707,66.397644 276.657593,72.880165 
	C276.491638,79.441917 276.657806,85.217216 276.823975,90.992508 
	C276.876984,91.439590 276.930023,91.886665 276.557068,92.666656 
	C275.423981,93.000832 274.716888,93.002090 274.003906,92.657616 
	C273.636536,91.532005 273.275024,90.752136 272.969330,89.541077 
	C272.990997,87.082619 272.956879,85.055359 273.156677,82.875153 
	C272.983795,82.145576 272.576996,81.568939 272.020264,80.659828 
	C269.948517,77.603233 267.727631,75.402748 264.003510,75.834129 
z"/>
<path fill="#F0FDF0" opacity="1.000000" stroke="none" 
	d="
M49.537827,270.080322 
	C49.879215,271.106232 49.757435,272.055664 49.401993,273.425293 
	C36.598122,273.845490 24.027908,273.845490 11.457694,273.845490 
	C11.241227,273.464050 11.024761,273.082611 10.808294,272.701172 
	C11.707743,272.132812 12.590075,271.100281 13.509233,271.066345 
	C25.361319,270.629303 37.218651,270.334564 49.537827,270.080322 
z"/>
<path fill="#EFFEEF" opacity="1.000000" stroke="none" 
	d="
M159.913956,197.539948 
	C158.823715,197.692902 157.811081,197.382629 156.480103,197.037598 
	C156.161758,186.365753 156.161758,175.728699 156.161758,165.091644 
	C157.019699,164.990402 157.877655,164.889175 158.735596,164.787933 
	C159.157501,166.401611 159.923965,168.010971 159.944275,169.629684 
	C160.059021,178.777451 159.994797,187.927475 159.913956,197.539948 
z"/>
<path fill="#F1FAF1" opacity="1.000000" stroke="none" 
	d="
M276.912292,54.542824 
	C274.019958,54.603546 272.203003,50.230114 268.245361,52.994659 
	C266.748718,51.306114 265.618195,49.571896 264.487671,47.837681 
	C264.812286,47.429115 265.136932,47.020554 265.461548,46.611988 
	C267.890259,47.461926 270.318939,48.311867 272.638397,49.123577 
	C273.031738,44.221222 273.454590,38.950745 274.365326,33.338326 
	C275.514252,32.996548 276.175293,32.996708 276.836304,32.996872 
	C276.888855,40.024624 276.941437,47.052376 276.912292,54.542824 
z"/>
<path fill="#EFFBEF" opacity="1.000000" stroke="none" 
	d="
M193.122360,160.952438 
	C191.685623,161.328125 190.248901,161.703812 188.489441,162.041946 
	C188.119949,161.836121 188.073166,161.667816 188.444702,161.238937 
	C189.200058,159.968369 189.537094,158.958389 189.874146,157.948410 
	C189.874146,157.948410 189.953888,157.544601 189.933350,156.982269 
	C188.905212,155.599014 187.897598,154.778091 186.889999,153.957184 
	C188.040878,153.636337 189.215866,152.975510 190.338348,153.055115 
	C194.572266,153.355453 196.205124,151.227661 196.547668,147.141251 
	C198.442169,147.508484 199.995071,148.052094 200.948166,148.385727 
	C199.910095,150.305038 199.197235,151.623032 198.656677,153.314087 
	C196.926773,156.108917 195.024567,158.530685 193.122360,160.952438 
z"/>
<path fill="#EFFBEF" opacity="1.000000" stroke="none" 
	d="
M144.556488,238.366486 
	C142.545013,237.255783 139.372177,236.563324 138.727066,234.894028 
	C137.470520,231.642639 137.630005,227.844009 137.203033,224.272018 
	C137.873581,224.091461 138.544113,223.910889 139.214661,223.730331 
	C139.806732,224.703552 140.445999,225.651611 140.980728,226.655380 
	C141.996780,228.562622 142.558319,230.913803 144.031998,232.325394 
	C145.961258,234.173340 145.843246,235.752014 144.653625,238.039474 
	C144.478241,238.333420 144.537445,238.343277 144.556488,238.366486 
z"/>
<path fill="#F2FCF1" opacity="1.000000" stroke="none" 
	d="
M241.383804,141.467209 
	C239.378082,143.449646 237.741516,143.353973 235.576859,141.279709 
	C233.961563,139.731842 231.481400,139.104706 229.438782,137.972977 
	C228.865128,137.655151 228.115952,137.009811 228.106354,136.502228 
	C228.097061,136.010284 228.842133,135.256989 229.415604,135.039352 
	C235.109131,132.878708 239.129456,135.053101 241.037750,141.275024 
	C241.428223,141.521286 241.390015,141.486847 241.383804,141.467209 
z"/>
<path fill="#EDF9F1" opacity="1.000000" stroke="none" 
	d="
M95.995575,253.330475 
	C97.286552,253.874924 98.419937,254.751495 99.772003,256.139465 
	C100.006783,257.064972 100.022873,257.479126 100.038971,257.893250 
	C99.512939,258.522644 98.986900,259.152069 97.869278,259.791504 
	C95.932724,260.612579 94.571022,261.397491 93.248962,262.244324 
	C92.433952,262.766388 91.679420,263.382843 90.897736,263.956940 
	C90.622704,262.958282 90.347664,261.959656 90.072632,260.960999 
	C90.072632,260.960999 90.032875,261.095032 89.991112,261.150879 
	C91.912231,258.692017 93.875107,256.177307 95.995575,253.330475 
z"/>
<path fill="#EDF9EF" opacity="1.000000" stroke="none" 
	d="
M259.101196,58.576118 
	C260.540253,60.398911 262.417786,61.835461 262.627716,63.484333 
	C262.780579,64.684898 260.732269,66.165718 259.506195,67.723793 
	C257.180359,64.166374 255.407166,61.454224 253.095825,57.918976 
	C255.676453,58.081974 257.250763,58.181416 259.101196,58.576118 
z"/>
<path fill="#EFFEF3" opacity="1.000000" stroke="none" 
	d="
M66.998032,258.997620 
	C65.090149,258.807465 62.667927,259.071930 62.215515,258.250885 
	C61.107594,256.240326 60.909058,253.728622 60.344570,251.418594 
	C60.787003,251.258057 61.229435,251.097519 61.671867,250.936966 
	C64.481819,252.887085 67.291763,254.837204 70.413910,257.003998 
	C69.176262,257.801239 68.278061,258.379791 66.998032,258.997620 
z"/>
<path fill="#E9F7ED" opacity="1.000000" stroke="none" 
	d="
M259.104523,97.038124 
	C257.909851,96.434105 256.715179,95.830093 255.213654,95.092041 
	C257.568542,92.844070 260.230286,90.730141 263.046875,88.295380 
	C263.201752,87.974556 263.092651,88.057137 263.418579,88.035912 
	C264.840118,88.177704 265.935730,88.340714 267.210510,88.530380 
	C265.521667,90.735069 264.247498,92.398438 262.988708,94.028816 
	C263.004059,93.995834 263.074249,93.976784 262.784637,93.679863 
	C261.639069,94.599167 260.783112,95.815384 259.942627,96.990768 
	C259.958130,96.949944 259.986572,96.867363 259.767761,96.918777 
	C259.548920,96.970200 259.104523,97.038124 259.104523,97.038124 
z"/>
<path fill="#F5FEF5" opacity="1.000000" stroke="none" 
	d="
M276.911987,32.536327 
	C276.175293,32.996708 275.514252,32.996548 274.522705,32.996403 
	C274.135071,28.305941 274.077942,23.615463 274.429535,18.463676 
	C275.503937,18.002851 276.169586,18.003336 276.835266,18.003820 
	C276.886047,22.694475 276.936829,27.385128 276.911987,32.536327 
z"/>
<path fill="#EFFEF3" opacity="1.000000" stroke="none" 
	d="
M179.003250,156.832672 
	C175.888000,156.885452 172.771347,157.001190 169.658798,156.932175 
	C169.107132,156.919922 168.572525,156.138184 168.030060,155.711761 
	C168.592590,155.142334 169.126740,154.118317 169.722519,154.081116 
	C172.502823,153.907562 175.300156,154.006439 178.546310,154.419540 
	C179.001892,155.498337 179.002579,156.165497 179.003250,156.832672 
z"/>
<path fill="#F5FEF5" opacity="1.000000" stroke="none" 
	d="
M179.454575,156.909393 
	C179.002579,156.165497 179.001892,155.498337 179.001923,154.497589 
	C181.340378,154.108459 183.678116,154.052902 186.452942,153.977264 
	C187.897598,154.778091 188.905212,155.599014 189.932724,156.776459 
	C186.603729,157.084030 183.254807,157.035065 179.454575,156.909393 
z"/>
<path fill="#F1FAF1" opacity="1.000000" stroke="none" 
	d="
M276.913635,17.608692 
	C276.169586,18.003336 275.503937,18.002851 274.505432,18.003254 
	C274.372742,14.882076 272.628571,11.272500 276.992035,7.976357 
	C276.992035,11.767165 276.992035,14.490364 276.913635,17.608692 
z"/>
<path fill="#EFFEF3" opacity="1.000000" stroke="none" 
	d="
M276.901428,90.530594 
	C276.657806,85.217216 276.491638,79.441917 276.580994,73.343903 
	C276.883972,78.703674 276.931427,84.386177 276.901428,90.530594 
z"/>
<path fill="#F5FEF5" opacity="1.000000" stroke="none" 
	d="
M189.578552,158.067474 
	C189.537094,158.958389 189.200058,159.968369 188.515930,160.986786 
	C188.540222,160.059006 188.911606,159.122772 189.578552,158.067474 
z"/>
<path fill="#EFFEF3" opacity="1.000000" stroke="none" 
	d="
M274.009766,93.003357 
	C274.716888,93.002090 275.423981,93.000832 276.482544,92.998245 
	C276.886078,93.444687 276.938141,93.892456 276.912292,94.671677 
	C276.128632,95.001816 275.422821,95.000511 274.360901,94.665733 
	C274.006409,93.889297 274.008087,93.446327 274.009766,93.003357 
z"/>
<path fill="#F3FBF3" opacity="1.000000" stroke="none" 
	d="
M225.893295,162.697205 
	C225.420410,162.425369 225.024475,161.846466 224.862183,161.113434 
	C225.387283,161.436249 225.678772,161.913177 225.893295,162.697205 
z"/>
<path fill="#F4FBF5" opacity="1.000000" stroke="none" 
	d="
M276.902985,213.751343 
	C276.437042,213.833908 276.047119,213.666367 275.657166,213.498810 
	C275.896118,213.345123 276.135071,213.191422 276.604492,213.018188 
	C276.882996,213.166168 276.930969,213.333694 276.902985,213.751343 
z"/>
<path fill="#F3FBF3" opacity="1.000000" stroke="none" 
	d="
M272.009338,137.007126 
	C272.005096,137.189224 272.000885,137.371323 271.979431,137.826294 
	C271.666687,137.909744 271.371155,137.720322 271.125549,137.263794 
	C271.175476,136.996704 271.584198,136.997238 271.792114,136.998627 
	C272.000000,137.000000 272.009338,137.007126 272.009338,137.007126 
z"/>
<path fill="#F3FBF3" opacity="1.000000" stroke="none" 
	d="
M272.102966,139.251404 
	C272.267822,139.270462 272.361115,139.533844 272.314392,139.890823 
	C272.126709,139.821533 272.079041,139.658630 272.102966,139.251404 
z"/>
<path fill="#F3FBF3" opacity="1.000000" stroke="none" 
	d="
M271.693176,141.983521 
	C271.969849,142.097076 271.979370,142.298279 271.974915,142.801392 
	C271.782593,142.759262 271.604309,142.415207 271.693176,141.983521 
z"/>
<path fill="#000000" opacity="1.000000" stroke="none" 
	d="
M193.494614,160.967834 
	C195.024567,158.530685 196.926773,156.108917 198.968231,153.364746 
	C200.493393,152.691742 201.879318,152.341141 203.921585,151.984436 
	C205.561859,151.922714 206.545792,151.867096 207.529724,151.811478 
	C208.426300,151.875992 209.322876,151.940506 210.646545,152.274002 
	C211.379135,152.632446 211.684647,152.721893 211.990158,152.811356 
	C213.737076,153.802567 215.483978,154.793793 217.551636,155.913239 
	C219.250214,159.435410 220.628052,162.829315 222.087997,166.609344 
	C222.170105,166.995453 222.014679,167.429733 221.728958,167.742493 
	C221.352005,168.364899 221.260773,168.674545 221.169525,168.984192 
	C218.895050,170.319885 216.620575,171.655579 213.853470,173.280563 
	C231.855484,191.192596 250.128922,209.374695 268.764496,227.917099 
	C269.868958,220.478760 274.039764,217.892471 281.618103,221.774567 
	C288.250427,224.863663 290.172058,230.495300 289.865509,236.708496 
	C289.564850,242.802017 285.958374,247.151108 281.282318,249.285751 
	C281.503265,246.055496 282.787628,242.112122 281.719788,238.967422 
	C280.507202,235.396271 278.491852,230.799255 272.037720,232.012970 
	C269.198517,234.257187 266.474670,236.180191 265.211182,238.805908 
	C262.403992,244.639801 260.328369,250.825729 257.954498,256.868134 
	C249.700684,268.158783 238.878799,274.870270 224.862381,277.139130 
	C211.743362,279.262695 200.341629,275.766022 189.433884,269.090820 
	C188.496902,268.517426 187.361038,268.268982 186.086548,267.712097 
	C179.079727,261.318390 172.760635,254.716125 168.451187,246.101715 
	C169.423767,244.892670 165.025116,242.204636 169.938751,241.974365 
	C171.086761,241.675659 171.559113,241.379227 172.031479,241.082794 
	C173.096786,241.050034 174.162094,241.017258 175.885208,240.953278 
	C176.734161,240.628723 176.925293,240.335388 177.116440,240.042053 
	C177.116440,240.042053 177.570129,239.995758 178.154663,239.998276 
	C181.647888,244.326096 183.966705,249.237457 187.574249,252.868439 
	C199.063873,264.432678 213.203506,268.770142 229.073425,264.851501 
	C246.365250,260.581696 257.538849,248.842499 264.476013,232.864899 
	C265.110779,231.402893 264.817993,228.584518 263.790649,227.509125 
	C257.080292,220.484573 250.048523,213.767120 242.969803,206.623642 
	C238.581772,202.183090 234.345734,198.068192 229.979950,193.633209 
	C224.862213,188.334976 219.970886,183.252686 214.809113,178.461777 
	C213.704239,177.436310 211.323776,176.664429 210.032227,177.139252 
	C200.239059,180.739609 192.557236,187.094482 185.801041,195.098190 
	C182.089554,199.495026 181.772339,207.296066 173.955887,207.895081 
	C171.585068,208.203247 169.214249,208.511414 166.339767,208.885040 
	C167.700287,205.539001 169.002502,202.336349 170.540436,198.853470 
	C170.776169,198.573257 170.831451,198.508224 171.105545,198.275665 
	C174.253326,194.413651 177.127014,190.784195 180.000702,187.154755 
	C187.741898,183.539154 195.374939,179.662704 203.259750,176.393570 
	C209.164658,173.945328 211.246201,170.298767 208.986969,164.423828 
	C207.187714,159.745071 201.706009,157.560516 196.887421,159.613113 
	C195.870544,160.046280 194.873215,160.525330 193.494614,160.967834 
z"/>
<path fill="#F2FBF3" opacity="1.000000" stroke="none" 
	d="
M243.121796,206.949280 
	C250.048523,213.767120 257.080292,220.484573 263.790649,227.509125 
	C264.817993,228.584518 265.110779,231.402893 264.476013,232.864899 
	C257.538849,248.842499 246.365250,260.581696 229.073425,264.851501 
	C213.203506,268.770142 199.063873,264.432678 187.574249,252.868439 
	C183.966705,249.237457 181.647888,244.326096 178.369431,239.921661 
	C178.641693,237.825775 179.283707,235.809021 180.341125,233.406342 
	C181.897003,234.321426 183.037460,235.622437 183.309937,235.933273 
	C197.370514,222.501526 211.493103,209.010559 225.436554,195.690689 
	C222.976822,193.116165 221.157959,191.212433 219.546555,189.525818 
	C218.500961,190.696350 217.368469,192.042923 216.154297,193.311310 
	C204.112946,205.890335 192.075958,218.473801 179.936951,230.958008 
	C179.484558,231.423279 178.001617,230.886520 176.998917,230.816711 
	C176.446457,229.364639 175.893997,227.912567 175.316345,225.826218 
	C176.541397,224.943634 177.791656,224.695328 179.041916,224.447021 
	C178.693848,223.570602 178.345795,222.694183 177.997726,221.817764 
	C178.723083,221.215012 179.448441,220.612259 180.633896,220.300751 
	C192.941757,209.209991 204.789505,197.828003 216.597824,186.483887 
	C210.726608,179.848236 210.948700,180.224640 204.113831,184.257568 
	C194.669052,189.830490 188.287567,197.851822 184.156113,207.678177 
	C182.643204,211.276505 180.464828,212.606216 176.999237,212.818329 
	C179.190506,209.429779 176.928574,208.778397 174.111328,208.133942 
	C181.772339,207.296066 182.089554,199.495026 185.801041,195.098190 
	C192.557236,187.094482 200.239059,180.739609 210.032227,177.139252 
	C211.323776,176.664429 213.704239,177.436310 214.809113,178.461777 
	C219.970886,183.252686 224.862213,188.334976 229.692139,193.864456 
	C229.354858,195.884247 229.175644,197.352676 228.668213,198.965790 
	C224.217819,203.139252 220.048477,207.121094 215.983276,211.206543 
	C207.447632,219.784668 199.120529,228.577133 190.403152,236.964951 
	C185.508118,241.674927 185.281174,243.125900 191.715576,248.427505 
	C205.407867,234.300430 219.183807,220.087067 233.085800,206.162720 
	C233.843262,206.979614 234.474686,207.507462 235.032898,208.282104 
	C234.677521,208.700470 234.395325,208.872025 233.809052,209.063278 
	C233.377243,209.736176 233.249496,210.389374 232.996323,211.357483 
	C219.793243,224.790695 206.715576,237.908997 193.320557,251.345642 
	C195.883850,253.242371 197.938629,254.762802 199.074814,255.603531 
	C213.827560,240.926239 228.171509,226.655640 242.609360,212.291611 
	C241.969727,211.529861 240.923935,210.284393 240.174026,208.907806 
	C241.353867,208.167542 242.237823,207.558395 243.121796,206.949280 
M242.503189,238.003159 
	C234.964111,245.400711 227.425034,252.798264 219.096191,260.970764 
	C221.586609,260.970764 222.734100,261.125122 223.827606,260.947388 
	C238.072968,258.631805 248.843979,250.941193 256.953156,239.269577 
	C262.388214,231.446869 262.324860,231.360138 255.344650,225.160461 
	C251.232483,229.273041 247.117844,233.388092 242.503189,238.003159 
M229.542999,232.971054 
	C221.068069,241.080597 212.593155,249.190125 204.118225,257.299652 
	C204.487762,258.082764 204.857300,258.865845 205.226822,259.648926 
	C208.795700,259.286041 213.626816,260.284027 215.726181,258.336792 
	C228.270401,246.701523 240.184937,234.387344 252.587234,222.025284 
	C250.543808,220.130249 248.871201,218.579102 246.799927,216.658234 
	C245.212128,218.095108 243.559280,219.534698 241.969360,221.040695 
	C237.985153,224.814682 234.029434,228.618759 229.542999,232.971054 
z"/>
<path fill="#000000" opacity="1.000000" stroke="none" 
	d="
M176.782196,230.900970 
	C178.001617,230.886520 179.484558,231.423279 179.936951,230.958008 
	C192.075958,218.473801 204.112946,205.890335 216.154297,193.311310 
	C217.368469,192.042923 218.500961,190.696350 219.546555,189.525818 
	C221.157959,191.212433 222.976822,193.116165 225.436554,195.690689 
	C211.493103,209.010559 197.370514,222.501526 183.309937,235.933273 
	C183.037460,235.622437 181.897003,234.321426 180.377838,233.091461 
	C174.309830,234.613922 168.576309,235.916046 162.950394,237.581604 
	C160.258347,238.378586 159.507751,237.877502 161.043518,235.091019 
	C166.566223,233.663116 171.334854,232.350769 176.103500,231.038422 
	C176.103500,231.038406 176.565475,230.985199 176.782196,230.900970 
z"/>
<path fill="#000000" opacity="1.000000" stroke="none" 
	d="
M176.607849,212.900757 
	C180.464828,212.606216 182.643204,211.276505 184.156113,207.678177 
	C188.287567,197.851822 194.669052,189.830490 204.113831,184.257568 
	C210.948700,180.224640 210.726608,179.848236 216.597824,186.483887 
	C204.789505,197.828003 192.941757,209.209991 180.960602,220.295776 
	C182.050949,215.918884 181.521393,214.168198 176.598938,215.897720 
	C171.457260,217.704239 166.038193,218.721329 160.017166,219.071503 
	C160.848755,218.374268 161.573257,217.344742 162.530151,217.036362 
	C167.057465,215.577332 171.648285,214.315384 176.607849,212.900757 
z"/>
<path fill="#000000" opacity="1.000000" stroke="none" 
	d="
M100.416420,257.809937 
	C100.022873,257.479126 100.006783,257.064972 100.045776,256.344727 
	C103.580879,254.731155 106.921234,254.838089 109.811691,257.379547 
	C113.505707,260.627502 117.086403,264.004364 120.715927,267.325653 
	C120.446968,267.756409 120.178009,268.187134 119.909042,268.617859 
	C113.427856,268.617859 106.946678,268.617859 99.709969,268.617859 
	C101.712440,264.911896 103.652847,261.320770 105.965408,257.040924 
	C104.191162,257.276154 102.492516,257.501373 100.416420,257.809937 
z"/>
<path fill="#000000" opacity="1.000000" stroke="none" 
	d="
M89.730240,260.633545 
	C90.347664,261.959656 90.622704,262.958282 90.897736,263.956940 
	C91.679420,263.382843 92.433952,262.766388 93.248962,262.244324 
	C94.571022,261.397491 95.932724,260.612579 97.581772,259.918182 
	C97.023399,262.740509 96.160957,265.446167 95.032257,268.987091 
	C92.371780,268.987091 88.781265,269.289307 85.269737,268.892487 
	C82.408394,268.569122 79.424232,267.477112 79.081314,263.916138 
	C78.797348,260.967316 76.726830,257.598755 80.331177,255.221024 
	C81.436829,254.491684 83.419289,253.300049 83.831268,253.659592 
	C84.900337,254.592590 85.462624,256.222473 85.944733,257.668427 
	C86.235420,258.540253 85.998199,259.588135 85.998199,261.074188 
	C87.360367,260.765503 88.374115,260.535797 89.730240,260.633545 
z"/>
<path fill="#000000" opacity="1.000000" stroke="none" 
	d="
M177.635010,221.999481 
	C178.345795,222.694183 178.693848,223.570602 179.041916,224.447021 
	C177.791656,224.695328 176.541397,224.943634 175.124695,225.532654 
	C170.278275,226.928574 165.598297,227.983795 160.918320,229.039001 
	C160.572891,228.780426 160.227448,228.521851 159.882019,228.263260 
	C160.580872,227.500565 161.153305,226.285980 161.999329,226.049301 
	C167.055328,224.634888 172.174377,223.445831 177.635010,221.999481 
z"/>
<path fill="#F2FBF3" opacity="1.000000" stroke="none" 
	d="
M175.652222,231.027069 
	C171.334854,232.350769 166.566223,233.663116 161.398285,234.906952 
	C164.926758,230.569046 170.147476,231.103027 175.652222,231.027069 
z"/>
<path fill="#F2FBF3" opacity="1.000000" stroke="none" 
	d="
M171.877136,240.851013 
	C171.559113,241.379227 171.086761,241.675659 170.306305,241.895126 
	C170.573059,241.418518 171.147934,241.018875 171.877136,240.851013 
z"/>
<path fill="#F2FBF3" opacity="1.000000" stroke="none" 
	d="
M176.892914,240.110077 
	C176.925293,240.335388 176.734161,240.628723 176.277069,240.872864 
	C176.160385,240.536942 176.379791,240.321747 176.892914,240.110077 
z"/>
<path fill="#F2FBF3" opacity="1.000000" stroke="none" 
	d="
M167.454224,239.529053 
	C167.424591,239.477875 167.483871,239.580246 167.454224,239.529053 
z"/>
<path fill="#F2FBF3" opacity="1.000000" stroke="none" 
	d="
M171.545563,229.471207 
	C171.575119,229.522324 171.516022,229.420090 171.545563,229.471207 
z"/>
<path fill="#000000" opacity="1.000000" stroke="none" 
	d="
M271.952911,236.126221 
	C271.952911,246.915649 271.952911,257.705078 271.952911,268.754395 
	C265.666443,268.754395 259.617737,268.754395 253.871582,268.754395 
	C256.166565,265.853302 258.583588,262.797974 261.375305,259.238525 
	C264.171143,252.551575 266.518036,246.337906 269.066254,240.207916 
	C269.690277,238.706757 270.973022,237.479431 271.952911,236.126221 
z"/>
<path fill="#F1FBF3" opacity="1.000000" stroke="none" 
	d="
M271.966187,235.729980 
	C270.973022,237.479431 269.690277,238.706757 269.066254,240.207916 
	C266.518036,246.337906 264.171143,252.551575 261.421021,258.881775 
	C260.089417,258.548370 259.086823,258.067566 258.019379,257.227448 
	C260.328369,250.825729 262.403992,244.639801 265.211182,238.805908 
	C266.474670,236.180191 269.198517,234.257187 271.630737,232.088776 
	C271.994324,233.219406 271.986877,234.276566 271.966187,235.729980 
z"/>
<path fill="#EFFBEF" opacity="1.000000" stroke="none" 
	d="
M207.665680,151.410767 
	C206.545792,151.867096 205.561859,151.922714 204.287018,151.902893 
	C203.024323,147.969101 206.317932,147.901642 208.728516,146.904053 
	C209.000000,147.000000 209.002441,147.001801 209.002441,147.001801 
	C208.602173,148.337891 208.201920,149.673965 207.665680,151.410767 
z"/>
<path fill="#EFFBEF" opacity="1.000000" stroke="none" 
	d="
M208.999130,146.998779 
	C209.088959,146.963211 209.179657,146.928879 209.136398,146.948181 
	C209.002441,147.001801 209.000000,147.000000 208.999130,146.998779 
z"/>
<path fill="#EFFBEF" opacity="1.000000" stroke="none" 
	d="
M211.853271,152.624847 
	C211.684647,152.721893 211.379135,152.632446 210.984695,152.290894 
	C211.213303,152.081650 211.486832,152.214828 211.853271,152.624847 
z"/>
<path fill="#000000" opacity="1.000000" stroke="none" 
	d="
M271.943024,216.558472 
	C269.999268,217.817001 268.107361,218.673035 266.288879,219.495850 
	C251.590607,205.539139 236.143890,190.871750 221.621323,177.081909 
	C223.179062,174.222809 224.092010,172.547165 225.021973,170.488770 
	C226.078583,170.065643 227.118164,170.025299 228.680603,170.339478 
	C230.764221,171.144501 232.324966,171.594971 233.885727,172.045441 
	C234.365494,172.366516 234.845261,172.687607 235.763306,173.380920 
	C240.426834,176.850388 244.652084,179.947632 248.967590,183.299255 
	C249.365479,183.639206 249.673126,183.724731 250.349030,183.884216 
	C252.155899,183.336044 253.594513,182.713928 255.327606,182.099487 
	C255.848862,182.860748 256.075653,183.614304 256.032104,184.596802 
	C252.475464,186.053299 248.169693,190.377625 246.494324,194.176239 
	C246.425476,194.332321 246.629181,194.608597 246.702728,194.832947 
	C249.657410,194.271164 252.615280,193.705292 255.640396,193.126541 
	C256.051758,190.779358 256.553375,187.917221 257.447205,185.017548 
	C260.832520,184.039474 263.825623,183.098953 266.774139,182.172455 
	C267.046844,179.643265 267.332886,176.990433 267.618408,174.342667 
	C264.706299,174.696487 261.912781,175.035904 259.167358,175.369461 
	C258.998260,177.406082 258.848206,179.213150 258.593109,182.285248 
	C256.937500,179.298019 255.998291,177.603439 255.038269,175.948120 
	C255.017456,175.987366 255.095810,175.945480 255.017731,175.687958 
	C254.631332,175.339661 254.323013,175.248871 253.626465,175.086243 
	C251.395462,175.753601 249.552719,176.492813 246.407181,177.754623 
	C246.297562,176.086365 246.166122,174.085785 246.034683,172.085220 
	C249.002731,172.048935 251.970703,171.990967 254.938843,171.981155 
	C260.134583,171.963974 265.330383,171.976364 271.018585,171.976364 
	C270.739044,174.007156 270.046204,176.680862 270.078857,179.345688 
	C270.130310,183.546997 270.993988,187.754410 270.838196,191.934067 
	C270.777924,193.550598 269.149628,195.510574 267.684509,196.487076 
	C267.043640,196.914230 265.019806,195.266464 264.604950,195.056763 
	C265.658417,192.273895 267.223663,190.183105 266.838104,188.554077 
	C266.487366,187.072250 264.016937,186.092117 262.480865,184.890854 
	C261.083679,187.151978 258.200714,189.748505 258.618652,191.599915 
	C259.344360,194.814804 261.793640,197.848526 264.091187,200.454865 
	C268.142334,205.050491 271.384338,209.899002 271.943024,216.558472 
z"/>
<path fill="#F0F9F2" opacity="1.000000" stroke="none" 
	d="
M255.033142,182.091827 
	C253.594513,182.713928 252.155899,183.336044 250.211365,183.697266 
	C249.472672,183.214371 249.196640,183.083878 248.877335,183.044861 
	C244.652084,179.947632 240.426834,176.850388 236.082214,173.430832 
	C236.753403,171.783524 237.543945,170.458511 238.741135,168.451950 
	C239.703476,170.464966 240.271622,171.653427 240.622787,172.388000 
	C242.607407,172.035812 244.171005,171.758347 245.884644,171.783051 
	C246.166122,174.085785 246.297562,176.086365 246.407181,177.754623 
	C249.552719,176.492813 251.395462,175.753601 253.758423,175.276611 
	C254.504257,175.768356 254.776642,175.903900 255.095810,175.945480 
	C255.095810,175.945480 255.017456,175.987366 255.021164,176.389496 
	C255.027618,178.558365 255.030380,180.325104 255.033142,182.091827 
z"/>
<path fill="#F0F9F2" opacity="1.000000" stroke="none" 
	d="
M234.138123,171.825516 
	C232.324966,171.594971 230.764221,171.144501 229.070801,170.358704 
	C230.755585,170.550797 232.573044,171.078186 234.138123,171.825516 
z"/>
<path fill="#F4FBF5" opacity="1.000000" stroke="none" 
	d="
M276.741455,216.997223 
	C276.399597,217.615173 275.811005,218.234375 275.222412,218.853577 
	C275.385712,218.389114 275.549011,217.924637 275.856750,217.230072 
	C276.001221,217.000000 276.494690,216.998505 276.741455,216.997223 
z"/>
<path fill="#F0F9F2" opacity="1.000000" stroke="none" 
	d="
M231.470520,167.455017 
	C231.521622,167.425491 231.419434,167.484528 231.470520,167.455017 
z"/>
<path fill="#000000" opacity="1.000000" stroke="none" 
	d="
M173.047180,187.874649 
	C173.047180,182.096298 173.047180,176.317932 173.047180,170.271805 
	C183.628357,170.271805 194.015106,170.271805 205.164505,170.271805 
	C195.840363,174.763412 187.040939,179.002274 177.792542,183.682800 
	C175.911423,185.374527 174.479294,186.624588 173.047180,187.874649 
z"/>
<path fill="#F4FBF4" opacity="1.000000" stroke="none" 
	d="
M173.033279,188.277863 
	C174.479294,186.624588 175.911423,185.374527 177.648346,184.006439 
	C178.611633,184.754898 179.270142,185.621414 179.964676,186.821350 
	C177.127014,190.784195 174.253326,194.413651 171.115494,198.234161 
	C171.037369,196.651398 171.078735,194.846359 171.452972,193.113190 
	C171.781021,191.593903 172.482712,190.155304 173.033279,188.277863 
z"/>
<path fill="#000000" opacity="1.000000" stroke="none" 
	d="
M259.048309,97.412758 
	C259.104523,97.038124 259.548920,96.970200 260.117310,97.244469 
	C260.453278,99.289513 260.220795,101.060287 259.972626,102.950859 
	C264.479614,100.958130 268.304596,99.266945 271.704102,97.763870 
	C272.127594,103.287842 272.501587,108.166130 272.875580,113.044418 
	C272.636139,114.598091 272.396729,116.151756 271.911346,119.301414 
	C267.345093,114.428291 263.226959,110.033424 259.021240,105.048241 
	C258.636871,104.269127 258.340057,104.080315 258.043243,103.891502 
	C258.043243,103.891502 257.979248,103.432373 257.970215,102.965149 
	C257.909424,102.332878 257.857666,102.167824 257.805878,102.002777 
	C258.201294,100.597649 258.596680,99.192520 259.048309,97.412758 
z"/>
<path fill="#F0F5ED" opacity="1.000000" stroke="none" 
	d="
M273.189026,112.759705 
	C272.501587,108.166130 272.127594,103.287842 271.704102,97.763870 
	C268.304596,99.266945 264.479614,100.958130 259.972626,102.950859 
	C260.220795,101.060287 260.453278,99.289513 260.336151,97.193054 
	C259.986572,96.867363 259.958130,96.949944 260.232788,97.287598 
	C261.363037,96.409096 262.218658,95.192940 263.074249,93.976784 
	C263.074249,93.976784 263.004059,93.995834 263.328308,94.089935 
	C266.667236,93.850945 269.681915,93.517853 272.230377,93.236267 
	C272.416016,92.349319 272.664764,91.160797 272.913513,89.972267 
	C273.275024,90.752136 273.636536,91.532005 274.003906,92.657623 
	C274.008087,93.446327 274.006409,93.889297 274.006653,94.664459 
	C273.839844,100.822762 273.671173,106.648880 273.189026,112.759705 
z"/>
<path fill="#E9F7ED" opacity="1.000000" stroke="none" 
	d="
M257.666199,102.100037 
	C257.857666,102.167824 257.909424,102.332878 257.890381,102.747559 
	C257.721863,102.730553 257.624207,102.463928 257.666199,102.100037 
z"/>
<path fill="#E9F7ED" opacity="1.000000" stroke="none" 
	d="
M258.106445,104.118027 
	C258.340057,104.080315 258.636871,104.269127 258.883972,104.726151 
	C258.546021,104.845985 258.324493,104.629379 258.106445,104.118027 
z"/>
<path fill="#F0F9F2" opacity="1.000000" stroke="none" 
	d="
M266.999390,121.999275 
	C267.087769,121.963463 267.176727,121.928375 267.133484,121.947182 
	C267.001221,122.001076 267.000000,122.000000 266.999390,121.999275 
z"/>
<path fill="#F3FBF3" opacity="1.000000" stroke="none" 
	d="
M271.996429,136.995407 
	C272.086639,136.959000 272.180389,136.927170 272.141754,136.951233 
	C272.009338,137.007126 272.000000,137.000000 271.996429,136.995407 
z"/>
<path fill="#F6FCF6" opacity="1.000000" stroke="none" 
	d="
M221.358093,168.847794 
	C221.260773,168.674545 221.352005,168.364899 221.701279,167.971466 
	C221.900650,168.201767 221.763092,168.476349 221.358093,168.847794 
z"/>
<path fill="#000000" opacity="1.000000" stroke="none" 
	d="
M272.969330,89.541077 
	C272.664764,91.160797 272.416016,92.349319 272.230377,93.236267 
	C269.681915,93.517853 266.667236,93.850945 263.312927,94.122925 
	C264.247498,92.398438 265.521667,90.735069 267.210510,88.530380 
	C265.935730,88.340714 264.840118,88.177704 263.350464,88.042053 
	C263.307312,86.543640 263.658264,85.017860 264.072357,83.217377 
	C261.292969,83.071777 258.732880,82.937668 256.099457,82.799721 
	C255.932098,77.587318 259.035767,76.163383 263.648376,75.904984 
	C267.727631,75.402748 269.948517,77.603233 271.946350,80.969597 
	C272.322479,82.083931 272.622589,82.556015 272.922729,83.028099 
	C272.956879,85.055359 272.990997,87.082619 272.969330,89.541077 
z"/>
<path fill="#F0F5ED" opacity="1.000000" stroke="none" 
	d="
M273.156677,82.875153 
	C272.622589,82.556015 272.322479,82.083931 272.096252,81.302078 
	C272.576996,81.568939 272.983795,82.145576 273.156677,82.875153 
z"/>
<path fill="#000000" opacity="1.000000" stroke="none" 
	d="
M262.784637,93.679863 
	C262.218658,95.192940 261.363037,96.409096 260.217285,97.328430 
	C260.783112,95.815384 261.639069,94.599167 262.784637,93.679863 
z"/>
<path fill="#EDF9EF" opacity="1.000000" stroke="none" 
	d="
M242.969788,206.623627 
	C242.237823,207.558395 241.353867,208.167542 239.869003,208.793152 
	C237.880768,208.551529 236.493423,208.293411 235.106094,208.035309 
	C234.474686,207.507462 233.843262,206.979614 233.205658,205.845459 
	C234.534439,201.308060 230.396927,200.960800 228.996429,198.821121 
	C229.175644,197.352676 229.354858,195.884247 229.821869,194.184540 
	C234.345734,198.068192 238.581772,202.183090 242.969788,206.623627 
z"/>
<path fill="#000000" opacity="1.000000" stroke="none" 
	d="
M235.032898,208.282104 
	C236.493423,208.293411 237.880768,208.551529 239.573120,208.924286 
	C240.923935,210.284393 241.969727,211.529861 242.609360,212.291611 
	C228.171509,226.655640 213.827560,240.926239 199.074814,255.603531 
	C197.938629,254.762802 195.883850,253.242371 193.320557,251.345642 
	C206.715576,237.908997 219.793243,224.790695 233.286041,211.248703 
	C233.838501,210.231216 233.975815,209.637405 234.113129,209.043579 
	C234.395325,208.872025 234.677521,208.700470 235.032898,208.282104 
z"/>
<path fill="#000000" opacity="1.000000" stroke="none" 
	d="
M228.668213,198.965790 
	C230.396927,200.960800 234.534439,201.308060 233.079590,205.556427 
	C219.183807,220.087067 205.407867,234.300430 191.715576,248.427505 
	C185.281174,243.125900 185.508118,241.674927 190.403152,236.964951 
	C199.120529,228.577133 207.447632,219.784668 215.983276,211.206543 
	C220.048477,207.121094 224.217819,203.139252 228.668213,198.965790 
z"/>
<path fill="#000000" opacity="1.000000" stroke="none" 
	d="
M242.753204,237.753143 
	C247.117844,233.388092 251.232483,229.273041 255.344650,225.160461 
	C262.324860,231.360138 262.388214,231.446869 256.953156,239.269577 
	C248.843979,250.941193 238.072968,258.631805 223.827606,260.947388 
	C222.734100,261.125122 221.586609,260.970764 219.096191,260.970764 
	C227.425034,252.798264 234.964111,245.400711 242.753204,237.753143 
z"/>
<path fill="#000000" opacity="1.000000" stroke="none" 
	d="
M229.802643,232.690903 
	C234.029434,228.618759 237.985153,224.814682 241.969360,221.040695 
	C243.559280,219.534698 245.212128,218.095108 246.799927,216.658234 
	C248.871201,218.579102 250.543808,220.130249 252.587234,222.025284 
	C240.184937,234.387344 228.270401,246.701523 215.726181,258.336792 
	C213.626816,260.284027 208.795700,259.286041 205.226822,259.648926 
	C204.857300,258.865845 204.487762,258.082764 204.118225,257.299652 
	C212.593155,249.190125 221.068069,241.080597 229.802643,232.690903 
z"/>
<path fill="#EDF9EF" opacity="1.000000" stroke="none" 
	d="
M233.809052,209.063293 
	C233.975815,209.637405 233.838501,210.231216 233.411469,210.933807 
	C233.249496,210.389374 233.377243,209.736176 233.809052,209.063293 
z"/>
<path fill="#EDF9EF" opacity="1.000000" stroke="none" 
	d="
M255.327606,182.099503 
	C255.030380,180.325104 255.027618,178.558365 255.041992,176.350250 
	C255.998291,177.603439 256.937500,179.298019 258.593109,182.285248 
	C258.848206,179.213150 258.998260,177.406082 259.167358,175.369461 
	C261.912781,175.035904 264.706299,174.696487 267.618408,174.342667 
	C267.332886,176.990433 267.046844,179.643265 266.774139,182.172455 
	C263.825623,183.098953 260.832520,184.039474 257.264374,184.839905 
	C256.560394,184.589172 256.431427,184.478516 256.302460,184.367874 
	C256.075653,183.614304 255.848862,182.860748 255.327606,182.099503 
z"/>
<path fill="#EDF9EF" opacity="1.000000" stroke="none" 
	d="
M256.872192,184.877441 
	C256.553375,187.917221 256.051758,190.779358 255.640396,193.126541 
	C252.615280,193.705292 249.657410,194.271164 246.702728,194.832947 
	C246.629181,194.608597 246.425476,194.332321 246.494324,194.176239 
	C248.169693,190.377625 252.475464,186.053299 256.032104,184.596802 
	C256.431427,184.478516 256.560394,184.589172 256.872192,184.877441 
z"/>
<path fill="#EDF9EF" opacity="1.000000" stroke="none" 
	d="
M248.967590,183.299271 
	C249.196640,183.083878 249.472672,183.214371 249.843094,183.623322 
	C249.673126,183.724731 249.365479,183.639206 248.967590,183.299271 
z"/>
<path fill="#EDF9EF" opacity="1.000000" stroke="none" 
	d="
M255.017731,175.687958 
	C254.776642,175.903900 254.504257,175.768356 254.146667,175.348450 
	C254.323013,175.248871 254.631332,175.339661 255.017731,175.687958 
z"/>
</svg>