<svg version="1.1" id="Layer_1" xmlns="http://www.w3.org/2000/svg" xmlns:xlink="http://www.w3.org/1999/xlink" x="0px" y="0px"
	 width="100%" viewBox="0 0 296 296" enable-background="new 0 0 296 296" xml:space="preserve">
<path fill="#000000" opacity="1.000000" stroke="none" 
	d="
M199.000000,297.000000 
	C132.666672,297.000000 66.833359,297.000000 1.000026,297.000000 
	C1.000018,198.333359 1.000018,99.666725 1.000009,1.000066 
	C99.666618,1.000044 198.333237,1.000044 296.999878,1.000022 
	C296.999939,99.666603 296.999939,198.333206 296.999969,296.999908 
	C264.500000,297.000000 232.000000,297.000000 199.000000,297.000000 
M83.741272,274.983612 
	C84.495544,274.932281 85.249825,274.880951 86.663116,274.976654 
	C87.107124,274.921326 87.551132,274.866028 88.738861,274.973419 
	C89.494209,274.918945 90.249557,274.864502 91.744514,274.963989 
	C92.494469,274.911530 93.244431,274.859039 94.738419,274.969635 
	C95.493988,274.914001 96.249557,274.858368 97.744522,274.958160 
	C98.494720,274.906952 99.244919,274.855713 100.918564,274.970428 
	C106.607033,274.924683 112.295494,274.878937 118.495499,274.970306 
	C118.666016,274.924591 118.836533,274.878906 119.748085,274.991486 
	C120.500244,274.938812 121.252396,274.886139 122.696098,274.982910 
	C124.097496,274.932312 125.498894,274.881683 127.640625,274.983337 
	C129.258072,274.020325 132.497375,277.293091 132.986771,272.067657 
	C133.352097,245.721786 133.717422,219.375916 134.758301,192.705292 
	C134.770584,191.469131 134.782852,190.232971 134.952957,188.338364 
	C134.899323,187.893372 134.845688,187.448364 134.955536,186.270187 
	C134.664871,185.171204 134.374222,184.072235 134.002121,182.229172 
	C133.941223,181.486832 133.880325,180.744492 133.966721,179.224258 
	C133.657379,174.845566 133.348053,170.466858 132.980652,165.266281 
	C131.656235,165.199646 129.769775,165.184265 127.902992,164.984787 
	C126.494148,164.834229 124.874855,164.818207 123.754799,164.105209 
	C117.673264,160.233765 111.178329,160.050735 104.559540,161.892029 
	C96.025131,164.266266 87.438248,165.744293 78.543762,165.046204 
	C76.235451,164.865005 73.848717,165.325607 71.590065,164.945023 
	C67.196602,164.204773 62.843288,163.176208 58.521214,162.078583 
	C55.306183,161.262070 52.166584,160.148514 48.458927,159.077988 
	C48.271477,159.373230 48.084023,159.668488 47.423458,160.076416 
	C47.117428,160.262085 46.963875,160.533890 46.295689,161.167358 
	C44.027416,164.539215 40.852280,165.484390 36.914421,165.064270 
	C34.124062,164.766571 31.262056,165.183578 28.458549,164.955536 
	C24.491892,164.632919 23.398560,166.451767 24.013330,170.928177 
	C24.065525,176.953384 24.117722,182.978577 24.016783,189.849426 
	C24.066706,191.564194 24.116629,193.278961 24.008390,195.919983 
	C24.008390,222.245483 24.008390,248.570984 24.008390,274.999878 
	C26.668205,274.999878 28.654739,274.999908 30.641273,274.999908 
	C32.732323,274.999908 34.823372,274.999878 36.989021,274.999878 
	C36.989021,276.267578 36.965202,276.931732 36.992714,277.593811 
	C37.262585,284.089081 41.562477,287.662292 47.761478,285.903839 
	C51.853111,284.743164 55.814068,282.871857 59.567684,280.829987 
	C64.777740,277.995850 69.287659,273.485046 76.741150,274.985321 
	C77.494499,274.932220 78.247849,274.879150 79.792000,274.977448 
	C80.860641,274.927002 81.929291,274.876587 83.741272,274.983612 
M57.001022,129.992630 
	C57.001022,129.992630 57.069374,129.949295 56.814529,129.289261 
	C54.528164,127.055115 52.241798,124.820969 49.955433,122.586823 
	C49.532574,122.938744 49.109715,123.290665 48.686855,123.642586 
	C50.439968,126.131454 52.193077,128.620316 54.001831,131.993958 
	C54.099030,143.657532 51.668015,147.545425 41.256927,151.022476 
	C39.895046,151.228058 37.872871,152.106110 37.282280,151.526199 
	C34.258450,148.557022 31.603537,145.212143 28.976067,141.270966 
	C29.020151,140.529556 29.064236,139.788147 29.753527,138.788086 
	C29.863974,137.876740 29.974422,136.965378 30.008858,136.014145 
	C30.008858,136.014145 30.051695,136.088531 30.556820,135.926727 
	C30.640377,135.624039 30.723934,135.321350 30.980864,134.602768 
	C31.107201,134.329071 31.258986,134.070297 32.016045,133.415421 
	C33.687866,132.308289 35.359688,131.201141 37.782505,130.011871 
	C39.911102,131.344849 42.039700,132.677826 44.018452,134.647583 
	C44.331459,135.135605 44.644466,135.623642 44.807751,136.729050 
	C44.499439,137.472580 44.191128,138.216125 43.224072,139.224945 
	C40.776051,141.493790 38.766102,141.304688 37.053726,138.289413 
	C36.554260,137.409927 35.606319,136.785126 34.863949,136.043594 
	C34.643135,137.208908 34.006275,138.482162 34.275604,139.520309 
	C35.286247,143.415894 39.887627,145.940002 43.486271,144.817978 
	C47.816368,143.467896 49.743065,138.924316 47.992794,133.273544 
	C47.375546,132.176788 46.758297,131.080017 46.003719,129.286530 
	C44.334454,127.913597 42.665188,126.540657 40.178795,125.008797 
	C38.604042,125.008797 37.029285,125.008797 35.454533,125.008797 
	C36.555244,124.090736 38.707909,123.513329 38.685139,123.408501 
	C37.758160,119.141342 41.983315,118.325523 43.663212,115.877487 
	C46.731213,111.406616 51.623177,107.230164 49.538738,101.294647 
	C47.238472,94.744553 41.888699,90.573814 35.542831,88.016991 
	C34.846828,88.723068 34.150829,89.429138 33.454830,90.135208 
	C35.170921,91.055573 37.055458,91.758873 38.572300,92.935989 
	C43.628586,96.859802 44.831688,103.113960 40.913036,108.033264 
	C37.671196,112.102928 33.573002,115.490440 29.224821,119.804695 
	C29.021278,117.304115 28.927601,116.153259 28.986881,114.093971 
	C28.914124,109.949158 28.841366,105.804337 28.758995,101.512062 
	C28.758995,101.512062 28.763214,101.364342 28.916815,100.750710 
	C28.868401,100.545494 28.819984,100.340279 28.949551,99.446571 
	C29.777088,98.988388 30.865860,97.941086 31.387623,98.172455 
	C33.844315,99.261833 36.119160,100.753151 38.518093,101.985832 
	C39.244423,102.359070 40.160629,102.362785 40.989861,102.535751 
	C41.005249,101.736862 41.191711,100.896118 41.008125,100.145920 
	C39.856590,95.440239 33.642132,92.954536 27.993803,94.182571 
	C27.935764,92.987381 27.877724,91.792198 27.979635,89.907845 
	C28.342508,86.952110 28.705381,83.996376 29.003368,81.006607 
	C29.003368,81.006607 29.039845,81.070152 29.545677,80.920578 
	C29.633511,80.619446 29.721344,80.318314 30.104826,79.353600 
	C30.934958,78.548615 31.635489,77.498421 32.616920,76.979713 
	C37.762112,74.260376 42.513596,74.999313 44.508442,80.017387 
	C45.507137,82.529617 45.165890,83.954407 41.824905,83.465065 
	C40.232883,83.231880 38.494606,83.997269 36.217617,84.423607 
	C41.775955,89.397400 46.943951,88.763000 48.741150,83.747765 
	C50.015411,80.191841 48.379707,73.169464 44.876408,72.249573 
	C39.293743,70.783684 37.190853,67.268349 34.735085,62.643379 
	C32.863377,59.118389 32.700626,56.414768 33.992714,53.134109 
	C34.612823,51.559620 35.371349,50.039642 36.067192,48.494980 
	C35.795128,48.121700 35.523064,47.748421 35.250999,47.375145 
	C32.824085,48.568428 30.397173,49.761715 28.092308,50.894989 
	C28.052542,50.612507 27.939539,49.809803 27.991272,48.081772 
	C27.938934,41.052517 27.886595,34.023266 27.676336,26.165802 
	C27.450352,22.795839 27.326834,19.414326 26.948889,16.061493 
	C26.793673,14.684529 26.089962,13.369393 25.635754,12.026134 
	C25.090122,13.275133 24.141825,14.503473 24.076475,15.777116 
	C23.900204,19.212587 24.100111,22.667362 23.994282,26.932205 
	C24.051241,34.290371 24.108198,41.648537 24.011103,49.931927 
	C24.060158,60.286602 24.109213,70.641281 24.001396,81.842323 
	C24.052786,84.746712 24.104174,87.651093 24.008648,91.413277 
	C24.058167,98.609497 24.107683,105.805725 24.010103,113.744041 
	C24.060997,114.495384 24.111891,115.246719 24.009090,116.924446 
	C24.058546,124.616615 24.108002,132.308777 24.007132,140.794052 
	C24.655153,142.899155 25.303175,145.004257 26.185762,147.733521 
	C29.791275,150.768936 33.396790,153.804337 37.927761,156.996048 
	C62.288746,156.939209 86.649734,156.882385 111.934654,156.984009 
	C118.923866,156.984009 125.913086,156.984009 132.902298,156.984009 
	C132.911621,156.490417 132.920959,155.996811 132.930283,155.503220 
	C125.494270,152.726868 117.680176,154.360367 109.094284,154.019196 
	C90.796478,153.569138 72.498672,153.119064 53.531025,152.652527 
	C58.798485,145.879150 60.693253,138.834290 57.919582,130.464096 
	C57.628792,130.284775 57.338005,130.105469 57.001022,129.992630 
M222.929779,274.989227 
	C243.234360,274.993561 263.539032,275.026733 283.843323,274.951538 
	C285.610199,274.945007 287.374451,274.224884 289.139893,273.836212 
	C289.046570,273.277191 288.953217,272.718170 288.859894,272.159180 
	C275.430725,271.657867 262.001587,271.156555 249.702698,270.697449 
	C250.195496,268.517822 250.757248,266.033295 251.464691,262.904388 
	C241.932266,267.238892 241.978165,267.159363 234.852097,263.046265 
	C233.206299,262.096313 231.128540,261.894714 229.197495,261.333618 
	C228.631134,253.813995 227.080032,251.249161 221.308502,250.218506 
	C217.884491,249.607025 214.220169,249.185440 211.887543,253.320312 
	C209.654678,257.278320 211.893356,259.506287 215.123886,263.447540 
	C215.639923,259.479156 215.975647,256.897461 216.337219,254.116959 
	C221.774506,253.401871 223.233337,257.363373 223.443726,261.198914 
	C223.606781,264.171387 223.524414,268.201691 219.015823,269.009796 
	C214.424927,269.832642 209.815796,270.553772 206.676300,271.076233 
	C204.456238,265.614349 202.688324,261.264893 201.667145,256.984924 
	C204.554504,259.379852 207.441864,261.774780 210.599777,264.394104 
	C211.745270,259.228912 207.947067,257.497314 205.920166,254.923737 
	C202.312347,250.342865 194.895142,246.353531 188.732681,251.660812 
	C183.984070,255.750443 178.992126,259.557526 174.132767,263.470612 
	C173.807907,255.055115 172.663910,253.262070 165.734543,250.231003 
	C164.261414,250.156189 162.748657,249.828979 161.322433,250.052902 
	C156.644623,250.787308 153.251419,254.879349 154.014725,258.614319 
	C154.679184,261.865601 159.661514,265.029846 163.357010,264.148743 
	C161.410477,262.004517 159.608231,260.019196 157.836273,258.067291 
	C158.695831,256.924194 159.370010,256.027649 160.764206,255.014633 
	C163.167160,255.629654 166.474503,255.520096 167.714081,257.067230 
	C168.909714,258.559540 168.330704,261.829193 167.886841,264.197235 
	C167.201950,267.851257 163.913879,268.249390 160.914719,269.098053 
	C155.563004,270.612427 147.602356,264.868225 148.009293,259.424194 
	C148.509476,252.732605 151.923706,247.645966 158.191040,245.534012 
	C163.231918,243.835373 168.512253,244.529907 172.870438,248.341141 
	C173.656754,249.028778 174.627884,249.505081 175.513687,250.078964 
	C172.294464,242.420731 166.554001,239.039200 159.053879,238.477554 
	C164.585068,235.010818 165.840546,230.136948 162.499893,225.373856 
	C160.880142,228.194901 159.607407,231.358047 157.509827,233.817825 
	C155.058243,236.692688 156.952362,237.730255 158.651352,239.828522 
	C154.791367,241.297928 150.931381,242.767319 147.186020,244.193100 
	C146.830688,242.040756 146.093796,239.514038 146.044449,236.973938 
	C145.625381,215.406143 145.331085,193.835892 145.001724,172.266357 
	C144.989014,171.434021 145.198166,170.537781 144.956070,169.782898 
	C144.540085,168.485794 143.849503,167.276718 143.274170,166.030701 
	C142.849167,167.259842 142.055878,168.488113 142.053024,169.718231 
	C141.982742,200.022568 141.981216,230.327103 142.043915,260.631470 
	C142.046738,261.991455 142.402176,263.639648 143.212845,264.662750 
	C149.009201,271.977966 155.760330,277.374847 166.923019,274.989685 
	C185.283279,274.939026 203.643555,274.888367 222.929779,274.989227 
M87.620270,146.895874 
	C94.328171,142.558289 99.108971,146.193161 103.639687,151.101654 
	C104.172531,150.159271 105.021751,148.999512 104.878548,148.860245 
	C101.828384,145.893860 99.074883,142.194870 95.402634,140.425781 
	C92.248116,138.906113 87.933762,139.264404 84.969711,142.510452 
	C81.789742,145.992966 77.981155,147.066208 73.345215,146.063492 
	C70.679474,145.486908 67.880768,145.525101 64.742104,145.251740 
	C69.638245,152.248291 77.891861,152.860031 87.620270,146.895874 
M150.049088,197.389267 
	C154.505539,202.229980 155.720291,208.318542 152.065994,212.204071 
	C147.349640,217.218903 148.178680,222.594818 149.719742,228.191116 
	C150.309525,230.332840 151.621811,232.275604 153.153198,235.443314 
	C153.779007,233.415466 154.016251,233.070419 153.950043,232.799515 
	C152.150467,225.434845 151.877213,218.758408 157.651459,212.334244 
	C162.099091,207.386002 157.060318,195.644775 150.646469,194.316833 
	C149.961563,194.175003 149.076172,195.001450 148.283783,195.378708 
	C148.846451,195.800323 149.409119,196.221939 150.049088,197.389267 
M66.714638,139.858673 
	C68.848213,139.076355 70.981796,138.294037 73.818214,137.254013 
	C70.525223,133.920975 66.666115,134.193909 64.381111,135.603745 
	C62.522705,136.750397 62.297142,140.543457 61.347481,143.162949 
	C61.956394,143.507797 62.565308,143.852646 63.174217,144.197495 
	C64.152565,142.909302 65.130905,141.621109 66.714638,139.858673 
M241.007156,254.308502 
	C240.162842,253.609726 238.754288,252.175491 238.560287,252.324326 
	C236.267303,254.083481 234.155884,256.079254 231.977005,258.030426 
	C237.038086,261.180573 237.784988,260.931915 241.007156,254.308502 
M39.933365,65.447258 
	C40.668205,65.745674 41.930470,66.448112 42.058163,66.281425 
	C43.761505,64.057877 45.306042,61.712673 47.054417,59.157661 
	C39.582092,58.855976 38.947849,59.368561 39.933365,65.447258 
z"/>
<path fill="#F4FBF5" opacity="1.000000" stroke="none" 
	d="
M166.114182,250.953186 
	C172.663910,253.262070 173.807907,255.055115 174.132767,263.470612 
	C178.992126,259.557526 183.984070,255.750443 188.732681,251.660812 
	C194.895142,246.353531 202.312347,250.342865 205.920166,254.923737 
	C207.947067,257.497314 211.745270,259.228912 210.599777,264.394104 
	C207.441864,261.774780 204.554504,259.379852 201.336853,256.989502 
	C201.006546,256.994049 201.095734,257.069122 200.942352,256.671570 
	C196.992737,255.747070 193.421326,255.353500 190.436935,258.889618 
	C187.652313,262.188965 184.274490,264.987640 180.849030,268.030457 
	C179.361633,269.368347 178.182953,270.682495 177.002136,271.998291 
	C177.000000,272.000000 176.996628,272.004883 176.584869,272.014343 
	C172.780914,272.960907 169.388733,273.898041 165.996552,274.835144 
	C155.760330,277.374847 149.009201,271.977966 143.212845,264.662750 
	C142.402176,263.639648 142.046738,261.991455 142.043915,260.631470 
	C141.981216,230.327103 141.982742,200.022568 142.053024,169.718231 
	C142.055878,168.488113 142.849167,167.259842 143.274170,166.030701 
	C143.849503,167.276718 144.540085,168.485794 144.956070,169.782898 
	C145.198166,170.537781 144.989014,171.434021 145.001724,172.266357 
	C145.331085,193.835892 145.625381,215.406143 146.044449,236.973938 
	C146.093796,239.514038 146.830688,242.040756 147.186020,244.193100 
	C150.931381,242.767319 154.791367,241.297928 158.719666,239.507294 
	C158.787979,239.186081 158.705460,239.259048 158.705460,239.259048 
	C166.554001,239.039200 172.294464,242.420731 175.513687,250.078964 
	C174.627884,249.505081 173.656754,249.028778 172.870438,248.341141 
	C168.512253,244.529907 163.231918,243.835373 158.191040,245.534012 
	C151.923706,247.645966 148.509476,252.732605 148.009293,259.424194 
	C147.602356,264.868225 155.563004,270.612427 160.914719,269.098053 
	C163.913879,268.249390 167.201950,267.851257 167.886841,264.197235 
	C168.330704,261.829193 168.909714,258.559540 167.714081,257.067230 
	C166.474503,255.520096 163.167160,255.629654 160.402039,254.682083 
	C162.064651,253.217407 164.089417,252.085297 166.114182,250.953186 
z"/>
<path fill="#F0FAF1" opacity="1.000000" stroke="none" 
	d="
M75.998291,274.829590 
	C69.287659,273.485046 64.777740,277.995850 59.567684,280.829987 
	C55.814068,282.871857 51.853111,284.743164 47.761478,285.903839 
	C41.562477,287.662292 37.262585,284.089081 36.992714,277.593811 
	C36.965202,276.931732 36.989021,276.267578 36.989021,274.999878 
	C34.823372,274.999878 32.732323,274.999908 30.641273,274.999908 
	C28.654739,274.999908 26.668205,274.999878 24.008390,274.999878 
	C24.008390,248.570984 24.008390,222.245483 24.425432,195.505646 
	C25.263752,196.129669 26.050756,197.167450 26.052458,198.206512 
	C26.088593,220.283524 25.992828,242.360962 26.121368,264.437134 
	C26.128304,265.628082 27.872231,266.808960 29.000423,268.353455 
	C31.625751,269.227936 34.058239,269.743408 36.090668,270.174133 
	C38.226303,262.033539 40.198017,254.517807 42.531250,247.001923 
	C43.615738,247.008224 44.338718,247.014694 45.024017,247.427948 
	C44.256809,250.889297 43.527271,253.943878 42.436470,257.101135 
	C41.731216,259.173065 41.387222,261.142273 41.020184,263.549805 
	C40.763229,266.084412 40.195419,268.209015 40.370544,270.270569 
	C40.662533,273.707855 40.337894,278.264771 42.342503,280.152283 
	C43.951496,281.667267 49.072723,280.841980 51.870575,279.481903 
	C72.080681,269.657440 89.046204,255.485855 104.331177,239.178055 
	C114.555351,228.269699 122.629684,216.006439 128.248032,202.133942 
	C133.290329,205.531006 129.896179,208.269852 128.013428,211.476578 
	C123.174438,219.556686 118.456940,227.327209 113.499580,234.941559 
	C111.137306,238.569931 108.318771,241.901276 105.508125,245.538223 
	C105.182495,245.829605 105.055634,245.949905 104.587372,246.141205 
	C95.537750,253.795425 86.829529,261.378662 77.840584,269.175537 
	C77.039337,271.202667 76.518814,273.016113 75.998291,274.829590 
M27.909286,270.640320 
	C27.338688,270.888092 26.768087,271.135864 26.197477,271.383606 
	C26.673111,271.857605 27.148745,272.331635 27.624380,272.805634 
	C27.872866,272.236511 28.121351,271.667389 27.909286,270.640320 
z"/>
<path fill="#F3FCF5" opacity="1.000000" stroke="none" 
	d="
M200.963486,256.954742 
	C202.688324,261.264893 204.456238,265.614349 206.676300,271.076233 
	C209.815796,270.553772 214.424927,269.832642 219.015823,269.009796 
	C223.524414,268.201691 223.606781,264.171387 223.443726,261.198914 
	C223.233337,257.363373 221.774506,253.401871 216.337219,254.116959 
	C215.975647,256.897461 215.639923,259.479156 215.123886,263.447540 
	C211.893356,259.506287 209.654678,257.278320 211.887543,253.320312 
	C214.220169,249.185440 217.884491,249.607025 221.308502,250.218506 
	C227.080032,251.249161 228.631134,253.813995 229.197495,261.333618 
	C231.128540,261.894714 233.206299,262.096313 234.852097,263.046265 
	C241.978165,267.159363 241.932266,267.238892 251.464691,262.904388 
	C250.757248,266.033295 250.195496,268.517822 249.702698,270.697449 
	C262.001587,271.156555 275.430725,271.657867 288.859894,272.159180 
	C288.953217,272.718170 289.046570,273.277191 289.139893,273.836212 
	C287.374451,274.224884 285.610199,274.945007 283.843323,274.951538 
	C263.539032,275.026733 243.234360,274.993561 222.355133,274.532227 
	C220.270584,273.716370 218.769714,273.101715 217.249039,273.047974 
	C213.140869,272.902802 209.000259,273.249756 204.923447,272.863770 
	C203.404190,272.719940 202.026154,271.084412 200.768448,269.820007 
	C199.363907,265.472900 197.774628,261.434875 196.056366,257.069122 
	C197.835892,257.069122 199.465805,257.069122 201.095734,257.069122 
	C201.095734,257.069122 201.006546,256.994049 200.963486,256.954742 
M229.045715,271.000580 
	C232.514359,271.000580 235.983002,271.000580 239.451645,271.000580 
	C236.562836,269.274414 233.681396,267.929291 230.657425,267.402771 
	C229.515961,267.203979 228.044876,268.898438 226.724045,269.729858 
	C227.213745,270.152222 227.703445,270.574585 229.045715,271.000580 
z"/>
<path fill="#EEFAF0" opacity="1.000000" stroke="none" 
	d="
M45.061695,247.021149 
	C44.338718,247.014694 43.615738,247.008224 42.459286,246.607651 
	C46.003590,234.574127 49.856216,222.889893 54.002899,211.310974 
	C56.793388,203.519012 60.333809,195.867950 52.976990,188.383820 
	C53.088173,190.343246 53.198418,192.286194 53.312843,194.302795 
	C50.885670,194.139069 48.559486,193.982178 46.438293,193.839096 
	C45.727146,191.141556 45.095020,188.743759 44.344837,185.898163 
	C46.501778,185.806366 50.341534,188.667099 49.907478,183.156128 
	C46.100605,183.516922 44.397732,181.870087 44.909649,177.934128 
	C45.027229,177.030075 44.088848,175.932892 43.509968,175.003342 
	C40.480804,170.139221 35.024464,173.019592 31.036118,170.730530 
	C30.996338,166.717758 29.230749,166.152924 26.417490,167.810059 
	C25.540630,168.326599 24.909464,169.260239 24.165825,170.002930 
	C23.398560,166.451767 24.491892,164.632919 28.458549,164.955536 
	C31.262056,165.183578 34.124062,164.766571 36.914421,165.064270 
	C40.852280,165.484390 44.027416,164.539215 46.640526,161.433502 
	C47.004848,162.507523 47.024338,163.315384 46.912220,164.449249 
	C43.844528,167.477539 42.897320,170.111801 46.532951,173.145645 
	C48.100452,174.453690 49.509850,176.182068 50.414642,178.005508 
	C52.319405,181.844193 53.315838,179.736389 54.843884,177.747040 
	C56.683060,175.352631 58.846291,173.207123 61.375290,171.001480 
	C62.548996,171.163406 63.216644,171.277710 63.680466,171.702545 
	C61.163181,174.994843 58.709183,177.879562 56.568428,180.980545 
	C53.156883,185.922318 58.342472,188.772461 59.435280,192.974884 
	C63.141556,185.375565 67.328072,178.726929 74.217743,174.183701 
	C74.710274,173.858902 74.696533,172.766403 75.187805,172.037964 
	C75.983635,173.067291 76.509865,174.089493 76.916908,175.422272 
	C68.936302,183.039978 63.265015,191.450699 60.202106,202.062851 
	C55.821301,217.241180 50.170292,232.052887 45.061695,247.021149 
z"/>
<path fill="#F3F9F2" opacity="1.000000" stroke="none" 
	d="
M77.036095,175.111694 
	C76.509865,174.089493 75.983635,173.067291 74.790382,172.017166 
	C70.687920,172.174500 67.495026,168.201553 63.884296,171.392014 
	C63.216644,171.277710 62.548996,171.163406 61.435287,170.646286 
	C61.547516,169.608536 62.105812,168.973602 62.754910,168.235413 
	C57.543186,166.723160 53.290909,161.745514 47.043823,164.123260 
	C47.024338,163.315384 47.004848,162.507523 46.974079,161.295746 
	C46.963875,160.533890 47.117428,160.262085 47.883247,159.950012 
	C48.629913,159.674286 48.846699,159.455505 48.993393,159.167252 
	C52.166584,160.148514 55.306183,161.262070 58.521214,162.078583 
	C62.843288,163.176208 67.196602,164.204773 71.590065,164.945023 
	C73.848717,165.325607 76.235451,164.865005 78.543762,165.046204 
	C87.438248,165.744293 96.025131,164.266266 104.559540,161.892029 
	C111.178329,160.050735 117.673264,160.233765 123.754799,164.105209 
	C124.874855,164.818207 126.494148,164.834229 127.902992,164.984787 
	C129.769775,165.184265 131.656235,165.199646 132.980652,165.266281 
	C133.348053,170.466858 133.657379,174.845566 133.557068,179.619812 
	C132.067642,180.685913 130.987900,181.356461 129.569748,181.861694 
	C126.478790,170.265396 118.813995,163.221634 109.496033,165.323227 
	C98.499527,167.803391 87.841095,171.782471 77.036095,175.111694 
z"/>
<path fill="#F6FBF5" opacity="1.000000" stroke="none" 
	d="
M129.908157,182.027008 
	C130.987900,181.356461 132.067642,180.685913 133.483414,180.008759 
	C133.880325,180.744492 133.941223,181.486832 133.724030,182.646881 
	C133.894653,184.377502 134.343369,185.690445 134.792068,187.003372 
	C134.845688,187.448364 134.899323,187.893372 134.545578,188.742737 
	C134.119720,190.441437 134.101242,191.735733 134.082764,193.030045 
	C133.717422,219.375916 133.352097,245.721786 132.589813,272.467163 
	C131.495621,272.066345 130.798355,271.266083 130.111862,270.478149 
	C129.063248,271.327545 128.031616,272.163147 127.028900,272.670898 
	C127.358902,271.522491 127.659996,270.701996 128.098572,269.551086 
	C128.155792,262.393005 128.308105,255.549973 127.858704,248.746689 
	C127.717209,246.604630 125.961861,244.569199 124.945152,242.484955 
	C123.263145,243.348724 121.581146,244.212479 120.628807,244.701523 
	C121.849609,247.171234 123.600235,249.103928 123.358711,250.743073 
	C123.171989,252.010300 120.328964,253.966095 118.949745,253.756271 
	C115.935303,253.297684 113.971115,250.549515 115.309349,247.648865 
	C116.783653,244.453262 119.246170,241.632324 121.616112,238.946304 
	C128.818436,230.783432 130.505402,221.446182 128.036438,211.102875 
	C129.896179,208.269852 133.290329,205.531006 128.299438,201.887421 
	C128.076874,201.321701 128.131958,201.163101 128.506348,200.959274 
	C129.421844,200.314972 130.018036,199.715897 130.614227,199.116821 
	C130.047424,198.732224 129.480637,198.347626 128.962982,197.636353 
	C129.067032,196.874756 129.121948,196.439804 129.430588,195.975983 
	C129.777924,195.270081 129.871536,194.593079 129.987976,193.461517 
	C129.976593,189.346985 129.942368,185.686996 129.908157,182.027008 
z"/>
<path fill="#F3FBF4" opacity="1.000000" stroke="none" 
	d="
M27.826538,49.007099 
	C27.939539,49.809803 28.052542,50.612507 28.092308,50.894989 
	C30.397173,49.761715 32.824085,48.568428 35.250999,47.375145 
	C35.523064,47.748421 35.795128,48.121700 36.067192,48.494980 
	C35.371349,50.039642 34.612823,51.559620 33.992714,53.134109 
	C32.700626,56.414768 32.863377,59.118389 34.735085,62.643379 
	C37.190853,67.268349 39.293743,70.783684 44.876408,72.249573 
	C48.379707,73.169464 50.015411,80.191841 48.741150,83.747765 
	C46.943951,88.763000 41.775955,89.397400 36.217617,84.423607 
	C38.494606,83.997269 40.232883,83.231880 41.824905,83.465065 
	C45.165890,83.954407 45.507137,82.529617 44.508442,80.017387 
	C42.513596,74.999313 37.762112,74.260376 32.616920,76.979713 
	C31.635489,77.498421 30.934958,78.548615 29.771051,79.813751 
	C29.211605,80.492790 29.079128,80.758209 29.039845,81.070152 
	C29.039845,81.070152 29.003368,81.006607 28.739832,81.041595 
	C27.036953,81.049706 25.597610,81.022827 24.158268,80.995956 
	C24.109213,70.641281 24.060158,60.286602 24.454262,49.466911 
	C25.873793,49.003632 26.850166,49.005363 27.826538,49.007099 
M28.088942,60.531849 
	C28.088942,64.872543 28.088942,69.213242 28.088942,74.123283 
	C32.621571,68.504295 32.621571,68.504295 28.088942,60.531849 
z"/>
<path fill="#F6FBF6" opacity="1.000000" stroke="none" 
	d="
M46.141048,129.983261 
	C46.758297,131.080017 47.375546,132.176788 47.753448,133.864105 
	C46.552147,136.156616 47.721813,139.576767 43.882820,138.959656 
	C44.191128,138.216125 44.499439,137.472580 44.879936,136.124710 
	C44.690849,135.017181 44.429573,134.514008 44.168297,134.010818 
	C42.039700,132.677826 39.911102,131.344849 37.343208,129.698059 
	C32.984909,127.553017 31.237986,128.972290 31.436216,133.826447 
	C31.258986,134.070297 31.107201,134.329071 30.709873,134.942734 
	C30.219603,135.507950 30.090540,135.776550 30.051695,136.088531 
	C30.051695,136.088531 30.008858,136.014145 29.683693,135.963440 
	C24.889528,132.620422 26.385756,127.760445 25.934837,123.355843 
	C25.680233,120.868843 24.774963,118.448456 24.162785,115.998062 
	C24.111891,115.246719 24.060997,114.495384 24.407951,113.434319 
	C26.148508,113.750534 27.491217,114.376472 28.833923,115.002411 
	C28.927601,116.153259 29.021278,117.304115 29.224821,119.804695 
	C33.573002,115.490440 37.671196,112.102928 40.913036,108.033264 
	C44.831688,103.113960 43.628586,96.859802 38.572300,92.935989 
	C37.055458,91.758873 35.170921,91.055573 33.454830,90.135208 
	C34.150829,89.429138 34.846828,88.723068 35.542831,88.016991 
	C41.888699,90.573814 47.238472,94.744553 49.538738,101.294647 
	C51.623177,107.230164 46.731213,111.406616 43.663212,115.877487 
	C41.983315,118.325523 37.758160,119.141342 38.685139,123.408501 
	C38.707909,123.513329 36.555244,124.090736 35.454533,125.008797 
	C37.029285,125.008797 38.604042,125.008797 40.547253,125.418869 
	C39.948635,130.620926 43.430176,129.817413 46.141048,129.983261 
z"/>
<path fill="#F7FCF5" opacity="1.000000" stroke="none" 
	d="
M57.825905,130.987473 
	C60.693253,138.834290 58.798485,145.879150 53.531025,152.652527 
	C72.498672,153.119064 90.796478,153.569138 109.708603,154.295227 
	C110.552185,155.322708 110.781448,156.074127 111.010719,156.825562 
	C86.649734,156.882385 62.288746,156.939209 37.510437,156.583374 
	C38.729633,154.508530 40.366150,152.846344 42.002663,151.184158 
	C51.668015,147.545425 54.099030,143.657532 54.186634,131.273056 
	C55.270748,130.351196 56.170063,130.150238 57.069374,129.949295 
	C57.069374,129.949295 57.001022,129.992630 57.089188,130.177841 
	C57.326641,130.640656 57.542828,130.848785 57.825905,130.987473 
z"/>
<path fill="#FAFDFA" opacity="1.000000" stroke="none" 
	d="
M28.807579,267.994507 
	C27.872231,266.808960 26.128304,265.628082 26.121368,264.437134 
	C25.992828,242.360962 26.088593,220.283524 26.052458,198.206512 
	C26.050756,197.167450 25.263752,196.129669 24.504513,195.042511 
	C24.116629,193.278961 24.066706,191.564194 24.435024,189.343811 
	C26.462107,186.762390 26.609095,182.884354 30.888638,184.333954 
	C30.915611,185.106400 30.865091,185.550461 30.472713,186.079620 
	C30.116114,187.786743 30.101370,189.408752 30.040152,191.402252 
	C30.992861,193.574554 31.992043,195.375381 33.033920,197.506042 
	C33.384995,198.890930 33.693378,199.945999 33.745865,201.200882 
	C32.661312,203.600449 31.832653,205.800232 30.677399,208.048767 
	C30.257641,209.073853 30.164476,210.050171 30.014874,211.356873 
	C29.898933,212.127014 29.839432,212.566757 29.595650,213.137131 
	C29.186428,213.488098 29.057289,213.754822 28.998749,214.531738 
	C28.918221,232.661880 28.862898,250.328186 28.807579,267.994507 
z"/>
<path fill="#F5FCF5" opacity="1.000000" stroke="none" 
	d="
M127.961105,269.881470 
	C127.659996,270.701996 127.358902,271.522491 127.002647,273.128906 
	C126.931763,274.220184 126.916031,274.525604 126.900291,274.831055 
	C125.498894,274.881683 124.097496,274.932312 122.304199,274.622375 
	C120.943886,274.452332 119.975464,274.642792 119.007050,274.833252 
	C118.836533,274.878906 118.666016,274.924591 118.020653,274.580933 
	C111.912910,273.958557 106.280418,273.711456 100.645500,273.548859 
	C100.440948,273.542938 100.212456,274.367157 99.995117,274.804504 
	C99.244919,274.855713 98.494720,274.906952 97.321625,274.582367 
	C96.153572,273.689331 95.408409,273.172119 94.663239,272.654907 
	C94.440285,273.372131 94.217331,274.089355 93.994385,274.806580 
	C93.244431,274.859039 92.494469,274.911530 91.313911,274.575500 
	C89.920586,274.394928 88.957863,274.602814 87.995140,274.810699 
	C87.551132,274.866028 87.107124,274.921326 86.265587,274.575256 
	C84.912750,273.783020 83.957443,273.392120 83.001663,272.752136 
	C83.001198,272.503052 83.003113,272.004883 83.321648,271.977478 
	C84.427063,271.633789 85.213951,271.317505 86.393677,271.000549 
	C88.663239,270.999878 90.539970,270.999878 92.468376,270.999878 
	C91.921570,269.873627 91.440079,268.881897 91.090012,267.581360 
	C94.185448,264.970032 97.264931,262.799988 100.090233,260.338226 
	C106.621849,254.647095 110.354416,254.897690 114.039558,261.869141 
	C112.484306,262.886841 110.807983,264.863525 109.316353,264.732758 
	C107.530212,264.576233 105.901794,262.620056 103.583313,261.012054 
	C103.043930,262.719604 102.540665,264.312805 102.026604,266.308716 
	C103.185043,271.284180 109.776993,272.089111 114.430252,268.096252 
	C116.565933,268.065216 118.279655,268.113678 120.057823,268.484650 
	C121.407494,269.987549 122.670898,272.426086 124.390121,268.933380 
	C125.815094,269.288300 126.888100,269.584869 127.961105,269.881470 
z"/>
<path fill="#EEFBEE" opacity="1.000000" stroke="none" 
	d="
M87.321045,147.158966 
	C77.891861,152.860031 69.638245,152.248291 64.742104,145.251740 
	C67.880768,145.525101 70.679474,145.486908 73.345215,146.063492 
	C77.981155,147.066208 81.789742,145.992966 84.969711,142.510452 
	C87.933762,139.264404 92.248116,138.906113 95.402634,140.425781 
	C99.074883,142.194870 101.828384,145.893860 104.878548,148.860245 
	C105.021751,148.999512 104.172531,150.159271 103.639687,151.101654 
	C99.108971,146.193161 94.328171,142.558289 87.321045,147.158966 
z"/>
<path fill="#EFF8F0" opacity="1.000000" stroke="none" 
	d="
M200.583710,270.129089 
	C202.026154,271.084412 203.404190,272.719940 204.923447,272.863770 
	C209.000259,273.249756 213.140869,272.902802 217.249039,273.047974 
	C218.769714,273.101715 220.270584,273.716370 221.892151,274.456421 
	C203.643555,274.888367 185.283279,274.939026 166.459778,274.912415 
	C169.388733,273.898041 172.780914,272.960907 176.639160,272.147522 
	C177.188278,272.318726 177.271347,272.366150 177.354416,272.413574 
	C177.237701,272.274597 177.120987,272.135590 177.004272,271.996613 
	C178.182953,270.682495 179.361633,269.368347 180.778809,268.466736 
	C182.104095,269.252106 183.182693,269.917419 184.279083,269.948212 
	C189.711380,270.100525 195.148376,270.085297 200.583710,270.129089 
z"/>
<path fill="#F1FDF6" opacity="1.000000" stroke="none" 
	d="
M150.010437,197.016418 
	C149.409119,196.221939 148.846451,195.800323 148.283783,195.378708 
	C149.076172,195.001450 149.961563,194.175003 150.646469,194.316833 
	C157.060318,195.644775 162.099091,207.386002 157.651459,212.334244 
	C151.877213,218.758408 152.150467,225.434845 153.950043,232.799515 
	C154.016251,233.070419 153.779007,233.415466 153.153198,235.443314 
	C151.621811,232.275604 150.309525,230.332840 149.719742,228.191116 
	C148.178680,222.594818 147.349640,217.218903 152.065994,212.204071 
	C155.720291,208.318542 154.505539,202.229980 150.010437,197.016418 
z"/>
<path fill="#F4FBF5" opacity="1.000000" stroke="none" 
	d="
M30.811142,184.005554 
	C26.609095,182.884354 26.462107,186.762390 24.511593,188.920990 
	C24.117722,182.978577 24.065525,176.953384 24.089577,170.465546 
	C24.909464,169.260239 25.540630,168.326599 26.417490,167.810059 
	C29.230749,166.152924 30.996338,166.717758 30.878298,171.074982 
	C30.760719,175.887772 30.785931,179.946671 30.811142,184.005554 
z"/>
<path fill="#F3FBF4" opacity="1.000000" stroke="none" 
	d="
M28.910402,114.548187 
	C27.491217,114.376472 26.148508,113.750534 24.481503,113.063271 
	C24.107683,105.805725 24.058167,98.609497 24.689323,91.085426 
	C26.186562,90.704056 27.003122,90.650536 27.819683,90.597015 
	C27.877724,91.792198 27.935764,92.987381 27.962198,94.930908 
	C28.210918,97.164513 28.491245,98.649780 28.771570,100.135056 
	C28.819984,100.340279 28.868401,100.545494 28.605499,101.000298 
	C28.452326,101.386429 28.610468,101.522980 28.768608,101.659523 
	C28.841366,105.804337 28.914124,109.949158 28.910402,114.548187 
z"/>
<path fill="#F3FBF4" opacity="1.000000" stroke="none" 
	d="
M41.629799,151.103317 
	C40.366150,152.846344 38.729633,154.508530 37.047707,156.505219 
	C33.396790,153.804337 29.791275,150.768936 26.209560,147.091354 
	C27.095461,144.965652 27.957561,143.482132 28.819664,141.998596 
	C31.603537,145.212143 34.258450,148.557022 37.282280,151.526199 
	C37.872871,152.106110 39.895046,151.228058 41.629799,151.103317 
z"/>
<path fill="#EBFAE8" opacity="1.000000" stroke="none" 
	d="
M27.908905,48.544434 
	C26.850166,49.005363 25.873793,49.003632 24.531288,49.004299 
	C24.108198,41.648537 24.051241,34.290371 24.450785,26.563662 
	C25.882944,26.461414 26.858601,26.727713 27.834255,26.994011 
	C27.886595,34.023266 27.938934,41.052517 27.908905,48.544434 
z"/>
<path fill="#F2FAF3" opacity="1.000000" stroke="none" 
	d="
M43.553444,139.092300 
	C47.721813,139.576767 46.552147,136.156616 47.801384,134.209595 
	C49.743065,138.924316 47.816368,143.467896 43.486271,144.817978 
	C39.887627,145.940002 35.286247,143.415894 34.275604,139.520309 
	C34.006275,138.482162 34.643135,137.208908 34.863949,136.043594 
	C35.606319,136.785126 36.554260,137.409927 37.053726,138.289413 
	C38.766102,141.304688 40.776051,141.493790 43.553444,139.092300 
z"/>
<path fill="#F1FCF0" opacity="1.000000" stroke="none" 
	d="
M165.924362,250.592102 
	C164.089417,252.085297 162.064651,253.217407 160.042038,254.740295 
	C159.370010,256.027649 158.695831,256.924194 157.836273,258.067291 
	C159.608231,260.019196 161.410477,262.004517 163.357010,264.148743 
	C159.661514,265.029846 154.679184,261.865601 154.014725,258.614319 
	C153.251419,254.879349 156.644623,250.787308 161.322433,250.052902 
	C162.748657,249.828979 164.261414,250.156189 165.924362,250.592102 
z"/>
<path fill="#EEF9EC" opacity="1.000000" stroke="none" 
	d="
M28.860561,99.790817 
	C28.491245,98.649780 28.210918,97.164513 27.983532,95.290863 
	C33.642132,92.954536 39.856590,95.440239 41.008125,100.145920 
	C41.191711,100.896118 41.005249,101.736862 40.989861,102.535751 
	C40.160629,102.362785 39.244423,102.359070 38.518093,101.985832 
	C36.119160,100.753151 33.844315,99.261833 31.387623,98.172455 
	C30.865860,97.941086 29.777088,98.988388 28.860561,99.790817 
z"/>
<path fill="#F3FBF4" opacity="1.000000" stroke="none" 
	d="
M24.085938,116.461258 
	C24.774963,118.448456 25.680233,120.868843 25.934837,123.355843 
	C26.385756,127.760445 24.889528,132.620422 29.721699,135.983383 
	C29.974422,136.965378 29.863974,137.876740 29.137653,138.799225 
	C27.067005,139.207214 25.612230,139.604080 24.157455,140.000946 
	C24.108002,132.308777 24.058546,124.616615 24.085938,116.461258 
z"/>
<path fill="#F2FEF2" opacity="1.000000" stroke="none" 
	d="
M111.472687,156.904785 
	C110.781448,156.074127 110.552185,155.322708 110.172150,154.376801 
	C117.680176,154.360367 125.494270,152.726868 132.930283,155.503220 
	C132.920959,155.996811 132.911621,156.490417 132.902298,156.984009 
	C125.913086,156.984009 118.923866,156.984009 111.472687,156.904785 
z"/>
<path fill="#F1FDF6" opacity="1.000000" stroke="none" 
	d="
M158.825470,239.145752 
	C156.952362,237.730255 155.058243,236.692688 157.509827,233.817825 
	C159.607407,231.358047 160.880142,228.194901 162.499893,225.373856 
	C165.840546,230.136948 164.585068,235.010818 158.879669,238.868301 
	C158.705460,239.259048 158.787979,239.186081 158.825470,239.145752 
z"/>
<path fill="#EEFBEE" opacity="1.000000" stroke="none" 
	d="
M66.411942,140.095795 
	C65.130905,141.621109 64.152565,142.909302 63.174217,144.197495 
	C62.565308,143.852646 61.956394,143.507797 61.347481,143.162949 
	C62.297142,140.543457 62.522705,136.750397 64.381111,135.603745 
	C66.666115,134.193909 70.525223,133.920975 73.818214,137.254013 
	C70.981796,138.294037 68.848213,139.076355 66.411942,140.095795 
z"/>
<path fill="#F2FEF2" opacity="1.000000" stroke="none" 
	d="
M27.755297,26.579906 
	C26.858601,26.727713 25.882944,26.461414 24.529011,26.154797 
	C24.100111,22.667362 23.900204,19.212587 24.076475,15.777116 
	C24.141825,14.503473 25.090122,13.275133 25.635754,12.026133 
	C26.089962,13.369393 26.793673,14.684529 26.948889,16.061493 
	C27.326834,19.414326 27.450352,22.795839 27.755297,26.579906 
z"/>
<path fill="#F6FBF6" opacity="1.000000" stroke="none" 
	d="
M240.996826,254.711212 
	C237.784988,260.931915 237.038086,261.180573 231.977005,258.030426 
	C234.155884,256.079254 236.267303,254.083481 238.560287,252.324326 
	C238.754288,252.175491 240.162842,253.609726 240.996826,254.711212 
z"/>
<path fill="#F1FDF6" opacity="1.000000" stroke="none" 
	d="
M39.653912,65.170349 
	C38.947849,59.368561 39.582092,58.855976 47.054417,59.157661 
	C45.306042,61.712673 43.761505,64.057877 42.058163,66.281425 
	C41.930470,66.448112 40.668205,65.745674 39.653912,65.170349 
z"/>
<path fill="#EEF9EC" opacity="1.000000" stroke="none" 
	d="
M27.899658,90.252426 
	C27.003122,90.650536 26.186562,90.704056 24.762781,90.656525 
	C24.104174,87.651093 24.052786,84.746712 24.079832,81.419136 
	C25.597610,81.022827 27.036953,81.049706 28.772274,81.058609 
	C28.705381,83.996376 28.342508,86.952110 27.899658,90.252426 
z"/>
<path fill="#EFF8F0" opacity="1.000000" stroke="none" 
	d="
M100.456848,274.887451 
	C100.212456,274.367157 100.440948,273.542938 100.645500,273.548859 
	C106.280418,273.711456 111.912910,273.958557 117.764885,274.512390 
	C112.295494,274.878937 106.607033,274.924683 100.456848,274.887451 
z"/>
<path fill="#F6FBF6" opacity="1.000000" stroke="none" 
	d="
M24.082294,140.397491 
	C25.612230,139.604080 27.067005,139.207214 28.815052,138.928543 
	C29.064236,139.788147 29.020151,140.529556 28.897865,141.634781 
	C27.957561,143.482132 27.095461,144.965652 26.092278,146.779266 
	C25.303175,145.004257 24.655153,142.899155 24.082294,140.397491 
z"/>
<path fill="#EFF8F0" opacity="1.000000" stroke="none" 
	d="
M86.000839,271.001221 
	C85.213951,271.317505 84.427063,271.633789 83.033447,271.868530 
	C81.284882,272.799988 80.143044,273.813019 79.001205,274.826050 
	C78.247849,274.879150 77.494499,274.932220 76.369720,274.907471 
	C76.518814,273.016113 77.039337,271.202667 78.187683,269.333435 
	C80.520844,269.510284 82.226181,269.742859 84.236816,270.001831 
	C85.028351,270.352570 85.514595,270.676910 86.000839,271.001221 
z"/>
<path fill="#ECFCEE" opacity="1.000000" stroke="none" 
	d="
M56.941952,129.619278 
	C56.170063,130.150238 55.270748,130.351196 54.158813,130.830673 
	C52.193077,128.620316 50.439968,126.131454 48.686855,123.642586 
	C49.109715,123.290665 49.532574,122.938744 49.955433,122.586823 
	C52.241798,124.820969 54.528164,127.055115 56.941952,129.619278 
z"/>
<path fill="#F3FBF4" opacity="1.000000" stroke="none" 
	d="
M31.726131,133.620941 
	C31.237986,128.972290 32.984909,127.553017 36.967712,129.739136 
	C35.359688,131.201141 33.687866,132.308289 31.726131,133.620941 
z"/>
<path fill="#EFF8F0" opacity="1.000000" stroke="none" 
	d="
M127.270462,274.907196 
	C126.916031,274.525604 126.931763,274.220184 126.973755,273.456787 
	C128.031616,272.163147 129.063248,271.327545 130.111862,270.478149 
	C130.798355,271.266083 131.495621,272.066345 132.515076,272.930115 
	C132.497375,277.293091 129.258072,274.020325 127.270462,274.907196 
z"/>
<path fill="#F2FAF3" opacity="1.000000" stroke="none" 
	d="
M46.072384,129.634888 
	C43.430176,129.817413 39.948635,130.620926 40.955818,125.498329 
	C42.665188,126.540657 44.334454,127.913597 46.072384,129.634888 
z"/>
<path fill="#F0FAF1" opacity="1.000000" stroke="none" 
	d="
M79.396606,274.901733 
	C80.143044,273.813019 81.284882,272.799988 82.714920,271.895935 
	C83.003113,272.004883 83.001198,272.503052 83.000641,273.056274 
	C82.999367,274.015045 82.998650,274.420593 82.997932,274.826141 
	C81.929291,274.876587 80.860641,274.927002 79.396606,274.901733 
z"/>
<path fill="#F3F9F2" opacity="1.000000" stroke="none" 
	d="
M134.873810,186.636780 
	C134.343369,185.690445 133.894653,184.377502 133.764755,183.018921 
	C134.374222,184.072235 134.664871,185.171204 134.873810,186.636780 
z"/>
<path fill="#F3F9F2" opacity="1.000000" stroke="none" 
	d="
M134.420532,192.867676 
	C134.101242,191.735733 134.119720,190.441437 134.466675,189.071960 
	C134.782852,190.232971 134.770584,191.469131 134.420532,192.867676 
z"/>
<path fill="#EFF8F0" opacity="1.000000" stroke="none" 
	d="
M94.366394,274.888123 
	C94.217331,274.089355 94.440285,273.372131 94.663239,272.654907 
	C95.408409,273.172119 96.153572,273.689331 96.951935,274.504639 
	C96.249557,274.858368 95.493988,274.914001 94.366394,274.888123 
z"/>
<path fill="#EFF8F0" opacity="1.000000" stroke="none" 
	d="
M83.369598,274.904877 
	C82.998650,274.420593 82.999367,274.015045 83.001114,273.305359 
	C83.957443,273.392120 84.912750,273.783020 85.936081,274.501770 
	C85.249825,274.880951 84.495544,274.932281 83.369598,274.904877 
z"/>
<path fill="#EFF8F0" opacity="1.000000" stroke="none" 
	d="
M88.367004,274.892059 
	C88.957863,274.602814 89.920586,274.394928 90.944107,274.498535 
	C90.249557,274.864502 89.494209,274.918945 88.367004,274.892059 
z"/>
<path fill="#EFF8F0" opacity="1.000000" stroke="none" 
	d="
M119.377563,274.912354 
	C119.975464,274.642792 120.943886,274.452332 121.958427,274.547668 
	C121.252396,274.886139 120.500244,274.938812 119.377563,274.912354 
z"/>
<path fill="#F2FAF3" opacity="1.000000" stroke="none" 
	d="
M44.093376,134.329193 
	C44.429573,134.514008 44.690849,135.017181 44.954800,135.816010 
	C44.644466,135.623642 44.331459,135.135605 44.093376,134.329193 
z"/>
<path fill="#EEF9EC" opacity="1.000000" stroke="none" 
	d="
M29.292761,80.995361 
	C29.079128,80.758209 29.211605,80.492790 29.623226,80.145538 
	C29.721344,80.318314 29.633511,80.619446 29.292761,80.995361 
z"/>
<path fill="#EEF9EC" opacity="1.000000" stroke="none" 
	d="
M28.763802,101.585793 
	C28.610468,101.522980 28.452326,101.386429 28.528698,101.307114 
	C28.763214,101.364342 28.758995,101.512062 28.763802,101.585793 
z"/>
<path fill="#ECFCEE" opacity="1.000000" stroke="none" 
	d="
M57.872742,130.725784 
	C57.542828,130.848785 57.326641,130.640656 57.112282,130.144592 
	C57.338005,130.105469 57.628792,130.284775 57.872742,130.725784 
z"/>
<path fill="#F3FBF4" opacity="1.000000" stroke="none" 
	d="
M30.304256,136.007629 
	C30.090540,135.776550 30.219603,135.507950 30.623188,135.150681 
	C30.723934,135.321350 30.640377,135.624039 30.304256,136.007629 
z"/>
<path fill="#EEFAF0" opacity="1.000000" stroke="none" 
	d="
M48.726158,159.122620 
	C48.846699,159.455505 48.629913,159.674286 48.119804,159.893677 
	C48.084023,159.668488 48.271477,159.373230 48.726158,159.122620 
z"/>
<path fill="#000000" opacity="1.000000" stroke="none" 
	d="
M200.768448,269.820007 
	C195.148376,270.085297 189.711380,270.100525 184.279083,269.948212 
	C183.182693,269.917419 182.104095,269.252106 181.087540,268.442993 
	C184.274490,264.987640 187.652313,262.188965 190.436935,258.889618 
	C193.421326,255.353500 196.992737,255.747070 200.942352,256.671570 
	C199.465805,257.069122 197.835892,257.069122 196.056366,257.069122 
	C197.774628,261.434875 199.363907,265.472900 200.768448,269.820007 
z"/>
<path fill="#080808" opacity="1.000000" stroke="none" 
	d="
M129.176880,196.004868 
	C129.121948,196.439804 129.067032,196.874756 128.643387,197.780594 
	C128.245438,199.169159 128.216232,200.086838 128.187042,201.004501 
	C128.131958,201.163101 128.076874,201.321701 127.970367,201.726837 
	C122.629684,216.006439 114.555351,228.269699 104.331177,239.178055 
	C89.046204,255.485855 72.080681,269.657440 51.870575,279.481903 
	C49.072723,280.841980 43.951496,281.667267 42.342503,280.152283 
	C40.337894,278.264771 40.662533,273.707855 40.370544,270.270569 
	C40.195419,268.209015 40.763229,266.084412 41.343758,263.409119 
	C41.943645,262.665558 42.187653,262.399078 42.453663,262.374908 
	C42.611893,262.360565 42.918198,262.703461 42.965134,262.926331 
	C43.777443,266.783447 45.534733,270.125122 50.001488,268.738251 
	C51.736092,268.199646 53.776283,265.065125 53.743679,263.146027 
	C53.671539,258.900269 50.136375,258.069336 46.434319,257.992371 
	C45.215767,257.967041 44.009575,257.346710 42.797729,256.998444 
	C43.527271,253.943878 44.256809,250.889297 45.024017,247.427948 
	C50.170292,232.052887 55.821301,217.241180 60.202106,202.062851 
	C63.265015,191.450699 68.936302,183.039978 76.916908,175.422287 
	C87.841095,171.782471 98.499527,167.803391 109.496033,165.323227 
	C118.813995,163.221634 126.478790,170.265396 129.569748,181.861694 
	C129.942368,185.686996 129.976593,189.346985 129.693085,193.589630 
	C129.309189,194.783142 129.243027,195.394012 129.176880,196.004868 
M105.551094,215.988953 
	C106.575905,216.391815 107.646378,216.707092 108.617371,217.213196 
	C112.190224,219.075500 114.285728,216.680054 115.778770,214.261017 
	C117.548210,211.394150 118.218941,208.019470 114.922203,205.548477 
	C112.562309,203.779678 110.408020,201.988007 106.851074,204.417435 
	C101.956436,207.760529 102.811127,211.296265 105.551094,215.988953 
M94.419937,188.071655 
	C93.966461,187.904541 93.427505,187.842545 93.072784,187.554016 
	C89.653778,184.772995 86.417618,186.951141 84.763451,189.181259 
	C83.370155,191.059692 82.998993,195.105621 84.119942,197.098053 
	C85.669304,199.851944 89.041748,201.500702 92.791534,199.967926 
	C97.112610,198.201630 97.993553,193.803589 94.419937,188.071655 
M108.479836,193.024612 
	C111.985924,195.420029 114.785431,193.336945 116.405083,190.803894 
	C117.556458,189.003204 117.437355,186.036484 117.085716,183.711090 
	C116.554665,180.199249 113.573227,179.365631 110.674431,180.133072 
	C108.677101,180.661850 105.844688,182.069733 105.416229,183.639130 
	C104.563049,186.764175 103.790756,190.624069 108.479836,193.024612 
M51.067131,234.923462 
	C50.233856,238.859421 52.618206,241.267914 55.782562,241.678940 
	C57.623119,241.917999 60.860828,239.970078 61.517487,238.257584 
	C62.130085,236.659958 60.732601,233.450165 59.209064,232.049698 
	C56.020256,229.118500 53.559086,231.840714 51.067131,234.923462 
M60.142521,258.975494 
	C64.667099,258.277771 64.669609,254.652237 63.611820,251.881577 
	C62.948963,250.145370 59.750694,248.082535 58.023788,248.346863 
	C55.349709,248.756149 53.695312,251.292984 53.936527,254.659729 
	C54.197060,258.296143 55.979328,259.431427 60.142521,258.975494 
z"/>
<path fill="#000000" opacity="1.000000" stroke="none" 
	d="
M30.888638,184.333954 
	C30.785931,179.946671 30.760719,175.887772 30.893328,171.484436 
	C35.024464,173.019592 40.480804,170.139221 43.509968,175.003342 
	C44.088848,175.932892 45.027229,177.030075 44.909649,177.934128 
	C44.397732,181.870087 46.100605,183.516922 49.907478,183.156128 
	C50.341534,188.667099 46.501778,185.806366 44.344837,185.898163 
	C45.095020,188.743759 45.727146,191.141556 46.438293,193.839096 
	C48.559486,193.982178 50.885670,194.139069 53.312843,194.302795 
	C53.198418,192.286194 53.088173,190.343246 52.976990,188.383820 
	C60.333809,195.867950 56.793388,203.519012 54.002899,211.310974 
	C49.856216,222.889893 46.003590,234.574127 42.097771,246.607788 
	C40.198017,254.517807 38.226303,262.033539 36.090668,270.174133 
	C34.058239,269.743408 31.625751,269.227936 29.000420,268.353455 
	C28.862898,250.328186 28.918221,232.661880 29.251347,214.452927 
	C29.612743,213.609024 29.696339,213.307770 29.779932,213.006500 
	C29.839432,212.566757 29.898933,212.127014 30.319332,211.253448 
	C31.065821,209.880280 31.451414,208.940933 31.913582,207.672211 
	C33.158726,205.843246 34.327297,204.343689 35.774487,202.626801 
	C42.765572,195.619263 43.438778,192.810562 39.849762,184.251053 
	C37.759769,186.168259 35.480892,187.640747 34.269268,189.731674 
	C33.885769,190.393478 36.352669,192.706985 38.000416,194.914871 
	C36.543671,195.572510 34.767441,196.374359 32.991219,197.176208 
	C31.992043,195.375381 30.992861,193.574554 30.393188,191.230896 
	C30.799992,189.123550 30.807281,187.559036 30.814571,185.994522 
	C30.865091,185.550461 30.915611,185.106400 30.888638,184.333954 
M42.979206,183.137070 
	C42.480999,180.816803 41.982788,178.496521 41.494053,176.220367 
	C38.997482,175.937729 36.558697,175.661636 34.063328,175.379135 
	C34.531712,178.355118 34.955750,181.049362 35.313805,183.324356 
	C37.959274,183.538834 40.464283,183.741913 42.979206,183.137070 
z"/>
<path fill="#000000" opacity="1.000000" stroke="none" 
	d="
M83.931519,269.975433 
	C82.226181,269.742859 80.520844,269.510284 78.468407,269.119812 
	C86.829529,261.378662 95.537750,253.795425 104.619003,246.583832 
	C104.992035,248.875854 104.992035,250.796219 104.992035,252.647156 
	C107.912018,253.039078 110.365440,253.368362 112.920250,253.711273 
	C112.490326,251.107468 112.078011,248.610336 111.711411,246.390045 
	C109.485870,246.010925 107.596382,245.689041 105.706902,245.367157 
	C108.318771,241.901276 111.137306,238.569931 113.499580,234.941559 
	C118.456940,227.327209 123.174438,219.556686 128.013428,211.476578 
	C130.505402,221.446182 128.818436,230.783432 121.616112,238.946304 
	C119.246170,241.632324 116.783653,244.453262 115.309349,247.648865 
	C113.971115,250.549515 115.935303,253.297684 118.949745,253.756271 
	C120.328964,253.966095 123.171989,252.010300 123.358711,250.743073 
	C123.600235,249.103928 121.849609,247.171234 120.628807,244.701523 
	C121.581146,244.212479 123.263145,243.348724 124.945152,242.484955 
	C125.961861,244.569199 127.717209,246.604630 127.858704,248.746689 
	C128.308105,255.549973 128.155792,262.393005 128.098572,269.551086 
	C126.888100,269.584869 125.815094,269.288300 124.228096,268.594330 
	C122.473862,268.185364 121.233612,268.173767 119.993370,268.162170 
	C118.279655,268.113678 116.565933,268.065216 113.993011,268.021851 
	C111.154068,268.019531 109.076469,267.626831 107.218536,268.098816 
	C104.704468,268.737488 103.146126,268.105438 102.037399,265.906006 
	C102.540665,264.312805 103.043930,262.719604 103.583313,261.012054 
	C105.901794,262.620056 107.530212,264.576233 109.316353,264.732758 
	C110.807983,264.863525 112.484306,262.886841 114.039558,261.869141 
	C110.354416,254.897690 106.621849,254.647095 100.090233,260.338226 
	C97.264931,262.799988 94.185448,264.970032 90.698509,267.631226 
	C88.094231,268.651703 86.012871,269.313568 83.931519,269.975433 
M116.006996,261.687897 
	C117.295418,266.094482 121.252785,263.379150 123.929764,265.321381 
	C121.658279,256.503326 121.020294,255.947678 114.401840,256.359406 
	C114.928398,257.836334 115.464630,259.340363 116.006996,261.687897 
z"/>
<path fill="#EEF8EF" opacity="1.000000" stroke="none" 
	d="
M42.436470,257.101135 
	C44.009575,257.346710 45.215767,257.967041 46.434319,257.992371 
	C50.136375,258.069336 53.671539,258.900269 53.743679,263.146027 
	C53.776283,265.065125 51.736092,268.199646 50.001488,268.738251 
	C45.534733,270.125122 43.777443,266.783447 42.965134,262.926331 
	C42.918198,262.703461 42.611893,262.360565 42.453663,262.374908 
	C42.187653,262.399078 41.943645,262.665558 41.366806,262.970795 
	C41.387222,261.142273 41.731216,259.173065 42.436470,257.101135 
z"/>
<path fill="#FAFDFA" opacity="1.000000" stroke="none" 
	d="
M28.139563,270.869293 
	C28.121351,271.667389 27.872866,272.236511 27.624378,272.805634 
	C27.148745,272.331635 26.673111,271.857605 26.197483,271.383606 
	C26.768087,271.135864 27.338688,270.888092 28.139563,270.869293 
z"/>
<path fill="#000000" opacity="1.000000" stroke="none" 
	d="
M228.619446,270.998779 
	C227.703445,270.574585 227.213745,270.152222 226.724045,269.729858 
	C228.044876,268.898438 229.515961,267.203979 230.657425,267.402771 
	C233.681396,267.929291 236.562836,269.274414 239.451645,271.000580 
	C235.983002,271.000580 232.514359,271.000580 228.619446,270.998779 
z"/>
<path fill="#000000" opacity="1.000000" stroke="none" 
	d="
M63.680466,171.702545 
	C67.495026,168.201553 70.687920,172.174500 74.520782,172.010040 
	C74.696533,172.766403 74.710274,173.858902 74.217743,174.183701 
	C67.328072,178.726929 63.141556,185.375565 59.435280,192.974884 
	C58.342472,188.772461 53.156883,185.922318 56.568428,180.980545 
	C58.709183,177.879562 61.163181,174.994843 63.680466,171.702545 
z"/>
<path fill="#000000" opacity="1.000000" stroke="none" 
	d="
M46.912216,164.449249 
	C53.290909,161.745514 57.543186,166.723160 62.754910,168.235413 
	C62.105812,168.973602 61.547516,169.608536 60.929226,170.598663 
	C58.846291,173.207123 56.683060,175.352631 54.843884,177.747040 
	C53.315838,179.736389 52.319405,181.844193 50.414642,178.005508 
	C49.509850,176.182068 48.100452,174.453690 46.532951,173.145645 
	C42.897320,170.111801 43.844528,167.477539 46.912216,164.449249 
z"/>
<path fill="#F0FAF1" opacity="1.000000" stroke="none" 
	d="
M128.506348,200.959274 
	C128.216232,200.086838 128.245438,199.169159 128.594238,198.107269 
	C129.480637,198.347626 130.047424,198.732224 130.614227,199.116821 
	C130.018036,199.715897 129.421844,200.314972 128.506348,200.959274 
z"/>
<path fill="#F0FAF1" opacity="1.000000" stroke="none" 
	d="
M129.430603,195.975983 
	C129.243027,195.394012 129.309189,194.783142 129.670242,194.044174 
	C129.871536,194.593079 129.777924,195.270081 129.430603,195.975983 
z"/>
<path fill="#000000" opacity="1.000000" stroke="none" 
	d="
M28.495937,60.534119 
	C32.621571,68.504295 32.621571,68.504295 28.088942,74.123283 
	C28.088942,69.213242 28.088942,64.872543 28.495937,60.534119 
z"/>
<path fill="#EEF9EC" opacity="1.000000" stroke="none" 
	d="
M33.033913,197.506027 
	C34.767441,196.374359 36.543671,195.572510 38.000416,194.914871 
	C36.352669,192.706985 33.885769,190.393478 34.269268,189.731674 
	C35.480892,187.640747 37.759769,186.168259 39.849762,184.251053 
	C43.438778,192.810562 42.765572,195.619263 35.662064,202.409210 
	C35.271015,202.408966 35.000458,202.000610 34.890404,201.781967 
	C34.581356,201.289032 34.320412,201.100449 33.998760,200.998779 
	C34.000000,201.000000 34.001759,201.001083 34.001759,201.001083 
	C33.693378,199.945999 33.384995,198.890930 33.033913,197.506027 
z"/>
<path fill="#EEF9EC" opacity="1.000000" stroke="none" 
	d="
M35.383438,202.626556 
	C34.327297,204.343689 33.158726,205.843246 31.705332,207.671509 
	C31.420507,208.000229 31.003998,208.000000 31.003996,208.000000 
	C31.832653,205.800232 32.661312,203.600449 33.745865,201.200882 
	C34.001759,201.001083 34.000000,201.000000 34.109917,201.216583 
	C34.419445,201.705643 34.679653,201.894806 35.000458,202.000610 
	C35.000458,202.000610 35.271015,202.408966 35.383438,202.626556 
z"/>
<path fill="#F4FBF5" opacity="1.000000" stroke="none" 
	d="
M30.472713,186.079620 
	C30.807281,187.559036 30.799992,189.123550 30.439663,190.859406 
	C30.101370,189.408752 30.116114,187.786743 30.472713,186.079620 
z"/>
<path fill="#F0FAF1" opacity="1.000000" stroke="none" 
	d="
M30.677402,208.048767 
	C31.003998,208.000000 31.420507,208.000229 31.628757,208.000916 
	C31.451414,208.940933 31.065821,209.880280 30.375771,210.923035 
	C30.164476,210.050171 30.257641,209.073853 30.677402,208.048767 
z"/>
<path fill="#F0FAF1" opacity="1.000000" stroke="none" 
	d="
M29.595654,213.137131 
	C29.696339,213.307770 29.612743,213.609024 29.276552,213.989105 
	C29.057289,213.754822 29.186428,213.488098 29.595654,213.137131 
z"/>
<path fill="#EAF8EF" opacity="1.000000" stroke="none" 
	d="
M102.026611,266.308716 
	C103.146126,268.105438 104.704468,268.737488 107.218536,268.098816 
	C109.076469,267.626831 111.154068,268.019531 113.571045,268.101379 
	C109.776993,272.089111 103.185043,271.284180 102.026611,266.308716 
z"/>
<path fill="#F0FAF1" opacity="1.000000" stroke="none" 
	d="
M84.236816,270.001831 
	C86.012871,269.313568 88.094231,268.651703 90.567085,267.940002 
	C91.440079,268.881897 91.921570,269.873627 92.468376,270.999878 
	C90.539970,270.999878 88.663239,270.999878 86.393677,271.000549 
	C85.514595,270.676910 85.028351,270.352570 84.236816,270.001831 
z"/>
<path fill="#EAF8EF" opacity="1.000000" stroke="none" 
	d="
M120.057823,268.484680 
	C121.233612,268.173767 122.473862,268.185364 123.876129,268.536011 
	C122.670898,272.426086 121.407494,269.987549 120.057823,268.484680 
z"/>
<path fill="#F4FBF5" opacity="1.000000" stroke="none" 
	d="
M177.002136,271.998291 
	C177.120987,272.135590 177.237701,272.274597 177.354416,272.413574 
	C177.271347,272.366150 177.188278,272.318726 177.050919,272.138092 
	C176.996628,272.004883 177.000000,272.000000 177.002136,271.998291 
z"/>
<path fill="#F2FAF3" opacity="1.000000" stroke="none" 
	d="
M105.273590,215.709015 
	C102.811127,211.296265 101.956436,207.760529 106.851074,204.417435 
	C110.408020,201.988007 112.562309,203.779678 114.922203,205.548477 
	C118.218941,208.019470 117.548210,211.394150 115.778770,214.261017 
	C114.285728,216.680054 112.190224,219.075500 108.617371,217.213196 
	C107.646378,216.707092 106.575905,216.391815 105.273590,215.709015 
z"/>
<path fill="#F5FBF7" opacity="1.000000" stroke="none" 
	d="
M94.718513,188.326080 
	C97.993553,193.803589 97.112610,198.201630 92.791534,199.967926 
	C89.041748,201.500702 85.669304,199.851944 84.119942,197.098053 
	C82.998993,195.105621 83.370155,191.059692 84.763451,189.181259 
	C86.417618,186.951141 89.653778,184.772995 93.072784,187.554016 
	C93.427505,187.842545 93.966461,187.904541 94.718513,188.326080 
z"/>
<path fill="#F4FBF5" opacity="1.000000" stroke="none" 
	d="
M108.078064,192.974655 
	C103.790756,190.624069 104.563049,186.764175 105.416229,183.639130 
	C105.844688,182.069733 108.677101,180.661850 110.674431,180.133072 
	C113.573227,179.365631 116.554665,180.199249 117.085716,183.711090 
	C117.437355,186.036484 117.556458,189.003204 116.405083,190.803894 
	C114.785431,193.336945 111.985924,195.420029 108.078064,192.974655 
z"/>
<path fill="#EEF8EF" opacity="1.000000" stroke="none" 
	d="
M51.206429,234.549652 
	C53.559086,231.840714 56.020256,229.118500 59.209064,232.049698 
	C60.732601,233.450165 62.130085,236.659958 61.517487,238.257584 
	C60.860828,239.970078 57.623119,241.917999 55.782562,241.678940 
	C52.618206,241.267914 50.233856,238.859421 51.206429,234.549652 
z"/>
<path fill="#EEF8EF" opacity="1.000000" stroke="none" 
	d="
M59.716202,258.978973 
	C55.979328,259.431427 54.197060,258.296143 53.936527,254.659729 
	C53.695312,251.292984 55.349709,248.756149 58.023788,248.346863 
	C59.750694,248.082535 62.948963,250.145370 63.611820,251.881577 
	C64.669609,254.652237 64.667099,258.277771 59.716202,258.978973 
z"/>
<path fill="#EEFBEE" opacity="1.000000" stroke="none" 
	d="
M42.974251,183.541046 
	C40.464283,183.741913 37.959274,183.538834 35.313805,183.324356 
	C34.955750,181.049362 34.531712,178.355118 34.063328,175.379135 
	C36.558697,175.661636 38.997482,175.937729 41.494053,176.220367 
	C41.982788,178.496521 42.480999,180.816803 42.974251,183.541046 
z"/>
<path fill="#ECFCEE" opacity="1.000000" stroke="none" 
	d="
M116.003929,261.266174 
	C115.464630,259.340363 114.928398,257.836334 114.401840,256.359406 
	C121.020294,255.947678 121.658279,256.503326 123.929764,265.321381 
	C121.252785,263.379150 117.295418,266.094482 116.003929,261.266174 
z"/>
<path fill="#F0FAF1" opacity="1.000000" stroke="none" 
	d="
M105.508125,245.538223 
	C107.596382,245.689041 109.485870,246.010925 111.711411,246.390045 
	C112.078011,248.610336 112.490326,251.107468 112.920250,253.711273 
	C110.365440,253.368362 107.912018,253.039078 104.992035,252.647156 
	C104.992035,250.796219 104.992035,248.875854 104.960403,246.512848 
	C105.055634,245.949905 105.182495,245.829605 105.508125,245.538223 
z"/>
<path fill="#FAFDFA" opacity="1.000000" stroke="none" 
	d="
M34.890404,201.781967 
	C34.679653,201.894806 34.419445,201.705643 34.108673,201.215363 
	C34.320412,201.100449 34.581356,201.289032 34.890404,201.781967 
z"/>
</svg>