<svg xmlns="http://www.w3.org/2000/svg" viewBox="0 0 24 24" id="Entertainment-Events-Hobbies-Game-Machines-Arcade-2--Streamline-Pixel" height="24" width="24">
  <desc>
    Entertainment Events Hobbies Game Machines Arcade 2 Streamline Icon: https://streamlinehq.com
  </desc>
  <title>entertainment-events-hobbies-game-machines-arcade-2</title>
  <g>
    <path d="M22.8525 3.4275h-1.1400000000000001V2.2874999999999996h-1.1475V1.1400000000000001H19.424999999999997V0H2.2800000000000002v4.574999999999999h1.1475v1.1400000000000001h1.1400000000000001V4.574999999999999h13.7175v1.1400000000000001h1.1400000000000001v11.43h-1.1400000000000001v1.1400000000000001h-1.1475v1.1400000000000001H2.2800000000000002v-1.1400000000000001H1.1400000000000001v1.1400000000000001H0V24h1.1400000000000001v-3.4275h14.857499999999998V24H24V4.574999999999999h-1.1475Zm-18.285 0H3.4275V1.1400000000000001h1.1400000000000001Zm2.2874999999999996 0H5.7075000000000005V1.1400000000000001h1.1475Zm10.2825 0H7.995V1.1400000000000001h9.1425Zm5.715 8.0025h-1.1400000000000001V5.715h-1.1475V4.574999999999999H19.424999999999997V3.4275h-1.1400000000000001V2.2874999999999996h1.1400000000000001v1.1400000000000001h1.1400000000000001V4.574999999999999h1.1475v1.1400000000000001h1.1400000000000001Z" fill="#000000" stroke-width="0.75"></path>
    <path d="M14.850000000000001 11.43h1.1475v1.1400000000000001H14.850000000000001Z" fill="#000000" stroke-width="0.75"></path>
    <path d="M12.57 17.145h3.4275v1.1400000000000001h-3.4275Z" fill="#000000" stroke-width="0.75"></path>
    <path d="M13.71 9.1425h1.1400000000000001v1.1400000000000001h-1.1400000000000001Z" fill="#000000" stroke-width="0.75"></path>
    <path d="m14.850000000000001 24 0 -2.2874999999999996 -3.4275 0 0 2.2874999999999996 1.1475 0 0 -1.1400000000000001 1.1400000000000001 0 0 1.1400000000000001 1.1400000000000001 0z" fill="#000000" stroke-width="0.75"></path>
    <path d="M10.2825 12.57h4.5675v1.1475h-4.5675Z" fill="#000000" stroke-width="0.75"></path>
    <path d="M10.2825 9.1425h1.1400000000000001v1.1400000000000001h-1.1400000000000001Z" fill="#000000" stroke-width="0.75"></path>
    <path d="M9.1425 11.43h1.1400000000000001v1.1400000000000001h-1.1400000000000001Z" fill="#000000" stroke-width="0.75"></path>
    <path d="M7.995 17.145h1.1475v1.1400000000000001h-1.1475Z" fill="#000000" stroke-width="0.75"></path>
    <path d="M18.285 15.997499999999999V6.855H6.855v9.1425ZM7.995 8.0025h9.1425v6.855H7.995Z" fill="#000000" stroke-width="0.75"></path>
    <path d="M5.7075000000000005 17.145h1.1475v1.1400000000000001H5.7075000000000005Z" fill="#000000" stroke-width="0.75"></path>
    <path d="M4.5675 5.715h1.1400000000000001v10.2825H4.5675Z" fill="#000000" stroke-width="0.75"></path>
    <path d="M3.4275 15.997499999999999h1.1400000000000001v1.1475H3.4275Z" fill="#000000" stroke-width="0.75"></path>
    <path d="M2.2800000000000002 17.145h1.1475v1.1400000000000001H2.2800000000000002Z" fill="#000000" stroke-width="0.75"></path>
  </g>
</svg>