<svg xmlns="http://www.w3.org/2000/svg" viewBox="0 0 24 24" id="Coding-Apps-Websites-Programming-Browser--Streamline-Pixel" height="24" width="24">
  <desc>
    Coding Apps Websites Programming Browser Streamline Icon: https://streamlinehq.com
  </desc>
  <title>coding-apps-websites-programming-browser</title>
  <g>
    <path d="m1.1400000000000001 6.855 21.72 0 0 14.857499999999998 1.1400000000000001 0 0 -19.424999999999997 -1.1400000000000001 0 0 3.4275 -21.72 0 0 -3.4275 -1.1400000000000001 0 0 19.424999999999997 1.1400000000000001 0 0 -14.857499999999998z" fill="#000000" stroke-width="0.75"></path>
    <path d="M1.1400000000000001 21.7125h21.72v1.1475H1.1400000000000001Z" fill="#000000" stroke-width="0.75"></path>
    <path d="M3.4275 9.1425v10.290000000000001h17.145V9.1425Zm6.855 5.715h-1.1400000000000001v1.1400000000000001h-1.1400000000000001v1.1475H6.855v-1.1475h1.1475v-1.1400000000000001h1.1400000000000001v-1.1400000000000001h-1.1400000000000001v-1.1475H6.855v-1.1400000000000001h1.1475v1.1400000000000001h1.1400000000000001v1.1475h1.1400000000000001Zm6.862500000000001 0h-4.574999999999999v-1.1400000000000001h4.574999999999999Z" fill="#000000" stroke-width="0.75"></path>
    <path d="M6.855 3.4275h1.1475V4.574999999999999H6.855Z" fill="#000000" stroke-width="0.75"></path>
    <path d="M4.574999999999999 3.4275h1.1400000000000001V4.574999999999999H4.574999999999999Z" fill="#000000" stroke-width="0.75"></path>
    <path d="M2.2874999999999996 3.4275h1.1400000000000001V4.574999999999999H2.2874999999999996Z" fill="#000000" stroke-width="0.75"></path>
    <path d="M1.1400000000000001 1.1400000000000001h21.72v1.1475H1.1400000000000001Z" fill="#000000" stroke-width="0.75"></path>
  </g>
</svg>