<svg xmlns="http://www.w3.org/2000/svg" viewBox="0 0 24 24" id="Interface-Essential-Translate--Streamline-Pixel" height="24" width="24">
  <desc>
    Interface Essential Translate Streamline Icon: https://streamlinehq.com
  </desc>
  <title>interface-essential-translate</title>
  <g>
    <path d="M22.8525 13.7175H24v7.995h-1.1475Z" fill="#000000" stroke-width="0.75"></path>
    <path d="M21.7125 21.7125h1.1400000000000001v1.1475h-1.1400000000000001Z" fill="#000000" stroke-width="0.75"></path>
    <path d="M21.7125 12.57h1.1400000000000001v1.1475h-1.1400000000000001Z" fill="#000000" stroke-width="0.75"></path>
    <path d="M21.7125 5.715h1.1400000000000001v3.4275h-1.1400000000000001Z" fill="#000000" stroke-width="0.75"></path>
    <path d="M20.565 4.5675h1.1475v1.1475h-1.1475Z" fill="#000000" stroke-width="0.75"></path>
    <path d="M13.71 22.86h8.0025V24H13.71Z" fill="#000000" stroke-width="0.75"></path>
    <path d="m19.424999999999997 18.285 -3.4275 0 0 -3.4275 -1.1475 0 0 6.855 1.1475 0 0 -2.2874999999999996 3.4275 0 0 2.2874999999999996 1.1400000000000001 0 0 -6.855 -1.1400000000000001 0 0 3.4275z" fill="#000000" stroke-width="0.75"></path>
    <path d="M15.997499999999999 13.7175h3.4275v1.1400000000000001h-3.4275Z" fill="#000000" stroke-width="0.75"></path>
    <path d="M13.71 11.43h8.0025v1.1400000000000001H13.71Z" fill="#000000" stroke-width="0.75"></path>
    <path d="m15.997499999999999 1.1400000000000001 0 1.1475 -1.1475 0 0 1.1400000000000001 -1.1400000000000001 0 0 1.1400000000000001 1.1400000000000001 0 0 1.1475 1.1475 0 0 1.1400000000000001 1.1400000000000001 0 0 -2.2874999999999996 3.4275 0 0 -1.1400000000000001 -3.4275 0 0 -2.2874999999999996 -1.1400000000000001 0z" fill="#000000" stroke-width="0.75"></path>
    <path d="M12.57 21.7125h1.1400000000000001v1.1475h-1.1400000000000001Z" fill="#000000" stroke-width="0.75"></path>
    <path d="M12.57 12.57h1.1400000000000001v1.1475h-1.1400000000000001Z" fill="#000000" stroke-width="0.75"></path>
    <path d="M11.4225 13.7175h1.1475v7.995h-1.1475Z" fill="#000000" stroke-width="0.75"></path>
    <path d="M11.4225 2.2874999999999996h1.1475v7.995h-1.1475Z" fill="#000000" stroke-width="0.75"></path>
    <path d="M10.2825 10.2825h1.1400000000000001v1.1475h-1.1400000000000001Z" fill="#000000" stroke-width="0.75"></path>
    <path d="M10.2825 1.1400000000000001h1.1400000000000001v1.1475h-1.1400000000000001Z" fill="#000000" stroke-width="0.75"></path>
    <path d="m7.995 5.715 1.1475 0 0 -1.1475 1.1400000000000001 0 0 -1.1400000000000001 -3.4275 0 0 -1.1400000000000001 -1.1475 0 0 1.1400000000000001 -3.4275 0 0 1.1400000000000001 5.715 0 0 1.1475z" fill="#000000" stroke-width="0.75"></path>
    <path d="m7.995 22.86 0 -1.1475 1.1475 0 0 -1.1400000000000001 1.1400000000000001 0 0 -1.1475 -1.1400000000000001 0 0 -1.1400000000000001 -1.1475 0 0 -1.1400000000000001 -1.1400000000000001 0 0 2.2800000000000002 -3.4275 0 0 1.1475 3.4275 0 0 2.2874999999999996 1.1400000000000001 0z" fill="#000000" stroke-width="0.75"></path>
    <path d="M2.2800000000000002 11.43h8.0025v1.1400000000000001H2.2800000000000002Z" fill="#000000" stroke-width="0.75"></path>
    <path d="M7.995 9.1425h1.1475v1.1400000000000001h-1.1475Z" fill="#000000" stroke-width="0.75"></path>
    <path d="M6.855 8.0025h1.1400000000000001v1.1400000000000001H6.855Z" fill="#000000" stroke-width="0.75"></path>
    <path d="M6.855 5.715h1.1400000000000001v1.1400000000000001H6.855Z" fill="#000000" stroke-width="0.75"></path>
    <path d="M5.7075000000000005 6.855h1.1475v1.1475H5.7075000000000005Z" fill="#000000" stroke-width="0.75"></path>
    <path d="M4.5675 8.0025h1.1400000000000001v1.1400000000000001H4.5675Z" fill="#000000" stroke-width="0.75"></path>
    <path d="M4.5675 5.715h1.1400000000000001v1.1400000000000001H4.5675Z" fill="#000000" stroke-width="0.75"></path>
    <path d="M3.4275 9.1425h1.1400000000000001v1.1400000000000001H3.4275Z" fill="#000000" stroke-width="0.75"></path>
    <path d="M2.2800000000000002 0h8.0025v1.1400000000000001H2.2800000000000002Z" fill="#000000" stroke-width="0.75"></path>
    <path d="M2.2800000000000002 18.285h1.1475v1.1400000000000001H2.2800000000000002Z" fill="#000000" stroke-width="0.75"></path>
    <path d="M1.1400000000000001 14.857499999999998h1.1400000000000001v3.4275H1.1400000000000001Z" fill="#000000" stroke-width="0.75"></path>
    <path d="M1.1400000000000001 10.2825h1.1400000000000001v1.1475H1.1400000000000001Z" fill="#000000" stroke-width="0.75"></path>
    <path d="M1.1400000000000001 1.1400000000000001h1.1400000000000001v1.1475H1.1400000000000001Z" fill="#000000" stroke-width="0.75"></path>
    <path d="M0 2.2874999999999996h1.1400000000000001v7.995H0Z" fill="#000000" stroke-width="0.75"></path>
  </g>
</svg>