<svg xmlns="http://www.w3.org/2000/svg" viewBox="0 0 24 24" id="Email-Envelope-Close--Streamline-Pixel" height="24" width="24">
  <desc>
    Email Envelope Close Streamline Icon: https://streamlinehq.com
  </desc>
  <title>email-envelope-close</title>
  <g>
    <path d="M22.8525 4.574999999999999H24v14.850000000000001h-1.1475Z" fill="#000000" stroke-width="0.75"></path>
    <path d="M21.7125 19.424999999999997h1.1400000000000001v1.1475h-1.1400000000000001Z" fill="#000000" stroke-width="0.75"></path>
    <path d="M21.7125 3.4275h1.1400000000000001V4.574999999999999h-1.1400000000000001Z" fill="#000000" stroke-width="0.75"></path>
    <path d="M20.572499999999998 5.715h1.1400000000000001v2.2874999999999996h-1.1400000000000001Z" fill="#000000" stroke-width="0.75"></path>
    <path d="M2.2874999999999996 20.572499999999998h19.424999999999997v1.1400000000000001H2.2874999999999996Z" fill="#000000" stroke-width="0.75"></path>
    <path d="M19.424999999999997 17.145h1.1475v1.1400000000000001H19.424999999999997Z" fill="#000000" stroke-width="0.75"></path>
    <path d="M19.424999999999997 8.0025h1.1475v1.1400000000000001H19.424999999999997Z" fill="#000000" stroke-width="0.75"></path>
    <path d="M18.285 15.997499999999999h1.1400000000000001v1.1475h-1.1400000000000001Z" fill="#000000" stroke-width="0.75"></path>
    <path d="M18.285 9.1425h1.1400000000000001v1.1400000000000001h-1.1400000000000001Z" fill="#000000" stroke-width="0.75"></path>
    <path d="M17.137500000000003 14.857499999999998h1.1475v1.1400000000000001h-1.1475Z" fill="#000000" stroke-width="0.75"></path>
    <path d="M17.137500000000003 10.2825h1.1475v1.1475h-1.1475Z" fill="#000000" stroke-width="0.75"></path>
    <path d="M15.997499999999999 13.7175h1.1400000000000001v1.1400000000000001h-1.1400000000000001Z" fill="#000000" stroke-width="0.75"></path>
    <path d="M15.997499999999999 11.43h1.1400000000000001v1.1400000000000001h-1.1400000000000001Z" fill="#000000" stroke-width="0.75"></path>
    <path d="M13.71 12.57h2.2874999999999996v1.1475h-2.2874999999999996Z" fill="#000000" stroke-width="0.75"></path>
    <path d="M10.2825 13.7175h3.4275v1.1400000000000001h-3.4275Z" fill="#000000" stroke-width="0.75"></path>
    <path d="M7.995 12.57h2.2874999999999996v1.1475h-2.2874999999999996Z" fill="#000000" stroke-width="0.75"></path>
    <path d="M6.855 13.7175h1.1400000000000001v1.1400000000000001H6.855Z" fill="#000000" stroke-width="0.75"></path>
    <path d="M6.855 11.43h1.1400000000000001v1.1400000000000001H6.855Z" fill="#000000" stroke-width="0.75"></path>
    <path d="M5.715 14.857499999999998h1.1400000000000001v1.1400000000000001H5.715Z" fill="#000000" stroke-width="0.75"></path>
    <path d="M5.715 10.2825h1.1400000000000001v1.1475H5.715Z" fill="#000000" stroke-width="0.75"></path>
    <path d="M4.5675 15.997499999999999h1.1475v1.1475H4.5675Z" fill="#000000" stroke-width="0.75"></path>
    <path d="M4.5675 9.1425h1.1475v1.1400000000000001H4.5675Z" fill="#000000" stroke-width="0.75"></path>
    <path d="M3.4275 17.145h1.1400000000000001v1.1400000000000001H3.4275Z" fill="#000000" stroke-width="0.75"></path>
    <path d="M3.4275 8.0025h1.1400000000000001v1.1400000000000001H3.4275Z" fill="#000000" stroke-width="0.75"></path>
    <path d="M2.2874999999999996 2.2874999999999996h19.424999999999997v1.1400000000000001H2.2874999999999996Z" fill="#000000" stroke-width="0.75"></path>
    <path d="M2.2874999999999996 5.715h1.1400000000000001v2.2874999999999996H2.2874999999999996Z" fill="#000000" stroke-width="0.75"></path>
    <path d="M1.1400000000000001 19.424999999999997h1.1475v1.1475H1.1400000000000001Z" fill="#000000" stroke-width="0.75"></path>
    <path d="M1.1400000000000001 3.4275h1.1475V4.574999999999999H1.1400000000000001Z" fill="#000000" stroke-width="0.75"></path>
    <path d="M0 4.574999999999999h1.1400000000000001v14.850000000000001H0Z" fill="#000000" stroke-width="0.75"></path>
  </g>
</svg>