<svg xmlns="http://www.w3.org/2000/svg" viewBox="0 0 24 24" id="Interface-Essential-Text-Format-2--Streamline-Pixel" height="24" width="24">
  <desc>
    Interface Essential Text Format 2 Streamline Icon: https://streamlinehq.com
  </desc>
  <title>interface-essential-text-format-2</title>
  <g>
    <path d="M22.86 4.574999999999999V1.1400000000000001h-3.4275v1.1475H4.574999999999999V1.1400000000000001H1.1400000000000001V4.574999999999999h1.1475v14.857499999999998H1.1400000000000001v3.4275H4.574999999999999v-1.1475h14.857499999999998v1.1475h3.4275v-3.4275h-1.1475V4.574999999999999Zm-2.2874999999999996 14.857499999999998h-1.1400000000000001v1.1400000000000001H4.574999999999999v-1.1400000000000001H3.4275V4.574999999999999H4.574999999999999V3.4275h14.857499999999998V4.574999999999999h1.1400000000000001Z" fill="#000000" stroke-width="0.75"></path>
    <path d="M15.997499999999999 6.855h1.1475v2.2874999999999996h-1.1475Z" fill="#000000" stroke-width="0.75"></path>
    <path d="m8.0025 5.715 0 1.1400000000000001 3.4275 0 0 10.290000000000001 -2.2874999999999996 0 0 1.1400000000000001 5.715 0 0 -1.1400000000000001 -2.2874999999999996 0 0 -10.290000000000001 3.4275 0 0 -1.1400000000000001 -7.995 0z" fill="#000000" stroke-width="0.75"></path>
    <path d="M6.855 6.855h1.1475v2.2874999999999996H6.855Z" fill="#000000" stroke-width="0.75"></path>
  </g>
</svg>