<?xml version="1.0" standalone="no"?>
<!DOCTYPE svg PUBLIC "-//W3C//DTD SVG 20010904//EN"
 "http://www.w3.org/TR/2001/REC-SVG-20010904/DTD/svg10.dtd">
<svg version="1.0" xmlns="http://www.w3.org/2000/svg"
 width="200.000000pt" height="200.000000pt" viewBox="0 0 200.000000 200.000000"
 preserveAspectRatio="xMidYMid meet">

<g transform="translate(0.000000,200.000000) scale(0.100000,-0.100000)"
fill="#000000" stroke="none">
<path d="M1023 1881 c-122 -44 -221 -137 -376 -351 -10 -14 7 24 38 84 44 88
50 105 30 86 -41 -38 -126 -177 -166 -271 -48 -110 -83 -232 -105 -360 -24
-147 -16 -454 16 -554 67 -213 242 -390 407 -410 66 -8 160 15 232 58 109 66
250 235 334 402 209 418 182 982 -59 1229 -76 77 -137 106 -229 106 -42 -1
-90 -8 -122 -19z m186 -161 c56 -28 99 -85 124 -165 18 -58 21 -93 21 -200 -1
-73 -8 -171 -18 -224 -9 -52 -15 -96 -12 -98 6 -7 46 104 61 171 7 34 17 106
21 161 l8 100 12 -65 c45 -228 -13 -557 -133 -765 -115 -199 -232 -304 -337
-305 -87 0 -187 83 -260 216 -35 66 -37 67 -31 29 10 -58 40 -139 66 -177 62
-90 119 -131 221 -157 81 -21 68 -31 -40 -31 -145 0 -246 87 -313 270 -69 191
-59 413 31 674 101 294 232 490 372 560 66 33 151 35 207 6z"/>
</g>
</svg>
