<?xml version="1.0" standalone="no"?>
<!DOCTYPE svg PUBLIC "-//W3C//DTD SVG 20010904//EN"
 "http://www.w3.org/TR/2001/REC-SVG-20010904/DTD/svg10.dtd">
<svg version="1.0" xmlns="http://www.w3.org/2000/svg"
 width="1700.000000pt" height="749.000000pt" viewBox="0 0 1700.000000 749.000000"
 preserveAspectRatio="xMidYMid meet">

<g transform="translate(0.000000,749.000000) scale(0.100000,-0.100000)"
fill="#000000" stroke="none">
<path d="M10658 7358 c-19 -45 -57 -139 -83 -208 -27 -69 -59 -141 -71 -162
-31 -49 -144 -282 -144 -296 0 -16 64 -52 93 -52 16 0 34 10 47 27 l22 28 30
-38 c34 -42 62 -47 121 -22 20 8 49 15 64 15 22 0 47 20 119 93 75 77 103 115
168 232 43 77 89 154 102 171 28 38 66 122 84 187 11 40 11 50 0 57 -18 11
-114 21 -300 30 -91 5 -177 11 -191 15 -25 6 -28 3 -61 -77z"/>
<path d="M1420 7220 c-102 -11 -177 -28 -207 -46 -14 -9 -51 -14 -103 -14 -81
0 -175 -23 -224 -55 -25 -17 -220 -77 -322 -100 -118 -27 -164 -45 -164 -64 0
-10 14 -64 30 -122 17 -57 42 -144 56 -194 41 -145 54 -181 68 -201 14 -18 15
-18 36 6 18 21 20 22 15 5 -7 -19 -15 -338 -17 -640 -1 -133 6 -253 22 -362 5
-36 4 -107 -2 -175 -9 -102 -6 -336 7 -583 21 -401 28 -504 37 -535 5 -19 13
-102 18 -183 4 -82 12 -153 18 -159 6 -6 66 -5 173 3 148 11 168 15 209 40 43
25 123 39 260 43 l35 1 -1 60 c-11 471 -17 648 -26 740 -6 61 -12 170 -15 244
-4 116 -2 136 13 152 31 35 56 24 96 -44 44 -75 58 -106 97 -217 69 -201 106
-299 132 -355 15 -33 43 -95 63 -138 20 -44 36 -83 36 -88 0 -4 7 -23 15 -41
8 -18 42 -98 76 -178 34 -80 68 -154 75 -165 8 -11 14 -28 14 -38 0 -31 30
-31 98 1 104 48 250 108 327 133 104 34 235 98 235 114 0 8 -15 43 -34 78 -18
35 -43 90 -55 123 -13 32 -40 97 -61 144 -22 47 -78 177 -125 290 -48 113
-114 265 -146 338 -87 196 -180 435 -175 448 3 7 32 22 65 35 73 26 192 123
239 194 36 54 80 182 118 344 33 144 29 238 -20 439 -19 75 -39 162 -45 193
-8 39 -26 75 -61 124 -28 38 -50 72 -50 75 0 15 -123 130 -170 160 -30 19 -86
60 -124 92 -51 43 -81 60 -120 68 -68 15 -310 21 -416 10z m70 -665 c16 -2 50
-14 74 -25 25 -11 56 -20 69 -20 26 0 48 -21 96 -95 l33 -50 -6 -170 -6 -170
-48 -45 c-59 -55 -141 -100 -275 -150 -56 -20 -109 -40 -117 -44 -13 -5 -14
14 -6 166 10 191 -2 343 -34 433 -25 70 -31 111 -20 139 11 29 42 41 69 27 14
-8 28 -7 53 3 18 8 45 13 61 10 15 -2 40 -6 57 -9z"/>
<path d="M7445 7220 c-33 -4 -146 -11 -250 -15 l-190 -7 -24 -77 c-23 -77 -23
-81 -21 -557 1 -263 2 -504 1 -534 0 -30 -3 -390 -6 -800 -4 -410 -7 -792 -8
-850 -1 -58 2 -148 7 -200 5 -52 9 -118 10 -147 3 -84 3 -84 205 -84 97 1 259
2 361 3 102 1 271 1 375 0 105 0 271 -2 369 -2 138 -1 181 2 188 12 5 7 5 63
2 123 -4 61 -8 218 -8 350 -1 132 -5 248 -9 257 -13 26 -42 31 -152 28 -55 -2
-233 -3 -395 -4 l-295 -1 -1 105 c-2 241 -16 586 -29 745 -26 310 -13 1101 24
1445 15 140 14 155 -15 189 -28 33 -34 34 -139 21z"/>
<path d="M11940 7198 c-362 -19 -430 -26 -449 -48 -9 -10 -41 -29 -71 -41 -89
-37 -137 -68 -167 -105 -15 -19 -65 -75 -109 -124 -45 -49 -99 -116 -120 -147
-92 -139 -152 -309 -139 -392 4 -25 9 -86 11 -135 2 -49 10 -121 18 -160 8
-39 18 -97 21 -129 12 -105 25 -131 109 -218 88 -89 211 -196 297 -255 31 -22
92 -72 136 -111 93 -86 121 -107 228 -177 44 -29 107 -78 140 -110 33 -31 72
-63 87 -72 46 -25 63 -68 62 -161 -2 -94 -21 -139 -70 -162 -37 -19 -237 -61
-285 -61 -21 0 -45 8 -57 18 -39 34 -158 197 -187 256 -48 97 -52 99 -241 87
-133 -9 -347 -39 -391 -55 -16 -6 -7 -209 14 -306 8 -41 15 -104 14 -140 -5
-160 -7 -156 83 -261 17 -19 56 -66 86 -104 30 -37 79 -97 108 -131 l53 -64
68 2 c37 0 72 -2 78 -5 21 -13 189 -16 353 -6 96 5 209 11 250 13 89 3 202 41
341 116 9 5 54 23 100 41 81 32 179 91 179 110 0 5 29 39 64 76 67 72 99 125
110 183 3 19 25 73 49 120 40 80 42 90 45 185 2 67 -2 120 -12 160 -20 78 -65
207 -77 219 -5 6 -9 21 -9 35 -1 66 -104 207 -265 366 -34 33 -72 75 -84 93
-12 17 -29 32 -38 32 -8 0 -70 53 -136 118 -67 64 -147 133 -177 152 -78 48
-178 139 -245 220 -63 77 -74 115 -61 204 6 39 11 47 34 52 15 4 41 15 57 24
41 25 122 40 208 40 l73 0 69 -95 c38 -53 79 -98 90 -101 11 -3 34 0 50 6 29
12 96 23 225 39 62 8 229 76 244 99 3 5 -1 32 -9 58 -8 27 -15 70 -15 95 0 26
-5 71 -10 100 -6 30 -15 81 -19 115 -14 94 -156 392 -205 429 -25 18 -43 20
-194 20 -92 0 -232 -3 -312 -7z"/>
<path d="M5775 7104 c-209 -7 -405 -10 -435 -7 -71 7 -80 -4 -90 -105 -5 -42
-13 -97 -19 -122 -10 -47 -9 -415 3 -910 3 -151 7 -442 7 -647 1 -205 6 -391
11 -415 5 -24 11 -178 13 -343 2 -165 7 -321 10 -346 3 -25 1 -77 -4 -115 -5
-38 -11 -103 -13 -144 l-3 -75 68 -8 c47 -5 75 -3 90 5 12 7 32 11 45 9 13 -1
38 4 55 12 25 11 63 14 167 10 181 -6 233 -4 242 5 15 15 30 494 18 528 -7 17
-14 121 -17 254 l-4 226 38 30 c21 17 52 33 68 36 30 5 74 20 192 64 34 13 77
26 95 29 70 11 125 30 182 64 48 28 68 49 112 118 29 45 61 97 70 115 9 18 30
49 46 69 34 42 58 114 58 172 0 23 9 73 19 111 32 114 51 307 40 401 -5 44
-13 157 -18 250 -18 313 -17 311 -70 369 -25 28 -72 88 -104 133 -44 62 -72
91 -120 121 -77 48 -152 87 -209 107 -48 17 -27 17 -543 -1z m227 -635 c150
-37 185 -49 202 -69 22 -26 37 -120 43 -267 6 -153 -4 -239 -38 -306 -11 -21
-17 -42 -14 -47 7 -12 -78 -92 -108 -102 -96 -31 -162 -45 -185 -39 -24 7 -28
14 -35 62 -4 30 -10 160 -13 289 -2 129 -5 253 -6 275 -4 110 5 235 18 235 7
0 68 -14 136 -31z"/>
<path d="M9740 7110 c-161 -4 -255 -11 -275 -19 -21 -9 -90 -12 -240 -11 -150
2 -246 -3 -335 -15 -69 -9 -159 -19 -200 -22 -41 -2 -79 -8 -84 -13 -20 -20 2
-246 28 -289 4 -6 1 -30 -6 -53 -10 -32 -13 -136 -12 -408 0 -201 3 -396 7
-435 3 -43 0 -97 -8 -140 -17 -83 -17 -200 -6 -820 5 -269 5 -523 0 -595 -4
-69 -9 -171 -9 -227 l0 -103 27 -6 c28 -7 266 -2 782 17 167 6 390 8 495 5
326 -12 329 -11 347 58 6 23 15 46 21 53 6 8 8 55 4 120 -3 59 -7 183 -8 275
-2 102 -7 171 -14 178 -14 14 -120 16 -550 6 -327 -8 -372 -7 -385 7 -14 13
-15 45 -11 223 l5 207 -24 18 c-13 10 -22 20 -19 22 3 3 43 10 90 15 93 11
257 10 392 -3 114 -10 201 7 242 47 27 28 28 31 22 101 -4 40 -6 88 -5 107 1
19 2 119 3 222 1 167 -1 189 -17 205 -16 16 -43 18 -255 22 -130 2 -276 3
-324 2 l-87 -2 -17 32 c-14 28 -16 60 -12 230 2 109 7 201 12 206 4 4 150 8
324 8 228 1 323 4 339 13 12 7 37 12 56 12 19 0 49 10 68 23 l34 23 6 174 c3
96 11 212 18 256 14 101 19 255 8 272 -9 13 -1 13 -427 2z"/>
<path d="M3650 7062 l-55 -18 -3 -59 c-3 -82 -9 -102 -31 -108 -12 -3 -20 -16
-23 -40 -5 -44 7 -378 22 -607 7 -118 8 -203 1 -260 -11 -97 -6 -483 10 -770
6 -107 11 -420 10 -695 l0 -500 27 -55 c26 -54 28 -55 67 -53 22 2 114 2 205
1 187 -1 205 -1 278 8 45 5 52 9 52 27 0 62 21 404 30 482 6 50 12 195 13 323
2 161 7 236 15 244 7 7 31 13 55 13 24 1 59 9 77 18 18 10 44 17 57 17 13 0
33 5 45 11 11 6 61 17 112 25 81 12 101 19 162 59 62 41 110 85 139 127 60 87
78 124 106 212 18 55 47 124 66 152 59 88 77 202 48 300 -13 44 -18 129 -30
449 -2 44 -10 127 -17 185 -13 97 -18 111 -60 176 -26 40 -56 91 -69 115 -27
55 -75 98 -159 146 -36 20 -78 46 -95 57 -33 23 -34 23 -380 17 -145 -3 -234
0 -287 9 -62 11 -94 11 -170 1 -67 -8 -102 -9 -122 -1 -33 12 -29 13 -96 -8z
m640 -668 c74 -5 112 -14 166 -42 51 -26 52 -27 58 -81 27 -222 27 -211 0
-296 -14 -44 -28 -116 -31 -159 -6 -78 -7 -81 -50 -122 -24 -23 -58 -46 -75
-50 -18 -3 -50 -17 -71 -31 -29 -18 -49 -23 -85 -21 l-47 3 -3 110 c-2 61 2
207 9 325 6 118 11 249 11 290 -2 81 6 95 48 83 14 -4 45 -8 70 -9z"/>
<path d="M2733 6971 c-23 -15 -33 -32 -45 -77 -25 -92 -28 -176 -26 -689 2
-705 2 -701 -1 -815 -2 -58 2 -158 8 -224 6 -65 13 -202 16 -305 3 -102 8
-249 11 -326 4 -77 7 -229 9 -338 1 -109 6 -202 11 -207 14 -14 141 -16 219
-3 39 7 117 15 175 18 58 3 138 8 179 12 l73 6 -7 191 c-9 272 -13 455 -20
926 -3 228 -10 457 -15 508 -6 52 -8 97 -5 102 2 4 5 174 6 376 0 203 5 474
10 603 7 181 6 237 -3 249 -11 12 -43 13 -228 6 -268 -10 -268 -10 -306 -2
-22 5 -40 1 -61 -11z"/>
<path d="M13124 3500 c-12 -4 -31 -21 -44 -37 -21 -26 -22 -33 -14 -108 11
-108 11 -322 -1 -730 -5 -187 -8 -524 -7 -750 4 -532 4 -568 -6 -612 -5 -21
-5 -96 -1 -168 8 -138 10 -407 3 -490 -2 -27 -6 -81 -9 -120 -2 -38 -10 -116
-16 -173 -11 -93 -10 -105 5 -120 15 -15 47 -17 313 -14 230 2 309 6 356 18
51 13 71 14 124 4 36 -7 83 -9 111 -5 84 13 522 15 620 4 54 -7 97 -8 102 -3
18 18 30 221 31 502 0 158 -3 294 -6 303 -9 24 -380 36 -595 20 -90 -7 -182
-8 -219 -4 -61 8 -65 10 -73 38 -10 35 -12 212 -8 670 1 182 -2 384 -6 450 -4
66 -8 138 -8 160 0 105 14 422 24 525 12 123 29 587 22 607 -6 18 -60 33 -117
32 -27 0 -99 0 -160 1 -60 0 -135 -3 -165 -9 -42 -7 -61 -6 -82 5 -30 15 -140
18 -174 4z"/>
<path d="M11865 3489 c-16 -5 -143 -14 -282 -19 -239 -10 -320 -20 -458 -54
-33 -8 -94 -21 -135 -28 l-75 -13 2 -60 c0 -33 1 -94 0 -135 0 -41 1 -86 1
-100 1 -14 4 -101 7 -195 2 -93 11 -226 20 -295 10 -81 14 -190 13 -310 -2
-102 3 -250 9 -330 7 -80 13 -235 14 -345 0 -110 5 -301 10 -425 7 -187 19
-679 23 -965 1 -38 5 -76 9 -82 10 -15 58 -17 107 -4 19 6 91 13 160 16 69 4
154 9 190 11 36 3 104 5 151 5 l86 1 -4 121 c-2 67 -8 160 -13 207 -5 47 -9
148 -9 225 0 77 -4 212 -9 300 -5 88 -7 195 -4 237 l4 77 53 16 c29 8 59 15
67 15 14 0 116 -275 139 -375 7 -27 26 -79 44 -115 18 -36 36 -76 40 -90 9
-28 95 -215 125 -271 11 -20 20 -42 20 -49 0 -7 18 -50 40 -96 22 -47 40 -86
40 -89 0 -2 23 -52 50 -110 33 -68 56 -105 67 -105 8 0 48 17 87 39 39 21 94
47 121 57 28 10 69 29 93 41 24 13 49 23 57 23 21 0 174 67 217 95 22 15 38
33 38 44 0 29 -50 143 -76 171 -27 30 -74 117 -74 137 0 18 -145 342 -209 468
-29 55 -72 150 -97 210 -56 132 -103 227 -118 237 -13 9 -17 6 79 63 100 59
147 103 191 180 20 33 46 75 59 93 13 19 31 59 40 90 9 31 31 82 50 112 30 49
33 64 35 135 1 44 -3 136 -9 205 -6 69 -14 204 -19 302 -8 156 -12 180 -31
206 -12 17 -28 50 -37 74 -17 50 -56 93 -134 151 -30 22 -98 80 -150 128 -124
113 -144 123 -247 125 -64 0 -87 5 -102 18 -11 10 -37 22 -58 27 -48 11 -169
10 -208 -2z m65 -691 c41 -6 83 -18 94 -27 23 -20 56 -84 56 -109 0 -10 6 -24
13 -31 9 -9 12 -59 12 -179 l0 -167 -32 -68 c-18 -37 -52 -87 -77 -111 -41
-41 -145 -109 -212 -138 -16 -7 -43 -23 -60 -35 -17 -13 -35 -23 -41 -23 -21
0 -49 673 -33 801 5 46 10 89 10 96 0 15 139 11 270 -9z"/>
<path d="M14949 3473 l-146 -4 -12 -37 c-14 -42 -10 -163 10 -337 6 -55 12
-111 11 -125 -3 -252 -1 -437 8 -852 6 -274 13 -614 16 -755 7 -285 8 -310 19
-468 7 -105 4 -175 -26 -513 -12 -134 -6 -212 16 -212 7 0 18 -14 24 -31 l11
-32 177 7 c98 4 223 12 278 17 55 6 161 12 235 14 92 3 147 9 172 19 21 9 49
16 63 16 14 0 38 6 53 14 15 8 46 17 67 21 22 4 79 22 127 41 49 19 93 34 98
34 6 0 57 22 113 48 92 44 166 94 222 151 11 12 50 52 87 89 66 68 158 195
158 219 0 7 11 20 24 29 14 8 30 32 37 52 6 20 26 76 45 123 19 48 34 95 34
105 0 11 9 36 20 56 10 20 24 65 29 100 6 35 15 95 21 134 27 173 10 551 -35
799 -8 44 -22 132 -31 195 -10 80 -24 133 -43 175 -16 33 -31 81 -35 106 -5
32 -20 64 -51 105 -25 32 -53 70 -63 84 -11 14 -58 84 -105 156 -82 125 -118
164 -151 164 -9 0 -30 16 -47 35 -18 19 -39 35 -47 35 -7 0 -26 8 -40 18 -15
11 -65 37 -112 59 -77 36 -98 41 -234 56 -84 10 -158 23 -170 31 -12 7 -55 16
-96 19 -41 3 -104 13 -140 21 -71 17 -336 26 -591 19z m704 -827 c85 -38 177
-66 215 -66 35 0 140 -51 154 -74 3 -6 29 -39 56 -73 55 -68 68 -111 96 -308
33 -241 40 -324 27 -339 -10 -11 -11 -60 -5 -200 5 -134 4 -189 -5 -199 -6 -8
-20 -40 -31 -72 -26 -77 -60 -132 -107 -177 -45 -43 -215 -134 -269 -144 -50
-9 -97 -29 -145 -61 -27 -18 -46 -23 -64 -19 l-25 6 -2 198 c-4 384 -5 428
-12 542 -4 65 -2 209 5 330 11 195 15 315 18 588 1 107 2 108 94 68z"/>
<path d="M8173 3453 c-14 -13 -29 -57 -48 -143 -15 -69 -47 -201 -70 -295 -24
-93 -48 -214 -54 -267 -8 -69 -21 -122 -46 -184 -19 -48 -38 -101 -40 -118
-10 -59 -62 -281 -97 -416 -14 -52 -31 -120 -37 -151 -7 -31 -18 -65 -26 -75
-13 -18 -14 -17 -20 11 -9 47 -22 95 -39 156 -9 31 -25 104 -35 162 -12 64
-31 131 -49 169 -20 40 -32 85 -35 123 -6 70 -58 316 -88 416 -32 104 -38 109
-149 120 -107 11 -115 12 -150 10 -14 0 -61 4 -105 9 -129 15 -142 13 -170
-25 -26 -34 -78 -191 -95 -286 -7 -35 -21 -104 -31 -152 -10 -49 -19 -102 -19
-118 0 -19 -9 -38 -26 -54 -27 -25 -76 -168 -94 -275 -19 -117 -46 -196 -73
-218 -8 -7 -27 -46 -42 -87 -15 -41 -29 -75 -31 -75 -10 0 -27 60 -34 125 -5
39 -16 91 -24 115 -9 25 -16 65 -16 90 0 25 -5 63 -10 85 -11 44 -57 297 -70
385 -4 30 -15 84 -23 120 -9 36 -20 101 -26 145 -5 44 -21 128 -35 187 -14 59
-30 153 -36 210 -6 57 -15 138 -19 182 -9 82 -21 101 -56 90 -34 -10 -108 -25
-150 -30 -22 -3 -67 -18 -100 -35 -33 -16 -109 -40 -170 -55 -161 -38 -255
-65 -295 -83 -31 -15 -35 -20 -32 -50 2 -19 17 -77 32 -130 39 -131 66 -234
80 -306 6 -33 22 -89 35 -125 39 -108 63 -220 69 -320 5 -86 14 -158 47 -390
13 -91 76 -341 118 -467 38 -114 52 -184 57 -291 2 -46 8 -91 13 -100 5 -9 12
-53 16 -97 4 -44 13 -96 20 -115 26 -70 55 -177 70 -254 8 -43 21 -89 30 -102
8 -13 15 -43 15 -66 1 -68 25 -199 46 -241 l19 -39 90 7 c49 3 117 16 150 27
52 18 86 21 255 22 l195 1 31 62 c20 42 36 97 48 175 11 62 29 136 41 163 12
28 27 64 33 80 19 48 72 254 87 330 7 39 24 110 39 159 14 48 26 95 26 103 0
8 10 33 22 56 42 82 48 95 48 111 0 9 4 16 9 16 4 0 16 -35 26 -77 35 -156 77
-322 121 -478 25 -88 52 -187 60 -220 32 -140 121 -462 134 -485 7 -14 18 -28
24 -32 16 -11 64 -10 71 2 3 5 24 10 45 10 21 0 51 5 67 11 43 17 222 19 260
4 17 -8 42 -11 55 -8 82 19 98 25 110 47 56 102 69 133 77 188 6 35 15 88 21
118 45 230 97 477 130 612 11 48 22 108 24 135 2 26 13 68 24 93 20 44 92 323
111 430 5 30 17 75 26 100 44 121 46 130 75 314 13 88 78 358 110 461 15 50
33 113 38 140 11 51 66 275 102 417 31 122 6 156 -142 195 -85 22 -159 28
-285 21 -39 -2 -151 12 -177 22 -39 14 -61 13 -83 -7z"/>
<path d="M9776 3443 c-3 -4 -28 -8 -54 -9 -26 -2 -84 -8 -130 -15 -73 -10 -89
-16 -129 -50 -51 -42 -113 -75 -156 -84 -40 -8 -103 -70 -221 -215 -106 -130
-163 -220 -177 -280 -18 -77 -48 -187 -59 -215 -6 -16 -27 -95 -46 -174 -20
-80 -40 -153 -45 -162 -5 -10 -8 -100 -7 -201 2 -257 1 -323 -7 -403 -7 -74
17 -323 36 -374 6 -14 19 -69 30 -122 10 -53 26 -113 34 -133 8 -19 15 -53 15
-74 0 -22 13 -81 30 -133 25 -79 40 -106 90 -168 64 -78 90 -120 90 -145 0
-23 123 -153 191 -204 61 -46 155 -88 229 -102 25 -5 78 -20 119 -34 84 -30
149 -32 236 -10 105 27 138 35 208 48 38 7 82 23 98 35 71 52 98 67 149 80 84
21 148 69 213 159 31 44 57 84 57 89 0 6 7 16 15 23 29 24 92 125 112 180 22
60 55 211 73 330 6 41 20 104 30 140 43 146 53 250 47 479 -3 119 -11 236 -17
261 -6 25 -15 113 -19 195 -10 185 -39 346 -89 507 -36 114 -55 175 -101 333
-24 82 -42 118 -66 129 -11 5 -29 22 -40 39 -48 72 -270 190 -399 212 -45 7
-125 27 -180 44 -97 30 -146 38 -160 24z m28 -790 c33 -16 102 -48 151 -73 90
-45 90 -46 97 -90 22 -137 27 -193 32 -375 8 -230 14 -334 22 -346 2 -5 -2
-33 -9 -63 -9 -34 -13 -80 -9 -124 7 -107 -16 -355 -39 -413 -32 -83 -101
-191 -129 -201 -14 -6 -55 -24 -91 -40 -71 -33 -101 -33 -141 0 -113 92 -130
125 -179 357 -24 115 -30 171 -44 380 -13 194 -12 234 1 335 37 283 47 337 70
389 13 29 24 63 24 75 0 53 125 216 166 216 9 0 44 -12 78 -27z"/>
</g>
</svg>
