<svg xmlns="http://www.w3.org/2000/svg" viewBox="0 0 24 24" id="Internet-Network-Wifi-Monitor--Streamline-Pixel" height="24" width="24">
  <desc>
    Internet Network Wifi Monitor Streamline Icon: https://streamlinehq.com
  </desc>
  <title>internet-network-wifi-monitor</title>
  <g>
    <path d="M22.8525 5.715H24v5.715h-1.1475Z" fill="#000000" stroke-width="0.75"></path>
    <path d="M21.7125 3.4275h1.1400000000000001v2.2874999999999996h-1.1400000000000001Z" fill="#000000" stroke-width="0.75"></path>
    <path d="M20.572499999999998 2.2874999999999996h1.1400000000000001v1.1400000000000001h-1.1400000000000001Z" fill="#000000" stroke-width="0.75"></path>
    <path d="M19.424999999999997 6.855h1.1475v3.4275H19.424999999999997Z" fill="#000000" stroke-width="0.75"></path>
    <path d="M18.285 1.1400000000000001h2.2874999999999996v1.1475h-2.2874999999999996Z" fill="#000000" stroke-width="0.75"></path>
    <path d="m6.855 20.572499999999998 0 1.1400000000000001 1.1475 0 0 -1.1400000000000001 3.4275 0 0 1.1400000000000001 1.1400000000000001 0 0 -1.1400000000000001 5.715 0 0 -1.1475 1.1400000000000001 0 0 -5.715 -1.1400000000000001 0 0 3.4275 -17.145 0 0 -10.2825 -1.1400000000000001 0L0 19.424999999999997l1.1400000000000001 0 0 1.1475 5.715 0z" fill="#000000" stroke-width="0.75"></path>
    <path d="M18.285 5.715h1.1400000000000001v1.1400000000000001h-1.1400000000000001Z" fill="#000000" stroke-width="0.75"></path>
    <path d="M17.145 4.5675h1.1400000000000001v1.1475h-1.1400000000000001Z" fill="#000000" stroke-width="0.75"></path>
    <path d="M12.57 0h5.715v1.1400000000000001h-5.715Z" fill="#000000" stroke-width="0.75"></path>
    <path d="M15.997499999999999 7.995h1.1475v2.2874999999999996h-1.1475Z" fill="#000000" stroke-width="0.75"></path>
    <path d="M13.71 3.4275h3.435v1.1400000000000001h-3.435Z" fill="#000000" stroke-width="0.75"></path>
    <path d="M13.71 6.855h2.2874999999999996v1.1400000000000001h-2.2874999999999996Z" fill="#000000" stroke-width="0.75"></path>
    <path d="M13.71 10.2825h2.2874999999999996v1.1475h-2.2874999999999996Z" fill="#000000" stroke-width="0.75"></path>
    <path d="M12.57 7.995h1.1400000000000001v2.2874999999999996h-1.1400000000000001Z" fill="#000000" stroke-width="0.75"></path>
    <path d="m6.855 22.8525 0 -1.1400000000000001 -1.1400000000000001 0 0 2.2874999999999996 7.995 0 0 -2.2874999999999996 -1.1400000000000001 0 0 1.1400000000000001 -5.715 0z" fill="#000000" stroke-width="0.75"></path>
    <path d="M10.2825 13.71h1.1475v1.1475h-1.1475Z" fill="#000000" stroke-width="0.75"></path>
    <path d="M9.1425 11.43h1.1400000000000001v1.1400000000000001h-1.1400000000000001Z" fill="#000000" stroke-width="0.75"></path>
    <path d="M5.715 14.857499999999998h4.5675v1.1400000000000001H5.715Z" fill="#000000" stroke-width="0.75"></path>
    <path d="M5.715 11.43h1.1400000000000001v1.1400000000000001H5.715Z" fill="#000000" stroke-width="0.75"></path>
    <path d="M4.5675 13.71h1.1475v1.1475H4.5675Z" fill="#000000" stroke-width="0.75"></path>
    <path d="M1.1400000000000001 5.715h9.1425v1.1400000000000001H1.1400000000000001Z" fill="#000000" stroke-width="0.75"></path>
  </g>
</svg>