<svg xmlns="http://www.w3.org/2000/svg" viewBox="0 0 24 24" id="Logo-Twitter--Streamline-Pixel" height="24" width="24">
  <desc>
    Logo Twitter Streamline Icon: https://streamlinehq.com
  </desc>
  <title>logo-twitter</title>
  <g>
    <path d="m21.708750000000002 8.57625 0 1.1400000000000001 1.1475 0 0 -2.2874999999999996 -3.4275 0 0 -2.2874999999999996 -1.1475 0 0 3.435 3.4275 0z" fill="#000000" stroke-width="0.75"></path>
    <path d="M20.56875 9.71625h1.1400000000000001v1.1400000000000001h-1.1400000000000001Z" fill="#000000" stroke-width="0.75"></path>
    <path d="M19.42875 10.85625h1.1400000000000001v1.1475h-1.1400000000000001Z" fill="#000000" stroke-width="0.75"></path>
    <path d="M18.28125 12.00375h1.1475v4.5675h-1.1475Z" fill="#000000" stroke-width="0.75"></path>
    <path d="M17.14125 16.57125h1.1400000000000001v2.2874999999999996h-1.1400000000000001Z" fill="#000000" stroke-width="0.75"></path>
    <path d="M17.14125 4.00125h1.1400000000000001v1.1400000000000001h-1.1400000000000001Z" fill="#000000" stroke-width="0.75"></path>
    <path d="M16.00125 18.85875h1.1400000000000001v1.1400000000000001h-1.1400000000000001Z" fill="#000000" stroke-width="0.75"></path>
    <path d="M16.00125 2.86125h1.1400000000000001v1.1400000000000001h-1.1400000000000001Z" fill="#000000" stroke-width="0.75"></path>
    <path d="M14.85375 19.99875h1.1475v1.1475h-1.1475Z" fill="#000000" stroke-width="0.75"></path>
    <path d="M13.713750000000001 6.28875h2.2874999999999996v2.2874999999999996h-2.2874999999999996Z" fill="#000000" stroke-width="0.75"></path>
    <path d="m3.42375 21.146250000000002 0 -1.1475 -1.1400000000000001 0 0 2.2874999999999996 12.57 0 0 -1.1400000000000001 -11.43 0z" fill="#000000" stroke-width="0.75"></path>
    <path d="M11.42625 1.71375h4.574999999999999v1.1475h-4.574999999999999Z" fill="#000000" stroke-width="0.75"></path>
    <path d="M10.286249999999999 2.86125h1.1400000000000001v1.1400000000000001h-1.1400000000000001Z" fill="#000000" stroke-width="0.75"></path>
    <path d="M9.13875 4.00125h1.1475v1.1400000000000001h-1.1475Z" fill="#000000" stroke-width="0.75"></path>
    <path d="m9.13875 8.57625 0 -3.435 -1.1400000000000001 0 0 2.2874999999999996 -1.1400000000000001 0 0 1.1475 2.2800000000000002 0z" fill="#000000" stroke-width="0.75"></path>
    <path d="m6.85875 16.57125 1.1400000000000001 0 0 -1.1400000000000001 -2.2874999999999996 0 0 2.2874999999999996 1.1475 0 0 -1.1475z" fill="#000000" stroke-width="0.75"></path>
    <path d="M5.71125 6.28875h1.1475v1.1400000000000001h-1.1475Z" fill="#000000" stroke-width="0.75"></path>
    <path d="M4.57125 17.71875h1.1400000000000001v1.1400000000000001h-1.1400000000000001Z" fill="#000000" stroke-width="0.75"></path>
    <path d="M4.57125 14.283750000000001h1.1400000000000001v1.1475h-1.1400000000000001Z" fill="#000000" stroke-width="0.75"></path>
    <path d="M4.57125 5.14125h1.1400000000000001v1.1475h-1.1400000000000001Z" fill="#000000" stroke-width="0.75"></path>
    <path d="M3.42375 18.85875h1.1475v1.1400000000000001h-1.1475Z" fill="#000000" stroke-width="0.75"></path>
    <path d="M3.42375 13.143749999999999h1.1475v1.1400000000000001h-1.1475Z" fill="#000000" stroke-width="0.75"></path>
    <path d="M3.42375 4.00125h1.1475v1.1400000000000001h-1.1475Z" fill="#000000" stroke-width="0.75"></path>
    <path d="M2.28375 12.00375h1.1400000000000001v1.1400000000000001h-1.1400000000000001Z" fill="#000000" stroke-width="0.75"></path>
    <path d="m2.28375 4.00125 1.1400000000000001 0 0 -1.1400000000000001 -2.2800000000000002 0 0 9.1425 1.1400000000000001 0 0 -8.0025z" fill="#000000" stroke-width="0.75"></path>
  </g>
</svg>