<svg version="1.1" id="Layer_1" xmlns="http://www.w3.org/2000/svg" xmlns:xlink="http://www.w3.org/1999/xlink" x="0px" y="0px"
	 width="100%" viewBox="0 0 296 304" enable-background="new 0 0 296 304" xml:space="preserve">
<path fill="#000000" opacity="1.000000" stroke="none" 
	d="
M297.000000,107.000000 
	C297.000000,173.333328 297.000000,239.166641 297.000000,305.000000 
	C198.333359,305.000000 99.666725,305.000000 1.000066,305.000000 
	C1.000044,203.666718 1.000044,102.333427 1.000022,1.000107 
	C99.666603,1.000071 198.333206,1.000071 296.999908,1.000036 
	C297.000000,36.166668 297.000000,71.333336 297.000000,107.000000 
M25.065201,190.787888 
	C25.106144,191.057632 25.147087,191.327377 25.022734,192.441940 
	C25.071428,196.960724 25.120123,201.479507 25.025768,206.499298 
	C25.071821,206.666763 25.117876,206.834213 25.015154,207.928284 
	C25.061640,231.950180 25.108126,255.972061 24.996922,280.787140 
	C25.050978,281.859955 25.105032,282.932800 25.017347,284.737640 
	C25.066301,286.995178 25.115253,289.252716 25.026598,291.961609 
	C25.118467,292.418121 25.210337,292.874634 25.027275,293.835602 
	C25.347261,294.169739 25.667246,294.503906 26.660175,295.147949 
	C27.107176,295.021667 27.920897,294.939301 27.942123,294.762024 
	C28.088356,293.540680 28.069086,292.299469 28.033264,291.003052 
	C28.033264,291.003052 28.062191,291.091522 28.612846,290.937561 
	C28.422541,290.589630 28.232237,290.241699 27.974646,289.178650 
	C28.007559,288.462708 28.040472,287.746765 28.833097,286.599976 
	C28.683989,279.204468 28.534880,271.808990 28.726536,264.075958 
	C28.742922,263.609528 28.759308,263.143127 28.969679,262.138123 
	C28.919245,261.764923 28.868809,261.391693 28.963148,260.268982 
	C28.916693,259.510651 28.870237,258.752319 28.966127,257.504547 
	C28.920389,257.340912 28.874651,257.177277 28.978647,256.305847 
	C29.036724,255.676025 29.094801,255.046204 29.132210,254.640533 
	C31.860296,255.254623 33.230461,260.425018 35.670650,257.872192 
	C35.339127,252.502670 34.473774,248.498398 35.051590,244.714508 
	C35.523739,241.622574 37.718353,238.793655 39.547375,235.028732 
	C38.931034,235.055832 39.551754,235.036926 40.171394,234.999985 
	C45.008308,234.711578 49.033165,232.680756 49.825047,227.736282 
	C50.530579,223.330978 50.893295,218.249237 44.549568,216.685501 
	C44.213051,216.602570 43.961498,213.910309 44.518646,212.901047 
	C46.046738,210.133011 48.027435,207.614853 50.157089,204.294479 
	C50.048203,202.192993 49.939312,200.091492 49.982204,197.294296 
	C49.006268,195.834671 48.030327,194.375031 47.024086,192.973709 
	C47.024086,192.973709 47.080875,192.940491 46.988300,192.242050 
	C43.707344,188.826736 40.426388,185.411423 37.271633,181.233261 
	C45.454235,180.098114 50.765385,174.676910 49.788582,167.485840 
	C49.462173,165.082886 47.274086,162.218613 45.124077,161.002945 
	C43.395321,160.025467 39.858089,160.425323 38.185406,161.656738 
	C36.329941,163.022751 35.680260,166.026596 34.505554,168.317307 
	C35.001358,168.597153 35.497162,168.876984 35.992970,169.156830 
	C36.714561,168.553223 37.351704,167.767792 38.175854,167.384964 
	C39.744980,166.656097 41.722488,165.347366 42.961052,165.808548 
	C44.031513,166.207138 45.189907,169.079041 44.729691,170.220932 
	C44.096863,171.791107 42.157486,173.341019 40.455959,173.876343 
	C35.906219,175.307785 33.267830,172.311951 30.972267,168.447342 
	C30.972267,168.447342 30.808104,168.009079 30.969532,167.255264 
	C29.850826,160.424469 34.708740,154.503494 42.447670,153.968109 
	C42.447670,153.968109 42.918530,154.030136 43.190071,154.679596 
	C44.463528,155.062027 45.736980,155.444473 47.444012,155.980148 
	C47.444012,155.980148 47.899685,156.042007 48.154819,156.683746 
	C57.035385,164.320908 56.507885,172.800751 49.021114,182.199905 
	C61.959171,178.269287 64.412270,161.802521 55.270908,153.230316 
	C57.514210,152.767105 59.757511,152.303894 62.742695,151.992310 
	C63.494358,151.937408 64.246017,151.882507 65.491592,151.968307 
	C65.656548,151.922531 65.821495,151.876755 66.913208,151.992218 
	C87.854141,151.660843 108.795074,151.329300 129.736023,150.998840 
	C130.400681,150.988358 131.188156,151.214859 131.703415,150.935059 
	C132.630707,150.431503 133.394867,149.627533 134.227173,148.949051 
	C134.060226,148.464508 133.893295,147.979980 133.726364,147.495438 
	C119.663124,147.495438 105.599892,147.495438 90.502174,147.495438 
	C95.770996,144.496185 99.877617,142.158524 104.914276,139.961868 
	C113.474022,139.962784 122.034149,139.920334 130.593262,139.994537 
	C132.782562,140.013519 134.686813,140.093964 133.980469,136.071060 
	C134.000534,130.749039 134.020584,125.427025 134.821274,119.999619 
	C137.272659,119.671707 139.724060,119.343803 142.015793,119.938789 
	C142.010315,125.088486 141.920914,130.240463 142.061523,135.386185 
	C142.094498,136.591873 142.905991,137.776260 143.359299,138.970459 
	C143.906937,137.708206 144.831940,136.476318 144.936325,135.178436 
	C145.369064,129.797714 145.553879,124.397057 145.979431,118.171326 
	C145.660492,114.165474 146.306366,111.654465 151.339798,110.631577 
	C158.598785,109.156448 161.799789,98.370476 157.654953,92.088387 
	C155.387924,88.652359 151.987549,85.700554 152.944946,80.792122 
	C153.556961,77.654480 153.682327,74.421921 154.025894,71.231926 
	C153.472733,71.094917 152.919571,70.957909 152.366425,70.820900 
	C148.348038,75.944313 146.961334,81.858856 148.298523,88.682648 
	C143.086411,79.426712 148.426163,69.862579 146.701828,59.569809 
	C154.475662,66.548386 162.140747,67.770226 170.447678,63.041969 
	C173.417572,61.351528 175.671722,57.610817 175.285263,55.050117 
	C163.606552,62.926407 159.732101,61.029884 152.111069,54.404552 
	C146.400009,49.439632 146.710907,44.768398 151.983414,39.569714 
	C153.582733,37.992790 155.350250,36.586468 157.679398,35.006195 
	C158.108261,35.033051 158.537125,35.059902 159.283661,35.764484 
	C161.176834,36.216415 163.070007,36.668346 165.228104,37.768002 
	C167.970520,40.283745 169.872223,43.066513 167.816711,47.720592 
	C166.641373,50.872437 163.917770,50.115421 161.663788,49.869286 
	C160.709915,49.765121 159.011658,47.986912 159.151703,47.698818 
	C160.275024,45.388275 161.757141,43.252171 163.796951,39.997791 
	C161.285416,40.745007 158.515305,40.764999 157.214188,42.157547 
	C155.545761,43.943192 153.814728,47.195969 154.385803,49.152603 
	C155.061523,51.467724 157.877762,54.141830 160.268677,54.781193 
	C166.500977,56.447800 174.153000,52.277451 174.980255,44.321133 
	C175.308029,43.579224 175.635803,42.837315 176.192383,42.722054 
	C178.779129,45.304306 181.290878,47.967339 183.967743,50.452530 
	C190.155838,56.197514 196.473358,58.186989 201.364304,54.662216 
	C205.184189,51.909325 207.845398,47.548672 211.699860,44.597523 
	C210.150085,48.133511 210.418747,52.027359 213.624283,53.729370 
	C216.360703,55.182304 220.563507,55.604622 223.475494,54.607468 
	C228.371063,52.931080 229.948090,48.334778 229.291412,44.379616 
	C233.937637,42.348011 237.970993,40.584396 242.644943,38.985359 
	C243.082993,39.027252 243.521042,39.069145 244.301849,39.802647 
	C246.683823,40.542900 249.065781,41.283157 251.640717,42.083382 
	C252.680267,38.449547 251.195953,36.372448 247.328094,34.769600 
	C248.515228,34.514732 249.700684,34.048153 250.889740,34.038853 
	C259.549866,33.971115 268.212921,34.110168 276.870239,33.939976 
	C280.926514,33.860233 284.972137,33.239891 289.022552,32.864555 
	C289.065704,32.384159 289.108826,31.903765 289.151947,31.423368 
	C287.582367,30.948147 286.013580,30.063036 284.443085,30.059994 
	C264.961151,30.022274 245.478989,30.112926 225.071793,30.012392 
	C201.716949,30.065413 178.362122,30.118433 154.310944,30.019384 
	C151.532959,32.522133 148.915756,35.239635 145.934769,37.471210 
	C142.501907,40.041065 141.861450,43.265194 141.912384,47.304405 
	C142.056030,58.696228 141.804611,70.093033 141.658646,81.613426 
	C141.658646,81.613426 141.528137,81.648903 140.884232,81.751549 
	C140.257370,81.898727 139.630524,82.045906 138.267136,82.031265 
	C136.878983,81.676445 135.490845,81.321625 134.000122,80.038643 
	C134.000122,63.449780 134.000122,46.860916 134.000122,29.902517 
	C116.625237,29.902517 99.831337,29.902517 82.981941,29.113604 
	C81.572685,22.474627 79.787193,16.112175 71.216675,14.002568 
	C63.703129,11.045977 56.115101,12.899400 50.267208,19.212448 
	C47.893749,22.600754 45.520290,25.989061 42.543911,30.238089 
	C37.193867,30.238089 30.665285,30.238089 23.888193,30.238089 
	C23.888193,41.452141 23.888193,52.205952 23.276924,63.181801 
	C22.812511,64.103569 22.348099,65.025337 21.224312,66.255104 
	C20.445564,68.489639 19.666819,70.724174 18.224052,73.258461 
	C17.869699,74.839294 17.515347,76.420120 16.999657,78.827408 
	C16.651552,82.179016 16.303448,85.530632 15.362961,89.123749 
	C15.561177,89.786407 15.759394,90.449059 15.991374,91.972473 
	C16.047394,93.981361 16.103415,95.990250 16.011576,98.800919 
	C18.170214,104.633011 20.328850,110.465096 22.616781,116.353989 
	C22.616781,116.353989 22.663645,116.487206 22.648643,117.039558 
	C22.823502,117.359230 22.998362,117.678909 23.216984,118.726379 
	C23.807959,119.654411 24.873428,120.566818 24.904600,121.513283 
	C25.016569,124.913017 25.101162,128.371506 24.609837,131.721802 
	C23.405210,139.936005 23.284876,140.204330 31.843016,139.875595 
	C39.149010,139.594986 46.109329,140.038635 52.143772,144.642075 
	C53.257256,145.491516 53.988953,146.841431 54.277916,148.000916 
	C53.867004,147.966934 53.456089,147.932938 52.619858,147.135178 
	C45.765457,147.580948 38.132149,144.498795 32.586922,151.029907 
	C29.418262,154.761917 24.119143,157.165878 24.908751,163.565201 
	C25.414429,167.663422 25.125227,171.859756 25.033207,176.856812 
	C25.085455,178.572891 25.137703,180.288956 25.024914,182.726929 
	C25.080662,184.191101 25.136410,185.655289 25.069429,188.190247 
	C25.184443,188.530609 25.299456,188.870956 25.437008,189.292175 
	C25.437008,189.292175 25.434580,189.376083 25.345169,189.601212 
	C25.345169,189.601212 25.440882,189.823746 25.483725,189.964127 
	C25.483725,189.964127 25.406534,190.043961 25.065201,190.787888 
M84.483170,161.992737 
	C89.438210,165.989639 94.500969,166.999817 100.279251,163.369797 
	C103.481766,161.357910 105.444695,158.991623 106.089180,154.735123 
	C104.586830,155.165451 103.554222,155.203308 102.849762,155.703415 
	C96.665665,160.093491 92.109909,160.138931 85.931602,156.563889 
	C83.248123,155.011093 79.911232,153.527863 76.980682,153.716354 
	C72.847473,153.982239 68.237251,154.814987 65.449333,159.948166 
	C69.266190,159.585266 72.317482,158.875305 75.285225,159.131882 
	C78.212898,159.384964 81.056007,160.616211 84.483170,161.992737 
M61.999329,164.740295 
	C62.023857,167.781891 63.626095,169.921158 66.543114,169.866653 
	C69.360504,169.814041 73.042854,171.694168 74.913330,168.107040 
	C70.762222,165.840134 66.912636,163.737885 63.123573,161.668686 
	C62.852505,162.228607 62.432083,163.097015 61.999329,164.740295 
M159.155106,72.720177 
	C159.772171,74.684258 160.314819,76.676926 161.051834,78.594910 
	C161.271637,79.166855 161.976242,79.734787 162.573959,79.908867 
	C162.916550,80.008644 163.841522,79.369095 163.905914,78.966660 
	C164.481323,75.370064 165.510422,71.299217 162.583405,68.627579 
	C161.117783,67.289841 157.916687,67.853470 155.500504,67.557159 
	C155.401382,67.914688 155.302277,68.272209 155.203171,68.629738 
	C156.360245,69.795616 157.517319,70.961487 159.155106,72.720177 
M39.125385,241.609207 
	C40.775898,245.511322 43.251694,247.946198 48.626511,246.471603 
	C46.335953,243.045166 44.242779,239.914001 41.888988,236.392975 
	C40.860199,238.390594 40.197468,239.677429 39.125385,241.609207 
M235.749466,45.004398 
	C234.161194,45.690163 232.572922,46.375931 230.545074,47.251484 
	C234.173920,49.514034 237.246597,51.429832 241.007996,53.775028 
	C240.853775,49.274525 241.604218,45.563366 235.749466,45.004398 
z"/>
<path fill="#F0FAF2" opacity="1.000000" stroke="none" 
	d="
M142.175446,119.015892 
	C139.724060,119.343803 137.272659,119.671707 134.427216,119.678337 
	C135.036606,117.869247 136.040070,116.381432 137.410645,114.942879 
	C142.561996,113.313492 146.095139,110.000336 146.850189,105.125175 
	C147.907135,98.300514 146.660477,91.853523 139.858765,87.647026 
	C139.499542,87.228844 139.227036,87.094131 138.935730,87.038063 
	C138.963547,87.022484 138.937500,87.080666 138.956390,86.673462 
	C138.984756,84.908524 138.994202,83.550804 139.003662,82.193077 
	C139.630524,82.045906 140.257370,81.898727 141.320999,81.889618 
	C141.947021,82.034409 142.136276,82.041138 142.325531,82.047867 
	C142.119995,81.861206 141.914444,81.674538 141.708893,81.487877 
	C141.804611,70.093033 142.056030,58.696228 141.912384,47.304405 
	C141.861450,43.265194 142.501907,40.041065 145.934769,37.471210 
	C148.915756,35.239635 151.532959,32.522133 154.698822,30.428123 
	C155.738037,32.258575 156.389374,33.680286 157.040710,35.101997 
	C155.350250,36.586468 153.582733,37.992790 151.983414,39.569714 
	C146.710907,44.768398 146.400009,49.439632 152.111069,54.404552 
	C159.732101,61.029884 163.606552,62.926407 175.285263,55.050117 
	C175.671722,57.610817 173.417572,61.351528 170.447678,63.041969 
	C162.140747,67.770226 154.475662,66.548386 146.701828,59.569809 
	C148.426163,69.862579 143.086411,79.426712 148.298523,88.682648 
	C146.961334,81.858856 148.348038,75.944313 152.366425,70.820900 
	C152.919571,70.957909 153.472733,71.094917 154.025894,71.231926 
	C153.682327,74.421921 153.556961,77.654480 152.944946,80.792122 
	C151.987549,85.700554 155.387924,88.652359 157.654953,92.088387 
	C161.799789,98.370476 158.598785,109.156448 151.339798,110.631577 
	C146.306366,111.654465 145.660492,114.165474 145.628967,118.609703 
	C144.244156,119.037354 143.209808,119.026619 142.175446,119.015892 
z"/>
<path fill="#F2FBF2" opacity="1.000000" stroke="none" 
	d="
M28.823776,257.993988 
	C28.870237,258.752319 28.916693,259.510651 28.704144,260.898468 
	C28.555323,261.910858 28.665510,262.293793 28.775696,262.676697 
	C28.759308,263.143127 28.742922,263.609528 28.404846,264.681000 
	C27.721357,268.700531 27.495728,272.137573 26.936745,275.519470 
	C26.680984,277.066864 25.768990,278.505829 25.154610,279.993958 
	C25.108126,255.972061 25.061640,231.950180 25.320770,207.445419 
	C25.865862,206.808197 26.105339,206.653854 26.344812,206.499496 
	C25.952812,206.332428 25.560814,206.165359 25.168819,205.998291 
	C25.120123,201.479507 25.071428,196.960724 25.442448,192.052765 
	C26.241444,191.442398 26.620724,191.221207 27.308430,190.971466 
	C28.092112,190.592773 28.567368,190.242645 29.423492,190.114044 
	C29.550320,195.853729 29.296272,201.371902 29.030478,207.313354 
	C29.028591,208.865601 29.038454,209.994553 29.198608,211.509583 
	C29.555216,214.817215 29.943375,217.739883 29.925421,220.660080 
	C29.898184,225.090210 32.132900,227.835190 36.135414,228.918243 
	C40.954296,230.222260 43.942261,228.373947 46.132095,222.961151 
	C43.616524,222.363480 40.419750,222.558685 38.915432,221.057693 
	C35.216560,217.366989 42.352535,218.221344 41.847786,215.151657 
	C39.597038,215.778305 37.425392,216.382919 35.253746,216.987549 
	C35.169273,216.691757 35.084801,216.395981 35.000324,216.100189 
	C36.967930,214.081573 38.935532,212.062973 41.167881,209.862183 
	C41.635460,209.083771 41.838295,208.487549 42.346497,207.868774 
	C43.067516,207.219620 43.483173,206.593018 44.275990,205.938538 
	C46.378426,205.606369 48.103703,205.302078 49.828972,204.997803 
	C48.027435,207.614853 46.046738,210.133011 44.518646,212.901047 
	C43.961498,213.910309 44.213051,216.602570 44.549568,216.685501 
	C50.893295,218.249237 50.530579,223.330978 49.825047,227.736282 
	C49.033165,232.680756 45.008308,234.711578 40.171394,234.999985 
	C39.551754,235.036926 38.931034,235.055832 39.547375,235.028732 
	C37.718353,238.793655 35.523739,241.622574 35.051590,244.714508 
	C34.473774,248.498398 35.339127,252.502670 35.670650,257.872192 
	C33.230461,260.425018 31.860296,255.254623 29.132210,254.640533 
	C29.094801,255.046204 29.036724,255.676025 28.762165,256.752716 
	C28.496271,257.300323 28.378450,257.442230 28.409815,257.494354 
	C28.520103,257.677582 28.681665,257.829926 28.823776,257.993988 
z"/>
<path fill="#F8FBF6" opacity="1.000000" stroke="none" 
	d="
M83.037445,29.902517 
	C99.831337,29.902517 116.625237,29.902517 134.000122,29.902517 
	C134.000122,46.860916 134.000122,63.449780 133.640045,80.511887 
	C131.909454,80.988579 130.538940,80.992043 129.094574,80.672867 
	C128.982574,79.911362 128.944443,79.472496 129.141296,78.881424 
	C128.976593,78.149757 128.576889,77.570297 128.035660,76.666275 
	C127.235771,74.905075 126.577393,73.468437 126.156815,71.860626 
	C125.904274,71.135490 125.413925,70.581520 124.647018,69.943680 
	C123.900604,69.269333 123.430748,68.678856 123.112076,67.739838 
	C123.510384,65.649963 123.757507,63.908630 124.386765,62.090885 
	C128.371719,60.941296 128.617691,57.924438 127.890114,55.233189 
	C126.141907,48.766705 126.915031,42.511150 128.556335,36.666107 
	C122.300461,36.666107 116.148338,36.666107 109.899727,36.448959 
	C109.678925,36.146801 109.554626,36.061790 109.430328,35.976784 
	C109.608925,36.210541 109.787521,36.444298 109.571182,36.815258 
	C107.051460,37.637997 104.926674,38.323528 102.616272,39.145409 
	C102.206116,39.509525 102.075012,39.782227 102.110497,40.411583 
	C102.480606,41.472771 102.777580,42.222233 102.813454,43.131310 
	C101.999489,43.875401 101.446632,44.459881 100.590210,44.934196 
	C99.188866,43.819145 98.091087,42.814255 96.863167,41.621788 
	C96.515678,41.201694 96.249184,41.065025 95.691986,40.964638 
	C95.139206,40.714836 94.980019,40.437363 94.977081,39.711117 
	C94.730133,37.116711 93.925056,36.217625 91.583572,38.038284 
	C88.803329,37.250950 86.405457,36.522621 83.939987,35.470421 
	C83.594063,33.398540 83.315750,31.650528 83.037445,29.902517 
z"/>
<path fill="#F4FBF5" opacity="1.000000" stroke="none" 
	d="
M103.984245,139.820847 
	C99.877617,142.158524 95.770996,144.496185 90.502174,147.495438 
	C105.599892,147.495438 119.663124,147.495438 133.726364,147.495438 
	C133.893295,147.979980 134.060226,148.464508 134.227173,148.949051 
	C133.394867,149.627533 132.630707,150.431503 131.703415,150.935059 
	C131.188156,151.214859 130.400681,150.988358 129.736023,150.998840 
	C108.795074,151.329300 87.854141,151.660843 66.331070,151.724396 
	C65.544868,151.230194 65.295731,151.077209 64.943512,150.580414 
	C64.570351,149.089111 64.255180,148.015045 64.072510,146.878387 
	C64.192390,146.208054 64.179756,145.600342 64.357536,144.856125 
	C64.778412,144.490524 64.915962,144.215027 64.988586,143.665222 
	C65.016571,143.437302 65.168564,143.003937 65.446136,142.956818 
	C66.013474,142.591873 66.303238,142.274048 66.593002,141.956238 
	C66.117691,141.636353 65.642372,141.316483 65.200897,140.621704 
	C65.880028,138.165802 66.525322,136.084763 67.478317,133.942963 
	C68.669426,133.421204 69.552826,132.960220 70.312256,132.563919 
	C70.904099,134.314514 71.358536,135.658661 71.890762,137.387375 
	C71.347557,139.861176 70.726570,141.950439 69.809326,144.060242 
	C69.158379,144.362366 68.803680,144.643906 68.448990,144.925461 
	C68.908348,145.284790 69.367706,145.644135 69.993965,146.339111 
	C71.163811,146.117691 72.166756,145.560623 73.477325,145.166443 
	C75.565399,145.869614 77.345848,146.409897 79.534622,146.967621 
	C80.628838,146.385590 81.713112,145.907089 81.937759,145.167496 
	C83.768661,139.139679 85.438911,133.063049 87.453270,127.047935 
	C89.200195,127.408981 90.651886,127.723366 92.149651,128.386658 
	C91.485039,132.766006 90.774361,136.796432 89.930252,141.583542 
	C94.508278,139.427689 98.239792,137.670471 102.081085,136.183273 
	C102.460747,136.969070 102.730629,137.484833 103.096680,138.241394 
	C103.456642,138.928391 103.720444,139.374619 103.984245,139.820847 
z"/>
<path fill="#F1FAF2" opacity="1.000000" stroke="none" 
	d="
M54.896858,147.960342 
	C53.988953,146.841431 53.257256,145.491516 52.143772,144.642075 
	C46.109329,140.038635 39.149010,139.594986 31.843016,139.875595 
	C23.284876,140.204330 23.405210,139.936005 24.609837,131.721802 
	C25.101162,128.371506 25.016569,124.913017 24.904600,121.513283 
	C24.873428,120.566818 23.807959,119.654411 23.527916,118.355530 
	C24.570486,115.961021 25.302122,113.937370 26.365913,112.060806 
	C32.500511,125.945457 43.164639,134.410889 56.467239,140.102829 
	C57.031364,138.265945 57.869495,136.744095 57.894352,135.209076 
	C57.949085,131.829315 60.936066,127.386986 55.009377,125.480972 
	C55.691013,124.062256 56.366222,122.980553 57.252499,121.938744 
	C57.463570,121.978638 57.892822,121.960686 58.228249,121.928238 
	C59.023685,121.232506 59.483700,120.569229 59.959167,119.932892 
	C59.974625,119.959824 59.918777,119.932365 60.285118,119.957642 
	C61.445480,120.687775 62.239506,121.392639 62.942978,122.378181 
	C62.905811,123.171852 62.959194,123.684837 63.146477,124.381531 
	C63.505100,124.784035 63.772106,124.919495 64.422028,125.107124 
	C65.097183,126.071281 65.860130,126.995987 65.699249,127.713577 
	C64.255524,134.153107 62.649342,140.556213 60.813801,146.980316 
	C60.351990,146.998077 60.167278,147.005554 59.724846,146.830444 
	C56.728531,142.853897 56.978687,149.467331 54.896858,147.960342 
z"/>
<path fill="#FAFCF8" opacity="1.000000" stroke="none" 
	d="
M157.360046,35.054092 
	C156.389374,33.680286 155.738037,32.258575 155.046982,30.504158 
	C178.362122,30.118433 201.716949,30.065413 225.526962,30.464149 
	C225.654755,32.610043 225.327377,34.304184 224.803970,36.252186 
	C223.724182,37.043419 222.840424,37.580784 221.624329,37.973511 
	C216.640656,32.357632 210.711761,34.515614 204.919769,34.831085 
	C203.514328,34.741344 202.234100,34.928753 200.491699,35.057262 
	C193.701538,35.297050 187.373566,35.595730 180.909210,36.210358 
	C179.169754,38.382675 177.566666,40.239040 175.963577,42.095406 
	C175.635803,42.837315 175.308029,43.579224 174.550720,44.708160 
	C172.133942,45.729221 170.146698,46.363251 168.159454,46.997284 
	C169.872223,43.066513 167.970520,40.283745 164.986877,37.203526 
	C163.257523,34.489182 162.134872,30.978588 158.965988,35.086754 
	C158.537125,35.059902 158.108261,35.033051 157.360046,35.054092 
z"/>
<path fill="#F5FAF4" opacity="1.000000" stroke="none" 
	d="
M23.888193,62.959763 
	C23.888193,52.205952 23.888193,41.452141 23.888193,30.238089 
	C30.665285,30.238089 37.193867,30.238089 42.543911,30.238089 
	C45.520290,25.989061 47.893749,22.600754 50.923641,19.124264 
	C52.418106,19.369974 53.256142,19.703867 53.955814,20.373547 
	C52.714481,22.182230 51.611504,23.655127 49.630489,26.300547 
	C56.301533,25.400232 61.774277,22.567135 64.825821,29.132629 
	C63.702927,29.869555 62.852032,30.434036 61.947479,30.864172 
	C61.810757,30.681690 61.727695,30.633554 61.644638,30.585419 
	C61.762600,30.723993 61.880566,30.862570 61.999104,31.412273 
	C61.987598,32.919582 61.975517,34.015762 61.553555,35.053078 
	C50.780590,34.994213 40.417507,34.994213 30.496702,34.994213 
	C29.979029,41.781677 29.518328,47.822155 29.042629,54.277512 
	C29.053865,57.140823 29.080099,59.589256 29.049347,62.284149 
	C28.936581,62.689747 28.880795,62.848892 28.635906,63.145245 
	C28.218779,63.512676 28.083725,63.788441 27.985607,64.345596 
	C27.744904,64.886772 27.474159,65.040260 26.837307,65.117218 
	C25.667580,64.448265 24.777887,63.704014 23.888193,62.959763 
M26.581465,62.516483 
	C26.581465,62.516483 26.478306,62.576405 26.581465,62.516483 
z"/>
<path fill="#F7FCF7" opacity="1.000000" stroke="none" 
	d="
M103.000511,138.000610 
	C102.730629,137.484833 102.460747,136.969070 102.135513,135.940948 
	C102.270348,135.113617 102.549355,134.961151 103.136444,134.898926 
	C103.636871,134.676071 103.848549,134.458038 104.227676,134.088715 
	C104.627052,133.963898 104.789513,133.922913 105.107208,134.138367 
	C107.884071,134.928146 110.488708,135.655319 113.136742,135.887482 
	C114.037025,135.966415 115.046677,134.797897 116.334320,134.123154 
	C117.105812,134.091171 117.549339,134.135422 118.090515,134.536804 
	C120.652756,136.498016 123.016663,137.134689 125.447731,134.109512 
	C127.996971,134.281693 129.108704,133.843140 129.057281,131.219666 
	C128.882828,122.316963 129.016937,113.408524 128.952759,104.502853 
	C128.947006,103.706352 128.359924,102.914047 127.884697,101.855820 
	C127.153763,100.796898 126.580956,100.001938 126.349808,99.040237 
	C130.076508,96.015869 133.224243,96.779434 136.204147,99.535828 
	C142.625290,105.475349 141.198715,107.479660 137.043549,114.893616 
	C136.040070,116.381432 135.036606,117.869247 134.036896,119.731033 
	C134.020584,125.427025 134.000534,130.749039 133.503448,136.598816 
	C131.093689,137.416061 129.163635,137.932465 127.227715,137.955444 
	C119.152946,138.051285 111.076401,137.998734 103.000511,138.000610 
z"/>
<path fill="#EEF8ED" opacity="1.000000" stroke="none" 
	d="
M83.009689,29.508060 
	C83.315750,31.650528 83.594063,33.398540 83.574745,35.562126 
	C81.715538,37.907047 80.153961,39.836395 78.260910,42.175282 
	C87.103210,50.667675 96.125526,59.332962 104.720085,67.999001 
	C103.151802,68.014244 102.011284,68.028740 100.608498,67.967163 
	C100.133461,67.430817 99.920692,66.970551 99.879471,66.375961 
	C100.046379,66.053825 100.041725,65.866020 100.037064,65.678207 
	C99.856712,65.886368 99.676361,66.094528 99.150581,66.244736 
	C91.692734,59.123814 84.609856,52.030693 77.449837,45.016304 
	C75.312645,42.922592 72.959518,41.049313 70.766762,39.128849 
	C73.001633,36.347713 78.276848,39.049679 78.039520,33.949539 
	C77.897049,30.887592 78.058311,27.457186 76.724152,24.901892 
	C75.311142,22.195597 72.287506,20.330236 70.099579,17.802893 
	C70.819466,16.393705 71.407120,15.279211 71.994766,14.164716 
	C79.787193,16.112175 81.572685,22.474627 83.009689,29.508060 
z"/>
<path fill="#F5FCF8" opacity="1.000000" stroke="none" 
	d="
M225.000000,35.998322 
	C225.327377,34.304184 225.654755,32.610043 225.989502,30.543221 
	C245.478989,30.112926 264.961151,30.022274 284.443085,30.059994 
	C286.013580,30.063036 287.582367,30.948147 289.151947,31.423368 
	C289.108826,31.903765 289.065704,32.384159 289.022552,32.864555 
	C284.972137,33.239891 280.926514,33.860233 276.870239,33.939976 
	C268.212921,34.110168 259.549866,33.971115 250.889740,34.038853 
	C249.700684,34.048153 248.515228,34.514732 247.778229,35.237129 
	C246.805267,36.840118 245.382187,37.975578 243.959091,39.111038 
	C243.521042,39.069145 243.082993,39.027252 242.352737,38.607040 
	C242.027435,36.055313 242.298004,33.651424 238.551453,34.024788 
	C236.824646,34.037014 235.430679,34.068352 233.796265,33.812943 
	C231.702911,33.958706 229.849991,34.391216 227.738861,34.918564 
	C227.365143,35.327698 227.249664,35.641998 226.778610,35.968796 
	C225.948700,35.986969 225.474350,35.992645 225.000000,35.998322 
z"/>
<path fill="#F4FBF5" opacity="1.000000" stroke="none" 
	d="
M176.077972,42.408730 
	C177.566666,40.239040 179.169754,38.382675 181.231750,36.357944 
	C182.788956,37.948883 183.705170,39.859001 185.016251,41.442074 
	C191.624969,49.421757 198.153427,51.015846 204.430145,46.051399 
	C206.643631,44.300678 208.377747,41.943848 210.921387,39.234673 
	C210.921387,41.431942 210.921387,42.730145 210.959045,44.006901 
	C210.996689,43.985458 211.021484,43.902431 211.021484,43.902428 
	C207.845398,47.548672 205.184189,51.909325 201.364304,54.662216 
	C196.473358,58.186989 190.155838,56.197514 183.967743,50.452530 
	C181.290878,47.967339 178.779129,45.304306 176.077972,42.408730 
z"/>
<path fill="#F3FBF3" opacity="1.000000" stroke="none" 
	d="
M238.884277,34.043903 
	C242.298004,33.651424 242.027435,36.055313 242.032440,38.524750 
	C237.970993,40.584396 233.937637,42.348011 229.291412,44.379616 
	C229.948090,48.334778 228.371063,52.931080 223.475494,54.607468 
	C220.563507,55.604622 216.360703,55.182304 213.624283,53.729370 
	C210.418747,52.027359 210.150085,48.133511 211.360672,44.249977 
	C211.021484,43.902431 210.996689,43.985458 211.300781,44.313194 
	C212.829498,43.969864 214.054123,43.298798 215.734695,42.377892 
	C215.922974,45.693050 216.069626,48.275223 216.217514,50.879181 
	C223.400772,49.732635 224.705215,46.700352 221.956650,38.118149 
	C222.840424,37.580784 223.724182,37.043419 224.803970,36.252190 
	C225.474350,35.992645 225.948700,35.986969 227.113251,36.112938 
	C232.514191,40.632542 235.359451,35.627373 238.884277,34.043903 
z"/>
<path fill="#EFFCF1" opacity="1.000000" stroke="none" 
	d="
M84.209694,161.705536 
	C81.056007,160.616211 78.212898,159.384964 75.285225,159.131882 
	C72.317482,158.875305 69.266190,159.585266 65.449333,159.948166 
	C68.237251,154.814987 72.847473,153.982239 76.980682,153.716354 
	C79.911232,153.527863 83.248123,155.011093 85.931602,156.563889 
	C92.109909,160.138931 96.665665,160.093491 102.849762,155.703415 
	C103.554222,155.203308 104.586830,155.165451 106.089180,154.735123 
	C105.444695,158.991623 103.481766,161.357910 100.279251,163.369797 
	C94.500969,166.999817 89.438210,165.989639 84.209694,161.705536 
z"/>
<path fill="#EFFAF0" opacity="1.000000" stroke="none" 
	d="
M31.031128,168.911591 
	C33.267830,172.311951 35.906219,175.307785 40.455959,173.876343 
	C42.157486,173.341019 44.096863,171.791107 44.729691,170.220932 
	C45.189907,169.079041 44.031513,166.207138 42.961052,165.808548 
	C41.722488,165.347366 39.744980,166.656097 38.175854,167.384964 
	C37.351704,167.767792 36.714561,168.553223 35.992970,169.156830 
	C35.497162,168.876984 35.001358,168.597153 34.505554,168.317307 
	C35.680260,166.026596 36.329941,163.022751 38.185406,161.656738 
	C39.858089,160.425323 43.395321,160.025467 45.124077,161.002945 
	C47.274086,162.218613 49.462173,165.082886 49.788582,167.485840 
	C50.765385,174.676910 45.454235,180.098114 36.794502,181.616592 
	C35.213646,181.998749 34.109913,181.997574 33.199448,181.726120 
	C34.471836,180.161514 35.550964,178.867188 36.630093,177.572861 
	C35.209778,177.335724 33.528160,177.485458 32.442822,176.752380 
	C31.363091,176.023102 30.471296,174.475082 30.253613,173.160782 
	C30.032206,171.823975 30.733742,170.334320 31.031128,168.911591 
z"/>
<path fill="#EEF9EE" opacity="1.000000" stroke="none" 
	d="
M100.870758,68.043228 
	C102.011284,68.028740 103.151802,68.014244 105.029854,68.110550 
	C111.665756,74.118912 117.564140,80.016495 123.022591,85.474205 
	C124.689781,84.150070 125.985329,83.082413 127.325935,82.074699 
	C127.891151,81.649841 128.551392,81.351410 129.168427,80.995499 
	C130.538940,80.992043 131.909454,80.988579 133.691330,80.975967 
	C135.490845,81.321625 136.878983,81.676445 138.635406,82.112167 
	C138.994202,83.550804 138.984756,84.908524 138.537933,86.631256 
	C134.791199,86.561676 131.481827,86.127083 128.570877,85.744812 
	C127.922028,88.292824 127.706429,90.102303 126.943741,91.640518 
	C126.655754,92.221344 124.564102,92.702728 124.205971,92.337013 
	C116.350182,84.314865 108.622749,76.167023 100.870758,68.043228 
z"/>
<path fill="#EFFAF0" opacity="1.000000" stroke="none" 
	d="
M41.999390,153.811737 
	C34.708740,154.503494 29.850826,160.424469 30.549665,167.588226 
	C25.040960,166.359879 27.391735,170.713272 26.536964,172.486359 
	C25.992706,173.615295 25.634171,174.833771 25.192364,176.012100 
	C25.125227,171.859756 25.414429,167.663422 24.908751,163.565201 
	C24.119143,157.165878 29.418262,154.761917 32.586922,151.029907 
	C38.132149,144.498795 45.765457,147.580948 52.551750,147.825470 
	C49.724972,148.676376 46.963005,148.795364 44.208874,149.013306 
	C42.560596,149.143738 40.924576,149.429031 39.283047,149.644714 
	C40.188496,151.033722 41.093941,152.422729 41.999390,153.811737 
z"/>
<path fill="#F2FBF4" opacity="1.000000" stroke="none" 
	d="
M55.143425,153.997589 
	C64.412270,161.802521 61.959171,178.269287 49.021114,182.199905 
	C56.507885,172.800751 57.035385,164.320908 48.345207,156.225555 
	C50.023529,155.178253 51.511459,154.589127 53.356735,154.000488 
	C54.190525,153.999847 54.666973,153.998718 55.143425,153.997589 
z"/>
<path fill="#F3FCF3" opacity="1.000000" stroke="none" 
	d="
M167.988083,47.358936 
	C170.146698,46.363251 172.133942,45.729221 174.469208,45.044178 
	C174.153000,52.277451 166.500977,56.447800 160.268677,54.781193 
	C157.877762,54.141830 155.061523,51.467724 154.385803,49.152603 
	C153.814728,47.195969 155.545761,43.943192 157.214188,42.157547 
	C158.515305,40.764999 161.285416,40.745007 163.796951,39.997791 
	C161.757141,43.252171 160.275024,45.388275 159.151703,47.698818 
	C159.011658,47.986912 160.709915,49.765121 161.663788,49.869286 
	C163.917770,50.115421 166.641373,50.872437 167.988083,47.358936 
z"/>
<path fill="#FBFCF9" opacity="1.000000" stroke="none" 
	d="
M25.112783,176.434448 
	C25.634171,174.833771 25.992706,173.615295 26.536964,172.486359 
	C27.391735,170.713272 25.040960,166.359879 30.468952,167.965149 
	C30.808104,168.009079 30.972267,168.447342 31.001698,168.679474 
	C30.733742,170.334320 30.032206,171.823975 30.253613,173.160782 
	C30.471296,174.475082 31.363091,176.023102 32.442822,176.752380 
	C33.528160,177.485458 35.209778,177.335724 36.630093,177.572861 
	C35.550964,178.867188 34.471836,180.161514 33.197304,182.101562 
	C33.001640,183.497986 33.001381,184.248672 33.000114,185.388809 
	C32.987064,186.556900 32.975025,187.335556 32.617466,187.963165 
	C29.507574,185.885452 28.782272,187.123993 29.042622,189.892502 
	C28.567368,190.242645 28.092112,190.592773 27.308430,190.971466 
	C27.000000,191.000000 26.998920,190.999390 26.790854,190.749786 
	C26.202152,190.274704 25.821518,190.049225 25.440884,189.823746 
	C25.440882,189.823746 25.345169,189.601212 25.574516,189.246704 
	C25.879276,188.771622 25.954691,188.651047 26.030104,188.530472 
	C25.824894,188.757431 25.619684,188.984375 25.414473,189.211319 
	C25.299456,188.870956 25.184443,188.530609 25.478306,187.547485 
	C25.654770,185.271500 25.422359,183.638260 25.189949,182.005035 
	C25.137703,180.288956 25.085455,178.572891 25.112783,176.434448 
z"/>
<path fill="#F5FAF4" opacity="1.000000" stroke="none" 
	d="
M16.159435,97.999138 
	C16.103415,95.990250 16.047394,93.981361 15.988825,91.170601 
	C15.975965,89.873230 15.965654,89.377739 15.955344,88.882240 
	C16.303448,85.530632 16.651552,82.179016 17.445601,78.414246 
	C19.281321,78.340576 20.671097,78.680077 22.018253,79.351044 
	C21.914248,80.121208 21.852865,80.559898 21.468128,81.069794 
	C19.918072,82.563606 18.691370,83.986206 17.464670,85.408813 
	C17.729080,85.634483 17.993490,85.860161 18.257900,86.085831 
	C19.105173,85.724007 19.952444,85.362183 20.877811,85.413414 
	C20.901970,87.222374 20.848028,88.618294 20.658947,90.109619 
	C20.340544,90.537964 20.431515,90.798248 20.876337,91.289513 
	C20.905210,92.795593 20.854467,93.998039 20.601362,95.527069 
	C20.864626,96.569565 21.330250,97.285469 21.877502,98.366562 
	C22.005976,99.477531 22.052820,100.223312 21.802345,101.076645 
	C19.723160,100.122505 17.941298,99.060822 16.159435,97.999138 
z"/>
<path fill="#F4FAF3" opacity="1.000000" stroke="none" 
	d="
M16.085506,98.400024 
	C17.941298,99.060822 19.723160,100.122505 22.140121,101.246132 
	C23.196499,103.502014 23.617775,105.695953 24.106220,108.112244 
	C24.316317,108.622322 24.530199,108.840508 24.893593,109.214539 
	C24.972151,109.439926 25.030474,109.913727 25.100719,110.131821 
	C25.316191,110.631256 25.529659,110.844208 25.892036,111.213974 
	C25.972706,111.439178 26.033756,111.913712 26.033756,111.913712 
	C25.302122,113.937370 24.570486,115.961021 23.506035,117.991631 
	C22.998362,117.678909 22.823502,117.359230 22.841354,116.642395 
	C23.037027,116.055840 23.039989,115.866455 23.042955,115.677071 
	C22.857801,115.883781 22.672647,116.090485 22.487490,116.297188 
	C20.328850,110.465096 18.170214,104.633011 16.085506,98.400024 
z"/>
<path fill="#FBFCF6" opacity="1.000000" stroke="none" 
	d="
M52.999393,154.000000 
	C51.511459,154.589127 50.023529,155.178253 48.217644,155.904694 
	C47.899685,156.042007 47.444012,155.980148 47.140984,155.556335 
	C45.531475,154.765060 44.225002,154.397598 42.918530,154.030136 
	C42.918530,154.030136 42.447670,153.968109 42.223530,153.889923 
	C41.093941,152.422729 40.188496,151.033722 39.283047,149.644714 
	C40.924576,149.429031 42.560596,149.143738 44.208874,149.013306 
	C46.963005,148.795364 49.724972,148.676376 52.764408,148.207352 
	C53.456089,147.932938 53.867004,147.966934 54.587387,147.980621 
	C56.978687,149.467331 56.728531,142.853897 59.707813,147.125244 
	C59.632187,148.067780 59.315876,148.532944 58.780186,149.105423 
	C58.287506,149.410767 58.097427,149.669876 57.613457,149.998749 
	C55.824028,151.338303 54.411713,152.669159 52.999393,154.000000 
z"/>
<path fill="#F4FAF3" opacity="1.000000" stroke="none" 
	d="
M33.001122,184.999374 
	C33.001381,184.248672 33.001640,183.497986 33.004040,182.371841 
	C34.109913,181.997574 35.213646,181.998749 36.731403,181.998016 
	C40.426388,185.411423 43.707344,188.826736 46.682873,192.641205 
	C45.129314,193.638306 43.881187,194.236267 43.524078,194.407364 
	C40.805267,193.031555 38.840618,192.037384 36.603107,190.957321 
	C35.874668,190.281464 35.419090,189.691498 34.970707,188.746048 
	C34.318974,187.260162 33.660049,186.129761 33.001122,184.999374 
z"/>
<path fill="#F6FDF4" opacity="1.000000" stroke="none" 
	d="
M71.605721,14.083642 
	C71.407120,15.279211 70.819466,16.393705 69.770782,17.748886 
	C68.871407,17.932302 68.433067,17.875034 67.859222,17.629173 
	C67.497894,17.209249 67.224426,17.074766 66.477371,17.018368 
	C62.065666,18.012321 58.079922,19.025040 54.094173,20.037758 
	C53.256142,19.703867 52.418106,19.369974 51.242119,19.000053 
	C56.115101,12.899400 63.703129,11.045977 71.605721,14.083642 
z"/>
<path fill="#F4FDF5" opacity="1.000000" stroke="none" 
	d="
M36.875965,191.043213 
	C38.840618,192.037384 40.805267,193.031555 43.524078,194.407364 
	C43.881187,194.236267 45.129314,193.638306 46.729160,192.990417 
	C47.080875,192.940491 47.024086,192.973709 47.004051,193.259766 
	C45.563847,196.544510 48.179970,196.958008 49.830421,197.990005 
	C49.939312,200.091492 50.048203,202.192993 49.993034,204.646149 
	C48.103703,205.302078 46.378426,205.606369 44.320251,205.534973 
	C43.979172,203.806396 43.970985,202.453476 43.895496,200.879837 
	C43.684521,200.374115 43.470821,200.158508 43.104805,199.789429 
	C43.022511,199.566559 42.964321,199.094971 42.894909,198.874420 
	C42.678711,198.369858 42.462700,198.155640 42.041042,197.694427 
	C40.228405,195.266174 38.552181,193.154694 36.875965,191.043213 
M49.581478,200.515778 
	C49.581478,200.515778 49.477695,200.576294 49.581478,200.515778 
z"/>
<path fill="#EEFBF0" opacity="1.000000" stroke="none" 
	d="
M62.005493,164.352859 
	C62.432083,163.097015 62.852505,162.228607 63.123573,161.668686 
	C66.912636,163.737885 70.762222,165.840134 74.913330,168.107040 
	C73.042854,171.694168 69.360504,169.814041 66.543114,169.866653 
	C63.626095,169.921158 62.023857,167.781891 62.005493,164.352859 
z"/>
<path fill="#F0FAF2" opacity="1.000000" stroke="none" 
	d="
M103.096680,138.241394 
	C111.076401,137.998734 119.152946,138.051285 127.227715,137.955444 
	C129.163635,137.932465 131.093689,137.416061 133.429474,137.060684 
	C134.686813,140.093964 132.782562,140.013519 130.593262,139.994537 
	C122.034149,139.920334 113.474022,139.962784 104.449265,139.891357 
	C103.720444,139.374619 103.456642,138.928391 103.096680,138.241394 
z"/>
<path fill="#F4FCF3" opacity="1.000000" stroke="none" 
	d="
M158.914734,72.423767 
	C157.517319,70.961487 156.360245,69.795616 155.203171,68.629738 
	C155.302277,68.272209 155.401382,67.914688 155.500504,67.557159 
	C157.916687,67.853470 161.117783,67.289841 162.583405,68.627579 
	C165.510422,71.299217 164.481323,75.370064 163.905914,78.966660 
	C163.841522,79.369095 162.916550,80.008644 162.573959,79.908867 
	C161.976242,79.734787 161.271637,79.166855 161.051834,78.594910 
	C160.314819,76.676926 159.772171,74.684258 158.914734,72.423767 
z"/>
<path fill="#F7FFF5" opacity="1.000000" stroke="none" 
	d="
M142.095612,119.477341 
	C143.209808,119.026619 144.244156,119.037354 145.554123,119.025894 
	C145.553879,124.397057 145.369064,129.797714 144.936325,135.178436 
	C144.831940,136.476318 143.906937,137.708206 143.359314,138.970459 
	C142.905991,137.776260 142.094498,136.591873 142.061523,135.386185 
	C141.920914,130.240463 142.010315,125.088486 142.095612,119.477341 
z"/>
<path fill="#EFFAF0" opacity="1.000000" stroke="none" 
	d="
M39.330063,241.286743 
	C40.197468,239.677429 40.860199,238.390594 41.888988,236.392975 
	C44.242779,239.914001 46.335953,243.045166 48.626511,246.471603 
	C43.251694,247.946198 40.775898,245.511322 39.330063,241.286743 
z"/>
<path fill="#EAF6E9" opacity="1.000000" stroke="none" 
	d="
M25.075764,280.390564 
	C25.768990,278.505829 26.680984,277.066864 26.936745,275.519470 
	C27.495728,272.137573 27.721357,268.700531 28.234463,264.849762 
	C28.534880,271.808990 28.683989,279.204468 28.191170,286.626038 
	C26.752527,285.769958 25.955811,284.887787 25.159092,284.005615 
	C25.105032,282.932800 25.050978,281.859955 25.075764,280.390564 
z"/>
<path fill="#F4FDF5" opacity="1.000000" stroke="none" 
	d="
M236.156281,45.003609 
	C241.604218,45.563366 240.853775,49.274525 241.007996,53.775028 
	C237.246597,51.429832 234.173920,49.514034 230.545074,47.251484 
	C232.572922,46.375931 234.161194,45.690163 236.156281,45.003609 
z"/>
<path fill="#F3FBF3" opacity="1.000000" stroke="none" 
	d="
M244.130463,39.456841 
	C245.382187,37.975578 246.805267,36.840118 248.123474,35.435280 
	C251.195953,36.372448 252.680267,38.449547 251.640717,42.083382 
	C249.065781,41.283157 246.683823,40.542900 244.130463,39.456841 
z"/>
<path fill="#EFFAF0" opacity="1.000000" stroke="none" 
	d="
M58.999565,148.998108 
	C59.315876,148.532944 59.632187,148.067780 59.965530,147.307831 
	C60.167278,147.005554 60.351990,146.998077 61.008850,147.000885 
	C61.751080,146.975037 62.003815,147.025604 62.181011,147.628098 
	C62.082150,149.342453 62.041481,150.591583 62.000809,151.840698 
	C59.757511,152.303894 57.514210,152.767105 55.207169,153.613953 
	C54.666973,153.998718 54.190525,153.999847 53.356735,154.000488 
	C54.411713,152.669159 55.824028,151.338303 57.832943,149.891602 
	C58.702507,149.577347 58.892517,149.318146 58.999565,148.998108 
z"/>
<path fill="#F5FAF4" opacity="1.000000" stroke="none" 
	d="
M18.888069,72.958710 
	C19.666819,70.724174 20.445564,68.489639 21.839249,66.327698 
	C22.978701,68.291626 23.503214,70.182976 23.998344,72.311661 
	C23.968964,72.549004 23.806332,72.998795 23.443977,73.110046 
	C22.989384,74.081909 22.897148,74.942513 22.793594,75.867630 
	C22.782276,75.932137 22.801258,76.061737 22.450779,75.959961 
	C21.029556,74.891701 19.958813,73.925201 18.888069,72.958710 
z"/>
<path fill="#F4FAF3" opacity="1.000000" stroke="none" 
	d="
M24.027725,72.074318 
	C23.503214,70.182976 22.978701,68.291626 22.168938,66.173691 
	C22.348099,65.025337 22.812511,64.103569 23.582558,63.070782 
	C24.777887,63.704014 25.667580,64.448265 26.775593,65.484512 
	C26.005184,67.875786 25.016455,69.975052 24.027725,72.074318 
z"/>
<path fill="#F4FAF3" opacity="1.000000" stroke="none" 
	d="
M18.556061,73.108582 
	C19.958813,73.925201 21.029556,74.891701 22.528751,76.237106 
	C22.658426,77.417213 22.359650,78.218391 22.060875,79.019577 
	C20.671097,78.680077 19.281321,78.340576 17.526268,78.001015 
	C17.515347,76.420120 17.869699,74.839294 18.556061,73.108582 
M19.254826,76.167610 
	C19.415171,76.114868 19.575516,76.062126 19.735861,76.009399 
	C19.574654,75.957634 19.413445,75.905876 19.254826,76.167610 
z"/>
<path fill="#F2FBF2" opacity="1.000000" stroke="none" 
	d="
M25.088221,284.371643 
	C25.955811,284.887787 26.752527,285.769958 27.811316,286.841492 
	C28.040472,287.746765 28.007559,288.462708 27.995695,289.835968 
	C28.031893,290.692688 28.047041,290.892090 28.062191,291.091522 
	C28.062191,291.091522 28.033264,291.003052 27.570446,291.049713 
	C26.459820,291.234344 25.812012,291.372284 25.164204,291.510254 
	C25.115253,289.252716 25.066301,286.995178 25.088221,284.371643 
z"/>
<path fill="#F0FAF2" opacity="1.000000" stroke="none" 
	d="
M159.124817,35.425621 
	C162.134872,30.978588 163.257523,34.489182 164.854401,36.879662 
	C163.070007,36.668346 161.176834,36.216415 159.124817,35.425621 
z"/>
<path fill="#F1FAF2" opacity="1.000000" stroke="none" 
	d="
M62.371754,151.916504 
	C62.041481,150.591583 62.082150,149.342453 62.458389,147.552231 
	C63.175980,146.987747 63.557995,146.964371 63.940010,146.940994 
	C64.255180,148.015045 64.570351,149.089111 64.942360,150.787903 
	C64.999199,151.412659 64.997681,151.827606 64.997681,151.827606 
	C64.246017,151.882507 63.494358,151.937408 62.371754,151.916504 
z"/>
<path fill="#F2FBF2" opacity="1.000000" stroke="none" 
	d="
M49.906311,197.642151 
	C48.179970,196.958008 45.563847,196.544510 47.019203,193.230621 
	C48.030327,194.375031 49.006268,195.834671 49.906311,197.642151 
z"/>
<path fill="#EAF6E9" opacity="1.000000" stroke="none" 
	d="
M25.095402,291.735901 
	C25.812012,291.372284 26.459820,291.234344 27.605333,291.080505 
	C28.069086,292.299469 28.088356,293.540680 27.942123,294.762024 
	C27.920897,294.939301 27.107176,295.021667 26.213934,294.588318 
	C25.612530,293.796143 25.457367,293.563629 25.302204,293.331146 
	C25.210337,292.874634 25.118467,292.418121 25.095402,291.735901 
z"/>
<path fill="#EFFAF0" opacity="1.000000" stroke="none" 
	d="
M25.107431,182.365982 
	C25.422359,183.638260 25.654770,185.271500 25.539669,187.012085 
	C25.136410,185.655289 25.080662,184.191101 25.107431,182.365982 
z"/>
<path fill="#EFFAF0" opacity="1.000000" stroke="none" 
	d="
M43.054298,154.354858 
	C44.225002,154.397598 45.531475,154.765060 46.924194,155.479706 
	C45.736980,155.444473 44.463528,155.062027 43.054298,154.354858 
z"/>
<path fill="#EFFAF0" opacity="1.000000" stroke="none" 
	d="
M25.097294,206.248795 
	C25.560814,206.165359 25.952812,206.332428 26.344812,206.499496 
	C26.105339,206.653854 25.865862,206.808197 25.395157,206.982117 
	C25.117876,206.834213 25.071821,206.666763 25.097294,206.248795 
z"/>
<path fill="#F4FAF3" opacity="1.000000" stroke="none" 
	d="
M15.659153,89.002991 
	C15.965654,89.377739 15.975965,89.873230 15.971943,90.740219 
	C15.759394,90.449059 15.561177,89.786407 15.659153,89.002991 
z"/>
<path fill="#FBFCF9" opacity="1.000000" stroke="none" 
	d="
M27.000002,191.000000 
	C26.620724,191.221207 26.241444,191.442398 25.525097,191.630356 
	C25.147087,191.327377 25.106144,191.057632 25.586506,190.746887 
	C26.404850,190.803726 26.701885,190.901566 26.998920,190.999390 
	C26.998920,190.999390 27.000000,191.000000 27.000002,191.000000 
z"/>
<path fill="#EAF6E9" opacity="1.000000" stroke="none" 
	d="
M28.894951,257.749268 
	C28.681665,257.829926 28.520103,257.677582 28.409815,257.494354 
	C28.378450,257.442230 28.496271,257.300323 28.687298,257.106628 
	C28.874651,257.177277 28.920389,257.340912 28.894951,257.749268 
z"/>
<path fill="#EAF6E9" opacity="1.000000" stroke="none" 
	d="
M28.872688,262.407410 
	C28.665510,262.293793 28.555323,261.910858 28.631756,261.273224 
	C28.868809,261.391693 28.919245,261.764923 28.872688,262.407410 
z"/>
<path fill="#EAF6E9" opacity="1.000000" stroke="none" 
	d="
M28.337519,291.014526 
	C28.047041,290.892090 28.031893,290.692688 28.029339,290.193542 
	C28.232237,290.241699 28.422541,290.589630 28.337519,291.014526 
z"/>
<path fill="#F2FBF2" opacity="1.000000" stroke="none" 
	d="
M25.164740,293.583374 
	C25.457367,293.563629 25.612530,293.796143 25.877462,294.433350 
	C25.667246,294.503906 25.347261,294.169739 25.164740,293.583374 
z"/>
<path fill="#EFFAF0" opacity="1.000000" stroke="none" 
	d="
M26.790854,190.749786 
	C26.701885,190.901566 26.404850,190.803726 25.757174,190.374939 
	C25.406534,190.043961 25.483725,189.964127 25.462303,189.893936 
	C25.821518,190.049225 26.202152,190.274704 26.790854,190.749786 
z"/>
<path fill="#EFFAF0" opacity="1.000000" stroke="none" 
	d="
M65.244637,151.897949 
	C64.997681,151.827606 64.999199,151.412659 65.000351,151.205154 
	C65.295731,151.077209 65.544868,151.230194 65.867683,151.643799 
	C65.821495,151.876755 65.656548,151.922531 65.244637,151.897949 
z"/>
<path fill="#EFFAF0" opacity="1.000000" stroke="none" 
	d="
M25.425741,189.251740 
	C25.619684,188.984375 25.824894,188.757431 26.030104,188.530472 
	C25.954691,188.651047 25.879276,188.771622 25.619221,189.134140 
	C25.434580,189.376083 25.437008,189.292175 25.425741,189.251740 
z"/>
<path fill="#000000" opacity="1.000000" stroke="none" 
	d="
M22.018251,79.351044 
	C22.359650,78.218391 22.658426,77.417213 22.879230,76.338882 
	C22.801258,76.061737 22.782276,75.932137 22.966846,75.596474 
	C23.369720,74.506805 23.588026,73.752800 23.806332,72.998795 
	C23.806332,72.998795 23.968964,72.549004 23.998344,72.311661 
	C25.016455,69.975052 26.005184,67.875786 27.055628,65.409218 
	C27.474159,65.040260 27.744904,64.886772 28.241316,64.258339 
	C28.643707,63.626160 28.734358,63.317101 28.825008,63.008041 
	C28.880795,62.848892 28.936581,62.689747 29.363848,62.147697 
	C36.881115,50.935638 47.454292,45.383457 59.555542,41.868832 
	C62.167690,41.110172 65.253120,39.061253 66.315369,36.769817 
	C67.236893,34.781937 65.602562,31.609240 65.097832,28.960188 
	C61.774277,22.567135 56.301533,25.400232 49.630489,26.300547 
	C51.611504,23.655127 52.714481,22.182230 53.955814,20.373547 
	C58.079922,19.025040 62.065666,18.012321 66.557526,17.278008 
	C67.374001,17.643530 67.684357,17.730648 67.994720,17.817766 
	C68.433067,17.875034 68.871407,17.932302 69.638550,18.043579 
	C72.287506,20.330236 75.311142,22.195597 76.724152,24.901892 
	C78.058311,27.457186 77.897049,30.887592 78.039520,33.949539 
	C78.276848,39.049679 73.001633,36.347713 70.766762,39.128849 
	C72.959518,41.049313 75.312645,42.922592 77.449837,45.016304 
	C84.609856,52.030693 91.692734,59.123814 99.218903,66.280983 
	C99.632652,66.375175 99.707916,66.510292 99.707916,66.510292 
	C99.920692,66.970551 100.133461,67.430817 100.608498,67.967155 
	C108.622749,76.167023 116.350182,84.314865 124.205971,92.337013 
	C124.564102,92.702728 126.655754,92.221344 126.943741,91.640518 
	C127.706429,90.102303 127.922028,88.292824 128.570877,85.744812 
	C131.481827,86.127083 134.791199,86.561676 138.519028,87.038467 
	C138.937500,87.080666 138.963547,87.022484 139.017731,87.292458 
	C139.378632,87.653709 139.685333,87.744987 139.992050,87.836266 
	C146.660477,91.853523 147.907135,98.300514 146.850189,105.125175 
	C146.095139,110.000336 142.561996,113.313492 137.410645,114.942886 
	C141.198715,107.479660 142.625290,105.475349 136.204147,99.535828 
	C133.224243,96.779434 130.076508,96.015869 125.987061,99.061050 
	C124.525314,100.482391 123.385307,101.626091 123.070404,102.963989 
	C120.202164,115.149933 114.184418,125.447014 104.951965,133.881943 
	C104.789513,133.922913 104.627052,133.963898 103.960915,134.041077 
	C103.277214,134.375275 103.097191,134.673264 102.917168,134.971237 
	C102.549355,134.961151 102.270348,135.113617 102.025726,135.670929 
	C98.239792,137.670471 94.508278,139.427689 89.930252,141.583542 
	C90.774361,136.796432 91.485039,132.766006 92.517036,128.356079 
	C108.090858,121.520187 117.719994,110.068764 122.797569,93.966888 
	C105.946808,77.207504 88.976372,60.264114 71.858116,43.471409 
	C70.871765,42.503815 68.369041,42.025871 67.100716,42.564644 
	C53.924847,48.161594 42.966599,56.301083 37.006756,70.357956 
	C28.424805,90.415382 33.628201,111.997543 52.080322,124.398773 
	C53.132820,125.069244 54.067883,125.443619 55.002941,125.817986 
	C60.936066,127.386986 57.949085,131.829315 57.894352,135.209076 
	C57.869495,136.744095 57.031364,138.265945 56.467239,140.102829 
	C43.164639,134.410889 32.500511,125.945457 26.365913,112.060806 
	C26.033756,111.913712 25.972706,111.439178 25.944057,110.949738 
	C25.620430,110.278099 25.325451,110.095917 25.030474,109.913727 
	C25.030474,109.913727 24.972151,109.439926 24.946745,108.949150 
	C24.627243,108.268883 24.333149,108.079384 24.039053,107.889893 
	C23.617775,105.695953 23.196499,103.502014 22.437443,101.138588 
	C22.052820,100.223312 22.005976,99.477531 21.954453,98.054428 
	C21.567759,96.651566 21.185741,95.926025 20.803724,95.200485 
	C20.854467,93.998039 20.905210,92.795593 20.950611,91.046402 
	C20.894875,90.337837 20.844482,90.176018 20.794088,90.014206 
	C20.848028,88.618294 20.901970,87.222374 21.031778,85.082672 
	C21.335592,83.225449 21.563538,82.112022 21.791481,80.998596 
	C21.852865,80.559898 21.914248,80.121208 22.018251,79.351044 
z"/>
<path fill="#EEF9EE" opacity="1.000000" stroke="none" 
	d="
M139.858765,87.647026 
	C139.685333,87.744987 139.378632,87.653709 138.989929,87.308037 
	C139.227036,87.094131 139.499542,87.228844 139.858765,87.647026 
z"/>
<path fill="#EEF9EE" opacity="1.000000" stroke="none" 
	d="
M141.683777,81.550652 
	C141.914444,81.674538 142.119995,81.861206 142.325531,82.047867 
	C142.136276,82.041138 141.947021,82.034409 141.642944,81.838287 
	C141.528137,81.648903 141.658646,81.613426 141.683777,81.550652 
z"/>
<path fill="#000000" opacity="1.000000" stroke="none" 
	d="
M40.903130,210.044342 
	C38.935532,212.062973 36.967930,214.081573 35.000324,216.100189 
	C35.084801,216.395981 35.169273,216.691757 35.253746,216.987549 
	C37.425392,216.382919 39.597038,215.778305 41.847786,215.151657 
	C42.352535,218.221344 35.216560,217.366989 38.915432,221.057693 
	C40.419750,222.558685 43.616524,222.363480 46.132095,222.961151 
	C43.942261,228.373947 40.954296,230.222260 36.135414,228.918243 
	C32.132900,227.835190 29.898184,225.090210 29.925421,220.660080 
	C29.943375,217.739883 29.555216,214.817215 29.627079,211.453903 
	C33.571213,210.689545 37.237167,210.366943 40.903130,210.044342 
z"/>
<path fill="#000000" opacity="1.000000" stroke="none" 
	d="
M36.603104,190.957321 
	C38.552181,193.154694 40.228405,195.266174 41.992397,197.959656 
	C42.374886,198.726105 42.669605,198.910538 42.964325,199.094971 
	C42.964321,199.094971 43.022511,199.566559 43.054756,200.052933 
	C43.378933,200.726395 43.670864,200.913483 43.962795,201.100571 
	C43.970985,202.453476 43.979172,203.806396 43.943092,205.562866 
	C43.483173,206.593018 43.067516,207.219620 42.323338,207.440659 
	C41.994816,205.045670 41.994816,203.056229 41.994816,202.086533 
	C37.402538,203.789597 33.222382,205.339828 29.042225,206.890060 
	C29.296272,201.371902 29.550320,195.853729 29.423494,190.114044 
	C28.782272,187.123993 29.507574,185.885452 32.724350,188.254333 
	C33.772339,188.831558 34.367924,188.966553 34.963509,189.101547 
	C35.419090,189.691498 35.874668,190.281464 36.603104,190.957321 
z"/>
<path fill="#EDFCF0" opacity="1.000000" stroke="none" 
	d="
M29.030478,207.313354 
	C33.222382,205.339828 37.402538,203.789597 41.994816,202.086533 
	C41.994816,203.056229 41.994816,205.045670 42.017975,207.463226 
	C41.838295,208.487549 41.635460,209.083771 41.167873,209.862167 
	C37.237167,210.366943 33.571213,210.689545 29.476788,211.067841 
	C29.038454,209.994553 29.028591,208.865601 29.030478,207.313354 
z"/>
<path fill="#000000" opacity="1.000000" stroke="none" 
	d="
M129.094574,80.672867 
	C128.551392,81.351410 127.891151,81.649841 127.325935,82.074699 
	C125.985329,83.082413 124.689781,84.150070 123.022591,85.474205 
	C117.564140,80.016495 111.665756,74.118912 105.457611,68.109787 
	C96.125526,59.332962 87.103210,50.667675 78.260910,42.175282 
	C80.153961,39.836395 81.715538,37.907047 83.642349,35.885994 
	C86.405457,36.522621 88.803329,37.250950 91.693741,38.340141 
	C93.115150,39.158215 94.044022,39.615433 94.972893,40.072651 
	C94.980019,40.437363 95.139206,40.714836 95.758743,41.227463 
	C96.375801,41.636349 96.684555,41.722855 96.993317,41.809364 
	C98.091087,42.814255 99.188866,43.819145 100.736214,45.267128 
	C104.191177,47.285286 107.196571,48.860363 110.345795,50.510815 
	C110.845703,49.339760 110.935982,48.453876 111.353477,48.255047 
	C115.350639,46.351387 114.997658,43.541218 112.387253,41.094498 
	C109.556694,38.441425 107.357475,40.514668 105.412498,42.908669 
	C105.092354,43.302723 103.876465,42.969044 103.074554,42.971695 
	C102.777580,42.222233 102.480606,41.472771 102.367233,40.327805 
	C102.634514,39.624554 102.718193,39.316807 102.801880,39.009064 
	C104.926674,38.323528 107.051460,37.637997 109.554855,36.786446 
	C109.933456,36.620430 109.996223,36.666107 109.996223,36.666107 
	C116.148338,36.666107 122.300461,36.666107 128.556335,36.666107 
	C126.915031,42.511150 126.141907,48.766705 127.890114,55.233189 
	C128.617691,57.924438 128.371719,60.941296 124.063446,61.950470 
	C122.285179,61.112568 121.212357,60.338669 120.074600,59.517925 
	C128.199615,54.942039 122.201889,51.650070 119.029808,48.105591 
	C120.993752,48.019337 122.406349,47.957294 123.724312,47.899410 
	C124.118896,44.677368 124.460793,41.885559 124.802185,39.097786 
	C121.789528,39.982693 119.067650,40.782185 116.418739,41.560242 
	C115.928276,43.632690 115.415596,45.799034 114.613663,48.070160 
	C114.198730,48.765553 114.073051,49.356159 113.540115,49.982765 
	C107.193314,50.465328 103.424210,52.895699 104.423729,59.906261 
	C107.181923,59.491955 109.973015,59.072701 112.202110,58.737869 
	C113.093185,55.791634 113.874039,53.209812 114.865234,50.463989 
	C115.396027,49.898167 115.716484,49.496353 116.393356,49.056099 
	C117.420952,49.380733 118.092125,49.743809 118.922951,50.193245 
	C115.447769,52.544498 113.661552,55.355820 116.036438,59.028893 
	C118.093796,62.210873 120.634064,65.080627 122.960892,68.088379 
	C123.430748,68.678856 123.900604,69.269333 124.691956,70.250771 
	C125.315308,71.105080 125.617165,71.568436 125.919022,72.031792 
	C126.577393,73.468437 127.235771,74.905075 127.960800,76.974457 
	C128.320404,78.082680 128.613358,78.558151 128.906296,79.033630 
	C128.944443,79.472496 128.982574,79.911362 129.094574,80.672867 
z"/>
<path fill="#F0F9F1" opacity="1.000000" stroke="none" 
	d="
M114.902916,47.965374 
	C115.415596,45.799034 115.928276,43.632690 116.418739,41.560242 
	C119.067650,40.782185 121.789528,39.982693 124.802185,39.097786 
	C124.460793,41.885559 124.118896,44.677368 123.724312,47.899410 
	C122.406349,47.957294 120.993752,48.019337 119.029808,48.105591 
	C122.201889,51.650070 128.199615,54.942039 120.074600,59.517925 
	C121.212357,60.338669 122.285179,61.112568 123.681320,62.026882 
	C123.757507,63.908630 123.510384,65.649963 123.112076,67.739838 
	C120.634064,65.080627 118.093796,62.210873 116.036438,59.028893 
	C113.661552,55.355820 115.447769,52.544498 118.922951,50.193245 
	C118.092125,49.743809 117.420952,49.380733 116.266525,48.811504 
	C115.489815,48.392029 115.196365,48.178703 114.902916,47.965374 
z"/>
<path fill="#EFF9F1" opacity="1.000000" stroke="none" 
	d="
M102.813454,43.131310 
	C103.876465,42.969044 105.092354,43.302723 105.412498,42.908669 
	C107.357475,40.514668 109.556694,38.441425 112.387253,41.094498 
	C114.997658,43.541218 115.350639,46.351387 111.353477,48.255047 
	C110.935982,48.453876 110.845703,49.339760 110.345795,50.510815 
	C107.196571,48.860363 104.191177,47.285286 101.039780,45.377285 
	C101.446632,44.459881 101.999489,43.875401 102.813454,43.131310 
z"/>
<path fill="#EEF8ED" opacity="1.000000" stroke="none" 
	d="
M94.977081,39.711117 
	C94.044022,39.615433 93.115150,39.158215 92.076111,38.399139 
	C93.925056,36.217625 94.730133,37.116711 94.977081,39.711117 
z"/>
<path fill="#EEF9EE" opacity="1.000000" stroke="none" 
	d="
M129.141296,78.881424 
	C128.613358,78.558151 128.320404,78.082680 128.102325,77.299019 
	C128.576889,77.570297 128.976593,78.149757 129.141296,78.881424 
z"/>
<path fill="#F0F9F1" opacity="1.000000" stroke="none" 
	d="
M126.156815,71.860626 
	C125.617165,71.568436 125.315308,71.105080 124.968513,70.334641 
	C125.413925,70.581520 125.904274,71.135490 126.156815,71.860626 
z"/>
<path fill="#EFF9F1" opacity="1.000000" stroke="none" 
	d="
M102.616272,39.145405 
	C102.718193,39.316807 102.634514,39.624554 102.294090,40.016083 
	C102.075012,39.782227 102.206116,39.509525 102.616272,39.145405 
z"/>
<path fill="#EEF8ED" opacity="1.000000" stroke="none" 
	d="
M96.863167,41.621784 
	C96.684555,41.722855 96.375801,41.636349 96.000275,41.287022 
	C96.249184,41.065025 96.515678,41.201694 96.863167,41.621784 
z"/>
<path fill="#EFF9F1" opacity="1.000000" stroke="none" 
	d="
M109.899727,36.448959 
	C109.996223,36.666107 109.933456,36.620430 109.949783,36.649242 
	C109.787521,36.444298 109.608925,36.210541 109.430328,35.976784 
	C109.554626,36.061790 109.678925,36.146801 109.899727,36.448959 
z"/>
<path fill="#EFFAF0" opacity="1.000000" stroke="none" 
	d="
M37.174442,70.004280 
	C42.966599,56.301083 53.924847,48.161594 67.100716,42.564644 
	C68.369041,42.025871 70.871765,42.503815 71.858116,43.471409 
	C88.976372,60.264114 105.946808,77.207504 122.797569,93.966888 
	C117.719994,110.068764 108.090858,121.520187 92.470963,128.007156 
	C90.651886,127.723366 89.200195,127.408981 87.383865,126.677734 
	C87.680008,125.669113 88.245880,124.870750 89.015984,124.517029 
	C98.453522,120.182259 107.063896,115.133461 113.232048,106.118774 
	C117.767792,99.489830 118.504837,95.589401 113.700676,91.602470 
	C102.086288,103.218613 90.529564,114.777077 79.271240,126.037102 
	C79.031509,125.993553 79.515457,126.081467 80.007698,126.536835 
	C80.621002,128.931763 81.226013,130.959259 81.909187,133.330200 
	C81.694771,134.462524 81.402199,135.251419 80.730461,136.021515 
	C79.219765,134.297394 78.088234,132.592056 76.975632,130.487061 
	C76.864464,129.061264 76.734367,128.035156 76.604271,127.009048 
	C76.179962,126.917664 75.755653,126.826279 75.331345,126.734886 
	C74.158554,130.157532 72.985764,133.580170 71.812973,137.002823 
	C71.358536,135.658661 70.904099,134.314514 70.312256,132.563919 
	C69.552826,132.960220 68.669426,133.421204 67.398941,133.554672 
	C67.859268,130.841583 68.044792,127.784622 69.667206,126.185196 
	C77.198738,118.760353 85.180084,111.794487 92.898933,104.556099 
	C98.746109,99.072891 104.440376,93.426613 109.598053,88.437744 
	C107.230110,86.347237 105.230240,84.581680 103.230362,82.816116 
	C103.062935,82.132324 102.895500,81.448532 102.728065,80.764732 
	C89.496559,94.542328 76.265045,108.319923 63.033531,122.097511 
	C62.239506,121.392639 61.445480,120.687775 60.401638,119.642014 
	C73.494858,105.931976 86.837891,92.562843 100.211830,79.162743 
	C98.461884,76.892563 96.911629,74.881432 94.997940,72.398834 
	C87.534103,79.898254 80.336372,87.187607 73.073624,94.411598 
	C65.789902,101.656448 58.441319,108.836098 50.792362,115.995789 
	C49.612057,115.283241 48.760551,114.619240 48.036999,113.643326 
	C62.743996,98.768051 77.323036,84.204681 91.779251,69.764015 
	C89.940178,67.735138 88.261734,65.883469 86.549904,63.994976 
	C85.113342,65.049370 83.653755,65.842339 82.545952,66.978348 
	C74.588127,75.138832 66.796341,83.463165 58.754768,91.539246 
	C54.406826,95.905846 49.671024,99.886238 44.815422,103.909462 
	C43.640453,103.169289 42.760262,102.560516 42.009186,101.638855 
	C55.425774,88.023483 68.713242,74.721001 82.404419,61.014351 
	C80.625565,58.920494 78.889763,56.877323 77.037125,54.696625 
	C64.550987,66.984474 52.330021,79.011360 39.769238,91.025414 
	C38.969154,89.635002 38.508888,88.257423 38.379868,86.842392 
	C50.502266,75.113861 62.293411,63.422779 74.110947,51.705532 
	C67.197365,45.807209 67.308121,45.985939 59.365753,50.907722 
	C50.320011,56.513248 44.745594,64.846214 39.837929,74.008797 
	C38.772728,72.656807 37.973587,71.330544 37.174442,70.004280 
z"/>
<path fill="#000000" opacity="1.000000" stroke="none" 
	d="
M62.942986,122.378189 
	C76.265045,108.319923 89.496559,94.542328 102.728065,80.764732 
	C102.895500,81.448532 103.062935,82.132324 103.230362,82.816116 
	C105.230240,84.581680 107.230110,86.347237 109.598053,88.437744 
	C104.440376,93.426613 98.746109,99.072891 92.898933,104.556099 
	C85.180084,111.794487 77.198738,118.760353 69.667206,126.185196 
	C68.044792,127.784622 67.859268,130.841583 67.091240,133.615448 
	C66.525322,136.084763 65.880028,138.165802 65.124191,140.953537 
	C65.065292,142.108139 65.116928,142.556046 65.168564,143.003937 
	C65.168564,143.003937 65.016571,143.437302 64.729385,143.748138 
	C64.350510,144.370178 64.258812,144.681412 64.167122,144.992630 
	C64.179756,145.600342 64.192390,146.208054 64.072510,146.878387 
	C63.557995,146.964371 63.175980,146.987747 62.516586,147.086990 
	C62.003815,147.025604 61.751080,146.975037 61.285954,146.990601 
	C62.649342,140.556213 64.255524,134.153107 65.699249,127.713577 
	C65.860130,126.995987 65.097183,126.071281 64.341827,124.853973 
	C63.618183,124.376152 63.315380,124.286987 63.012573,124.197830 
	C62.959194,123.684837 62.905811,123.171852 62.942986,122.378189 
z"/>
<path fill="#000000" opacity="1.000000" stroke="none" 
	d="
M81.109627,136.040298 
	C81.402199,135.251419 81.694771,134.462524 82.078819,132.977737 
	C82.783615,130.355606 83.396935,128.429398 84.116539,126.169380 
	C82.550606,126.169380 81.275009,126.169380 79.999405,126.169380 
	C79.515457,126.081467 79.031509,125.993553 79.271240,126.037102 
	C90.529564,114.777077 102.086288,103.218613 113.700676,91.602470 
	C118.504837,95.589401 117.767792,99.489830 113.232048,106.118774 
	C107.063896,115.133461 98.453522,120.182259 89.015984,124.517029 
	C88.245880,124.870750 87.680008,125.669113 87.088638,126.631073 
	C85.438911,133.063049 83.768661,139.139679 81.937759,145.167496 
	C81.713112,145.907089 80.628838,146.385590 79.482574,146.563843 
	C79.718018,142.775162 80.413826,139.407730 81.109627,136.040298 
z"/>
<path fill="#EFFAF0" opacity="1.000000" stroke="none" 
	d="
M80.730461,136.021515 
	C80.413826,139.407730 79.718018,142.775162 79.074265,146.546387 
	C77.345848,146.409897 75.565399,145.869614 73.406891,144.769241 
	C74.338127,139.768341 75.647415,135.327545 76.956703,130.886734 
	C78.088234,132.592056 79.219765,134.297394 80.730461,136.021515 
z"/>
<path fill="#000000" opacity="1.000000" stroke="none" 
	d="
M76.975632,130.487061 
	C75.647415,135.327545 74.338127,139.768341 73.099258,144.606354 
	C72.166756,145.560623 71.163811,146.117691 70.071648,146.016327 
	C70.023483,144.918488 70.064529,144.479095 70.105576,144.039688 
	C70.726570,141.950439 71.347557,139.861176 71.890762,137.387375 
	C72.985764,133.580170 74.158554,130.157532 75.331345,126.734886 
	C75.755653,126.826279 76.179962,126.917664 76.604271,127.009048 
	C76.734367,128.035156 76.864464,129.061264 76.975632,130.487061 
z"/>
<path fill="#EFFAF0" opacity="1.000000" stroke="none" 
	d="
M65.446136,142.956818 
	C65.116928,142.556046 65.065292,142.108139 65.090363,141.328430 
	C65.642372,141.316483 66.117691,141.636353 66.593002,141.956238 
	C66.303238,142.274048 66.013474,142.591873 65.446136,142.956818 
z"/>
<path fill="#EFFAF0" opacity="1.000000" stroke="none" 
	d="
M69.809326,144.060242 
	C70.064529,144.479095 70.023483,144.918488 69.904747,145.680679 
	C69.367706,145.644135 68.908348,145.284790 68.448990,144.925461 
	C68.803680,144.643906 69.158379,144.362366 69.809326,144.060242 
z"/>
<path fill="#EFFAF0" opacity="1.000000" stroke="none" 
	d="
M64.357536,144.856125 
	C64.258812,144.681412 64.350510,144.370178 64.701401,143.976044 
	C64.915962,144.215027 64.778412,144.490524 64.357536,144.856125 
z"/>
<path fill="#000000" opacity="1.000000" stroke="none" 
	d="
M51.121162,116.044327 
	C58.441319,108.836098 65.789902,101.656448 73.073624,94.411598 
	C80.336372,87.187607 87.534103,79.898254 94.997940,72.398834 
	C96.911629,74.881432 98.461884,76.892563 100.211830,79.162743 
	C86.837891,92.562843 73.494858,105.931976 60.035301,119.616737 
	C59.918777,119.932365 59.974625,119.959824 59.604115,119.974915 
	C58.786674,120.646896 58.339748,121.303795 57.892822,121.960686 
	C57.892822,121.960686 57.463570,121.978638 57.233803,121.600502 
	C55.334675,120.540207 53.665318,119.858040 51.669388,119.018860 
	C51.268932,117.922668 51.195049,116.983490 51.121162,116.044327 
z"/>
<path fill="#EFFAF0" opacity="1.000000" stroke="none" 
	d="
M51.995956,119.175880 
	C53.665318,119.858040 55.334675,120.540207 57.022732,121.560608 
	C56.366222,122.980553 55.691013,124.062256 55.009377,125.480972 
	C54.067883,125.443619 53.132820,125.069244 52.090626,123.988159 
	C51.987648,121.912918 51.991802,120.544395 51.995956,119.175880 
z"/>
<path fill="#EFFAF0" opacity="1.000000" stroke="none" 
	d="
M58.228249,121.928238 
	C58.339748,121.303795 58.786674,120.646896 59.588657,119.947983 
	C59.483700,120.569229 59.023685,121.232506 58.228249,121.928238 
z"/>
<path fill="#EFFAF0" opacity="1.000000" stroke="none" 
	d="
M63.146477,124.381531 
	C63.315380,124.286987 63.618183,124.376152 64.001190,124.718475 
	C63.772106,124.919495 63.505100,124.784035 63.146477,124.381531 
z"/>
<path fill="#000000" opacity="1.000000" stroke="none" 
	d="
M221.624329,37.973507 
	C224.705215,46.700352 223.400772,49.732635 216.217514,50.879181 
	C216.069626,48.275223 215.922974,45.693050 215.734695,42.377892 
	C214.054123,43.298798 212.829498,43.969864 211.263123,44.334637 
	C210.921387,42.730145 210.921387,41.431942 210.921387,39.234673 
	C208.377747,41.943848 206.643631,44.300678 204.430145,46.051399 
	C198.153427,51.015846 191.624969,49.421757 185.016251,41.442074 
	C183.705170,39.859001 182.788956,37.948883 181.368134,36.041996 
	C187.373566,35.595730 193.701538,35.297050 200.510712,35.445343 
	C199.561844,39.359650 198.131775,42.826973 196.255478,47.376202 
	C198.029099,46.924129 200.240814,47.013855 201.348801,45.951946 
	C204.331818,43.092987 207.470612,39.948708 205.044983,35.108238 
	C210.711761,34.515614 216.640656,32.357632 221.624329,37.973507 
z"/>
<path fill="#F4FCF3" opacity="1.000000" stroke="none" 
	d="
M204.919769,34.831085 
	C207.470612,39.948708 204.331818,43.092987 201.348801,45.951946 
	C200.240814,47.013855 198.029099,46.924129 196.255478,47.376202 
	C198.131775,42.826973 199.561844,39.359650 200.972900,35.504242 
	C202.234100,34.928753 203.514328,34.741344 204.919769,34.831085 
z"/>
<path fill="#000000" opacity="1.000000" stroke="none" 
	d="
M29.057625,53.862625 
	C29.518328,47.822155 29.979029,41.781677 30.496702,34.994213 
	C40.417507,34.994213 50.780590,34.994213 61.648949,35.348862 
	C62.177132,36.208744 62.354744,37.099476 62.199825,37.161652 
	C59.691769,38.168224 57.072559,38.916786 54.614597,40.025452 
	C48.835072,42.632313 43.043846,45.238419 37.425812,48.167896 
	C34.454498,49.717262 31.835619,51.942516 29.057625,53.862625 
z"/>
<path fill="#EEFBF0" opacity="1.000000" stroke="none" 
	d="
M29.042629,54.277508 
	C31.835619,51.942516 34.454498,49.717262 37.425812,48.167896 
	C43.043846,45.238419 48.835072,42.632313 54.614597,40.025452 
	C57.072559,38.916786 59.691769,38.168224 62.199825,37.161652 
	C62.354744,37.099476 62.177132,36.208744 62.058838,35.407726 
	C61.975517,34.015762 61.987598,32.919582 61.999840,31.411701 
	C62.000000,31.000000 62.001141,30.998518 62.001141,30.998518 
	C62.852032,30.434036 63.702927,29.869555 64.825821,29.132629 
	C65.602562,31.609240 67.236893,34.781937 66.315369,36.769817 
	C65.253120,39.061253 62.167690,41.110172 59.555542,41.868832 
	C47.454292,45.383457 36.881115,50.935638 29.420830,61.901237 
	C29.080099,59.589256 29.053865,57.140823 29.042629,54.277508 
z"/>
<path fill="#EEFBF0" opacity="1.000000" stroke="none" 
	d="
M61.999264,31.000572 
	C61.880566,30.862570 61.762600,30.723993 61.644638,30.585419 
	C61.727695,30.633554 61.810757,30.681690 61.947479,30.864172 
	C62.001141,30.998518 62.000000,31.000000 61.999264,31.000572 
z"/>
<path fill="#EEFBF0" opacity="1.000000" stroke="none" 
	d="
M26.529884,62.546444 
	C26.478306,62.576405 26.581465,62.516483 26.529884,62.546444 
z"/>
<path fill="#EEFBF0" opacity="1.000000" stroke="none" 
	d="
M28.635906,63.145245 
	C28.734358,63.317101 28.643707,63.626160 28.297348,64.022476 
	C28.083725,63.788441 28.218779,63.512676 28.635906,63.145245 
z"/>
<path fill="#000000" opacity="1.000000" stroke="none" 
	d="
M117.992867,134.179657 
	C117.549339,134.135422 117.105812,134.091171 115.965744,134.037292 
	C114.283806,134.027649 113.298416,134.027649 113.374489,134.027649 
	C117.405769,125.418938 121.537727,116.628250 125.634102,107.821014 
	C126.503609,105.951584 127.243309,104.021774 128.042816,102.119789 
	C128.359924,102.914047 128.947006,103.706352 128.952759,104.502853 
	C129.016937,113.408524 128.882828,122.316963 129.057281,131.219666 
	C129.108704,133.843140 127.996971,134.281693 125.015472,134.025116 
	C122.092773,134.070190 120.042824,134.124924 117.992867,134.179657 
z"/>
<path fill="#EFFAF0" opacity="1.000000" stroke="none" 
	d="
M127.884697,101.855820 
	C127.243309,104.021774 126.503609,105.951584 125.634102,107.821014 
	C121.537727,116.628250 117.405769,125.418938 113.374489,134.027649 
	C113.298416,134.027649 114.283806,134.027649 115.637779,134.113525 
	C115.046677,134.797897 114.037025,135.966415 113.136742,135.887482 
	C110.488708,135.655319 107.884071,134.928146 105.107208,134.138367 
	C114.184418,125.447014 120.202164,115.149933 123.070404,102.963989 
	C123.385307,101.626091 124.525314,100.482391 125.645386,99.227798 
	C126.580956,100.001938 127.153763,100.796898 127.884697,101.855820 
z"/>
<path fill="#EFFAF0" opacity="1.000000" stroke="none" 
	d="
M118.090515,134.536804 
	C120.042824,134.124924 122.092773,134.070190 124.574997,134.099854 
	C123.016663,137.134689 120.652756,136.498016 118.090515,134.536804 
z"/>
<path fill="#F4FBF5" opacity="1.000000" stroke="none" 
	d="
M103.136444,134.898926 
	C103.097191,134.673264 103.277214,134.375275 103.723999,134.124924 
	C103.848549,134.458038 103.636871,134.676071 103.136444,134.898926 
z"/>
<path fill="#EEF9EE" opacity="1.000000" stroke="none" 
	d="
M99.564331,66.338928 
	C99.676361,66.094528 99.856712,65.886368 100.037064,65.678207 
	C100.041725,65.866020 100.046379,66.053825 99.879471,66.375961 
	C99.707916,66.510292 99.632652,66.375175 99.564331,66.338928 
z"/>
<path fill="#000000" opacity="1.000000" stroke="none" 
	d="
M238.551453,34.024788 
	C235.359451,35.627373 232.514191,40.632542 227.468811,36.100441 
	C227.249664,35.641998 227.365143,35.327698 228.139618,34.999077 
	C230.544647,34.689735 232.290680,34.394711 234.036697,34.099686 
	C235.430679,34.068352 236.824646,34.037014 238.551453,34.024788 
z"/>
<path fill="#F3FBF3" opacity="1.000000" stroke="none" 
	d="
M233.796265,33.812943 
	C232.290680,34.394711 230.544647,34.689735 228.397858,34.904243 
	C229.849991,34.391216 231.702911,33.958706 233.796265,33.812943 
z"/>
<path fill="#F4FDF5" opacity="1.000000" stroke="none" 
	d="
M34.970703,188.746048 
	C34.367924,188.966553 33.772339,188.831558 33.069870,188.405396 
	C32.975025,187.335556 32.987064,186.556900 33.000114,185.388809 
	C33.660049,186.129761 34.318974,187.260162 34.970703,188.746048 
z"/>
<path fill="#F4FAF3" opacity="1.000000" stroke="none" 
	d="
M21.468126,81.069794 
	C21.563538,82.112022 21.335592,83.225449 20.953682,84.669617 
	C19.952444,85.362183 19.105173,85.724007 18.257900,86.085831 
	C17.993490,85.860161 17.729080,85.634483 17.464670,85.408813 
	C18.691370,83.986206 19.918072,82.563606 21.468126,81.069794 
z"/>
<path fill="#F4FAF3" opacity="1.000000" stroke="none" 
	d="
M20.601362,95.527069 
	C21.185741,95.926025 21.567759,96.651566 21.872826,97.689240 
	C21.330250,97.285469 20.864626,96.569565 20.601362,95.527069 
z"/>
<path fill="#F4FAF3" opacity="1.000000" stroke="none" 
	d="
M20.658947,90.109619 
	C20.844482,90.176018 20.894875,90.337837 20.870995,90.742767 
	C20.431515,90.798248 20.340544,90.537964 20.658947,90.109619 
z"/>
<path fill="#F1FAF2" opacity="1.000000" stroke="none" 
	d="
M25.100719,110.131821 
	C25.325451,110.095917 25.620430,110.278099 25.863388,110.724525 
	C25.529659,110.844208 25.316191,110.631256 25.100719,110.131821 
z"/>
<path fill="#F1FAF2" opacity="1.000000" stroke="none" 
	d="
M24.106220,108.112244 
	C24.333149,108.079384 24.627243,108.268883 24.868187,108.723763 
	C24.530199,108.840508 24.316317,108.622322 24.106220,108.112244 
z"/>
<path fill="#F1FAF2" opacity="1.000000" stroke="none" 
	d="
M22.552135,116.325592 
	C22.672647,116.090485 22.857801,115.883781 23.042955,115.677071 
	C23.039989,115.866455 23.037027,116.055840 22.848854,116.366211 
	C22.663645,116.487206 22.616781,116.353989 22.552135,116.325592 
z"/>
<path fill="#F1FAF2" opacity="1.000000" stroke="none" 
	d="
M58.780182,149.105423 
	C58.892517,149.318146 58.702507,149.577347 58.210052,149.882889 
	C58.097427,149.669876 58.287506,149.410767 58.780182,149.105423 
z"/>
<path fill="#EEF8ED" opacity="1.000000" stroke="none" 
	d="
M67.859222,17.629173 
	C67.684357,17.730648 67.374001,17.643530 66.983475,17.296772 
	C67.224426,17.074766 67.497894,17.209249 67.859222,17.629173 
z"/>
<path fill="#F2FBF2" opacity="1.000000" stroke="none" 
	d="
M42.894913,198.874420 
	C42.669605,198.910538 42.374886,198.726105 42.128815,198.276459 
	C42.462700,198.155640 42.678711,198.369858 42.894913,198.874420 
z"/>
<path fill="#F2FBF2" opacity="1.000000" stroke="none" 
	d="
M43.895496,200.879837 
	C43.670864,200.913483 43.378933,200.726395 43.137054,200.275803 
	C43.470821,200.158508 43.684521,200.374115 43.895496,200.879837 
z"/>
<path fill="#F2FBF2" opacity="1.000000" stroke="none" 
	d="
M49.529587,200.546036 
	C49.477695,200.576294 49.581478,200.515778 49.529587,200.546036 
z"/>
<path fill="#F4FAF3" opacity="1.000000" stroke="none" 
	d="
M23.443977,73.110046 
	C23.588026,73.752800 23.369720,74.506805 22.978165,75.531967 
	C22.897148,74.942513 22.989384,74.081909 23.443977,73.110046 
z"/>
<path fill="#F5FAF4" opacity="1.000000" stroke="none" 
	d="
M19.253531,76.010864 
	C19.413445,75.905876 19.574654,75.957634 19.735861,76.009392 
	C19.575516,76.062126 19.415171,76.114868 19.253531,76.010864 
z"/>
<path fill="#F4FCF3" opacity="1.000000" stroke="none" 
	d="
M51.669388,119.018860 
	C51.991802,120.544395 51.987648,121.912918 51.973186,123.692047 
	C33.628201,111.997543 28.424805,90.415382 37.006756,70.357956 
	C37.973587,71.330544 38.772728,72.656807 39.785686,74.423569 
	C39.349209,78.869331 38.698914,82.874588 38.048622,86.879845 
	C38.508888,88.257423 38.969154,89.635002 39.637558,91.354156 
	C37.870228,94.925316 38.834911,99.788628 41.880070,101.951744 
	C42.760262,102.560516 43.640453,103.169289 44.762222,104.287193 
	C44.488110,106.189796 43.174019,107.970490 43.622948,108.896111 
	C44.557163,110.822311 46.424934,112.295738 47.909042,113.955238 
	C48.760551,114.619240 49.612057,115.283241 50.792358,115.995781 
	C51.195049,116.983490 51.268932,117.922668 51.669388,119.018860 
z"/>
<path fill="#EBF7EB" opacity="1.000000" stroke="none" 
	d="
M114.654892,50.627995 
	C113.874039,53.209812 113.093185,55.791634 112.202110,58.737869 
	C109.973015,59.072701 107.181923,59.491955 104.423729,59.906261 
	C103.424210,52.895699 107.193314,50.465328 113.712280,50.157970 
	C114.291710,50.297173 114.654900,50.627995 114.654892,50.627995 
z"/>
<path fill="#EBF7EB" opacity="1.000000" stroke="none" 
	d="
M114.613663,48.070160 
	C115.196365,48.178703 115.489815,48.392029 115.910103,48.849945 
	C115.716484,49.496353 115.396027,49.898167 114.865234,50.463989 
	C114.654900,50.627995 114.291710,50.297173 114.119545,50.121971 
	C114.073051,49.356159 114.198730,48.765553 114.613663,48.070160 
z"/>
<path fill="#000000" opacity="1.000000" stroke="none" 
	d="
M48.036995,113.643326 
	C46.424934,112.295738 44.557163,110.822311 43.622948,108.896111 
	C43.174019,107.970490 44.488110,106.189796 45.056999,104.418587 
	C49.671024,99.886238 54.406826,95.905846 58.754768,91.539246 
	C66.796341,83.463165 74.588127,75.138832 82.545952,66.978348 
	C83.653755,65.842339 85.113342,65.049370 86.549904,63.994976 
	C88.261734,65.883469 89.940178,67.735138 91.779251,69.764015 
	C77.323036,84.204681 62.743996,98.768051 48.036995,113.643326 
z"/>
<path fill="#000000" opacity="1.000000" stroke="none" 
	d="
M42.009186,101.638855 
	C38.834911,99.788628 37.870228,94.925316 39.977371,91.366989 
	C52.330021,79.011360 64.550987,66.984474 77.037125,54.696625 
	C78.889763,56.877323 80.625565,58.920494 82.404419,61.014351 
	C68.713242,74.721001 55.425774,88.023483 42.009186,101.638855 
z"/>
<path fill="#000000" opacity="1.000000" stroke="none" 
	d="
M38.379868,86.842392 
	C38.698914,82.874588 39.349209,78.869331 40.051743,74.449295 
	C44.745594,64.846214 50.320011,56.513248 59.365753,50.907722 
	C67.308121,45.985939 67.197365,45.807209 74.110947,51.705532 
	C62.293411,63.422779 50.502266,75.113861 38.379868,86.842392 
z"/>
<path fill="#EFFAF0" opacity="1.000000" stroke="none" 
	d="
M80.007698,126.536835 
	C81.275009,126.169380 82.550606,126.169380 84.116539,126.169380 
	C83.396935,128.429398 82.783615,130.355606 82.000664,132.634277 
	C81.226013,130.959259 80.621002,128.931763 80.007698,126.536835 
z"/>
</svg>