<svg version="1.1" id="Layer_1" xmlns="http://www.w3.org/2000/svg" xmlns:xlink="http://www.w3.org/1999/xlink" x="0px" y="0px"
	 width="100%" viewBox="0 0 308 308" enable-background="new 0 0 308 308" xml:space="preserve">
<path fill="#010101" opacity="1.000000" stroke="none" 
	d="
M309.000000,107.000000 
	C309.000000,174.666672 309.000000,241.833328 309.000000,309.000000 
	C206.333328,309.000000 103.666664,309.000000 1.000000,309.000000 
	C1.000000,206.333328 1.000000,103.666664 1.000000,1.000000 
	C103.666664,1.000000 206.333328,1.000000 309.000000,1.000000 
	C309.000000,36.166668 309.000000,71.333336 309.000000,107.000000 
M278.941345,148.060623 
	C278.941345,148.060623 278.780273,148.069443 278.696930,147.665771 
	C278.540405,147.398224 278.307770,147.278610 277.610504,146.749588 
	C276.930847,146.159012 276.251160,145.568436 275.539642,144.624146 
	C275.410828,144.384109 275.211517,144.283142 274.951569,144.089478 
	C274.951569,144.089478 274.719696,144.081604 274.523407,143.563873 
	C274.021545,143.456024 273.519714,143.348175 272.086639,143.108185 
	C243.225845,143.134064 214.365036,143.159958 185.044128,143.019180 
	C184.387711,143.083008 183.731293,143.146851 182.655945,143.077133 
	C182.655945,143.077133 182.233994,143.200821 181.590591,143.027008 
	C180.317566,143.187302 179.044540,143.347610 177.771530,143.507904 
	C177.803177,144.078079 177.834824,144.648254 177.866470,145.218430 
	C193.258453,145.512161 208.650421,145.805893 224.470291,146.374710 
	C224.785706,146.299362 225.101105,146.224014 225.897751,146.462372 
	C226.444611,146.353912 226.991486,146.245453 228.316254,146.417313 
	C234.581436,146.406265 240.846619,146.395218 247.893417,146.665176 
	C250.975342,146.851425 254.057266,147.037689 257.130524,148.018173 
	C255.455597,150.850723 253.780670,153.683273 251.835876,156.474884 
	C251.627274,156.761002 251.653366,156.986740 251.559845,157.880829 
	C251.666458,160.665802 251.773056,163.450790 251.651627,166.416611 
	C251.681549,166.660965 251.818756,166.768036 252.132706,167.365784 
	C252.392319,167.923920 252.651932,168.482040 252.924042,169.651443 
	C253.630707,170.594589 254.337387,171.537750 255.586243,172.984863 
	C255.829330,173.186798 256.072418,173.388733 256.315491,173.590683 
	C256.542450,173.294449 257.031342,172.858566 256.958588,172.722122 
	C254.288071,167.713654 255.320557,162.716934 257.230652,157.642670 
	C257.431213,157.484497 257.455536,157.302780 257.842072,156.556183 
	C259.995575,154.386368 262.149078,152.216568 264.410095,150.243378 
	C264.410095,150.243378 264.635864,149.927780 265.464722,149.815247 
	C266.964447,149.223404 268.464172,148.631561 270.455566,148.217636 
	C270.931396,148.022186 271.407227,147.826736 272.513519,147.960068 
	C273.714172,149.104660 274.816986,150.378616 276.131409,151.372742 
	C284.338928,157.580322 282.340851,161.352325 276.733643,168.566818 
	C276.562714,168.699173 276.524750,168.862457 275.505432,169.428711 
	C275.178497,169.644241 274.851562,169.859756 274.731354,169.967651 
	C274.731354,169.967651 274.585266,170.100983 273.666016,170.137985 
	C272.137024,170.080643 270.608032,170.023300 268.890198,169.547119 
	C268.616516,169.345932 268.324432,169.314316 267.328156,168.987198 
	C266.929413,168.607819 266.530670,168.228439 266.298157,167.662033 
	C266.298157,167.662033 266.154541,167.455338 266.154541,167.455338 
	C266.154541,167.455338 265.904114,167.483719 265.807495,166.730972 
	C265.687683,166.508179 265.567871,166.285370 265.557037,165.276367 
	C265.456116,164.492828 265.355225,163.709305 265.672241,162.231766 
	C267.311157,158.257339 269.749115,158.226181 272.694489,160.936768 
	C272.694489,160.936768 272.919525,161.021713 273.002045,161.710556 
	C273.442017,162.461014 273.882019,163.211472 274.321991,163.961929 
	C274.666290,163.856750 275.010559,163.751572 275.354858,163.646393 
	C274.922516,162.390137 274.490173,161.133881 273.979645,159.429016 
	C273.979645,159.429016 273.754120,159.033417 273.783173,158.513626 
	C273.533752,158.325928 273.284302,158.138214 273.004333,158.002396 
	C273.004333,158.002396 273.052490,157.965866 272.924438,157.382156 
	C272.249725,157.018188 271.574982,156.654221 270.806915,156.076965 
	C270.806915,156.076965 270.583618,156.142914 270.118622,155.770630 
	C268.423248,156.185471 266.727905,156.600311 264.431519,157.191040 
	C263.976776,157.851440 263.522064,158.511841 262.505463,159.575333 
	C262.681793,162.690491 262.858124,165.805664 263.195221,169.586487 
	C264.892670,171.031906 266.590088,172.477325 268.339996,174.240891 
	C268.339996,174.240891 268.630768,174.378067 268.630768,174.378067 
	C268.630768,174.378067 268.832672,174.128098 269.660919,174.593124 
	C271.235443,174.688889 272.809998,174.784637 274.730316,175.584732 
	C274.599762,176.088669 274.469208,176.592621 273.683960,177.346329 
	C269.929138,181.691330 265.957672,185.870468 262.472351,190.421875 
	C257.746704,196.593002 261.832672,205.892014 270.884460,208.897614 
	C269.700836,207.222427 268.914459,206.064438 268.082336,204.940308 
	C265.765106,201.809830 264.853973,197.971771 267.088501,195.015594 
	C270.724457,190.205368 275.269958,186.076248 279.552277,181.779922 
	C279.764191,181.567307 281.123993,182.498779 281.706329,183.586792 
	C281.778351,185.775253 281.850403,187.963730 281.780243,190.862946 
	C281.874146,191.577866 281.968079,192.292770 281.822174,193.701416 
	C281.962921,196.111343 282.103638,198.521271 282.136200,201.569244 
	C282.117523,201.784134 282.098816,201.999039 281.272583,202.518051 
	C277.199097,201.029861 273.125580,199.541672 269.092163,198.068130 
	C270.171326,204.210541 274.426636,206.682037 282.174225,206.531235 
	C282.184814,209.704208 282.195404,212.877182 281.887970,216.586273 
	C281.813934,217.417023 281.739868,218.247772 281.157074,219.618942 
	C277.866486,224.328491 273.515503,226.243729 269.434204,224.523590 
	C266.114288,223.124313 264.003174,220.872086 265.016022,217.405563 
	C267.758179,216.593475 269.982849,215.934647 272.207520,215.275818 
	C265.659515,211.924500 262.880829,212.722061 261.492035,217.172531 
	C259.600647,223.233612 263.490753,227.529724 272.412903,229.910156 
	C273.728180,233.051300 275.064575,235.647018 275.889587,238.396194 
	C276.585632,240.715698 277.060944,243.232407 276.938416,245.626190 
	C276.835724,247.631714 275.728149,249.585785 274.642334,252.825256 
	C277.829559,251.234543 280.093903,250.104416 282.987061,248.660461 
	C282.987061,260.788727 282.915527,272.497101 283.072479,284.202423 
	C283.093414,285.765686 284.271088,287.313446 285.414307,288.745148 
	C285.466736,288.437317 285.519196,288.129486 285.709229,287.271149 
	C285.694244,286.894257 285.679260,286.517334 285.920624,285.392609 
	C285.829132,284.883606 285.737640,284.374603 285.672668,282.946136 
	C285.654083,273.345917 285.635468,263.745728 285.885895,253.394638 
	C285.780304,252.880280 285.674713,252.365906 285.667999,251.288193 
	C285.640717,250.909805 285.613403,250.531418 285.824432,249.397720 
	C285.747864,248.883011 285.671295,248.368317 285.676239,247.289322 
	C285.645203,246.910950 285.614136,246.532578 285.827728,245.504044 
	C285.753815,245.284607 285.679901,245.065186 285.675842,244.279755 
	C285.651611,243.901093 285.627350,243.522446 285.904480,242.345535 
	C285.800842,241.519821 285.697205,240.694122 285.554443,238.954590 
	C285.567413,234.351028 285.580353,229.747467 285.906708,224.517715 
	C285.824219,224.299362 285.741760,224.081009 285.681824,222.948593 
	C285.647247,218.349976 285.612671,213.751358 285.845551,208.501419 
	C285.759827,208.282944 285.674072,208.064468 285.635742,207.009842 
	C285.622070,205.056442 285.608398,203.103058 285.839813,200.490448 
	C285.747650,200.274887 285.655487,200.059341 285.607025,199.056046 
	C285.498108,198.024277 285.389191,196.992523 285.559357,195.099731 
	C285.559845,191.812180 285.560333,188.524628 285.932800,184.374847 
	C285.808868,182.832642 285.684937,181.290451 285.599243,178.866913 
	C285.600464,175.319336 285.601715,171.771744 285.903595,167.379272 
	C285.789215,166.502396 285.674866,165.625504 285.607239,163.993134 
	C285.618500,162.731537 285.629791,161.469940 285.958191,159.313568 
	C285.748352,157.797455 285.538483,156.281342 285.267151,154.534851 
	C285.267151,154.534851 284.886902,154.421219 284.704865,153.753937 
	C283.055237,152.188721 281.405640,150.623505 279.666595,148.630966 
	C279.502289,148.352478 279.258484,148.216095 278.941345,148.060623 
M144.204224,32.736546 
	C144.458572,32.461632 144.712921,32.186722 145.722977,31.787174 
	C148.715652,31.216953 152.115204,29.444920 154.626968,30.295238 
	C163.164261,33.185390 165.134750,43.587666 158.738144,50.166367 
	C152.435867,56.648048 145.068481,56.853477 136.834442,53.679626 
	C139.065720,55.950771 141.452057,58.185951 144.270798,59.129734 
	C151.657440,61.602962 158.086044,58.937729 164.239304,53.344273 
	C164.938721,80.541191 165.613525,106.781219 166.288345,133.021255 
	C166.865936,133.000519 167.443542,132.979782 168.021133,132.959045 
	C168.021133,130.807877 168.021317,128.656693 168.021103,126.505508 
	C168.018600,99.859909 167.705475,73.208359 168.215851,46.572586 
	C168.356308,39.241661 166.217010,34.094593 160.993332,29.334141 
	C157.351303,26.015081 153.740311,24.354820 148.141205,25.530519 
	C146.461624,25.588148 144.782028,25.645775 142.213181,25.352493 
	C103.248993,25.352493 64.284813,25.352493 25.320625,25.352493 
	C25.278416,26.032854 25.236208,26.713215 25.193998,27.393578 
	C31.341852,27.700123 37.486717,28.130516 43.638390,28.278986 
	C50.010471,28.432779 56.389149,28.313215 62.768883,28.313215 
	C61.198254,31.117483 59.983833,33.285755 58.769413,35.454029 
	C59.058769,36.075138 59.348125,36.696251 59.637482,37.317360 
	C68.013390,28.455278 74.337959,38.285439 81.723228,38.262173 
	C82.195061,45.616035 84.464500,49.242130 90.292130,49.681580 
	C92.834679,49.873306 96.182121,48.083824 98.068657,46.134178 
	C100.560486,43.558983 98.841316,40.803719 96.050255,38.311443 
	C95.504959,39.577991 95.079933,40.405094 94.788391,41.276840 
	C94.239830,42.917145 93.768295,44.583202 93.264732,46.238552 
	C91.193321,44.867180 88.224205,43.963490 87.220093,42.036091 
	C84.295341,36.422050 88.996666,29.298286 95.527924,28.903456 
	C98.845337,28.702911 102.184883,28.868370 105.522041,28.868370 
	C104.962234,37.738049 107.285622,41.481270 112.889221,40.640339 
	C110.198257,37.239315 107.211678,33.950638 108.790207,29.688684 
	C116.175911,29.688684 123.138344,29.688684 130.335403,30.442089 
	C130.132996,30.926908 129.930588,31.411730 129.112320,32.152683 
	C125.455757,37.885715 120.787979,42.438526 113.968102,44.571415 
	C113.590324,44.686867 113.212547,44.802319 112.160049,44.704144 
	C110.013992,43.843651 107.867928,42.983158 105.335030,41.576012 
	C103.818848,40.245457 102.302658,38.914902 100.786476,37.584343 
	C100.534729,37.885426 100.282990,38.186508 100.031242,38.487595 
	C101.150414,40.063709 102.269577,41.639824 103.734009,43.827587 
	C107.536720,47.685219 111.240562,52.422672 117.507004,50.084774 
	C124.550911,47.456825 129.965347,42.491348 134.512482,35.985924 
	C134.512482,35.985924 134.981857,35.846481 135.727875,36.190022 
	C137.349258,45.407440 140.261353,49.238503 147.027512,49.326290 
	C149.614807,49.359863 152.884155,47.739876 154.601730,45.783787 
	C155.724808,44.504745 155.417984,40.734215 154.295517,39.050243 
	C153.053192,37.186485 150.150742,36.429310 147.971252,35.190235 
	C147.754364,35.632671 147.537476,36.075108 147.320587,36.517544 
	C148.098206,37.043507 149.164291,37.399849 149.593872,38.130455 
	C150.510071,39.688622 152.136292,42.267292 151.600723,42.941368 
	C150.489868,44.339520 148.135056,45.509632 146.334915,45.450790 
	C141.765335,45.301422 141.110062,41.682941 141.525818,37.570702 
	C141.994186,36.293606 142.462555,35.016510 143.345703,33.657154 
	C143.623169,33.489109 143.730972,33.245869 144.204224,32.736546 
M200.592896,135.707230 
	C201.716965,135.417801 202.841034,135.128357 204.614105,134.854782 
	C205.465622,134.762299 206.317139,134.669800 208.099854,134.542526 
	C212.057297,134.314529 216.013489,133.916382 219.972412,133.886856 
	C241.619553,133.725388 263.267365,133.654449 285.339966,133.632477 
	C285.339966,133.632477 285.576904,133.271103 285.576904,133.271103 
	C285.576904,133.271103 285.278198,132.958984 285.520020,132.253250 
	C285.470428,131.512848 285.420837,130.772446 285.617249,129.489197 
	C285.523041,129.314285 285.428864,129.139389 285.497345,128.222366 
	C285.504150,111.568787 285.655304,94.913254 285.428955,78.262840 
	C285.361847,73.324356 285.734772,68.780846 289.401581,64.356857 
	C291.884003,59.368969 294.958221,54.577675 296.697296,49.342834 
	C298.812134,42.976669 295.998260,39.608322 288.309479,38.326382 
	C287.383392,37.349434 285.839417,36.476788 285.653381,35.374908 
	C285.196442,32.668068 285.364838,29.855663 285.575836,26.676243 
	C285.027008,26.304621 284.478180,25.932997 283.039581,25.348042 
	C279.667480,25.452868 276.295349,25.557692 272.493164,25.443842 
	C272.493164,25.443842 272.085175,25.701412 271.162720,25.479280 
	C256.086914,25.529213 241.011093,25.579147 225.495255,25.399717 
	C225.495255,25.399717 225.063797,25.644825 224.144730,25.418119 
	C215.063522,25.491369 205.982315,25.564619 196.179031,25.341761 
	C195.158798,25.443520 194.138550,25.545279 192.255157,25.423422 
	C190.481628,25.492277 188.708115,25.561134 186.080643,25.336535 
	C183.145065,25.336535 180.209473,25.336535 177.192780,25.336535 
	C177.192780,31.176458 177.192780,36.558998 177.075119,42.626659 
	C177.078827,42.858349 177.082520,43.090038 176.798767,43.404232 
	C176.616425,43.556049 176.580017,43.737190 176.040161,44.289944 
	C175.884384,44.478622 175.728592,44.667305 175.244125,44.805061 
	C174.997757,44.884903 174.877609,45.054249 174.336823,45.587326 
	C173.956131,46.056320 173.575455,46.525318 172.728409,47.276310 
	C172.674179,47.449684 172.619934,47.623055 172.174347,48.032970 
	C172.174347,48.032970 172.022263,48.464203 171.755112,48.469162 
	C171.755112,48.469162 171.617584,48.697620 171.617584,48.697620 
	C171.617584,48.697620 171.762833,48.921150 171.246658,49.440491 
	C171.370605,50.974209 171.494553,52.507923 171.523453,54.388714 
	C171.604553,54.653690 171.783539,54.792839 172.270660,55.534405 
	C178.732239,70.611839 178.469101,85.949310 174.152695,101.482689 
	C171.694473,110.329056 170.817673,119.059433 177.037216,127.592331 
	C176.793930,129.365097 176.550629,131.137848 176.760132,133.577957 
	C181.213684,133.893845 185.667221,134.209732 190.916779,134.721298 
	C192.281235,134.790344 193.645691,134.859406 195.377670,135.534698 
	C196.295364,135.505173 197.213058,135.475632 198.701096,135.648712 
	C199.095840,135.600906 199.490601,135.553101 200.592896,135.707230 
M156.727356,82.846886 
	C156.183426,83.471275 155.623474,84.082504 155.098038,84.722092 
	C149.464767,91.579216 150.046722,98.668861 156.860641,104.290634 
	C157.840363,105.098946 159.389038,105.217674 160.674408,105.655533 
	C154.492508,97.444366 154.250763,94.178581 159.526169,85.811661 
	C162.394653,81.262184 162.174622,72.263824 158.930008,67.825317 
	C158.521591,67.266640 157.307678,67.296806 157.718216,67.415298 
	C157.498886,72.368805 157.282471,77.256523 156.727356,82.846886 
M212.966293,158.924896 
	C217.297928,160.986221 221.449219,160.542496 224.882309,157.286697 
	C229.507309,152.900558 234.722305,152.416962 240.518738,153.931076 
	C241.644455,154.225128 242.870712,154.134369 244.750763,154.272614 
	C238.123535,148.886658 230.405640,148.512024 224.202942,152.757233 
	C217.853531,157.102859 214.400543,156.864594 208.765640,151.761612 
	C208.028061,151.093674 207.118103,150.616104 206.287979,150.050339 
	C205.890976,150.492950 205.493973,150.935562 205.096970,151.378174 
	C207.486542,153.780090 209.876099,156.182007 212.966293,158.924896 
M245.184143,158.935898 
	C242.597137,160.447357 240.010147,161.958817 237.484314,163.434525 
	C241.044342,165.808823 245.961853,165.638885 247.655792,162.639191 
	C248.331009,161.443466 247.857590,159.599106 247.907074,158.050018 
	C247.159836,158.171432 246.412613,158.292831 245.184143,158.935898 
M146.422516,67.122314 
	C146.626801,69.327156 146.831085,71.531990 147.155273,75.030830 
	C150.018112,70.145142 152.011063,66.744019 154.028778,63.300613 
	C150.742172,62.320015 147.788055,62.109749 146.422516,67.122314 
M269.315582,233.455841 
	C267.303009,235.879044 265.290466,238.302246 263.018188,241.038177 
	C269.586273,241.866302 271.653687,239.379517 269.315582,233.455841 
M71.783096,47.016483 
	C73.754433,45.441525 75.725769,43.866570 77.697105,42.291615 
	C77.571121,41.833900 77.445137,41.376186 77.319153,40.918472 
	C75.331673,41.254612 72.904694,41.031990 71.513519,42.126236 
	C70.608406,42.838165 71.211136,45.467087 71.783096,47.016483 
z"/>
<path fill="#EDF5ED" opacity="1.000000" stroke="none" 
	d="
M185.504242,143.185852 
	C214.365036,143.159958 243.225845,143.134064 272.708435,143.368866 
	C273.793396,143.780228 274.256531,143.930923 274.719696,144.081604 
	C274.719696,144.081604 274.951569,144.089478 274.998474,144.358582 
	C275.165588,144.827301 275.340942,144.944031 275.571503,144.977859 
	C276.251160,145.568436 276.930847,146.159012 277.863586,147.216156 
	C278.278900,147.912781 278.500092,148.041702 278.780273,148.069443 
	C278.780273,148.069443 278.941345,148.060623 279.004791,148.339951 
	C279.227936,148.874619 279.457184,149.020950 279.756012,149.058289 
	C281.405640,150.623505 283.055237,152.188721 284.778076,154.098526 
	C284.851318,154.443115 284.808441,154.436188 284.816162,154.819595 
	C285.096252,156.871445 285.368652,158.539902 285.641052,160.208344 
	C285.629791,161.469940 285.618500,162.731537 285.259216,164.435974 
	C285.141785,165.993942 285.372375,167.109055 285.602966,168.224167 
	C285.601715,171.771744 285.600464,175.319336 285.231995,179.396606 
	C285.096771,181.696548 285.328796,183.466812 285.560852,185.237076 
	C285.560333,188.524628 285.559845,191.812180 285.169312,195.541504 
	C284.446381,196.014832 284.113525,196.046356 283.693298,195.790955 
	C283.091309,194.671906 282.576630,193.839798 282.061981,193.007690 
	C281.968079,192.292770 281.874146,191.577866 281.966248,190.064102 
	C282.084564,187.142685 282.016907,185.020096 281.949280,182.897522 
	C281.123993,182.498779 279.764191,181.567307 279.552277,181.779922 
	C275.269958,186.076248 270.724457,190.205368 267.088501,195.015594 
	C264.853973,197.971771 265.765106,201.809830 268.082336,204.940308 
	C268.914459,206.064438 269.700836,207.222427 270.884460,208.897614 
	C261.832672,205.892014 257.746704,196.593002 262.472351,190.421875 
	C265.957672,185.870468 269.929138,181.691330 274.293213,177.181427 
	C274.729858,176.304489 274.557190,175.592453 274.384521,174.880402 
	C272.809998,174.784637 271.235443,174.688889 269.193420,174.256836 
	C268.725922,173.920563 268.287537,173.922745 268.287537,173.922745 
	C266.590088,172.477325 264.892670,171.031906 263.136780,168.809479 
	C263.074646,165.079056 263.071014,162.125656 263.067352,159.172256 
	C263.522064,158.511841 263.976776,157.851440 265.089203,157.123016 
	C267.359131,156.750961 268.971375,156.446930 270.583618,156.142914 
	C270.583618,156.142914 270.806915,156.076965 270.914459,156.487381 
	C271.698822,157.253815 272.375671,157.609848 273.052490,157.965866 
	C273.052490,157.965866 273.004333,158.002396 272.984558,158.239349 
	C272.974670,158.652710 272.984558,158.829132 272.881714,159.448608 
	C272.751251,160.195969 272.733551,160.500229 272.715820,160.804504 
	C269.749115,158.226181 267.311157,158.257339 265.209656,162.682159 
	C264.980713,164.109222 265.214386,165.085892 265.448059,166.062561 
	C265.567871,166.285370 265.687683,166.508179 265.827606,167.196472 
	C265.847717,167.661957 266.131927,167.849060 266.131927,167.849060 
	C266.530670,168.228439 266.929413,168.607819 267.784790,169.408051 
	C268.241455,169.828903 268.641266,170.013397 268.641266,170.013397 
	C268.641266,170.013397 269.079041,169.965942 269.079041,169.965942 
	C270.608032,170.023300 272.137024,170.080643 274.137146,170.094360 
	C274.608307,170.050720 274.524628,170.075302 274.524628,170.075287 
	C274.851562,169.859756 275.178497,169.644241 276.189026,169.202423 
	C277.025391,168.841660 277.065826,168.679260 276.993896,168.488953 
	C282.340851,161.352325 284.338928,157.580322 276.131409,151.372742 
	C274.816986,150.378616 273.714172,149.104660 272.075806,147.617828 
	C271.080017,147.530304 270.521973,147.785004 269.963898,148.039719 
	C268.464172,148.631561 266.964447,149.223404 264.984833,149.846252 
	C264.504944,149.877274 264.302582,150.046753 264.302582,150.046753 
	C262.149078,152.216568 259.995575,154.386368 257.462494,156.894165 
	C256.957428,157.369217 256.907257,157.529816 256.932404,157.713959 
	C255.320557,162.716934 254.288071,167.713654 256.958588,172.722122 
	C257.031342,172.858566 256.542450,173.294449 256.315491,173.590683 
	C256.072418,173.388733 255.829330,173.186798 255.326172,172.416687 
	C254.347916,170.912384 253.629745,169.976273 252.911560,169.040161 
	C252.651932,168.482040 252.392319,167.923920 252.115570,166.955322 
	C252.098419,166.544876 251.879654,166.235764 251.879654,166.235764 
	C251.773056,163.450790 251.666458,160.665802 251.822723,157.368744 
	C252.085617,156.856659 252.105743,156.515823 252.105743,156.515823 
	C253.780670,153.683273 255.455597,150.850723 256.923950,147.330444 
	C253.515533,146.556549 250.313675,146.470352 247.111801,146.384171 
	C240.846619,146.395218 234.581436,146.406265 227.395340,146.234222 
	C226.121796,146.083649 225.769150,146.116150 225.416519,146.148666 
	C225.101105,146.224014 224.785706,146.299362 223.963776,145.931915 
	C213.163284,145.287659 202.865921,145.180939 192.577866,144.813705 
	C190.203659,144.728943 187.861267,143.752151 185.504242,143.185852 
z"/>
<path fill="#EEF4EC" opacity="1.000000" stroke="none" 
	d="
M288.922424,64.820404 
	C285.734772,68.780846 285.361847,73.324356 285.428955,78.262840 
	C285.655304,94.913254 285.504150,111.568787 285.250153,128.682922 
	C285.125732,129.439667 285.248505,129.735855 285.371277,130.032043 
	C285.420837,130.772446 285.470428,131.512848 285.235840,132.613785 
	C284.737549,133.154419 284.725281,133.347122 284.914948,133.552414 
	C263.267365,133.654449 241.619553,133.725388 219.972412,133.886856 
	C216.013489,133.916382 212.057297,134.314529 207.590698,134.152466 
	C207.055618,132.943375 207.029678,132.124329 207.082672,131.111084 
	C207.161621,130.916870 207.108551,130.501846 207.479523,130.400986 
	C210.052048,129.783966 212.253616,129.267807 214.727661,128.812180 
	C215.327637,128.718323 215.655136,128.563950 216.314850,128.265259 
	C218.189072,127.444885 219.731033,126.768829 221.575104,126.165909 
	C222.246368,127.102058 222.615524,127.965073 222.732178,129.116455 
	C227.322647,129.511078 232.177032,129.876114 237.005890,129.662827 
	C244.226212,129.343887 248.439789,123.552231 253.828125,120.341080 
	C253.903915,121.538330 253.930893,122.223572 253.879852,123.323715 
	C253.929306,125.027008 254.056808,126.315407 254.292206,127.916496 
	C254.792282,128.388184 255.184494,128.547195 255.987747,128.792603 
	C264.505157,128.878983 272.611511,128.878983 280.437134,128.878983 
	C280.437134,122.902435 280.437134,115.948402 280.588928,108.923553 
	C280.794556,108.755554 280.916016,108.630539 280.889587,108.566414 
	C280.811279,108.376343 280.674713,108.210281 280.443298,107.639175 
	C278.925964,101.945091 277.259064,101.312103 271.946777,104.154022 
	C270.962982,103.927841 270.570251,103.833855 270.290649,103.394165 
	C271.744232,101.400002 272.887878,99.528023 274.460358,98.142845 
	C280.396210,92.913963 281.216675,85.868172 281.627502,78.665665 
	C281.638702,78.469215 280.411133,78.202118 279.446259,77.900284 
	C278.767242,76.921097 278.403198,76.009598 278.162048,74.784882 
	C279.310211,72.990273 280.335480,71.508881 281.538635,69.998993 
	C281.960571,69.842384 282.067139,69.641396 282.241821,69.036476 
	C282.919952,68.090332 283.392517,67.475250 283.972504,66.829346 
	C284.079895,66.798515 284.050201,66.394714 284.193848,66.068756 
	C285.048157,64.512146 285.758850,63.281490 286.799408,62.088921 
	C287.727020,63.024799 288.324707,63.922600 288.922424,64.820404 
z"/>
<path fill="#C8D6C8" opacity="1.000000" stroke="none" 
	d="
M130.100784,29.688683 
	C123.138344,29.688684 116.175911,29.688684 108.790207,29.688684 
	C107.211678,33.950638 110.198257,37.239315 112.889221,40.640339 
	C107.285622,41.481270 104.962234,37.738049 105.522041,28.868370 
	C102.184883,28.868370 98.845337,28.702911 95.527924,28.903456 
	C88.996666,29.298286 84.295341,36.422050 87.220093,42.036091 
	C88.224205,43.963490 91.193321,44.867180 93.264732,46.238552 
	C93.768295,44.583202 94.239830,42.917145 94.788391,41.276840 
	C95.079933,40.405094 95.504959,39.577991 96.050255,38.311443 
	C98.841316,40.803719 100.560486,43.558983 98.068657,46.134178 
	C96.182121,48.083824 92.834679,49.873306 90.292130,49.681580 
	C84.464500,49.242130 82.195061,45.616035 81.723228,38.262173 
	C74.337959,38.285439 68.013390,28.455278 59.637482,37.317360 
	C59.348125,36.696251 59.058769,36.075138 58.769413,35.454029 
	C59.983833,33.285755 61.198254,31.117483 62.768883,28.313215 
	C56.389149,28.313215 50.010471,28.432779 43.638390,28.278986 
	C37.486717,28.130516 31.341852,27.700123 25.193998,27.393578 
	C25.236208,26.713215 25.278416,26.032854 25.320625,25.352493 
	C64.284813,25.352493 103.248993,25.352493 142.454376,25.835348 
	C139.624954,26.510532 136.509415,26.458799 133.505112,27.011580 
	C132.248688,27.242760 131.228424,28.757517 130.100784,29.688683 
M71.039909,28.415714 
	C70.818413,28.490616 70.596909,28.565517 70.375412,28.640421 
	C70.529625,28.811646 70.683846,28.982872 71.142639,29.803410 
	C72.887024,30.752153 74.553711,31.904047 76.392059,32.607090 
	C80.148651,34.043732 83.073967,33.097218 85.085686,28.715807 
	C80.167709,28.715807 75.725166,28.715807 71.039909,28.415714 
z"/>
<path fill="#E3E9E0" opacity="1.000000" stroke="none" 
	d="
M272.923248,25.662518 
	C276.295349,25.557692 279.667480,25.452868 283.546692,25.719681 
	C284.463104,26.422791 284.872375,26.754263 285.281677,27.085730 
	C285.364838,29.855663 285.196442,32.668068 285.653381,35.374908 
	C285.839417,36.476788 287.383392,37.349434 288.858398,38.721760 
	C289.598907,39.756275 289.790497,40.395409 289.529846,41.013382 
	C286.055969,40.943424 283.034363,40.894630 280.003357,40.516769 
	C279.996124,39.748848 279.998291,39.309994 280.345215,38.618240 
	C280.934418,35.532593 281.178864,32.699841 281.445953,29.604862 
	C264.262177,29.604862 248.003296,29.656645 231.744949,29.583992 
	C223.032761,29.545063 215.679916,32.460693 209.455109,38.997490 
	C208.310104,38.967472 207.547165,38.936462 206.967010,38.606144 
	C207.545700,36.556084 208.834549,34.009533 208.140198,33.230419 
	C206.924973,31.866837 204.508301,31.022255 202.566071,30.966333 
	C197.617813,30.823866 192.650330,31.424356 187.697250,31.338907 
	C185.596191,31.302658 183.511917,30.293505 181.047012,29.625429 
	C182.138168,34.747231 183.050491,39.029568 183.906311,43.585617 
	C183.277359,44.224762 182.704910,44.590191 181.768463,44.894142 
	C180.241119,45.115765 179.077789,45.398869 177.327789,45.479042 
	C176.351669,45.136070 175.962234,44.996029 175.572800,44.855988 
	C175.728592,44.667305 175.884384,44.478622 176.494995,44.065193 
	C177.106033,43.696617 177.151489,43.523712 177.086212,43.321724 
	C177.082520,43.090038 177.078827,42.858349 177.369171,42.021881 
	C177.663239,36.571056 177.663239,31.725008 177.663239,27.517139 
	C181.358734,26.764935 184.146652,26.197460 186.934586,25.629988 
	C188.708115,25.561134 190.481628,25.492277 192.925598,25.690390 
	C194.697723,25.850861 195.799423,25.744364 196.901108,25.637867 
	C205.982315,25.564619 215.063522,25.491369 224.689697,25.640305 
	C225.234680,25.862492 225.634354,25.891327 225.634354,25.891327 
	C225.634354,25.891327 225.935272,25.629082 225.935272,25.629082 
	C241.011093,25.579147 256.086914,25.529213 271.709595,25.690941 
	C272.256500,25.902603 272.640564,25.917265 272.640564,25.917265 
	C272.640564,25.917265 272.923248,25.662519 272.923248,25.662518 
z"/>
<path fill="#DBEADB" opacity="1.000000" stroke="none" 
	d="
M148.947952,25.776316 
	C153.740311,24.354820 157.351303,26.015081 160.993332,29.334141 
	C166.217010,34.094593 168.356308,39.241661 168.215851,46.572586 
	C167.705475,73.208359 168.018600,99.859909 168.021103,126.505508 
	C168.021317,128.656693 168.021133,130.807877 168.021133,132.959045 
	C167.443542,132.979782 166.865936,133.000519 166.288345,133.021255 
	C165.613525,106.781219 164.938721,80.541191 164.239304,53.344273 
	C158.086044,58.937729 151.657440,61.602962 144.270798,59.129734 
	C141.452057,58.185951 139.065720,55.950771 136.834442,53.679626 
	C145.068481,56.853477 152.435867,56.648048 158.738144,50.166367 
	C165.134750,43.587666 163.164261,33.185390 154.626968,30.295238 
	C152.115204,29.444920 148.715652,31.216953 145.353485,31.503433 
	C146.305328,29.405233 147.626633,27.590775 148.947952,25.776316 
z"/>
<path fill="#E2F1E4" opacity="1.000000" stroke="none" 
	d="
M283.780670,196.077896 
	C284.113525,196.046356 284.446381,196.014832 285.029785,195.972015 
	C285.389191,196.992523 285.498108,198.024277 285.408966,199.571503 
	C285.338837,200.441193 285.466766,200.795425 285.594727,201.149658 
	C285.608398,203.103058 285.622070,205.056442 285.431030,207.543060 
	C285.193115,208.215469 285.093445,208.384842 285.140167,208.487762 
	C285.248505,208.726501 285.427643,208.933105 285.578064,209.152740 
	C285.612671,213.751358 285.647247,218.349976 285.492371,223.514648 
	C285.265991,224.214996 285.164581,224.374466 285.205200,224.478470 
	C285.297455,224.714767 285.459564,224.923798 285.593292,225.143906 
	C285.580353,229.747467 285.567413,234.351028 285.385498,239.645142 
	C285.345428,241.271713 285.474274,242.207748 285.603119,243.143784 
	C285.627350,243.522446 285.651611,243.901093 285.452179,244.674316 
	C285.189545,245.209839 285.078857,245.384338 285.125946,245.485077 
	C285.238861,245.726562 285.425964,245.933380 285.583099,246.154205 
	C285.614136,246.532578 285.645203,246.910950 285.412842,247.739517 
	C285.294983,248.844147 285.440552,249.498596 285.586090,250.153030 
	C285.613403,250.531418 285.640717,250.909805 285.403625,251.741638 
	C285.298462,252.845230 285.457672,253.495377 285.616882,254.145523 
	C285.635468,263.745728 285.654083,273.345917 285.451080,283.582825 
	C285.374420,284.859833 285.519348,285.500153 285.664246,286.140442 
	C285.679260,286.517334 285.694244,286.894257 285.423340,287.629028 
	C284.946014,288.251068 284.871216,288.544891 284.913086,288.868378 
	C284.271088,287.313446 283.093414,285.765686 283.072479,284.202423 
	C282.915527,272.497101 282.987061,260.788727 282.987061,248.660461 
	C280.093903,250.104416 277.829559,251.234543 274.642334,252.825256 
	C275.728149,249.585785 276.835724,247.631714 276.938416,245.626190 
	C277.060944,243.232407 276.585632,240.715698 275.889587,238.396194 
	C275.064575,235.647018 273.728180,233.051300 272.412903,229.910156 
	C263.490753,227.529724 259.600647,223.233612 261.492035,217.172531 
	C262.880829,212.722061 265.659515,211.924500 272.207520,215.275818 
	C269.982849,215.934647 267.758179,216.593475 265.016022,217.405563 
	C264.003174,220.872086 266.114288,223.124313 269.434204,224.523590 
	C273.515503,226.243729 277.866486,224.328491 281.673737,219.259705 
	C282.195587,217.950378 282.200806,217.000259 282.205994,216.050156 
	C282.195404,212.877182 282.184814,209.704208 282.149719,205.711670 
	C282.110168,203.999374 282.095123,203.106659 282.080078,202.213928 
	C282.098816,201.999039 282.117523,201.784134 282.409546,201.010773 
	C283.048828,198.994156 283.414734,197.536026 283.780670,196.077896 
M282.005890,237.622742 
	C282.005890,234.188278 282.005890,230.753830 282.005890,227.217438 
	C277.653564,228.860809 276.719818,232.133774 279.302124,236.599304 
	C279.789337,237.441803 281.078827,237.820328 282.005890,237.622742 
z"/>
<path fill="#DBE6DC" opacity="1.000000" stroke="none" 
	d="
M177.015747,126.962334 
	C170.817673,119.059433 171.694473,110.329056 174.152695,101.482689 
	C178.469101,85.949310 178.732239,70.611839 172.163483,55.008720 
	C171.994537,54.252392 171.848602,54.105259 171.618484,54.041641 
	C171.494553,52.507923 171.370605,50.974209 171.609375,49.152084 
	C171.972107,48.863678 172.022263,48.464203 172.022263,48.464203 
	C172.022263,48.464203 172.174347,48.032970 172.559570,47.935242 
	C173.055450,47.780743 173.256119,47.730061 173.260452,47.666088 
	C173.275436,47.444660 173.222092,47.218601 173.194763,46.994308 
	C173.575455,46.525318 173.956131,46.056320 174.659576,45.912285 
	C175.002792,46.856411 175.023239,47.475578 174.937408,48.457829 
	C173.907913,55.156170 176.174530,60.482071 180.012634,65.467453 
	C179.979553,65.634674 179.991196,65.975410 179.999237,66.370010 
	C181.174026,69.982422 182.340775,73.200249 183.878845,77.442139 
	C185.854370,75.129387 187.415039,73.302315 189.361603,71.654129 
	C190.161011,72.214417 190.574524,72.595818 190.841034,73.281662 
	C188.548325,76.082039 185.501160,78.244247 184.429901,81.137947 
	C181.494690,89.066750 179.029480,97.217171 177.068680,105.444412 
	C175.426987,112.332634 176.266891,119.150795 180.523193,125.021011 
	C179.112579,125.666969 178.064163,126.314651 177.015747,126.962334 
z"/>
<path fill="#E3EDE3" opacity="1.000000" stroke="none" 
	d="
M105.721870,42.122665 
	C107.867928,42.983158 110.013992,43.843651 112.863998,44.863976 
	C113.808167,44.967060 114.048370,44.910313 114.288582,44.853565 
	C120.787979,42.438526 125.455757,37.885715 129.716125,32.197746 
	C131.563049,33.543476 132.806168,34.844135 134.049286,36.144794 
	C129.965347,42.491348 124.550911,47.456825 117.507004,50.084774 
	C111.240562,52.422672 107.536720,47.685219 103.867294,43.419315 
	C104.574341,42.714916 105.148109,42.418793 105.721870,42.122665 
z"/>
<path fill="#D9E6DA" opacity="1.000000" stroke="none" 
	d="
M156.896698,82.495560 
	C157.282471,77.256523 157.498886,72.368805 157.718216,67.415298 
	C157.307678,67.296806 158.521591,67.266640 158.930008,67.825317 
	C162.174622,72.263824 162.394653,81.262184 159.526169,85.811661 
	C154.250763,94.178581 154.492508,97.444366 160.674408,105.655533 
	C159.389038,105.217674 157.840363,105.098946 156.860641,104.290634 
	C150.046722,98.668861 149.464767,91.579216 155.098038,84.722092 
	C155.623474,84.082504 156.183426,83.471275 156.896698,82.495560 
z"/>
<path fill="#D8EADC" opacity="1.000000" stroke="none" 
	d="
M212.615982,158.754410 
	C209.876099,156.182007 207.486542,153.780090 205.096970,151.378174 
	C205.493973,150.935562 205.890976,150.492950 206.287979,150.050339 
	C207.118103,150.616104 208.028061,151.093674 208.765640,151.761612 
	C214.400543,156.864594 217.853531,157.102859 224.202942,152.757233 
	C230.405640,148.512024 238.123535,148.886658 244.750763,154.272614 
	C242.870712,154.134369 241.644455,154.225128 240.518738,153.931076 
	C234.722305,152.416962 229.507309,152.900558 224.882309,157.286697 
	C221.449219,160.542496 217.297928,160.986221 212.615982,158.754410 
z"/>
<path fill="#D5E3D7" opacity="1.000000" stroke="none" 
	d="
M140.970795,37.986275 
	C141.110062,41.682941 141.765335,45.301422 146.334915,45.450790 
	C148.135056,45.509632 150.489868,44.339520 151.600723,42.941368 
	C152.136292,42.267292 150.510071,39.688622 149.593872,38.130455 
	C149.164291,37.399849 148.098206,37.043507 147.320587,36.517544 
	C147.537476,36.075108 147.754364,35.632671 147.971252,35.190235 
	C150.150742,36.429310 153.053192,37.186485 154.295517,39.050243 
	C155.417984,40.734215 155.724808,44.504745 154.601730,45.783787 
	C152.884155,47.739876 149.614807,49.359863 147.027512,49.326290 
	C140.261353,49.238503 137.349258,45.407440 135.440186,35.711426 
	C138.860352,32.413761 138.451004,38.294815 140.970795,37.986275 
z"/>
<path fill="#F7FDF8" opacity="1.000000" stroke="none" 
	d="
M177.026489,127.277328 
	C178.064163,126.314651 179.112579,125.666969 180.686646,125.293625 
	C182.128677,126.433968 183.045044,127.299973 184.085129,128.484161 
	C185.084747,128.898453 185.960678,128.994568 187.106308,129.149170 
	C187.545181,129.279938 187.714355,129.352249 187.913422,129.680176 
	C188.621323,130.032257 189.299332,130.128723 190.318329,130.232407 
	C191.093872,130.356369 191.528442,130.473099 192.072754,130.794189 
	C192.182526,130.998520 192.624146,131.140747 192.624146,131.140747 
	C192.624146,131.140747 193.053711,130.965576 193.510956,131.030823 
	C197.720184,131.101532 201.472183,131.106979 205.513306,131.196594 
	C206.202866,131.288940 206.603302,131.297104 207.003738,131.305283 
	C207.029678,132.124329 207.055618,132.943375 207.125107,134.169861 
	C206.317139,134.669800 205.465622,134.762299 204.078064,134.619354 
	C202.323120,134.757721 201.104233,135.131516 199.885345,135.505295 
	C199.490601,135.553101 199.095840,135.600906 198.330215,135.273697 
	C196.976273,134.908615 195.993210,134.918533 195.010147,134.928467 
	C193.645691,134.859406 192.281235,134.790344 190.360855,134.274765 
	C185.305740,133.522354 180.806534,133.216476 176.307343,132.910614 
	C176.550629,131.137848 176.793930,129.365097 177.026489,127.277328 
z"/>
<path fill="#FAFDF8" opacity="1.000000" stroke="none" 
	d="
M141.248306,37.778488 
	C138.451004,38.294815 138.860352,32.413761 135.067169,35.539654 
	C134.981857,35.846481 134.512482,35.985924 134.280884,36.065361 
	C132.806168,34.844135 131.563049,33.543476 130.024048,32.069683 
	C129.930588,31.411730 130.132996,30.926908 130.218094,30.065384 
	C131.228424,28.757517 132.248688,27.242760 133.505112,27.011580 
	C136.509415,26.458799 139.624954,26.510532 142.899017,26.010803 
	C144.782028,25.645775 146.461624,25.588148 148.544586,25.653418 
	C147.626633,27.590775 146.305328,29.405233 144.975647,31.565750 
	C144.712921,32.186722 144.458572,32.461632 143.744659,32.891769 
	C143.044662,33.215214 142.926605,33.446022 142.930939,33.739414 
	C142.462555,35.016510 141.994186,36.293606 141.248306,37.778488 
z"/>
<path fill="#C6D5C8" opacity="1.000000" stroke="none" 
	d="
M289.982117,41.034542 
	C289.790497,40.395409 289.598907,39.756275 289.246979,38.907471 
	C295.998260,39.608322 298.812134,42.976669 296.697296,49.342834 
	C294.958221,54.577675 291.884003,59.368969 289.161987,64.588631 
	C288.324707,63.922600 287.727020,63.024799 286.954926,61.789085 
	C288.584320,57.536232 290.385590,53.620159 292.192535,49.706688 
	C293.804626,46.215134 293.199432,43.293018 289.982117,41.034542 
z"/>
<path fill="#DCE7DD" opacity="1.000000" stroke="none" 
	d="
M185.274185,143.102509 
	C187.861267,143.752151 190.203659,144.728943 192.577866,144.813705 
	C202.865921,145.180939 213.163284,145.287659 223.749832,145.794373 
	C208.650421,145.805893 193.258453,145.512161 177.866470,145.218430 
	C177.834824,144.648254 177.803177,144.078079 177.771530,143.507904 
	C179.044540,143.347610 180.317566,143.187302 181.931732,143.366852 
	C182.540222,143.541351 182.807541,143.376007 183.074875,143.210678 
	C183.731293,143.146851 184.387711,143.083008 185.274185,143.102509 
z"/>
<path fill="#C8D6C8" opacity="1.000000" stroke="none" 
	d="
M281.676331,202.365997 
	C282.095123,203.106659 282.110168,203.999374 282.135559,205.228088 
	C274.426636,206.682037 270.171326,204.210541 269.092163,198.068130 
	C273.125580,199.541672 277.199097,201.029861 281.676331,202.365997 
z"/>
<path fill="#C6D5C8" opacity="1.000000" stroke="none" 
	d="
M245.424759,158.675064 
	C246.412613,158.292831 247.159836,158.171432 247.907074,158.050018 
	C247.857590,159.599106 248.331009,161.443466 247.655792,162.639191 
	C245.961853,165.638885 241.044342,165.808823 237.484314,163.434525 
	C240.010147,161.958817 242.597137,160.447357 245.424759,158.675064 
z"/>
<path fill="#C6D5C8" opacity="1.000000" stroke="none" 
	d="
M146.560730,66.763954 
	C147.788055,62.109749 150.742172,62.320015 154.028778,63.300613 
	C152.011063,66.744019 150.018112,70.145142 147.155273,75.030830 
	C146.831085,71.531990 146.626801,69.327156 146.560730,66.763954 
z"/>
<path fill="#C6D5C8" opacity="1.000000" stroke="none" 
	d="
M186.507614,25.483261 
	C184.146652,26.197460 181.358734,26.764935 177.663239,27.517139 
	C177.663239,31.725008 177.663239,36.571056 177.428009,41.679321 
	C177.192780,36.558998 177.192780,31.176458 177.192780,25.336535 
	C180.209473,25.336535 183.145065,25.336535 186.507614,25.483261 
z"/>
<path fill="#BECEC1" opacity="1.000000" stroke="none" 
	d="
M269.528442,233.742737 
	C271.653687,239.379517 269.586273,241.866302 263.018188,241.038177 
	C265.290466,238.302246 267.303009,235.879044 269.528442,233.742737 
z"/>
<path fill="#D4E8D7" opacity="1.000000" stroke="none" 
	d="
M71.460724,47.126835 
	C71.211136,45.467087 70.608406,42.838165 71.513519,42.126236 
	C72.904694,41.031990 75.331673,41.254612 77.319153,40.918472 
	C77.445137,41.376186 77.571121,41.833900 77.697105,42.291615 
	C75.725769,43.866570 73.754433,45.441525 71.460724,47.126835 
z"/>
<path fill="#C8D6C8" opacity="1.000000" stroke="none" 
	d="
M283.693298,195.790955 
	C283.414734,197.536026 283.048828,198.994156 282.463623,200.691742 
	C282.103638,198.521271 281.962921,196.111343 281.942078,193.354553 
	C282.576630,193.839798 283.091309,194.671906 283.693298,195.790955 
z"/>
<path fill="#BECEC1" opacity="1.000000" stroke="none" 
	d="
M176.533737,133.244293 
	C180.806534,133.216476 185.305740,133.522354 189.962860,134.176926 
	C185.667221,134.209732 181.213684,133.893845 176.533737,133.244293 
z"/>
<path fill="#DCE7DD" opacity="1.000000" stroke="none" 
	d="
M247.502609,146.524673 
	C250.313675,146.470352 253.515533,146.556549 256.928284,146.933350 
	C254.057266,147.037689 250.975342,146.851425 247.502609,146.524673 
z"/>
<path fill="#C6D5C8" opacity="1.000000" stroke="none" 
	d="
M105.528450,41.849342 
	C105.148109,42.418793 104.574341,42.714916 103.694664,43.113495 
	C102.269577,41.639824 101.150414,40.063709 100.031242,38.487595 
	C100.282990,38.186508 100.534729,37.885426 100.786476,37.584343 
	C102.302658,38.914902 103.818848,40.245457 105.528450,41.849342 
z"/>
<path fill="#D0DFD2" opacity="1.000000" stroke="none" 
	d="
M262.786407,159.373795 
	C263.071014,162.125656 263.074646,165.079056 263.056396,168.476639 
	C262.858124,165.805664 262.681793,162.690491 262.786407,159.373795 
z"/>
<path fill="#7D9482" opacity="1.000000" stroke="none" 
	d="
M285.746826,184.805969 
	C285.328796,183.466812 285.096771,181.696548 285.212860,179.837265 
	C285.684937,181.290451 285.808868,182.832642 285.746826,184.805969 
z"/>
<path fill="#7D9482" opacity="1.000000" stroke="none" 
	d="
M285.799622,159.760956 
	C285.368652,158.539902 285.096252,156.871445 284.996246,154.824066 
	C285.168610,154.445129 285.328644,154.765228 285.328644,154.765228 
	C285.538483,156.281342 285.748352,157.797455 285.799622,159.760956 
z"/>
<path fill="#D0DFD2" opacity="1.000000" stroke="none" 
	d="
M270.351135,155.956772 
	C268.971375,156.446930 267.359131,156.750961 265.389709,157.035065 
	C266.727905,156.600311 268.423248,156.185471 270.351135,155.956772 
z"/>
<path fill="#D0DFD2" opacity="1.000000" stroke="none" 
	d="
M274.057861,159.877609 
	C274.490173,161.133881 274.922516,162.390137 275.354858,163.646393 
	C275.010559,163.751572 274.666290,163.856750 274.321991,163.961929 
	C273.882019,163.211472 273.442017,162.461014 273.204651,161.235550 
	C273.624115,160.466232 273.841003,160.171921 274.057861,159.877609 
z"/>
<path fill="#BECEC1" opacity="1.000000" stroke="none" 
	d="
M200.239120,135.606262 
	C201.104233,135.131516 202.323120,134.757721 203.753555,134.611420 
	C202.841034,135.128357 201.716965,135.417801 200.239120,135.606262 
z"/>
<path fill="#C8D6C8" opacity="1.000000" stroke="none" 
	d="
M281.827789,183.242157 
	C282.016907,185.020096 282.084564,187.142685 282.037323,189.708725 
	C281.850403,187.963730 281.778351,185.775253 281.827789,183.242157 
z"/>
<path fill="#D0DFD2" opacity="1.000000" stroke="none" 
	d="
M265.502533,165.669464 
	C265.214386,165.085892 264.980713,164.109222 265.000671,163.029160 
	C265.355225,163.709305 265.456116,164.492828 265.502533,165.669464 
z"/>
<path fill="#7D9482" opacity="1.000000" stroke="none" 
	d="
M285.753296,167.801727 
	C285.372375,167.109055 285.141785,165.993942 285.235840,164.813721 
	C285.674866,165.625504 285.789215,166.502396 285.753296,167.801727 
z"/>
<path fill="#C8D6C8" opacity="1.000000" stroke="none" 
	d="
M282.046997,216.318207 
	C282.200806,217.000259 282.195587,217.950378 281.928101,218.989502 
	C281.739868,218.247772 281.813934,217.417023 282.046997,216.318207 
z"/>
<path fill="#BECEC1" opacity="1.000000" stroke="none" 
	d="
M195.193909,135.231583 
	C195.993210,134.918533 196.976273,134.908615 198.045044,135.172394 
	C197.213058,135.475632 196.295364,135.505173 195.193909,135.231583 
z"/>
<path fill="#DCE7DD" opacity="1.000000" stroke="none" 
	d="
M252.917801,169.345795 
	C253.629745,169.976273 254.347916,170.912384 255.055084,172.164703 
	C254.337387,171.537750 253.630707,170.594589 252.917801,169.345795 
z"/>
<path fill="#BECEC1" opacity="1.000000" stroke="none" 
	d="
M175.043671,48.094753 
	C175.023239,47.475578 175.002792,46.856411 174.933014,45.775169 
	C174.877609,45.054249 174.997757,44.884903 175.408463,44.830524 
	C175.962234,44.996029 176.351669,45.136070 177.081970,45.677101 
	C176.629807,46.750309 175.836746,47.422535 175.043671,48.094753 
z"/>
<path fill="#D0DFD2" opacity="1.000000" stroke="none" 
	d="
M272.988464,157.674011 
	C272.375671,157.609848 271.698822,157.253815 270.961121,156.594025 
	C271.574982,156.654221 272.249725,157.018188 272.988464,157.674011 
z"/>
<path fill="#DCE7DD" opacity="1.000000" stroke="none" 
	d="
M270.209717,148.128677 
	C270.521973,147.785004 271.080017,147.530304 271.760559,147.453430 
	C271.407227,147.826736 270.931396,148.022186 270.209717,148.128677 
z"/>
<path fill="#D0DFD2" opacity="1.000000" stroke="none" 
	d="
M274.557434,175.232574 
	C274.557190,175.592453 274.729858,176.304489 274.620605,177.056549 
	C274.469208,176.592621 274.599762,176.088669 274.557434,175.232574 
z"/>
<path fill="#C6D5C8" opacity="1.000000" stroke="none" 
	d="
M196.540070,25.489815 
	C195.799423,25.744364 194.697723,25.850861 193.357178,25.802197 
	C194.138550,25.545279 195.158798,25.443520 196.540070,25.489815 
z"/>
<path fill="#C6D5C8" opacity="1.000000" stroke="none" 
	d="
M285.428772,26.880989 
	C284.872375,26.754263 284.463104,26.422791 283.991577,25.826347 
	C284.478180,25.932997 285.027008,26.304621 285.428772,26.880989 
z"/>
<path fill="#7D9482" opacity="1.000000" stroke="none" 
	d="
M285.753784,242.744659 
	C285.474274,242.207748 285.345428,241.271713 285.405060,240.102051 
	C285.697205,240.694122 285.800842,241.519821 285.753784,242.744659 
z"/>
<path fill="#7D9482" opacity="1.000000" stroke="none" 
	d="
M285.792450,285.766541 
	C285.519348,285.500153 285.374420,284.859833 285.437836,284.042572 
	C285.737640,284.374603 285.829132,284.883606 285.792450,285.766541 
z"/>
<path fill="#7D9482" opacity="1.000000" stroke="none" 
	d="
M285.751404,253.770081 
	C285.457672,253.495377 285.298462,252.845230 285.354187,252.023315 
	C285.674713,252.365906 285.780304,252.880280 285.751404,253.770081 
z"/>
<path fill="#7D9482" opacity="1.000000" stroke="none" 
	d="
M285.705261,249.775375 
	C285.440552,249.498596 285.294983,248.844147 285.372070,248.021667 
	C285.671295,248.368317 285.747864,248.883011 285.705261,249.775375 
z"/>
<path fill="#DCE7DD" opacity="1.000000" stroke="none" 
	d="
M274.621552,143.822739 
	C274.256531,143.930923 273.793396,143.780228 273.174042,143.434937 
	C273.519714,143.348175 274.021545,143.456024 274.621552,143.822739 
z"/>
<path fill="#EDF5ED" opacity="1.000000" stroke="none" 
	d="
M274.018738,159.653320 
	C273.841003,160.171921 273.624115,160.466232 273.163391,160.891129 
	C272.919525,161.021713 272.694489,160.936768 272.705139,160.870636 
	C272.733551,160.500229 272.751251,160.195969 273.071411,159.463074 
	C273.373840,159.034439 273.754120,159.033417 273.754120,159.033417 
	C273.754120,159.033417 273.979645,159.429016 274.018738,159.653320 
z"/>
<path fill="#D0DFD2" opacity="1.000000" stroke="none" 
	d="
M274.627991,170.021484 
	C274.524628,170.075302 274.608307,170.050720 274.596802,170.075851 
	C274.585266,170.100983 274.731354,169.967651 274.627991,170.021484 
z"/>
<path fill="#C6D5C8" opacity="1.000000" stroke="none" 
	d="
M176.942490,43.362976 
	C177.151489,43.523712 177.106033,43.696617 176.819702,43.894043 
	C176.580017,43.737190 176.616425,43.556049 176.942490,43.362976 
z"/>
<path fill="#C6D5C8" opacity="1.000000" stroke="none" 
	d="
M114.128342,44.712490 
	C114.048370,44.910313 113.808167,44.967060 113.201363,44.970787 
	C113.212547,44.802319 113.590324,44.686867 114.128342,44.712490 
z"/>
<path fill="#BECEC1" opacity="1.000000" stroke="none" 
	d="
M172.961578,47.135307 
	C173.222092,47.218601 173.275436,47.444660 173.260452,47.666088 
	C173.256119,47.730061 173.055450,47.780743 172.755234,47.816971 
	C172.619934,47.623055 172.674179,47.449684 172.961578,47.135307 
z"/>
<path fill="#D0DFD2" opacity="1.000000" stroke="none" 
	d="
M268.313782,174.081818 
	C268.287537,173.922745 268.725922,173.920563 268.779297,174.024323 
	C268.832672,174.128098 268.630768,174.378067 268.630768,174.378067 
	C268.630768,174.378067 268.339996,174.240891 268.313782,174.081818 
z"/>
<path fill="#7D9482" opacity="1.000000" stroke="none" 
	d="
M285.711792,208.827087 
	C285.427643,208.933105 285.248505,208.726501 285.140167,208.487762 
	C285.093445,208.384842 285.193115,208.215469 285.407288,207.961121 
	C285.674072,208.064468 285.759827,208.282944 285.711792,208.827087 
z"/>
<path fill="#D0DFD2" opacity="1.000000" stroke="none" 
	d="
M268.984619,169.756531 
	C269.079041,169.965942 268.641266,170.013397 268.641266,170.013397 
	C268.641266,170.013397 268.241455,169.828903 268.127747,169.640564 
	C268.324432,169.314316 268.616516,169.345932 268.984619,169.756531 
z"/>
<path fill="#DBEADB" opacity="1.000000" stroke="none" 
	d="
M143.138321,33.698284 
	C142.926605,33.446022 143.044662,33.215214 143.477127,32.987213 
	C143.730972,33.245869 143.623169,33.489109 143.138321,33.698284 
z"/>
<path fill="#7D9482" opacity="1.000000" stroke="none" 
	d="
M285.717255,200.820053 
	C285.466766,200.795425 285.338837,200.441193 285.387115,199.965363 
	C285.655487,200.059341 285.747650,200.274887 285.717255,200.820053 
z"/>
<path fill="#D0DFD2" opacity="1.000000" stroke="none" 
	d="
M266.215027,167.755554 
	C266.131927,167.849060 265.847717,167.661957 265.875916,167.572845 
	C265.904114,167.483719 266.154541,167.455338 266.154541,167.455338 
	C266.154541,167.455338 266.298157,167.662033 266.215027,167.755554 
z"/>
<path fill="#7D9482" opacity="1.000000" stroke="none" 
	d="
M285.750000,224.830811 
	C285.459564,224.923798 285.297455,224.714767 285.205200,224.478470 
	C285.164581,224.374466 285.265991,224.214996 285.481079,223.971680 
	C285.741760,224.081009 285.824219,224.299362 285.750000,224.830811 
z"/>
<path fill="#C6D5C8" opacity="1.000000" stroke="none" 
	d="
M272.708191,25.553181 
	C272.923248,25.662519 272.640564,25.917265 272.640564,25.917265 
	C272.640564,25.917265 272.256500,25.902603 272.170837,25.802008 
	C272.085175,25.701412 272.493164,25.443842 272.708191,25.553181 
z"/>
<path fill="#C6D5C8" opacity="1.000000" stroke="none" 
	d="
M225.715271,25.514400 
	C225.935272,25.629082 225.634354,25.891327 225.634354,25.891327 
	C225.634354,25.891327 225.234680,25.862492 225.149231,25.753658 
	C225.063797,25.644825 225.495255,25.399717 225.715271,25.514400 
z"/>
<path fill="#7D9482" opacity="1.000000" stroke="none" 
	d="
M285.705414,245.829132 
	C285.425964,245.933380 285.238861,245.726562 285.125946,245.485077 
	C285.078857,245.384338 285.189545,245.209839 285.417236,244.957321 
	C285.679901,245.065186 285.753815,245.284607 285.705414,245.829132 
z"/>
<path fill="#7D9482" opacity="1.000000" stroke="none" 
	d="
M285.163696,288.806763 
	C284.871216,288.544891 284.946014,288.251068 285.354553,287.904297 
	C285.519196,288.129486 285.466736,288.437317 285.163696,288.806763 
z"/>
<path fill="#EDF5ED" opacity="1.000000" stroke="none" 
	d="
M182.865417,143.143906 
	C182.807541,143.376007 182.540222,143.541351 182.253448,143.453751 
	C182.233994,143.200821 182.655945,143.077133 182.865417,143.143906 
z"/>
<path fill="#ADBCB0" opacity="1.000000" stroke="none" 
	d="
M285.127441,133.592438 
	C284.725281,133.347122 284.737549,133.154419 285.114929,132.966644 
	C285.278198,132.958984 285.576904,133.271103 285.576904,133.271103 
	C285.576904,133.271103 285.339966,133.632477 285.127441,133.592438 
z"/>
<path fill="#DCE7DD" opacity="1.000000" stroke="none" 
	d="
M275.555573,144.800995 
	C275.340942,144.944031 275.165588,144.827301 274.993591,144.474472 
	C275.211517,144.283142 275.410828,144.384109 275.555573,144.800995 
z"/>
<path fill="#DCE7DD" opacity="1.000000" stroke="none" 
	d="
M225.657135,146.305511 
	C225.769150,146.116150 226.121796,146.083649 227.006378,146.094070 
	C226.991486,146.245453 226.444611,146.353912 225.657135,146.305511 
z"/>
<path fill="#D5E3D7" opacity="1.000000" stroke="none" 
	d="
M278.738586,147.867615 
	C278.500092,148.041702 278.278900,147.912781 278.057861,147.494812 
	C278.307770,147.278610 278.540405,147.398224 278.738586,147.867615 
z"/>
<path fill="#D5E3D7" opacity="1.000000" stroke="none" 
	d="
M279.711304,148.844635 
	C279.457184,149.020950 279.227936,148.874619 279.001678,148.420532 
	C279.258484,148.216095 279.502289,148.352478 279.711304,148.844635 
z"/>
<path fill="#ADBCB0" opacity="1.000000" stroke="none" 
	d="
M285.494263,129.760620 
	C285.248505,129.735855 285.125732,129.439667 285.168823,129.053986 
	C285.428864,129.139389 285.523041,129.314285 285.494263,129.760620 
z"/>
<path fill="#DCE7DD" opacity="1.000000" stroke="none" 
	d="
M264.356323,150.145065 
	C264.302582,150.046753 264.504944,149.877274 264.570404,149.902527 
	C264.635864,149.927780 264.410095,150.243378 264.356323,150.145065 
z"/>
<path fill="#D5E3D7" opacity="1.000000" stroke="none" 
	d="
M285.297913,154.650040 
	C285.328644,154.765228 285.168610,154.445129 284.988525,154.440659 
	C284.808441,154.436188 284.851318,154.443115 284.869110,154.432159 
	C284.886902,154.421219 285.267151,154.534851 285.297913,154.650040 
z"/>
<path fill="#BECEC1" opacity="1.000000" stroke="none" 
	d="
M171.888687,48.466682 
	C172.022263,48.464203 171.972107,48.863678 171.867462,48.892414 
	C171.762833,48.921150 171.617584,48.697620 171.617584,48.697620 
	C171.617584,48.697620 171.755112,48.469162 171.888687,48.466682 
z"/>
<path fill="#DCE7DD" opacity="1.000000" stroke="none" 
	d="
M251.970810,156.495361 
	C252.105743,156.515823 252.085617,156.856659 251.999878,157.004379 
	C251.653366,156.986740 251.627274,156.761002 251.970810,156.495361 
z"/>
<path fill="#DCE7DD" opacity="1.000000" stroke="none" 
	d="
M257.081543,157.678314 
	C256.907257,157.529816 256.957428,157.369217 257.193298,157.164841 
	C257.455536,157.302780 257.431213,157.484497 257.081543,157.678314 
z"/>
<path fill="#D0DFD2" opacity="1.000000" stroke="none" 
	d="
M273.768646,158.773529 
	C273.754120,159.033417 273.373840,159.034439 273.184143,159.019989 
	C272.984558,158.829132 272.974670,158.652710 272.999847,158.213409 
	C273.284302,158.138214 273.533752,158.325928 273.768646,158.773529 
z"/>
<path fill="#BECEC1" opacity="1.000000" stroke="none" 
	d="
M171.570969,54.215179 
	C171.848602,54.105259 171.994537,54.252392 172.058380,54.644592 
	C171.783539,54.792839 171.604553,54.653690 171.570969,54.215179 
z"/>
<path fill="#DCE7DD" opacity="1.000000" stroke="none" 
	d="
M251.765640,166.326187 
	C251.879654,166.235764 252.098419,166.544876 252.080841,166.641327 
	C251.818756,166.768036 251.681549,166.660965 251.765640,166.326187 
z"/>
<path fill="#D0DFD2" opacity="1.000000" stroke="none" 
	d="
M276.863770,168.527893 
	C277.065826,168.679260 277.025391,168.841660 276.746155,169.016388 
	C276.524750,168.862457 276.562714,168.699173 276.863770,168.527893 
z"/>
<path fill="#030403" opacity="1.000000" stroke="none" 
	d="
M289.529846,41.013378 
	C293.199432,43.293018 293.804626,46.215134 292.192535,49.706688 
	C290.385590,53.620159 288.584320,57.536232 286.625031,61.751007 
	C285.758850,63.281490 285.048157,64.512146 284.063904,66.086853 
	C283.790344,66.430916 283.685516,66.670387 283.685516,66.670387 
	C283.685516,66.670387 283.865082,66.860153 283.865112,66.860161 
	C283.392517,67.475250 282.919952,68.090332 282.066223,69.068054 
	C281.449127,69.560165 281.341034,69.759094 281.360748,70.027481 
	C280.335480,71.508881 279.310211,72.990273 277.862396,74.929626 
	C262.105042,96.041664 244.635178,114.330719 221.273010,126.092773 
	C219.731033,126.768829 218.189072,127.444885 216.039597,128.175674 
	C215.106461,128.404160 214.780823,128.577911 214.455185,128.751663 
	C212.253616,129.267807 210.052048,129.783966 207.219116,130.283936 
	C206.133224,130.549301 205.678696,130.830856 205.224167,131.112427 
	C201.472183,131.106979 197.720184,131.101532 193.404236,130.816483 
	C192.532623,130.302200 192.240189,130.319855 191.962997,130.589844 
	C191.528442,130.473099 191.093872,130.356369 190.120346,129.998505 
	C189.015427,129.646454 188.449493,129.535522 187.883545,129.424576 
	C187.714355,129.352249 187.545181,129.279938 186.922607,128.889923 
	C185.633270,128.436798 184.797348,128.301392 183.961426,128.165970 
	C183.045044,127.299973 182.128677,126.433968 181.048843,125.295349 
	C176.266891,119.150795 175.426987,112.332634 177.068680,105.444412 
	C179.029480,97.217171 181.494690,89.066750 184.429901,81.137947 
	C185.501160,78.244247 188.548325,76.082039 191.158981,73.164322 
	C198.931946,65.399124 208.024017,61.646088 218.349564,59.627487 
	C222.169189,58.149261 225.625122,56.687027 229.469131,55.144909 
	C246.575729,50.325294 263.294250,45.585567 280.012756,40.845837 
	C283.034363,40.894630 286.055969,40.943424 289.529846,41.013378 
M232.921188,86.577927 
	C229.936966,83.726715 226.628632,82.805435 223.343018,85.792336 
	C220.377319,88.488396 219.987549,91.984718 222.555496,95.089142 
	C224.870804,97.888138 228.049423,98.551849 231.358490,96.495331 
	C235.198578,94.108803 235.555542,90.912849 232.921188,86.577927 
M209.218185,86.246437 
	C204.002533,82.972229 198.151367,84.896828 198.209579,90.217079 
	C198.234451,92.490425 199.980789,95.782867 201.874313,96.706146 
	C203.770874,97.630898 207.393829,96.952499 209.246216,95.594162 
	C212.326843,93.335175 211.812622,89.862541 209.218185,86.246437 
M225.657669,105.825638 
	C222.415604,103.978104 218.886566,103.964729 216.749023,106.853699 
	C215.496490,108.546577 215.344986,111.945580 216.123795,114.049347 
	C217.421417,117.554588 222.030029,118.428444 225.404922,116.529007 
	C228.669479,114.691666 229.010956,110.631310 225.657669,105.825638 
M194.442657,106.503090 
	C191.761871,108.603271 189.573776,111.439178 191.683395,114.520218 
	C193.123245,116.623055 196.356766,118.704407 198.700790,118.610504 
	C200.677109,118.531326 203.365952,115.639397 204.257782,113.401924 
	C206.081558,108.826447 202.101151,105.850525 194.442657,106.503090 
M250.304062,53.097424 
	C245.849045,51.638584 242.572189,53.106873 242.911697,56.863861 
	C243.088699,58.822601 244.685684,61.086895 246.319412,62.299683 
	C247.154099,62.919300 249.905411,61.988205 251.051300,60.945641 
	C253.539352,58.681957 253.071533,55.963959 250.304062,53.097424 
M265.409821,55.066383 
	C263.496124,56.521427 261.582458,57.976475 259.668762,59.431519 
	C261.146240,61.175556 262.351288,63.812519 264.189728,64.373428 
	C265.592041,64.801292 268.724915,63.024143 269.439331,61.470055 
	C270.674011,58.784206 269.989990,55.848560 265.409821,55.066383 
M276.053253,54.632214 
	C277.210052,52.528942 278.972656,50.502445 279.253296,48.288128 
	C279.382416,47.269207 276.608276,44.914890 275.150238,44.914616 
	C273.444550,44.914295 271.147614,46.441311 270.160339,47.981056 
	C268.322021,50.848106 270.421387,53.380535 276.053253,54.632214 
z"/>
<path fill="#080B09" opacity="1.000000" stroke="none" 
	d="
M279.761230,77.967979 
	C280.411133,78.202118 281.638702,78.469215 281.627502,78.665665 
	C281.216675,85.868172 280.396210,92.913963 274.460358,98.142845 
	C272.887878,99.528023 271.744232,101.400002 269.996765,103.575523 
	C269.067383,105.925011 267.925415,107.849953 268.205017,109.539658 
	C268.460632,111.084312 270.037262,112.728409 271.473145,113.608589 
	C272.076691,113.978600 274.715698,112.635315 274.840637,111.825684 
	C275.062500,110.388344 274.087219,108.759178 273.584229,107.219597 
	C273.261963,106.233139 272.888458,105.263428 272.537903,104.286209 
	C277.259064,101.312103 278.925964,101.945091 280.317657,107.866852 
	C280.352081,108.658249 280.394623,108.826309 280.437134,108.994370 
	C280.437134,115.948402 280.437134,122.902435 280.437134,128.878983 
	C272.611511,128.878983 264.505157,128.878983 255.829346,128.526337 
	C254.901352,127.983719 254.542831,127.793762 254.184311,127.603806 
	C254.056808,126.315407 253.929306,125.027008 254.177292,123.151535 
	C255.771179,122.500648 257.021515,122.234604 258.200470,122.420738 
	C259.938263,122.695091 261.677612,123.723732 263.306458,123.526047 
	C263.910187,123.452782 265.010376,120.217911 264.464172,119.489250 
	C263.446198,118.131142 261.293457,116.692200 259.785889,116.858070 
	C257.699982,117.087578 255.773834,118.769257 253.779297,119.829071 
	C248.439789,123.552231 244.226212,129.343887 237.005890,129.662827 
	C232.177032,129.876114 227.322647,129.511078 223.082718,129.111633 
	C233.786957,121.651917 243.876144,114.468292 254.008484,107.346069 
	C254.991577,106.655037 256.241486,106.343590 257.154663,106.266098 
	C257.165009,108.607857 257.388245,110.539452 257.621277,112.555794 
	C260.114014,112.926399 262.390778,113.264893 264.928558,113.642204 
	C264.341003,110.961525 263.863464,108.782898 263.410492,106.716316 
	C261.132019,106.444221 259.181274,106.211266 256.981537,105.698105 
	C264.408783,96.267921 272.085022,87.117950 279.761230,77.967979 
M271.400238,123.322716 
	C272.593964,123.618065 273.787659,123.913414 275.443085,124.323006 
	C274.924164,121.631226 274.510773,119.486839 274.089935,117.303909 
	C271.657349,117.017967 269.541290,116.769218 266.143829,116.369850 
	C268.012360,119.191727 269.297241,121.132149 271.400238,123.322716 
z"/>
<path fill="#D6E6D8" opacity="1.000000" stroke="none" 
	d="
M257.367554,105.855942 
	C256.241486,106.343590 254.991577,106.655037 254.008484,107.346069 
	C243.876144,114.468292 233.786957,121.651917 223.335236,128.823273 
	C222.615524,127.965073 222.246368,127.102058 221.575104,126.165909 
	C244.635178,114.330719 262.105042,96.041664 277.739502,75.242844 
	C278.403198,76.009598 278.767242,76.921097 279.446289,77.900291 
	C272.085022,87.117950 264.408783,96.267921 257.018677,105.670731 
	C257.304779,105.923569 257.367554,105.855934 257.367554,105.855942 
z"/>
<path fill="#CBD9CD" opacity="1.000000" stroke="none" 
	d="
M253.828125,120.341080 
	C255.773834,118.769257 257.699982,117.087578 259.785889,116.858070 
	C261.293457,116.692200 263.446198,118.131142 264.464172,119.489250 
	C265.010376,120.217911 263.910187,123.452782 263.306458,123.526047 
	C261.677612,123.723732 259.938263,122.695091 258.200470,122.420738 
	C257.021515,122.234604 255.771179,122.500648 254.255310,122.736649 
	C253.930893,122.223572 253.903915,121.538330 253.828125,120.341080 
z"/>
<path fill="#D0DCD1" opacity="1.000000" stroke="none" 
	d="
M271.946777,104.154022 
	C272.888458,105.263428 273.261963,106.233139 273.584229,107.219597 
	C274.087219,108.759178 275.062500,110.388344 274.840637,111.825684 
	C274.715698,112.635315 272.076691,113.978600 271.473145,113.608589 
	C270.037262,112.728409 268.460632,111.084312 268.205017,109.539658 
	C267.925415,107.849953 269.067383,105.925011 269.883667,103.921227 
	C270.570251,103.833855 270.962982,103.927841 271.946777,104.154022 
z"/>
<path fill="#BAC4BA" opacity="1.000000" stroke="none" 
	d="
M205.513306,131.196594 
	C205.678696,130.830856 206.133224,130.549301 206.848160,130.384796 
	C207.108551,130.501846 207.161621,130.916870 207.082672,131.111084 
	C206.603302,131.297104 206.202866,131.288940 205.513306,131.196594 
z"/>
<path fill="#D6E6D8" opacity="1.000000" stroke="none" 
	d="
M214.727661,128.812180 
	C214.780823,128.577911 215.106461,128.404160 215.707367,128.320007 
	C215.655136,128.563950 215.327637,128.718323 214.727661,128.812180 
z"/>
<path fill="#CBD9CD" opacity="1.000000" stroke="none" 
	d="
M254.292206,127.916496 
	C254.542831,127.793762 254.901352,127.983719 255.418274,128.439941 
	C255.184494,128.547195 254.792282,128.388184 254.292206,127.916496 
z"/>
<path fill="#D0DCD1" opacity="1.000000" stroke="none" 
	d="
M280.588928,108.923553 
	C280.394623,108.826309 280.352081,108.658249 280.435242,108.262512 
	C280.674713,108.210281 280.811279,108.376343 280.889587,108.566414 
	C280.916016,108.630539 280.794556,108.755554 280.588928,108.923553 
z"/>
<path fill="#C6D5C8" opacity="1.000000" stroke="none" 
	d="
M281.538635,69.998993 
	C281.341034,69.759094 281.449127,69.560165 281.860657,69.399117 
	C282.067139,69.641396 281.960571,69.842384 281.538635,69.998993 
z"/>
<path fill="#C6D5C8" opacity="1.000000" stroke="none" 
	d="
M283.972473,66.829330 
	C283.865082,66.860153 283.685516,66.670387 283.685516,66.670387 
	C283.685516,66.670387 283.790344,66.430916 283.920288,66.412811 
	C284.050201,66.394714 284.079895,66.798515 283.972473,66.829330 
z"/>
<path fill="#101311" opacity="1.000000" stroke="none" 
	d="
M71.282623,28.715807 
	C75.725166,28.715807 80.167709,28.715807 85.085686,28.715807 
	C83.073967,33.097218 80.148651,34.043732 76.392059,32.607090 
	C74.553711,31.904047 72.887024,30.752153 71.101807,29.369499 
	C71.060974,28.935591 71.282623,28.715807 71.282623,28.715807 
z"/>
<path fill="#101311" opacity="1.000000" stroke="none" 
	d="
M70.949516,29.044844 
	C70.683846,28.982872 70.529625,28.811646 70.375412,28.640419 
	C70.596909,28.565517 70.818413,28.490616 71.161270,28.565762 
	C71.282623,28.715807 71.060974,28.935591 70.949516,29.044844 
z"/>
<path fill="#040605" opacity="1.000000" stroke="none" 
	d="
M209.837158,38.996498 
	C215.679916,32.460693 223.032761,29.545063 231.744949,29.583992 
	C248.003296,29.656645 264.262177,29.604862 281.445953,29.604862 
	C281.178864,32.699841 280.934418,35.532593 279.911682,38.539780 
	C277.407776,38.943447 275.682098,39.172684 273.697327,39.485580 
	C272.754669,39.725430 272.071198,39.881611 271.097107,40.342297 
	C267.725494,41.118649 264.530975,41.221443 261.583801,42.128197 
	C250.630585,45.498165 239.758728,49.132610 228.506042,52.816086 
	C224.770523,54.309086 221.385269,55.653740 217.610031,57.041718 
	C216.760010,57.301323 216.299973,57.517601 215.703918,57.677032 
	C215.350616,57.680408 215.228745,57.822563 214.779663,58.069733 
	C207.435165,60.147377 202.110992,58.723679 198.549988,53.588985 
	C201.008408,53.593155 203.059921,53.765507 205.214767,53.946545 
	C204.916916,51.576363 204.664185,49.565182 204.414673,47.579636 
	C202.272720,47.141811 200.261154,46.730640 198.183044,46.305870 
	C198.183044,48.962948 198.183044,51.378376 197.882904,53.518234 
	C196.342026,51.776215 195.159332,50.254810 193.840591,48.862247 
	C192.931198,47.901955 191.946579,46.902035 190.795776,46.304970 
	C188.593353,45.162300 186.248535,44.294041 183.962814,43.311909 
	C183.050491,39.029568 182.138168,34.747231 181.047012,29.625429 
	C183.511917,30.293505 185.596191,31.302658 187.697250,31.338907 
	C192.650330,31.424356 197.617813,30.823866 202.566071,30.966333 
	C204.508301,31.022255 206.924973,31.866837 208.140198,33.230419 
	C208.834549,34.009533 207.545700,36.556084 206.576599,38.719955 
	C205.350815,38.883743 204.672363,38.686043 204.050735,38.374844 
	C202.523392,37.610222 201.022202,36.793346 199.510498,35.997482 
	C198.882019,37.369606 197.378464,39.239365 197.814514,40.006115 
	C198.622757,41.427383 200.867249,43.326771 201.974915,43.028240 
	C204.755859,42.278740 207.236252,40.414009 209.837158,38.996498 
M194.021118,37.042591 
	C191.694412,36.593472 189.367706,36.144352 186.762863,35.641544 
	C187.154114,38.076523 187.482773,40.122044 187.848663,42.399227 
	C189.735428,42.591297 191.632568,42.784424 193.822205,43.007324 
	C193.944580,41.104134 194.047852,39.498234 194.021118,37.042591 
z"/>
<path fill="#D0DFD2" opacity="1.000000" stroke="none" 
	d="
M198.143066,53.757172 
	C202.110992,58.723679 207.435165,60.147377 214.896790,58.041786 
	C215.436554,57.990753 215.839951,57.733879 215.839951,57.733879 
	C216.299973,57.517601 216.760010,57.301323 217.613831,57.372375 
	C218.000366,58.320969 217.993118,58.982224 217.985855,59.643482 
	C208.024017,61.646088 198.931946,65.399124 191.305969,72.859879 
	C190.574524,72.595818 190.161011,72.214417 189.502487,71.324921 
	C193.942276,67.244301 198.627060,63.671776 203.131149,60.237041 
	C194.685257,54.998692 192.093674,55.247517 184.102142,62.423000 
	C182.754822,63.632736 181.362640,64.792534 179.991196,65.975410 
	C179.991196,65.975410 179.979553,65.634674 180.174591,65.122108 
	C184.209854,60.609322 188.050110,56.609097 191.783508,52.720184 
	C189.217987,50.656136 185.675232,47.805878 182.132477,44.955620 
	C182.704910,44.590191 183.277359,44.224762 183.906311,43.585617 
	C186.248535,44.294041 188.593353,45.162300 190.795776,46.304970 
	C191.946579,46.902035 192.931198,47.901955 193.840591,48.862247 
	C195.159332,50.254810 196.342026,51.776215 197.873108,53.505669 
	C198.163452,53.768673 198.143066,53.757172 198.143066,53.757172 
z"/>
<path fill="#020202" opacity="1.000000" stroke="none" 
	d="
M181.768463,44.894142 
	C185.675232,47.805878 189.217987,50.656136 191.783508,52.720184 
	C188.050110,56.609097 184.209854,60.609322 180.207672,64.954887 
	C176.174530,60.482071 173.907913,55.156170 174.937424,48.457832 
	C175.836746,47.422535 176.629807,46.750309 177.668655,45.880028 
	C179.077789,45.398869 180.241119,45.115765 181.768463,44.894142 
z"/>
<path fill="#D4E8D7" opacity="1.000000" stroke="none" 
	d="
M228.856323,52.667747 
	C239.758728,49.132610 250.630585,45.498165 261.583801,42.128197 
	C264.530975,41.221443 267.725494,41.118649 271.376190,40.371704 
	C272.616089,39.865044 273.286255,39.633480 273.956451,39.401917 
	C275.682098,39.172684 277.407776,38.943447 279.566956,38.792675 
	C279.998291,39.309994 279.996124,39.748848 280.003357,40.516769 
	C263.294250,45.585567 246.575729,50.325294 229.422165,54.719604 
	C228.943512,53.805370 228.899918,53.236557 228.856323,52.667747 
z"/>
<path fill="#DBEADB" opacity="1.000000" stroke="none" 
	d="
M209.455109,38.997490 
	C207.236252,40.414009 204.755859,42.278740 201.974915,43.028240 
	C200.867249,43.326771 198.622757,41.427383 197.814514,40.006115 
	C197.378464,39.239365 198.882019,37.369606 199.510498,35.997482 
	C201.022202,36.793346 202.523392,37.610222 204.050735,38.374844 
	C204.672363,38.686043 205.350815,38.883743 206.393799,39.019264 
	C207.547165,38.936462 208.310104,38.967472 209.455109,38.997490 
z"/>
<path fill="#101311" opacity="1.000000" stroke="none" 
	d="
M282.002014,238.017853 
	C281.078827,237.820328 279.789337,237.441803 279.302124,236.599304 
	C276.719818,232.133774 277.653564,228.860809 282.005890,227.217438 
	C282.005890,230.753830 282.005890,234.188278 282.002014,238.017853 
z"/>
<path fill="#080B09" opacity="1.000000" stroke="none" 
	d="
M179.999237,66.370010 
	C181.362640,64.792534 182.754822,63.632736 184.102142,62.423000 
	C192.093674,55.247517 194.685257,54.998692 203.131149,60.237041 
	C198.627060,63.671776 193.942276,67.244301 189.116608,71.146027 
	C187.415039,73.302315 185.854370,75.129387 183.878845,77.442139 
	C182.340775,73.200249 181.174026,69.982422 179.999237,66.370010 
z"/>
<path fill="#BAC4BA" opacity="1.000000" stroke="none" 
	d="
M187.913422,129.680176 
	C188.449493,129.535522 189.015427,129.646454 189.779358,129.991287 
	C189.299332,130.128723 188.621323,130.032257 187.913422,129.680176 
z"/>
<path fill="#BAC4BA" opacity="1.000000" stroke="none" 
	d="
M184.085129,128.484161 
	C184.797348,128.301392 185.633270,128.436798 186.652893,128.831451 
	C185.960678,128.994568 185.084747,128.898453 184.085129,128.484161 
z"/>
<path fill="#BAC4BA" opacity="1.000000" stroke="none" 
	d="
M192.072754,130.794189 
	C192.240189,130.319855 192.532623,130.302200 192.946991,130.751221 
	C193.053711,130.965576 192.624146,131.140747 192.624146,131.140747 
	C192.624146,131.140747 192.182526,130.998520 192.072754,130.794189 
z"/>
<path fill="#E3EBE4" opacity="1.000000" stroke="none" 
	d="
M233.144257,86.886581 
	C235.555542,90.912849 235.198578,94.108803 231.358490,96.495331 
	C228.049423,98.551849 224.870804,97.888138 222.555496,95.089142 
	C219.987549,91.984718 220.377319,88.488396 223.343018,85.792336 
	C226.628632,82.805435 229.936966,83.726715 233.144257,86.886581 
z"/>
<path fill="#E6EEE8" opacity="1.000000" stroke="none" 
	d="
M209.471771,86.513390 
	C211.812622,89.862541 212.326843,93.335175 209.246216,95.594162 
	C207.393829,96.952499 203.770874,97.630898 201.874313,96.706146 
	C199.980789,95.782867 198.234451,92.490425 198.209579,90.217079 
	C198.151367,84.896828 204.002533,82.972229 209.471771,86.513390 
z"/>
<path fill="#E7EFE7" opacity="1.000000" stroke="none" 
	d="
M225.965256,106.017166 
	C229.010956,110.631310 228.669479,114.691666 225.404922,116.529007 
	C222.030029,118.428444 217.421417,117.554588 216.123795,114.049347 
	C215.344986,111.945580 215.496490,108.546577 216.749023,106.853699 
	C218.886566,103.964729 222.415604,103.978104 225.965256,106.017166 
z"/>
<path fill="#EBF2EB" opacity="1.000000" stroke="none" 
	d="
M194.811981,106.343430 
	C202.101151,105.850525 206.081558,108.826447 204.257782,113.401924 
	C203.365952,115.639397 200.677109,118.531326 198.700790,118.610504 
	C196.356766,118.704407 193.123245,116.623055 191.683395,114.520218 
	C189.573776,111.439178 191.761871,108.603271 194.811981,106.343430 
z"/>
<path fill="#DBE6DC" opacity="1.000000" stroke="none" 
	d="
M250.618347,53.303810 
	C253.071533,55.963959 253.539352,58.681957 251.051300,60.945641 
	C249.905411,61.988205 247.154099,62.919300 246.319412,62.299683 
	C244.685684,61.086895 243.088699,58.822601 242.911697,56.863861 
	C242.572189,53.106873 245.849045,51.638584 250.618347,53.303810 
z"/>
<path fill="#D8E2D7" opacity="1.000000" stroke="none" 
	d="
M265.811432,55.073761 
	C269.989990,55.848560 270.674011,58.784206 269.439331,61.470055 
	C268.724915,63.024143 265.592041,64.801292 264.189728,64.373428 
	C262.351288,63.812519 261.146240,61.175556 259.668762,59.431519 
	C261.582458,57.976475 263.496124,56.521427 265.811432,55.073761 
z"/>
<path fill="#DCE7DD" opacity="1.000000" stroke="none" 
	d="
M275.695312,54.732086 
	C270.421387,53.380535 268.322021,50.848106 270.160339,47.981056 
	C271.147614,46.441311 273.444550,44.914295 275.150238,44.914616 
	C276.608276,44.914890 279.382416,47.269207 279.253296,48.288128 
	C278.972656,50.502445 277.210052,52.528942 275.695312,54.732086 
z"/>
<path fill="#CBD9CD" opacity="1.000000" stroke="none" 
	d="
M228.506042,52.816090 
	C228.899918,53.236557 228.943512,53.805370 229.034073,54.799484 
	C225.625122,56.687027 222.169189,58.149261 218.349564,59.627487 
	C217.993118,58.982224 218.000366,58.320969 218.003830,57.329056 
	C221.385269,55.653740 224.770523,54.309086 228.506042,52.816090 
z"/>
<path fill="#CBD9CD" opacity="1.000000" stroke="none" 
	d="
M257.267639,105.950943 
	C259.181274,106.211266 261.132019,106.444221 263.410492,106.716316 
	C263.863464,108.782898 264.341003,110.961525 264.928558,113.642204 
	C262.390778,113.264893 260.114014,112.926399 257.621277,112.555794 
	C257.388245,110.539452 257.165009,108.607857 257.154663,106.266098 
	C257.367554,105.855934 257.304779,105.923569 257.267639,105.950943 
z"/>
<path fill="#CBD9CD" opacity="1.000000" stroke="none" 
	d="
M270.991150,123.197647 
	C269.297241,121.132149 268.012360,119.191727 266.143829,116.369850 
	C269.541290,116.769218 271.657349,117.017967 274.089935,117.303909 
	C274.510773,119.486839 274.924164,121.631226 275.443085,124.323006 
	C273.787659,123.913414 272.593964,123.618065 270.991150,123.197647 
z"/>
<path fill="#D0DCD1" opacity="1.000000" stroke="none" 
	d="
M198.549988,53.588985 
	C198.143066,53.757172 198.163452,53.768673 198.173248,53.781239 
	C198.183044,51.378376 198.183044,48.962948 198.183044,46.305870 
	C200.261154,46.730640 202.272720,47.141811 204.414673,47.579636 
	C204.664185,49.565182 204.916916,51.576363 205.214767,53.946545 
	C203.059921,53.765507 201.008408,53.593155 198.549988,53.588985 
z"/>
<path fill="#CBD9CD" opacity="1.000000" stroke="none" 
	d="
M194.086121,37.467461 
	C194.047852,39.498234 193.944580,41.104134 193.822205,43.007324 
	C191.632568,42.784424 189.735428,42.591297 187.848663,42.399227 
	C187.482773,40.122044 187.154114,38.076523 186.762863,35.641544 
	C189.367706,36.144352 191.694412,36.593472 194.086121,37.467461 
z"/>
<path fill="#C6D5C8" opacity="1.000000" stroke="none" 
	d="
M273.697327,39.485584 
	C273.286255,39.633480 272.616089,39.865044 271.666809,40.067200 
	C272.071198,39.881611 272.754669,39.725430 273.697327,39.485584 
z"/>
<path fill="#CBD9CD" opacity="1.000000" stroke="none" 
	d="
M215.703918,57.677032 
	C215.839951,57.733879 215.436554,57.990753 215.319427,58.018703 
	C215.228745,57.822563 215.350616,57.680408 215.703918,57.677032 
z"/>
</svg>