<?xml version="1.0" encoding="UTF-8"?>
<!-- Generated by Pixelmator Pro 3.6.5 -->
<svg width="76" height="76" viewBox="0 0 76 76" xmlns="http://www.w3.org/2000/svg">
    <path id="path1" fill="#f6f5f3" stroke="none" d="M 16.882996 54.04866 C 16.868797 50.929146 16.854601 47.809631 17.329037 44.326557 C 18.228615 43.916588 18.639565 43.870174 19.41605 43.882874 C 20.522886 43.960037 21.264183 43.978088 22.338978 43.99276 C 23.117126 43.994133 23.561781 43.998886 24.25058 44.278904 C 26.329111 44.369846 28.163496 44.18552 30.302963 43.999855 C 31.013765 44.011677 31.419483 44.024841 32.110641 44.030823 C 32.583702 44.055759 32.771324 44.087879 33.1656 44.410793 C 34.550785 44.845852 35.729317 44.990108 36.890266 45.548096 C 36.898865 47.067211 36.925045 48.172592 36.973305 49.665787 C 37.003582 51.357586 37.01178 52.661583 36.550358 53.975082 C 29.68149 54.005943 23.282244 54.027302 16.882996 54.04866 Z"/>
    <path id="path2" fill="#f2f1ec" stroke="none" d="M 56.056576 39.024021 C 56.376503 39.081749 56.626266 39.246094 56.789742 40.089043 C 56.77422 41.383171 56.77483 42.105309 56.745697 42.831253 C 56.71595 42.835056 56.68465 42.888832 56.516716 43.023304 C 56.1716 43.398186 56.081532 43.667744 56.051987 44.216728 C 56.023647 44.634789 56.021893 44.802567 56.012306 45.402885 C 56.335804 48.222832 56.667145 50.610233 57.004627 53.234825 C 57.010773 53.472015 57.021889 53.946426 57.01226 54.213898 C 57.008053 54.658955 57.013474 54.836544 57.009476 55.007095 C 57.000057 55.000057 57.017071 55.012245 56.748268 55.004162 C 56.300484 55.001858 56.121498 55.007641 55.704338 55.007988 C 55.46616 55.002556 54.989819 54.991268 54.779499 54.729897 C 53.369205 54.651245 52.169235 54.833969 50.64077 55.011921 C 49.874214 55.00351 49.43615 54.999874 48.992798 54.614738 C 48.704071 51.054184 46.734802 50.204575 44.273357 51.578346 C 41.758873 52.98172 41.998882 51.55822 41.88015 49.757423 C 41.584347 49.271435 41.322815 49.102085 41.012901 49.02269 C 41.029713 49.011993 41.044071 49.052425 41.02837 48.726608 C 41.021618 47.966293 41.030567 47.531796 41.356892 46.932144 C 44.409286 45.225189 47.939339 44.323715 47.547539 39.971123 C 48.969997 39.983444 50.007046 39.977802 51.242615 39.897148 C 51.716473 39.688927 51.882652 39.472073 52.351364 39.174919 C 53.860893 39.126846 54.958736 39.075432 56.056576 39.024021 Z"/>
    <path id="path3" fill="#fcfbfa" stroke="none" d="M 17.165014 68.75737 C 14.259836 69.702316 10.833978 71.881119 10.873163 65.982048 C 10.875299 65.660477 9.697323 65.14032 9.019189 65.036835 C 5.400564 64.484581 5.317178 62.487476 7.134542 59.388504 C 7.677986 58.93425 7.839534 58.886372 8.331303 58.902126 C 9.104739 58.914795 9.547956 58.863827 10.311663 58.869629 C 11.059774 58.879513 11.487395 58.832626 11.915017 58.785736 C 13.326116 58.857822 14.737213 58.929909 16.602062 59.314178 C 17.102808 60.0877 17.149801 60.549042 17.124418 61.382061 C 17.088383 62.506542 17.124723 63.259338 17.09787 64.383026 C 17.091616 65.501892 17.148556 66.249863 17.147629 67.288506 C 17.114845 67.971909 17.139929 68.364639 17.165014 68.75737 Z"/>
    <path id="path4" fill="#fbfbf8" stroke="none" d="M 69.043327 60.104717 C 68.021599 62.701019 67.342857 65.524765 65.83493 67.798645 C 65.069366 68.953064 62.809433 69.116493 61.068985 69.127319 C 60.648266 68.334908 60.383633 68.143097 60.089745 67.551346 C 60.317253 64.777771 60.574024 62.404148 60.90456 59.771282 C 60.987717 59.332722 60.997108 59.153412 61.004246 58.986946 C 61.001991 58.999786 60.979794 59.018356 60.979794 59.018356 C 62.690647 59.025005 64.401505 59.031651 66.874573 59.069115 C 68.096725 59.049812 68.556656 58.999702 68.955322 59.019768 C 68.894051 59.089951 68.882454 59.275921 68.889847 59.489491 C 68.89724 59.70306 69.043327 60.104717 69.043327 60.104717 Z"/>
    <path id="path5" fill="#fefefd" stroke="none" d="M 47.047306 60.088783 C 47.018177 60.821083 46.989052 61.553383 46.693829 62.774475 C 46.186859 63.483685 46.055008 63.756744 46.032177 64.082458 C 43.269711 64.119736 40.507248 64.157005 37.37574 63.628643 C 36.679428 59.892197 38.774574 59.888649 40.990288 60.327686 C 41.107067 61.152748 41.211063 61.676147 41.315063 62.199543 C 41.488438 62.19281 41.661812 62.186077 41.835182 62.17934 C 41.897888 61.462315 41.960594 60.745285 42.360397 60.016815 C 43.471664 59.668835 44.245834 59.332291 45.256649 58.997395 C 45.493294 58.999043 45.966591 59.001774 46.221161 59.004646 C 46.645298 59.000229 46.814865 58.992943 46.991203 58.991936 C 46.997974 58.998207 46.980865 58.981522 46.961288 59.260506 C 46.976913 59.722591 47.012108 59.905689 47.047306 60.088783 Z"/>
    <path id="path6" fill="#fb714c" stroke="none" d="M 17.196793 61.01038 C 17.149801 60.549042 17.102808 60.0877 17.026415 59.27903 C 16.997015 58.931694 16.999111 59.000088 17.31163 59.006573 C 18.082048 59.06789 18.539944 59.122726 19.300423 59.426907 C 21.762218 59.809147 23.921432 59.942043 26.080645 60.074944 C 25.964771 61.281097 25.848896 62.487251 25.065374 63.857239 C 23.607708 64.370804 22.817688 64.720528 22.027668 65.070251 C 22.027668 65.070251 21.997738 65.007668 21.760891 65.007912 C 21.34553 65.006348 21.167017 65.004547 20.671764 64.97702 C 19.574415 64.634651 18.793804 64.318001 18.007092 63.676315 C 17.732924 62.570984 17.464859 61.79068 17.196793 61.01038 Z"/>
    <path id="path7" fill="#f96b47" stroke="none" d="M 60.830795 60.030529 C 60.574024 62.404148 60.317253 64.777771 59.721096 67.568375 C 58.644154 67.983421 57.906597 67.981491 57.169041 67.979561 C 56.781639 66.915985 56.394238 65.852402 55.99762 64.027985 C 55.993191 62.182022 55.997974 61.096905 56.40699 60.006561 C 58.151073 60.01107 59.490936 60.020802 60.830795 60.030529 Z"/>
    <path id="path8" fill="#fdfdfc" stroke="none" d="M 18.997841 59.177559 C 18.539944 59.122726 18.082048 59.06789 17.277443 59.007935 C 16.963251 57.937057 16.995771 56.871307 17.542463 55.407059 C 20.701107 55.010792 23.345579 55.01302 25.994671 55.39613 C 25.991842 56.787384 25.984392 57.79776 25.543098 58.860992 C 23.072117 59.001759 21.034979 59.089661 18.997841 59.177559 Z"/>
    <path id="path9" fill="#fdfcfc" stroke="none" d="M 47.061211 30.000931 C 48.15826 30.000931 49.255306 30.000931 50.529408 30.000931 C 50.915161 31.440136 51.295734 32.86002 51.683815 34.801922 C 51.691322 35.32394 51.625984 35.776089 51.441261 36.056877 C 51.185932 37.228836 51.115326 38.120003 51.01223 38.983353 C 50.97974 38.955528 50.894905 38.944435 50.52264 38.964809 C 49.156075 38.98093 48.161777 38.976673 47.104599 38.580269 C 47.08429 37.13279 47.126858 36.077457 47.457134 35.014107 C 48.209587 34.881382 48.674335 34.756676 50.46442 34.27634 C 48.421776 34.090595 47.798454 34.033916 47.113731 33.591568 C 47.051361 32.164486 47.0504 31.123077 47.055115 30.061783 C 47.060787 30.041901 47.061211 30.000931 47.061211 30.000931 Z"/>
    <path id="path10" fill="#fdfdfc" stroke="none" d="M 35.98243 19.990501 C 36.06707 18.11274 36.151714 16.234978 36.848774 14.173241 C 37.633255 13.991238 37.805321 13.993217 38.126377 14.224854 C 38.858353 14.30135 39.441334 14.148193 40.317451 13.995857 C 41.001434 13.997772 41.392284 13.998859 41.783131 13.999947 C 41.848763 15.38327 41.914394 16.766594 41.998672 18.756622 C 42.017319 19.363331 42.055183 19.742226 41.799141 19.766968 C 41.376713 19.831841 41.210331 19.871971 40.600044 19.863247 C 38.959724 19.861618 37.763302 19.908848 36.421135 19.970871 C 36.275387 19.985661 35.98243 19.990501 35.98243 19.990501 Z"/>
    <path id="path11" fill="#fdfcfc" stroke="none" d="M 31.413368 29.000679 C 31.425516 27.492008 31.437662 25.983337 31.981979 24.238831 C 32.514149 24.002991 32.984154 23.995865 33.131714 24.224358 C 33.857559 24.300632 34.435848 24.148415 35.266464 23.996307 C 35.855244 23.997261 36.191685 23.9981 36.646976 24.249352 C 36.84454 24.666756 36.92326 24.83374 36.945793 25.395916 C 36.832581 26.852402 36.775551 27.9137 36.544838 29.000607 C 36.371151 29.026211 36.046406 29.167484 35.59388 29.105774 C 33.92197 29.025764 32.702591 29.007469 31.466152 28.99448 C 31.449093 28.99979 31.413368 29.000679 31.413368 29.000679 Z"/>
    <path id="path12" fill="#fc5a43" stroke="none" d="M 11.94091 58.486172 C 11.487395 58.832626 11.059774 58.879513 10.125011 58.660034 C 9.082048 58.258377 8.546227 58.123077 8.004429 57.573086 C 7.990102 55.775959 7.981752 54.393528 7.983427 52.65506 C 8.001378 51.58762 8.009303 50.876217 8.017228 50.164818 C 8.764154 50.118107 9.511081 50.0714 10.62768 50.499557 C 11.272914 52.981731 11.548476 54.98904 11.824039 56.996349 C 11.871627 57.393101 11.919215 57.789852 11.94091 58.486172 Z"/>
    <path id="path13" fill="#e9e9e4" stroke="none" d="M 25.990049 55.015247 C 23.345579 55.01302 20.701107 55.010792 17.618668 55.014351 C 17.123627 54.860508 17.066551 54.700878 16.946236 54.294956 C 23.282244 54.027302 29.68149 54.005943 36.945961 53.988998 C 38.868237 53.97971 39.925289 53.966003 40.989651 54.214287 C 40.99836 54.65099 40.999763 54.82571 40.996464 55.004047 C 40.99176 55.007664 40.98175 55.016743 40.585842 55.008736 C 39.133991 55.006344 38.078053 55.011959 36.761368 55.016586 C 36.326801 55.015877 36.152973 55.016159 35.608059 55.008575 C 34.494038 55.004547 33.751102 55.008392 32.672241 55.008633 C 31.888378 55.0075 31.440441 55.009968 30.594784 55.007385 C 29.137486 55.010963 28.077909 55.019596 26.761301 55.021988 C 26.332861 55.015579 26.161455 55.015411 25.990049 55.015247 Z"/>
    <path id="path14" fill="#fefefe" stroke="none" d="M 42.055183 19.742226 C 42.055183 19.742226 42.017319 19.363331 42.01186 19.173023 C 43.076714 19.001297 44.14703 19.019882 45.699837 19.290386 C 46.343445 19.760391 46.552361 19.913055 46.809082 20.000305 C 46.860874 21.070393 46.912666 22.140476 46.581886 23.604294 C 45.804604 23.997391 45.409897 23.996758 44.656296 23.997017 C 43.582413 23.988091 42.867413 23.978275 42.100708 23.55183 C 42.051064 22.004211 42.053123 20.873219 42.055183 19.742226 Z"/>
    <path id="path15" fill="#fdfefd" stroke="none" d="M 31.168819 29.342781 C 31.413368 29.000679 31.449093 28.99979 31.576656 29.255058 C 31.789145 29.678886 31.874071 29.847443 31.912807 30.430935 C 31.752665 32.230392 31.63871 33.614918 31.418232 34.988304 C 31.311708 34.977169 31.098286 34.958862 30.86458 34.71035 C 29.517443 34.298904 28.404009 34.135967 27.163115 33.90379 C 27.035652 33.834549 26.82658 34.035679 26.82658 34.035679 C 26.940203 32.8055 27.053827 31.575325 27.174009 30.274155 C 28.512207 30.063889 29.718239 29.87439 31.168819 29.342781 Z"/>
    <path id="path16" fill="#828ae3" stroke="none" d="M 25.010443 34.194153 C 25.412691 34.141685 25.814938 34.089218 26.521883 34.036217 C 26.82658 34.035679 27.035652 33.834549 27.061882 34.162807 C 27.100903 34.676159 27.113693 34.861248 27.051931 35.28595 C 26.929647 35.685909 26.881918 35.846249 26.609573 36.22501 C 26.242945 37.262268 26.100927 38.081112 25.933159 39.068146 C 25.907406 39.236336 25.932789 39.575699 25.6385 39.604622 C 24.37295 39.515022 23.401688 39.396496 22.306837 39.17244 C 22.183249 39.06691 21.915676 38.882393 21.915676 38.882393 C 21.963615 37.859245 22.011555 36.836098 22.439869 35.423485 C 23.550308 34.754063 24.280376 34.47411 25.010443 34.194153 Z"/>
    <path id="path17" fill="#fdfcfc" stroke="none" d="M 45.015186 23.996128 C 45.409897 23.996758 45.804604 23.997391 46.495346 23.997898 C 46.849827 25.069405 46.908276 26.141029 46.717552 27.710823 C 46.253216 28.384472 46.096096 28.601902 45.613361 28.914909 C 44.198582 28.954353 43.167454 28.940155 42.083065 28.538651 C 42.066856 27.109795 42.103916 26.068237 42.465599 25.015469 C 43.531879 24.668209 44.273533 24.332169 45.015186 23.996128 Z"/>
    <path id="path18" fill="#fefefe" stroke="none" d="M 32.984154 23.995865 C 32.984154 23.995865 32.514149 24.002991 32.279182 24.0084 C 31.921165 21.78204 31.433441 19.268528 35.56395 19.995087 C 35.98243 19.990501 36.275387 19.985661 36.523609 20.36861 C 36.690598 21.834023 36.609364 22.916481 36.52813 23.99894 C 36.191685 23.9981 35.855244 23.997261 34.928047 23.997269 C 33.88625 23.99736 33.4352 23.996613 32.984154 23.995865 Z"/>
    <path id="path19" fill="#fefefd" stroke="none" d="M 57.021889 53.946426 C 57.021889 53.946426 57.010773 53.472015 57.005272 52.861725 C 57.008251 51.505157 57.016727 50.758873 57.420876 50.00766 C 58.874157 50.004234 59.931767 50.005741 61.192459 50.008282 C 61.395542 50.009315 61.801613 50.018383 61.801613 50.018383 C 61.851219 51.076118 61.900826 52.133858 61.671204 53.578644 C 61.391975 53.965694 60.994484 53.986851 60.59692 53.991966 C 59.140202 53.980194 58.081043 53.96331 57.021889 53.946426 Z"/>
    <path id="path20" fill="#fdfefd" stroke="none" d="M 61.808632 46.00684 C 61.856178 46.753227 61.903728 47.499619 61.673027 48.618378 C 61.394783 48.990753 60.988983 48.992676 60.592449 48.995506 C 59.138241 48.995121 58.080563 48.991901 57.014465 48.595268 C 57.018669 47.155499 57.031292 46.109131 57.436401 45.036613 C 58.877003 45.039455 59.925121 45.068447 61.070293 45.284668 C 61.326382 45.715797 61.540142 45.894112 61.808632 46.00684 Z"/>
    <path id="path21" fill="#fefefe" stroke="none" d="M 37.977386 13.995193 C 37.805321 13.993217 37.633255 13.991238 37.203117 13.985039 C 36.988987 11.815048 36.468555 9.189392 40.686264 10.264053 C 41.355976 10.74054 41.566784 10.901993 41.825569 11.000809 C 41.871494 11.754898 41.917423 12.50898 41.873241 13.631504 C 41.392284 13.998859 41.001434 13.997772 39.976112 13.996315 C 38.886887 13.995693 38.432137 13.995445 37.977386 13.995193 Z"/>
    <path id="path22" fill="#fc5140" stroke="none" d="M 67.174522 57.979248 C 67.126877 57.52898 67.079231 57.078712 67.335037 56.056229 C 68.425491 53.991322 69.212509 52.498631 70.000801 51.401756 C 70.27253 53.524723 70.542984 55.251873 70.813431 56.979027 C 70.850632 57.41053 70.88784 57.84203 70.533043 58.628967 C 69.721512 59.081577 69.301979 59.178749 68.882454 59.275921 C 68.882454 59.275921 68.894051 59.089951 68.800156 58.792469 C 68.195679 58.323074 67.685104 58.151161 67.174522 57.979248 Z"/>
    <path id="path23" fill="#f1f0ec" stroke="none" d="M 35.979145 55.016441 C 36.152973 55.016159 36.326801 55.015877 36.753601 55.412033 C 36.647648 58.974037 38.663658 59.159828 40.978638 59.236115 C 40.979485 59.67495 40.978497 59.850487 40.977505 60.026024 C 38.774574 59.888649 36.679428 59.892197 37.009209 63.449657 C 36.841339 63.884178 36.670959 63.932053 36.247425 63.519768 C 36.319038 59.835636 34.155846 59.910229 31.965469 60.020866 C 31.965469 60.020866 31.977232 60.084785 31.9856 59.820541 C 31.992828 59.372261 31.991692 59.188225 32.244884 59.001534 C 32.668648 58.996948 32.838081 58.995018 33.389961 58.984459 C 34.507988 57.656036 35.243568 56.336239 35.979145 55.016441 Z"/>
    <path id="path24" fill="#fefefe" stroke="none" d="M 61.05069 58.114502 C 61.050686 58.114502 61.000301 58.564461 60.990047 58.791409 C 60.979794 59.018356 61.001991 58.999786 60.606415 58.981606 C 59.153835 58.909527 58.09684 58.855629 57.02565 58.422775 C 57.013329 57.033298 57.015198 56.02277 57.017071 55.012245 C 57.017071 55.012245 57.000057 55.000057 57.405056 55.001457 C 58.866341 55.012482 59.922623 55.022102 60.986622 55.417099 C 61.013119 56.573147 61.031906 57.343826 61.05069 58.114502 Z"/>
    <path id="path25" fill="#fdfefd" stroke="none" d="M 31.982061 60.437771 C 34.155846 59.910229 36.319038 59.835636 35.991627 63.448788 C 33.579605 64.287132 31.387997 64.445 31.982061 60.437771 Z"/>
    <path id="path26" fill="#818ade" stroke="none" d="M 51.625984 35.776089 C 51.625984 35.776089 51.691322 35.32394 51.847374 35.15712 C 54.257969 34.907925 56.677689 34.619381 56.029388 38.609055 C 54.958736 39.075432 53.860893 39.126846 52.401352 39.130943 C 52.039646 39.083622 52.056713 38.953773 52.032761 38.553219 C 51.881203 37.360474 51.753593 36.568279 51.625984 35.776089 Z"/>
    <path id="path27" fill="#f9714e" stroke="none" d="M 56.002762 60.01178 C 55.997974 61.096905 55.993191 62.182022 55.980503 63.674026 C 53.605274 64.156319 51.305115 64.152802 51.925156 60.263367 C 51.885155 59.856056 51.971935 59.894238 52.374252 59.931557 C 53.851971 59.983173 54.927364 59.997478 56.002762 60.01178 Z"/>
    <path id="path28" fill="#fc6040" stroke="none" d="M 18.013193 64.00135 C 18.793804 64.318001 19.574415 64.634651 20.673782 65.319626 C 20.324839 66.77713 19.657137 67.866302 18.989435 68.955467 C 18.509596 68.957802 18.029758 68.960136 17.357468 68.859924 C 17.139929 68.364639 17.114845 67.971909 17.369656 67.054672 C 17.761013 65.686012 17.872475 64.84185 17.990604 63.998909 C 17.997272 64.00013 18.013193 64.00135 18.013193 64.00135 Z"/>
    <path id="path29" fill="#878be1" stroke="none" d="M 56.775436 42.827446 C 56.77483 42.105309 56.77422 41.383171 56.85836 40.307823 C 58.286972 40.697708 59.630829 41.440807 60.500847 42.591133 C 58.943146 42.941387 57.859291 42.884418 56.775436 42.827446 Z"/>
    <path id="path30" fill="#878be1" stroke="none" d="M 19.050512 43.823761 C 18.639565 43.870174 18.228615 43.916588 17.507921 43.945854 C 17.152262 43.499359 17.10635 43.070011 17.311028 42.197914 C 17.782799 41.543598 17.921753 41.287422 18.186216 40.725693 C 19.258327 40.313641 20.122704 40.162544 20.98856 40.345253 C 20.343527 41.727299 19.69702 42.775532 19.050512 43.823761 Z"/>
    <path id="path31" fill="#dc6a4e" stroke="none" d="M 7.973402 53.011097 C 7.981752 54.393528 7.990102 55.775959 8.000962 57.78582 C 8.003472 58.413246 8.001082 58.83849 8.001082 58.83849 C 7.839534 58.886372 7.677986 58.93425 7.267725 59.02755 C 6.766945 57.176216 6.514877 55.279465 6.851533 53.188854 C 7.617972 53.000366 7.795687 53.00573 7.973402 53.011097 Z"/>
    <path id="path32" fill="#f96048" stroke="none" d="M 69.999519 51.005943 C 69.212509 52.498631 68.425491 53.991322 67.406006 55.722191 C 67.759399 53.956577 65.02063 50.843773 69.574966 50.301708 C 69.995972 50.580093 69.999519 51.005943 69.999519 51.005943 Z"/>
    <path id="path33" fill="#e28367" stroke="none" d="M 19.300423 59.426903 C 21.034979 59.089661 23.072117 59.001759 25.789715 58.957077 C 26.638172 59.053394 26.806173 59.106495 26.985975 59.327721 C 26.997774 59.495846 27.02129 59.832108 27.02129 59.832108 C 27.02129 59.832108 26.559904 59.986359 26.320274 60.030647 C 23.921432 59.942043 21.762218 59.809147 19.300423 59.426903 Z"/>
    <path id="path34" fill="#e96851" stroke="none" d="M 11.899786 56.582657 C 11.548476 54.98904 11.272914 52.981731 10.996079 50.573563 C 11.321716 52.171455 11.648625 54.170208 11.899786 56.582657 Z"/>
    <path id="path35" fill="#e75047" stroke="none" d="M 70.000801 51.401756 C 69.999519 51.005943 69.995972 50.580093 69.989761 50.367256 C 70.311707 52.153992 70.639847 54.153568 70.890717 56.566086 C 70.542984 55.251873 70.27253 53.524723 70.000801 51.401756 Z"/>
    <path id="path36" fill="#c4c1d3" stroke="none" d="M 60.973236 45.097439 C 59.925121 45.068447 58.877003 45.039455 57.180691 45.008705 C 56.36171 44.994747 56.190926 44.982548 56.020142 44.970345 C 56.021893 44.802567 56.023647 44.634789 56.299786 44.219994 C 56.574169 43.972977 57.070305 43.944111 57.471577 43.959747 C 58.941082 43.952293 60.009319 43.929203 61.077553 43.906113 C 61.355942 44.10463 61.634327 44.303139 61.654575 44.771687 C 61.396435 45.041721 60.973236 45.097439 60.973236 45.097439 Z"/>
    <path id="path37" fill="#8885b8" stroke="none" d="M 20.987082 40.011444 C 20.122704 40.162544 19.258327 40.313641 17.983673 40.732121 C 17.573397 40.9995 17.167799 41.010216 17.167799 41.010216 C 18.483931 40.331257 19.80006 39.652294 21.515934 38.927864 C 21.915676 38.882393 22.183249 39.06691 22.202736 39.358425 C 22.222221 39.64994 21.971882 39.994091 21.725655 39.996902 C 21.479427 39.999718 20.987082 40.011444 20.987082 40.011444 Z"/>
    <path id="path38" fill="#dc6a4e" stroke="none" d="M 19.387821 68.971817 C 19.657137 67.866302 20.324839 66.77713 20.99052 65.345352 C 21.167017 65.004547 21.34553 65.006348 21.791334 65.024521 C 21.301151 66.356651 20.543678 67.672417 19.387821 68.971817 Z"/>
    <path id="path39" fill="#d1a5a5" stroke="none" d="M 42.13633 28.925957 C 43.167454 28.940155 44.198582 28.954353 45.820679 28.960686 C 46.411652 28.952827 46.835911 28.969231 46.835911 28.969231 C 46.883339 29.138832 46.930771 29.308426 47.019707 29.739479 C 47.061211 30.000931 47.060787 30.041901 46.792366 30.050564 C 46.348644 30.062317 46.173351 30.065414 45.749481 30.050079 C 45.500908 30.031658 45.003853 30.069748 44.630474 30.050465 C 43.50943 30.020821 42.761768 30.010464 41.942314 29.770466 C 41.870522 29.540833 41.705196 29.08889 41.815395 29.054554 C 41.925594 29.020218 42.13633 28.925957 42.13633 28.925957 Z"/>
    <path id="path40" fill="#d9cfbb" stroke="none" d="M 27.426434 59.908661 C 27.02129 59.832108 26.997774 59.495846 26.98539 59.22411 C 26.973005 58.952374 26.997314 58.746582 27.388779 58.836952 C 28.847862 58.925713 29.915483 58.924103 31.234581 58.950363 C 31.654224 58.986885 31.822388 58.995537 31.990553 59.004192 C 31.991692 59.188225 31.992828 59.372261 31.954395 59.829601 C 30.55374 60.063679 29.192659 60.024448 27.426434 59.908661 Z"/>
    <path id="path41" fill="#d5c5b4" stroke="none" d="M 47.44503 60.048615 C 47.012108 59.905689 46.976913 59.722591 47.360722 59.267204 C 48.832619 58.918228 49.885513 58.841545 51.22435 58.763863 C 51.696735 58.724091 51.883167 58.68531 52.071983 58.729973 C 52.074364 58.813416 51.999432 58.962605 51.956284 59.194572 C 51.913136 59.426544 51.971935 59.894238 51.971935 59.894238 C 51.971935 59.894238 51.885155 59.856056 51.835754 59.850723 C 50.471821 59.899746 49.157288 59.954094 47.44503 60.048615 Z"/>
    <path id="path42" fill="#ece4e0" stroke="none" d="M 61.39473 57.943787 C 61.031906 57.343826 61.013119 56.573147 60.993866 55.155594 C 60.993763 54.334763 60.994122 54.160805 60.994484 53.986851 C 60.994484 53.986851 61.391975 53.965694 61.590988 53.968651 C 61.772923 55.238758 61.755848 56.505917 61.39473 57.943787 Z"/>
    <path id="path43" fill="#dac8c6" stroke="none" d="M 70.979324 60.196236 C 71.375038 61.302959 71.770752 62.409687 72.166466 63.516411 C 71.830559 63.579247 71.494659 63.642082 71.158752 63.704918 C 71.112762 62.748074 71.066772 61.791233 71.029953 60.48587 C 71.039131 60.137352 70.979324 60.196236 70.979324 60.196236 Z"/>
    <path id="path44" fill="#df5f4d" stroke="none" d="M 57.23975 68.329926 C 57.906597 67.981491 58.644154 67.983421 59.750359 67.968323 C 60.383633 68.143097 60.648266 68.334908 60.884209 68.777306 C 59.673836 68.912025 58.492146 68.79615 57.23975 68.329926 Z"/>
    <path id="path45" fill="#8b84ca" stroke="none" d="M 61.034691 43.67104 C 60.009319 43.929203 58.941082 43.952293 57.399185 43.687325 C 56.84523 43.229118 56.764938 43.058975 56.68465 42.888832 C 56.68465 42.888832 56.71595 42.835056 56.745693 42.831253 C 57.859291 42.884418 58.943146 42.941387 60.431847 42.991154 C 60.836697 42.983948 60.991825 43.435966 61.034691 43.67104 Z"/>
    <path id="path46" fill="#8389c0" stroke="none" d="M 24.667999 34.111542 C 24.280376 34.47411 23.550308 34.754063 22.512699 35.045834 C 22.911955 34.714741 23.618755 34.371834 24.667999 34.111542 Z"/>
    <path id="path47" fill="#dc6a4e" stroke="none" d="M 22.376238 65.035889 C 22.817688 64.720528 23.607708 64.370804 24.748917 64.036057 C 24.308338 64.367874 23.516573 64.684708 22.376238 65.035889 Z"/>
    <path id="path48" fill="#df5f4d" stroke="none" d="M 7.983427 52.65506 C 7.795687 53.00573 7.617972 53.000366 7.173765 52.982338 C 7.051049 52.07056 7.194826 51.171444 7.677916 50.218575 C 8.009303 50.876217 8.001378 51.58762 7.983427 52.65506 Z"/>
    <path id="path49" fill="#f1cfc9" stroke="none" d="M 68.889847 59.489491 C 69.301979 59.178749 69.721512 59.081577 70.463699 58.948219 C 70.849792 59.120537 70.913223 59.329041 70.977982 59.86689 C 70.979324 60.196236 71.039131 60.137352 71.067398 60.108459 C 70.63839 60.056564 70.181114 60.033558 69.383591 60.057632 C 69.043327 60.104717 68.89724 59.70306 68.889847 59.489491 Z"/>
    <path id="path50" fill="#e75047" stroke="none" d="M 67.101227 58.211468 C 67.685104 58.151161 68.195679 58.323074 68.861427 58.72229 C 68.556656 58.999702 68.096725 59.049812 67.298355 59.012939 C 66.95993 58.925957 67.027924 58.443691 67.101227 58.211468 Z"/>
    <path id="path51" fill="#f2ece3" stroke="none" d="M 60.988983 48.992676 C 60.988983 48.992676 61.394783 48.990753 61.597572 48.986191 C 61.854744 49.154316 61.909119 49.327007 61.882553 49.759041 C 61.801613 50.018383 61.395542 50.009315 61.194939 49.754555 C 60.992554 49.330753 60.990768 49.161713 60.988983 48.992676 Z"/>
    <path id="path52" fill="#f0f0ef" stroke="none" d="M 46.906593 28.727875 C 46.835911 28.969231 46.411652 28.952827 46.204334 28.907051 C 46.096096 28.601902 46.253216 28.384472 46.645348 28.10849 C 46.873966 28.167503 46.925617 28.327011 46.906593 28.727875 Z"/>
    <path id="path53" fill="#f2f0ea" stroke="none" d="M 46.294739 64.009537 C 46.055008 63.756744 46.186859 63.483685 46.620224 63.133732 C 46.727577 63.315002 46.642441 63.625813 46.294739 64.009537 Z"/>
    <path id="path54" fill="#8d8cc9" stroke="none" d="M 17.112789 41.25935 C 17.167799 41.010216 17.573397 40.9995 17.77594 40.993073 C 17.921753 41.287422 17.782799 41.543598 17.377121 41.877892 C 17.147673 41.836567 17.102724 41.672523 17.112789 41.25935 Z"/>
    <path id="path55" fill="#f0f0ef" stroke="none" d="M 41.881664 10.730103 C 41.566784 10.901993 41.355976 10.74054 41.098679 10.338577 C 41.315395 10.260269 41.626579 10.359825 41.881664 10.730103 Z"/>
    <path id="path56" fill="#f0f0ef" stroke="none" d="M 46.863712 19.735039 C 46.552361 19.913055 46.343445 19.760391 46.093849 19.36689 C 46.309692 19.284233 46.614017 19.377003 46.863712 19.735039 Z"/>
    <path id="path57" fill="#f2ece3" stroke="none" d="M 61.070293 45.284668 C 60.973236 45.097439 61.396435 45.041721 61.609623 45.031906 C 61.872059 45.186947 61.921303 45.351799 61.889587 45.761742 C 61.540142 45.894112 61.326382 45.715797 61.070293 45.284668 Z"/>
    <path id="path58" fill="#f98275" stroke="none" d="M 47.162128 39.953167 C 47.939339 44.323715 44.409286 45.225189 41.337055 46.551273 C 40.458385 43.133106 38.86253 43.522556 36.907852 45.134369 C 35.729317 44.990108 34.550785 44.845852 33.17881 43.998276 C 32.992874 42.196587 33.000374 41.098217 33.365219 39.997055 C 34.84494 39.651089 35.967316 39.307919 37.458244 38.9515 C 38.561478 38.888058 39.296162 38.837856 40.289314 38.883682 C 40.718414 39.048054 40.889046 39.116409 41.333817 39.428566 C 43.343887 39.799877 45.079819 39.927387 46.900421 40.022919 C 46.985092 39.99094 47.162128 39.953167 47.162128 39.953167 Z"/>
    <path id="path59" fill="#fdfdfc" stroke="none" d="M 31.825203 44.038006 C 31.419483 44.024841 31.013765 44.011677 29.929604 43.999969 C 28.504343 43.995544 27.757524 43.989662 27.006783 43.5867 C 27.003 42.128124 27.003139 41.066635 26.992733 40.001923 C 26.982189 39.998699 26.97559 39.977631 27.381241 39.985878 C 28.867601 40.003452 29.948309 40.012779 31.161234 40.03508 C 31.293451 40.048058 31.559015 40.056683 31.65918 40.444168 C 31.781296 41.900436 31.803249 42.969223 31.825203 44.038006 Z"/>
    <path id="path60" fill="#f7836d" stroke="none" d="M 36.890266 45.548096 C 38.86253 43.522556 40.458385 43.133106 41.01968 46.716431 C 41.030567 47.531796 41.021618 47.966293 40.620827 48.784409 C 39.136398 49.204678 38.043812 49.241325 36.951225 49.277977 C 36.925045 48.172592 36.898865 47.067211 36.890266 45.548096 Z"/>
    <path id="path61" fill="#fdfefd" stroke="none" d="M 36.973305 49.665787 C 38.043812 49.241325 39.136398 49.204678 40.636528 49.110226 C 41.044071 49.052425 41.029713 49.011993 40.980011 49.274929 C 40.94194 49.707054 40.953568 49.876244 40.976967 50.436729 C 40.986607 51.86945 40.984478 52.910877 40.982346 53.952301 C 39.925289 53.966003 38.868237 53.97971 37.415581 53.979496 C 37.01178 52.661583 37.003582 51.357586 36.973305 49.665787 Z"/>
    <path id="path62" fill="#fdfdfc" stroke="none" d="M 21.971882 39.994091 C 21.971882 39.994091 22.222221 39.64994 22.326324 39.463959 C 23.401688 39.396496 24.37295 39.515022 25.639172 39.729763 C 25.934134 39.825977 25.969149 40.070442 25.981419 40.460083 C 25.992689 41.895222 25.99169 42.940716 25.659964 43.992027 C 24.888304 43.999779 24.447369 44.001709 24.006435 44.003639 C 23.561781 43.998886 23.117126 43.994133 22.357693 43.592854 C 22.019238 42.128914 21.99556 41.061504 21.971882 39.994091 Z"/>
    <path id="path63" fill="#e37e75" stroke="none" d="M 32.110641 44.030823 C 31.803249 42.969223 31.781296 41.900436 31.723913 40.166065 C 31.644367 39.315506 31.600252 39.130531 31.657085 38.626995 C 31.846695 37.872112 31.93536 37.435791 32.264351 36.998726 C 32.504677 36.997974 32.985329 36.99604 32.990555 37.371544 C 32.999813 38.497982 33.003845 39.248913 33.007874 39.999847 C 33.000374 41.098217 32.992874 42.196587 32.97216 43.707474 C 32.771324 44.087879 32.583702 44.055759 32.110641 44.030823 Z"/>
    <path id="path64" fill="#ece9e8" stroke="none" d="M 24.25058 44.278904 C 24.447369 44.001709 24.888304 43.999779 25.915068 43.994392 C 26.670832 43.988556 26.840767 43.986172 27.010704 43.983784 C 27.757524 43.989662 28.504343 43.995544 29.624523 44.001312 C 28.163496 44.18552 26.329111 44.369846 24.25058 44.278904 Z"/>
    <path id="path65" fill="#8d8cc9" stroke="none" d="M 21.725655 39.996902 C 21.99556 41.061504 22.019238 42.128914 22.024197 43.596233 C 21.264183 43.978088 20.522886 43.960037 19.41605 43.882874 C 19.69702 42.775532 20.343527 41.727299 20.98856 40.345253 C 20.987082 40.011444 21.479427 39.999718 21.725655 39.996902 Z"/>
    <path id="path66" fill="#ece9e8" stroke="none" d="M 40.989651 54.214287 C 40.984478 52.910877 40.986607 51.86945 41.230652 50.417099 C 41.641582 49.995255 41.8106 49.984337 41.979614 49.973419 C 41.998882 51.55822 41.758873 52.98172 44.273357 51.578346 C 46.734802 50.204575 48.704071 51.054184 48.663322 54.61684 C 47.899769 55.005375 47.460407 55.010307 46.760235 55.011219 C 46.325855 55.00975 46.152287 55.012302 45.585777 55.009048 C 44.144447 55.007454 43.09605 55.011658 41.786072 55.009354 C 41.350044 55.002037 41.175606 55.001232 41.001167 55.000431 C 40.999763 54.82571 40.99836 54.65099 40.989651 54.214287 Z"/>
    <path id="path67" fill="#fdfefd" stroke="none" d="M 47.021042 55.015244 C 47.460407 55.010307 47.899769 55.005375 48.66861 54.998337 C 49.43615 54.999874 49.874214 55.00351 50.65028 55.012199 C 50.988281 55.017246 50.982052 55.030899 50.988449 55.405663 C 50.976032 56.775242 50.957218 57.77005 50.938404 58.764862 C 49.885513 58.841545 48.832619 58.918228 47.380295 58.988216 C 46.980865 58.981522 46.997974 58.998207 46.996807 58.595108 C 47.004108 57.133087 47.012577 56.074165 47.021042 55.015244 Z"/>
    <path id="path68" fill="#fefefe" stroke="none" d="M 54.989819 54.991268 C 54.989819 54.991268 55.46616 55.002556 55.727989 55.386513 C 55.979698 56.781693 55.969582 57.792919 55.568165 58.871056 C 54.117722 58.946182 53.058578 58.954395 51.999432 58.962608 C 51.999432 58.962605 52.074364 58.813416 52.048233 58.372234 C 52.023479 56.965672 52.02486 56.000294 52.396709 55.023319 C 53.508057 55.004906 54.248936 54.998089 54.989819 54.991268 Z"/>
    <path id="path69" fill="#e7e5de" stroke="none" d="M 56.012306 45.402885 C 56.190926 44.982548 56.36171 44.994747 56.788204 45.034859 C 57.031292 46.109131 57.018669 47.155499 57.009621 48.851387 C 57.0172 49.671471 57.021202 49.842033 57.0252 50.012592 C 57.016727 50.758873 57.008251 51.505157 56.99913 52.624538 C 56.667145 50.610233 56.335804 48.222832 56.012306 45.402885 Z"/>
    <path id="path70" fill="#ece9e8" stroke="none" d="M 60.59692 53.991966 C 60.994122 54.160805 60.993763 54.334763 60.986153 54.770222 C 59.922623 55.022102 58.866341 55.012482 57.414474 55.008495 C 57.013474 54.836544 57.008053 54.658955 57.01226 54.213898 C 58.081043 53.96331 59.140202 53.980194 60.59692 53.991966 Z"/>
    <path id="path71" fill="#e9e9e4" stroke="none" d="M 54.779499 54.729897 C 54.248936 54.998089 53.508057 55.004906 52.135532 55.017502 C 51.329948 55.025818 51.156002 55.028358 50.982052 55.030899 C 50.982052 55.030899 50.988281 55.017246 50.978771 55.016968 C 52.169235 54.833969 53.369205 54.651245 54.779499 54.729897 Z"/>
    <path id="path72" fill="#ece4e0" stroke="none" d="M 55.959461 58.804142 C 55.969582 57.792919 55.979698 56.781693 55.966164 55.391945 C 56.121498 55.007641 56.300484 55.001858 56.748268 55.004162 C 57.015198 56.02277 57.013329 57.033298 56.7556 58.475349 C 56.319645 58.872627 56.139553 58.838383 55.959461 58.804142 Z"/>
    <path id="path73" fill="#ece9e8" stroke="none" d="M 47.167477 38.972416 C 48.161777 38.976673 49.156075 38.98093 50.566704 39.221073 C 51.003387 39.628696 51.023743 39.800426 51.044098 39.97216 C 50.007046 39.977802 48.969997 39.983444 47.547539 39.971123 C 47.162128 39.953167 46.985092 39.99094 46.98922 39.752533 C 47.051388 39.333557 47.109432 39.152985 47.167477 38.972416 Z"/>
    <path id="path74" fill="#c5cbdf" stroke="none" d="M 51.242615 39.897148 C 51.023743 39.800426 51.003387 39.628696 50.938972 39.200699 C 50.894905 38.944435 50.97974 38.955528 51.265297 38.97353 C 51.719475 38.978947 51.888092 38.966358 52.056713 38.953773 C 52.056713 38.953773 52.039646 39.083622 51.989662 39.127598 C 51.882652 39.472073 51.716473 39.688927 51.242615 39.897148 Z"/>
    <path id="path75" fill="#b0afd3" stroke="none" d="M 56.516716 43.023304 C 56.764938 43.058975 56.84523 43.229118 56.99791 43.671684 C 57.070305 43.944111 56.574169 43.972977 56.32637 43.969711 C 56.081532 43.667744 56.1716 43.398186 56.516716 43.023304 Z"/>
    <path id="path76" fill="#f1d3cd" stroke="none" d="M 41.88015 49.757423 C 41.8106 49.984337 41.641582 49.995255 41.21888 50.025803 C 40.953568 49.876244 40.94194 49.707054 40.9632 49.285622 C 41.322815 49.102085 41.584347 49.271435 41.88015 49.757423 Z"/>
    <path id="path77" fill="#e37757" stroke="none" d="M 17.124416 61.382061 C 17.464859 61.79068 17.732924 62.570984 18.007092 63.676315 C 18.013193 64.00135 17.997272 64.00013 17.784973 64.001938 C 17.572674 64.003738 17.161066 64.012138 17.161066 64.012138 C 17.124723 63.259338 17.088383 62.506542 17.124416 61.382061 Z"/>
    <path id="path78" fill="#dc6a4e" stroke="none" d="M 17.09787 64.383026 C 17.161066 64.012138 17.572674 64.003738 17.778305 64.000717 C 17.872475 64.84185 17.761013 65.686012 17.427525 66.764008 C 17.148556 66.249863 17.091616 65.501892 17.09787 64.383026 Z"/>
    <path id="path79" fill="#e96851" stroke="none" d="M 8.331303 58.902126 C 8.001082 58.83849 8.003472 58.413246 8.006939 58.200516 C 8.546227 58.123077 9.082048 58.258377 9.804522 58.603264 C 9.547956 58.863827 9.104739 58.914795 8.331303 58.902126 Z"/>
    <path id="path80" fill="#e27c5e" stroke="none" d="M 55.568165 58.871056 C 56.139553 58.838383 56.319645 58.872627 56.769791 58.854301 C 58.09684 58.855629 59.153835 58.909527 60.608665 58.968765 C 60.997108 59.153412 60.987717 59.332722 60.90456 59.771282 C 59.490936 60.020802 58.151073 60.01107 56.40699 60.006561 C 54.927364 59.997478 53.851971 59.983173 52.374252 59.931557 C 51.971935 59.894238 51.913136 59.426544 51.956284 59.194576 C 53.058578 58.954395 54.117722 58.946182 55.568165 58.871056 Z"/>
    <path id="path81" fill="#fefefe" stroke="none" d="M 42.047653 55.015858 C 43.09605 55.011658 44.144447 55.007454 45.595451 55.4067 C 45.987568 56.874023 45.977081 57.937901 45.966591 59.001774 C 45.966591 59.001774 45.493294 58.999043 44.881271 58.998432 C 43.520454 58.989079 42.77166 58.980331 42.012222 58.575802 C 42.016941 57.125298 42.032299 56.07058 42.047653 55.015858 Z"/>
    <path id="path82" fill="#e8e6e4" stroke="none" d="M 41.786072 55.009354 C 42.032299 56.07058 42.016941 57.125298 42.00885 58.840134 C 42.018509 59.676247 42.020905 59.852249 42.0233 60.028255 C 41.960594 60.745285 41.897888 61.462315 41.835182 62.17934 C 41.661812 62.186077 41.488438 62.19281 41.315063 62.199543 C 41.211063 61.676147 41.107067 61.152748 40.990288 60.327686 C 40.978497 59.850487 40.979485 59.67495 40.991127 58.84108 C 40.995106 57.127407 40.988426 56.072075 40.98175 55.016743 C 40.98175 55.016743 40.99176 55.007664 40.996464 55.004047 C 41.175606 55.001232 41.350044 55.002037 41.786072 55.009354 Z"/>
    <path id="path83" fill="#f2f0ea" stroke="none" d="M 46.221161 59.004646 C 45.977081 57.937901 45.987568 56.874023 45.988388 55.412498 C 46.152287 55.012302 46.325855 55.00975 46.760235 55.011215 C 47.012577 56.074165 47.004108 57.133087 46.990036 58.588837 C 46.814865 58.992943 46.645298 59.000229 46.221161 59.004646 Z"/>
    <path id="path84" fill="#f2f0ea" stroke="none" d="M 42.360397 60.016815 C 42.020905 59.852249 42.018509 59.676247 42.019493 59.235916 C 42.77166 58.980331 43.520454 58.989079 44.644627 58.996784 C 44.245834 59.332291 43.471664 59.668835 42.360397 60.016815 Z"/>
    <path id="path85" fill="#faf0ed" stroke="none" d="M 26.973591 59.055984 C 26.806173 59.106495 26.638172 59.053394 26.223558 58.904213 C 25.984392 57.79776 25.991842 56.787384 25.994671 55.39613 C 26.161455 55.015411 26.332861 55.015579 26.75416 55.395348 C 27.001806 56.765491 26.999559 57.756039 26.997314 58.746582 C 26.997314 58.746582 26.973005 58.952374 26.973591 59.055984 Z"/>
    <path id="path86" fill="#f97a71" stroke="none" d="M 47.104599 38.580269 C 47.109432 39.152985 47.051388 39.333557 46.904549 39.784515 C 45.079819 39.927387 43.343887 39.799877 41.287018 39.371025 C 40.966076 39.069687 40.930256 38.9268 41.272476 38.704727 C 41.712952 35.637802 41.811211 32.792953 41.936768 29.958824 C 41.964058 29.969536 42.014103 30.000103 42.014103 30.000103 C 42.761768 30.010464 43.50943 30.020821 44.722305 30.203896 C 45.457695 30.273911 45.727875 30.171204 45.998055 30.068504 C 46.173351 30.065414 46.348644 30.062317 46.78669 30.07045 C 47.0504 31.123077 47.051361 32.164486 47.067719 33.852562 C 47.111881 34.673531 47.140656 34.847824 47.169434 35.022121 C 47.126858 36.077457 47.08429 37.13279 47.104599 38.580269 Z"/>
    <path id="path87" fill="#bbbbd1" stroke="none" d="M 52.032761 38.553219 C 51.888092 38.966358 51.719475 38.978947 51.297787 39.00135 C 51.115326 38.120003 51.185932 37.228836 51.441261 36.056877 C 51.753593 36.568279 51.881203 37.360474 52.032761 38.553219 Z"/>
    <path id="path88" fill="#f1f0ec" stroke="none" d="M 47.457138 35.014107 C 47.140656 34.847824 47.111881 34.673531 47.129124 34.238235 C 47.798454 34.033916 48.421776 34.090595 50.46442 34.27634 C 48.674335 34.756676 48.209587 34.881382 47.457138 35.014107 Z"/>
    <path id="path89" fill="#9ca3d5" stroke="none" d="M 42.140972 25.026688 C 42.103916 26.068237 42.066856 27.109795 42.083065 28.538651 C 42.13633 28.925957 41.925594 29.020218 41.634995 29.028305 C 41.344395 29.036392 40.978355 28.996014 40.98629 28.595161 C 40.980007 27.125702 40.965794 26.057098 40.969486 24.590477 C 40.979259 23.129902 40.971127 22.067345 40.980923 20.731441 C 41.013885 20.2761 41.028915 20.094101 41.043949 19.912102 C 41.210331 19.871971 41.376713 19.831841 41.799141 19.766968 C 42.053123 20.873219 42.051064 22.004211 42.064899 23.816124 C 42.100857 24.673592 42.120914 24.85014 42.140972 25.026688 Z"/>
    <path id="path90" fill="#7480d1" stroke="none" d="M 40.600044 19.863247 C 41.028915 20.094101 41.013885 20.2761 40.601593 20.739456 C 39.471848 22.346092 38.739357 23.671371 38.003632 24.998215 C 38.000401 24.999775 37.998558 24.999603 37.749413 24.999527 C 37.500267 24.999451 37.001976 25.000732 37.001976 25.000732 C 36.92326 24.83374 36.84454 24.666756 36.646976 24.249352 C 36.609364 22.916481 36.690598 21.834023 36.669357 20.353821 C 37.763302 19.908848 38.959724 19.861618 40.600044 19.863247 Z"/>
    <path id="path91" fill="#f0f0ef" stroke="none" d="M 38.126377 14.224854 C 38.432137 13.995445 38.886887 13.995693 39.682976 13.995487 C 39.441334 14.148193 38.858353 14.30135 38.126377 14.224854 Z"/>
    <path id="path92" fill="#8188d6" stroke="none" d="M 36.945793 25.395916 C 37.001976 25.000732 37.500267 24.999451 37.749962 25.399582 C 38.000599 26.865326 38.001541 27.930939 38.00132 28.998238 C 38.000153 28.999924 37.999737 29.000153 37.749809 29.000137 C 37.333176 29.001362 37.166473 29.002602 36.928062 29.010246 C 36.856354 29.016647 36.718521 28.974998 36.718521 28.974998 C 36.775551 27.9137 36.832581 26.852402 36.945793 25.395916 Z"/>
    <path id="path93" fill="#d09e9c" stroke="none" d="M 31.958996 30.015999 C 31.874071 29.847443 31.789145 29.678886 31.593716 29.249748 C 32.702591 29.007469 33.92197 29.025764 35.590336 29.340057 C 36.039322 29.636055 36.033398 30.105587 36.010685 30.127407 C 35.987972 30.149227 35.943317 30.195206 35.583313 30.123913 C 34.488995 30.062054 33.754673 30.071487 32.755272 30.060486 C 32.313126 30.032032 32.136063 30.024017 31.958996 30.015999 Z"/>
    <path id="path94" fill="#f0f0ef" stroke="none" d="M 33.131714 24.224358 C 33.4352 23.996613 33.88625 23.99736 34.675713 23.99715 C 34.435848 24.148415 33.857559 24.300632 33.131714 24.224358 Z"/>
    <path id="path95" fill="#c77b8e" stroke="none" d="M 36.033398 30.105587 C 36.033398 30.105587 36.039322 29.636055 36.042862 29.401768 C 36.046406 29.167484 36.371151 29.026211 36.544838 29.000607 C 36.718521 28.974998 36.856354 29.016647 36.927147 29.258785 C 36.99976 29.667885 37.001575 29.834854 36.89571 30.019562 C 36.788029 30.0373 36.57386 29.995201 36.442009 30.038776 C 36.310154 30.082355 36.033398 30.105587 36.033398 30.105587 Z"/>
    <path id="path96" fill="#fefefe" stroke="none" d="M 40.585842 55.008736 C 40.988426 56.072075 40.995106 57.127407 40.989292 58.577778 C 38.663658 59.159828 36.647648 58.974037 37.014343 55.413021 C 38.078053 55.011959 39.133991 55.006344 40.585842 55.008736 Z"/>
    <path id="path97" fill="#fdfdfc" stroke="none" d="M 27.388779 58.836952 C 26.999559 57.756039 27.001806 56.765491 27.011192 55.401588 C 28.077909 55.019596 29.137486 55.010963 30.597935 55.399685 C 30.993572 56.838856 30.988338 57.880676 30.983105 58.922493 C 29.915483 58.924103 28.847862 58.925713 27.388779 58.836952 Z"/>
    <path id="path98" fill="#fefefe" stroke="none" d="M 35.608059 55.008575 C 35.243568 56.336239 34.507988 57.656036 33.386982 58.586555 C 33.003757 57.135593 33.005962 56.073914 33.008167 55.012234 C 33.751102 55.008392 34.494038 55.004547 35.608059 55.008575 Z"/>
    <path id="path99" fill="#f6f5f3" stroke="none" d="M 32.672241 55.008633 C 33.005962 56.073914 33.003757 57.135593 33.004532 58.595181 C 32.838081 58.995018 32.668648 58.996948 32.244884 59.001534 C 31.822388 58.995537 31.654224 58.986885 31.234581 58.950363 C 30.988338 57.880676 30.993572 56.838856 30.995655 55.404739 C 31.440441 55.009968 31.888378 55.0075 32.672241 55.008633 Z"/>
    <path id="path100" fill="#f0f0ef" stroke="none" d="M 42.465599 25.015469 C 42.120914 24.85014 42.100857 24.673592 42.116608 24.232754 C 42.867413 23.978275 43.582413 23.988091 44.656296 23.997017 C 44.273533 24.332169 43.531879 24.668209 42.465599 25.015469 Z"/>
    <path id="path101" fill="#fdfcfc" stroke="none" d="M 32.024025 36.999474 C 31.93536 37.435791 31.846695 37.872112 31.525497 38.631493 C 31.292963 38.954556 31.029385 38.98 30.643087 38.985737 C 29.234543 38.968426 28.212296 38.945377 27.107826 38.924011 C 27.025602 38.92569 26.891233 39.02055 26.93042 38.644112 C 26.924469 37.513977 26.879328 36.760284 26.834187 36.006592 C 26.881918 35.846249 26.929647 35.685909 27.446489 35.269554 C 28.976496 34.995312 30.037392 34.977089 31.098286 34.958862 C 31.098286 34.958862 31.311708 34.977169 31.539459 35.311245 C 31.852814 36.096706 31.938419 36.548088 32.024025 36.999474 Z"/>
    <path id="path102" fill="#df7471" stroke="none" d="M 32.264351 36.998726 C 31.938419 36.548088 31.852814 36.096706 31.645981 35.32238 C 31.63871 33.614918 31.752665 32.230392 31.912807 30.430935 C 32.136063 30.024017 32.313126 30.032032 32.749878 30.292526 C 33.00956 30.544998 33.010406 31.010712 33.006256 31.43819 C 32.99651 33.57579 32.990921 35.285915 32.985329 36.99604 C 32.985329 36.99604 32.504677 36.997974 32.264351 36.998726 Z"/>
    <path id="path103" fill="#f1f0ec" stroke="none" d="M 30.86458 34.710354 C 30.037392 34.977089 28.976496 34.995312 27.521044 35.029938 C 27.113693 34.861248 27.100903 34.676159 27.189342 34.232048 C 28.404009 34.135967 29.517443 34.298904 30.86458 34.710354 Z"/>
    <path id="path104" fill="#8f95c7" stroke="none" d="M 26.609573 36.22501 C 26.879328 36.760284 26.924469 37.513977 26.696426 38.622322 C 26.423246 38.976974 25.958912 38.899952 25.958912 38.899952 C 26.100927 38.081112 26.242945 37.262268 26.609573 36.22501 Z"/>
    <path id="path105" fill="#c2c4df" stroke="none" d="M 25.933159 39.068146 C 25.958912 38.899952 26.423246 38.976974 26.65724 38.998764 C 26.891233 39.02055 27.025602 38.92569 27.038942 39.185226 C 27.026716 39.622387 27.001152 39.800007 26.97559 39.977631 C 26.97559 39.977631 26.982189 39.998699 26.733555 40.008423 C 26.312996 40.035576 26.141071 40.053009 25.969149 40.070442 C 25.969149 40.070442 25.934134 39.825977 25.93346 39.700836 C 25.932789 39.575699 25.907406 39.236336 25.933159 39.068146 Z"/>
    <path id="path106" fill="#f6f5f3" stroke="none" d="M 57.420876 50.00766 C 57.021202 49.842033 57.0172 49.671471 57.018044 49.244797 C 58.080563 48.991901 59.138241 48.995121 60.592449 48.995506 C 60.990768 49.161713 60.992554 49.330753 60.991856 49.753525 C 59.931767 50.005741 58.874157 50.004234 57.420876 50.00766 Z"/>
    <path id="path107" fill="#7480d1" stroke="none" d="M 40.978355 28.996014 C 40.978355 28.996014 41.344395 29.036392 41.524796 29.062645 C 41.705196 29.08889 41.870522 29.540833 41.942314 29.770466 C 42.014103 30.000103 41.964058 29.969536 41.699432 29.961891 C 41.434803 29.954239 40.960815 29.99535 40.590694 29.99641 C 39.480328 29.998379 38.740082 29.99929 37.999821 29.750187 C 37.999783 29.3335 37.99976 29.166824 37.999737 29.000153 C 37.999737 29.000153 38.000153 28.999924 38.37368 29.000263 C 39.490925 28.999073 40.234642 28.997543 40.978355 28.996014 Z"/>
    <path id="path108" fill="#ed7b76" stroke="none" d="M 45.749481 30.050079 C 45.727875 30.171204 45.457695 30.273911 45.095684 30.223179 C 45.003853 30.069748 45.500908 30.031658 45.749481 30.050079 Z"/>
    <path id="path109" fill="#faf0ed" stroke="none" d="M 50.988449 55.405663 C 51.156002 55.028358 51.329948 55.025818 51.765068 55.029099 C 52.02486 56.000294 52.023479 56.965672 52.045853 58.288795 C 51.883167 58.68531 51.696735 58.724091 51.22435 58.763863 C 50.957218 57.77005 50.976032 56.775242 50.988449 55.405663 Z"/>
    <path id="path110" fill="#fa7770" stroke="none" d="M 32.990555 37.371544 C 32.990921 35.285915 32.99651 33.57579 33.328693 31.43362 C 34.417961 30.732784 35.180641 30.463997 35.943317 30.195206 C 35.943317 30.195206 35.987972 30.149227 36.010685 30.127407 C 36.033398 30.105587 36.310154 30.082355 36.55555 30.433952 C 36.783672 31.874924 36.766399 32.964294 36.609634 34.128746 C 36.287682 34.539669 36.378483 34.783459 36.790909 35.3372 C 36.922741 36.814384 37.006218 37.889565 37.089695 38.964745 C 35.967316 39.307919 34.84494 39.651089 33.365219 39.997055 C 33.003845 39.248913 32.999813 38.497982 32.990555 37.371544 Z"/>
    <path id="path111" fill="#828ae3" stroke="none" d="M 37.458244 38.9515 C 37.006218 37.889565 36.922741 36.814384 36.894154 35.384102 C 36.949039 35.028999 37.175732 35.036224 37.311028 34.926178 C 37.49427 34.710926 37.610424 34.569981 37.577499 34.507137 C 37.474586 34.310726 37.315372 34.143814 37.066292 33.965771 C 36.954609 33.966068 36.749126 34.053669 36.749126 34.053669 C 36.766399 32.964294 36.783672 31.874924 36.687405 30.390373 C 36.57386 29.995201 36.788029 30.0373 37.143974 30.018898 C 37.499916 30.000496 37.999836 30.000198 37.999836 30.000198 C 38.740082 29.99929 39.480328 29.998379 40.606476 30.44062 C 40.962116 33.252796 40.931858 35.621819 40.720116 38.080608 C 40.308453 38.326031 40.139191 38.531792 40.030849 38.787659 C 39.296162 38.837856 38.561478 38.888058 37.458244 38.9515 Z"/>
    <path id="path112" fill="#878be1" stroke="none" d="M 40.289314 38.883682 C 40.139191 38.531792 40.308453 38.326031 40.741928 38.314232 C 40.945221 38.458092 40.930256 38.9268 40.930256 38.9268 C 40.930256 38.9268 40.966076 39.069687 41.012878 39.127228 C 40.889046 39.116409 40.718414 39.048054 40.289314 38.883682 Z"/>
    <path id="path113" fill="#f6f5f3" stroke="none" d="M 25.981419 40.460083 C 26.141071 40.053009 26.312996 40.035576 26.744099 40.011642 C 27.003139 41.066635 27.003 42.128124 27.006783 43.5867 C 26.840767 43.986172 26.670832 43.988556 26.245794 43.988571 C 25.99169 42.940716 25.992689 41.895222 25.981419 40.460083 Z"/>
    <path id="path114" fill="#ece9e8" stroke="none" d="M 27.381241 39.985878 C 27.001152 39.800007 27.026716 39.622387 27.121166 39.183548 C 28.212296 38.945377 29.234543 38.968426 30.638844 39.246407 C 31.023602 39.674923 31.026308 39.848515 31.029016 40.022106 C 29.948309 40.012779 28.867601 40.003452 27.381241 39.985878 Z"/>
    <path id="path115" fill="#f1f0ec" stroke="none" d="M 31.161234 40.03508 C 31.026308 39.848515 31.023602 39.674923 31.025141 39.240669 C 31.029385 38.98 31.292963 38.954556 31.424551 38.950058 C 31.600252 39.130531 31.644367 39.315506 31.623749 39.77858 C 31.559015 40.056683 31.293451 40.048058 31.161234 40.03508 Z"/>
    <path id="path116" fill="#a881a8" stroke="none" d="M 41.272476 38.704727 C 40.930256 38.9268 40.945221 38.458092 40.923409 38.224464 C 40.931858 35.621819 40.962116 33.252796 40.976597 30.43956 C 40.960815 29.99535 41.434803 29.954239 41.672138 29.951172 C 41.811211 32.792953 41.712952 35.637802 41.272476 38.704727 Z"/>
    <path id="path117" fill="#7c86e5" stroke="none" d="M 40.98629 28.595161 C 40.234642 28.997543 39.490925 28.999073 38.374847 28.998581 C 38.001541 27.930939 38.000599 26.865326 37.999107 25.399658 C 37.998558 24.999603 38.000401 24.999775 38.372108 24.999233 C 39.47974 24.995293 40.21566 24.99189 40.95158 24.988487 C 40.965794 26.057098 40.980007 27.125702 40.98629 28.595161 Z"/>
    <path id="path118" fill="#7282e4" stroke="none" d="M 40.969486 24.590477 C 40.21566 24.99189 39.47974 24.995293 38.375343 24.997673 C 38.739357 23.671371 39.471848 22.346092 40.583664 21.012794 C 40.971127 22.067345 40.979259 23.129902 40.969486 24.590477 Z"/>
    <path id="path119" fill="#8b84ca" stroke="none" d="M 37.999821 29.750187 C 37.999836 30.000198 37.499916 30.000496 37.251656 30.00116 C 37.001575 29.834854 36.99976 29.667885 36.998856 29.25238 C 37.166473 29.002602 37.333176 29.001362 37.749809 29.000137 C 37.99976 29.166824 37.999783 29.3335 37.999821 29.750187 Z"/>
    <path id="path120" fill="#ed726a" stroke="none" d="M 35.583313 30.123913 C 35.180641 30.463997 34.417961 30.732784 33.332848 31.006142 C 33.010406 31.010712 33.00956 30.544998 33.014957 30.312958 C 33.754673 30.071487 34.488995 30.062054 35.583313 30.123913 Z"/>
    <path id="path121" fill="#c77b8e" stroke="none" d="M 36.845795 34.982098 C 36.378483 34.783459 36.287682 34.539669 36.609634 34.128746 C 36.749126 34.053669 36.954609 33.966068 37.025238 34.233452 C 37.122482 34.679302 37.149105 34.857761 37.175732 35.036224 C 37.175732 35.036224 36.949039 35.028999 36.845795 34.982098 Z"/>
    <path id="path122" fill="#8b84ca" stroke="none" d="M 37.311028 34.926178 C 37.149105 34.857761 37.122482 34.679302 37.136921 34.233154 C 37.315372 34.143814 37.474586 34.310726 37.577499 34.507137 C 37.610424 34.569981 37.49427 34.710926 37.311028 34.926178 Z"/>
</svg>
